<?xml version="1.0" encoding="utf-8"?>
<!-- Generator: Adobe Illustrator 16.0.4, SVG Export Plug-In . SVG Version: 6.00 Build 0)  -->
<!DOCTYPE svg PUBLIC "-//W3C//DTD SVG 1.1//EN" "http://www.w3.org/Graphics/SVG/1.1/DTD/svg11.dtd">
<svg version="1.1" id="Layer_1" xmlns="http://www.w3.org/2000/svg" xmlns:xlink="http://www.w3.org/1999/xlink" x="0px" y="0px"
	 width="102.976px" height="102.977px" viewBox="0 0 102.976 102.977" enable-background="new 0 0 102.976 102.977"
	 xml:space="preserve">
<g>
	<radialGradient id="SVGID_1_" cx="25.0015" cy="30.5781" r="51.4881" gradientUnits="userSpaceOnUse">
		<stop  offset="0" style="stop-color:#C96735"/>
		<stop  offset="1" style="stop-color:#C65D2A"/>
	</radialGradient>
	<rect fill="url(#SVGID_1_)" width="102.976" height="102.977"/>
	<g opacity="0.3">
		<g>
			<path fill="#353535" d="M57.354,61.307l1.788-0.001l1.584-1.603c0.086-0.087,0.477-0.156,0.871-0.156l9.207-0.003
				c0.396,0,0.652,0.07,0.571,0.157l-1.498,1.603h1.786c0.616,0,1.216-0.108,1.338-0.241l1.92-2.086
				c0.122-0.133-0.272-0.24-0.881-0.24l-14.127,0.004c-0.609,0-1.209,0.107-1.343,0.24l-2.091,2.086
				C56.346,61.2,56.736,61.307,57.354,61.307z"/>
			<path fill="#353535" d="M90.104,62.14l-51.578,0.011c-2.173,0-4.625,0.624-5.476,1.394L21.572,73.917
				c-0.852,0.77,0.334,1.394,2.649,1.394h54.949c2.315,0,4.697-0.624,5.322-1.395l8.415-10.383
				C93.532,62.763,92.277,62.139,90.104,62.14z M54.74,71.4L54.74,71.4l-0.026,0.006l-4.922-2.519l1.71-0.438l3.451,1.774
				l5.026-5.202h1.772l-4.977,5.197l6.865-1.775l0.867,0.438L54.74,71.4z"/>
			<polygon fill="#353535" points="55.559,70.53 55.603,70.519 55.537,70.519 			"/>
		</g>
	</g>
	<g>
		<path fill="#FFFFFF" d="M43.388,32.703H45.3v-4.82c0-0.26,0.347-0.47,0.773-0.47h9.937c0.428,0,0.774,0.21,0.774,0.47v4.82h1.911
			c0.659,0,1.194-0.323,1.194-0.723v-6.271c0-0.4-0.535-0.724-1.194-0.724H43.388c-0.661,0-1.194,0.324-1.194,0.724v6.271
			C42.194,32.38,42.727,32.703,43.388,32.703z"/>
		<path fill="#FFFFFF" d="M79.171,35.228H24.222c-2.315,0-4.191,1.876-4.191,4.191v31.2c0,2.315,1.876,4.191,4.191,4.191h54.949
			c2.315,0,4.191-1.876,4.191-4.191v-31.2C83.362,37.104,81.486,35.228,79.171,35.228z M50.979,63.053l-0.002-0.004l-0.019,0.02
			l-7.572-7.574l1.315-1.316l5.337,5.336V43.873h1.861v15.626l5.337-5.336l1.315,1.317L50.979,63.053z"/>
		<polygon fill="#FFFFFF" points="50.959,60.438 50.994,60.404 50.927,60.404 		"/>
	</g>
</g>
</svg>
