<?xml version="1.0" encoding="utf-8"?>
<!-- Generator: Adobe Illustrator 16.0.4, SVG Export Plug-In . SVG Version: 6.00 Build 0)  -->
<!DOCTYPE svg PUBLIC "-//W3C//DTD SVG 1.1//EN" "http://www.w3.org/Graphics/SVG/1.1/DTD/svg11.dtd">
<svg version="1.1" id="Layer_1" xmlns="http://www.w3.org/2000/svg" xmlns:xlink="http://www.w3.org/1999/xlink" x="0px" y="0px"
	 width="500px" height="500px" viewBox="0 0 500 500" enable-background="new 0 0 500 500" xml:space="preserve">
<radialGradient id="SVGID_1_" cx="818.7549" cy="484.7891" r="548.7377" gradientTransform="matrix(0.3906 0 0 0.5754 -69.8257 -31.5254)" gradientUnits="userSpaceOnUse">
	<stop  offset="0" style="stop-color:#54381B"/>
	<stop  offset="1" style="stop-color:#341700"/>
</radialGradient>
<rect y="-5.114" fill="url(#SVGID_1_)" width="500" height="505.114"/>
<g>
	<g>
		<path fill="#C6AE9B" d="M273.867,175.756"/>
		<g>
			<path fill="#C6AE9B" d="M298.306,282.175c18.771,54.982-5.606,113.072-54.447,129.748
				c-48.84,16.674-103.651-14.383-122.422-69.367L298.306,282.175z"/>
			<g>
				<path fill="#C6AE9B" d="M312.171,377.619c5.205-1.776,6.851,0.434,3.657,4.911l-9.087,12.743
					c-3.193,4.478-10.065,9.596-15.271,11.372l-88.5,30.215c-5.205,1.776-13.772,1.93-19.037,0.341l-14.993-4.525
					c-5.265-1.589-5.314-4.344-0.109-6.12L312.171,377.619z"/>
			</g>
			<path fill="#C6AE9B" d="M336.452,297.883c6.711,13.158-0.898,30.491-17.009,38.71c-8.324,4.247-17.286,5.229-24.928,3.366
				c4.061-0.861,8.268-2.344,12.408-4.455c16.111-8.22,25.079-22.895,20.036-32.778c-5.043-9.883-22.187-11.235-38.298-3.016
				c-4.141,2.114-7.81,4.651-10.89,7.434c2.975-7.282,9.032-13.96,17.355-18.207C311.239,280.717,329.738,284.728,336.452,297.883z"
				/>
		</g>
		<path fill="#C6AE9B" d="M378.161,262.993l-32.662,24.099c-0.021,0.022-0.031,0.031-0.051,0.031l-10.725,7.928l-6.146,4.537
			l-4.157-3.39l-11.491-9.393c0,0,0.235-0.747,0.654-2.12c4.691-15.075,32.97-105.482,36.596-106.445
			c3.789-1.015,13.632,6.063,8.921,27.674l-26.292,52.778l28.597-49.829c3.594,0.41,8.95,2.775,7.384,13.509v0.01l-24.775,36.309
			l26.742-34.199c3.318,3.452,9.279,10.867,5.93,16.797l-27.273,24.294l28.083-21.917
			C380.812,246.667,387.594,254.625,378.161,262.993z"/>
		<path fill="#C6AE9B" d="M405.22,282.361l-32.478,4.188l29.847-1.895c1.729,1.403,6.626,6.175,0.256,11.308l-26.641,1.197
			l26.722,0.533c0.707,2.726,1.525,8.604-3.719,11.133l-21.107-1.291l19.173,2.429c0.748,1.782,2.867,9.002-12.137,7.65
			l-46.407-6.678l-1.157-0.164l-13.15-14.574c0,0,3.175-1.393,8.266-3.596c3.491-1.516,7.886-3.4,12.762-5.479
			c0.02,0,0.029-0.009,0.051-0.031c22.307-9.482,54.744-22.858,57.857-21.785C407.78,266.833,415.902,274.955,405.22,282.361z"/>
	</g>
	<path fill="#C6AE9B" fill-opacity="0.3" d="M213.615,301.128c0,0-90.274-38.493-49.989-88.66
		c40.283-50.167,84.258-66.337,74.912-96.167c-13.854-44.219-67.751-57.471-67.751-57.471s114.764,25.685,89.26,83.717
		c-12.447,28.319-94.91,63.842-88.082,104.98C178.925,289.467,213.615,301.128,213.615,301.128z"/>
	<path fill="#C6AE9B" fill-opacity="0.3" d="M260.75,148.827c10.755,11.77,16.388,25.922,6.392,40.883
		c-12.74,19.063-77.509,34.349-77.833,65.255c-0.332,31.509,23.482,44.495,23.482,44.495s-60.92-39.743-25.045-71.159
		c35.874-31.416,70.055-37.544,67.084-60.521c-0.416-3.21-1.125-6.265-2.072-9.166L260.75,148.827z"/>
</g>
</svg>
