<?xml version="1.0" encoding="utf-8"?>
<!-- Generator: Adobe Illustrator 16.0.4, SVG Export Plug-In . SVG Version: 6.00 Build 0)  -->
<!DOCTYPE svg PUBLIC "-//W3C//DTD SVG 1.1//EN" "http://www.w3.org/Graphics/SVG/1.1/DTD/svg11.dtd">
<svg version="1.1" id="Layer_1" xmlns="http://www.w3.org/2000/svg" xmlns:xlink="http://www.w3.org/1999/xlink" x="0px" y="0px"
	 width="102.978px" height="102.977px" viewBox="0 0 102.978 102.977" enable-background="new 0 0 102.978 102.977"
	 xml:space="preserve">
<g>
	<radialGradient id="SVGID_1_" cx="51.4888" cy="51.4883" r="51.4885" gradientUnits="userSpaceOnUse">
		<stop  offset="0" style="stop-color:#FFFFFF"/>
		<stop  offset="1" style="stop-color:#EFF0F0"/>
	</radialGradient>
	<rect fill="url(#SVGID_1_)" width="102.978" height="102.977"/>
	<g opacity="0.1">
		<g>
			<path d="M48.371,66.991l8.369-8.477c5.537-5.608,16.967-10.096,25.48-10.003l4.632,0.05c8.514,0.093,11.834,4.687,7.401,10.24
				l-6.699,8.393 M80.738,67.159l6.989-8.407c2.774-3.338,0.784-6.095-4.44-6.145l-4.735-0.045
				c-5.223-0.05-12.081,2.644-15.288,6.002l-8.078,8.462"/>
			<path d="M78.199,86.197c-0.684,0.885-2.58,1.604-4.238,1.604h-49.5c-1.656,0-2.262-0.728-1.352-1.624l21.423-21.11
				c0.91-0.896,2.843-1.616,4.316-1.607l44.021,0.272c1.475,0.009,2.113,0.734,1.43,1.62L78.199,86.197z"/>
			<g id="jd809Q.tif_11_">
				<g>
					<path fill-rule="evenodd" clip-rule="evenodd" d="M49.03,74.073c0.234-0.066,0.468-0.145,0.701-0.198
						c2.345-0.536,4.681-1.068,7.008-1.6c0.893-0.204,1.043-0.151,0.845,0.293c-0.514,1.154-1.02,2.309-1.534,3.465
						c-0.046,0.104-0.204,0.223-0.312,0.336c-0.169-0.017-0.371-0.013-0.501-0.054c-0.614-0.188-1.207-0.389-1.868-0.606
						c-1.529,1.359-1.895,2.479-0.978,3.38c0.99,0.955,3.744,1.366,7.692,0.374c0.192,0.49,0.39,0.983,0.598,1.496
						c-1.155,0.34-2.288,0.566-3.412,0.717c-0.705,0.093-1.395,0.149-2.093,0.223c-0.632-0.001-1.265-0.002-1.896-0.003
						c-0.092-0.019-0.173-0.045-0.275-0.054c-5.083-0.442-6.323-3.089-2.903-6.147c0.283-0.254,0.605-0.505,0.921-0.768
						c-0.707-0.249-1.404-0.495-2.098-0.742C48.96,74.147,48.996,74.11,49.03,74.073z"/>
					<path fill-rule="evenodd" clip-rule="evenodd" d="M71.423,78.23c-0.23,0.065-0.459,0.141-0.69,0.193
						c-2.346,0.539-4.702,1.075-7.068,1.61c-0.845,0.191-1.013,0.139-0.858-0.271c0.438-1.159,0.882-2.317,1.346-3.479
						c0.043-0.104,0.191-0.224,0.291-0.336c0.181,0.018,0.396,0.015,0.537,0.057c0.614,0.185,1.208,0.384,1.874,0.597
						c1.408-1.311,1.715-2.404,0.88-3.305c-0.821-0.899-3.265-1.525-7.528-0.453c-0.155-0.492-0.309-0.987-0.466-1.504
						c1.436-0.415,2.798-0.673,4.14-0.815c0.32-0.034,0.642-0.071,0.962-0.107c0.692,0.003,1.386,0.006,2.077,0.009
						c0.057,0.017,0.103,0.043,0.17,0.049c5.178,0.498,6.283,3.491,2.405,6.711c-0.198,0.164-0.163,0.223,0.035,0.284
						c0.673,0.209,1.324,0.433,1.985,0.651C71.483,78.157,71.453,78.194,71.423,78.23z"/>
				</g>
			</g>
			<path d="M24.389,87.801c-1.657,0-2.262-0.728-1.352-1.624l21.43-21.11c0.91-0.896,2.842-1.616,4.316-1.607"/>
			<path d="M93.248,63.733c1.474,0.01,2.115,0.734,1.433,1.62L78.624,86.197c-0.683,0.886-2.578,1.604-4.235,1.604"/>
		</g>
	</g>
	<radialGradient id="SVGID_2_" cx="50.4663" cy="31.5508" r="19.5691" gradientUnits="userSpaceOnUse">
		<stop  offset="0" style="stop-color:#BEBFBF"/>
		<stop  offset="1" style="stop-color:#B7B8B8"/>
	</radialGradient>
	<path fill="url(#SVGID_2_)" d="M28.825,48.801V33.119c0-10.376,8.44-18.818,18.817-18.818h5.646
		c10.377,0,18.819,8.442,18.819,18.818v15.682 M64.579,48.801V33.119c0-6.226-5.063-11.291-11.291-11.291h-5.646
		c-6.225,0-11.29,5.065-11.29,11.291v15.682"/>
	<path fill="#58595B" d="M77.961,84.301c0,1.656-1.342,3-3,3h-49.5c-1.656,0-3-1.344-3-3v-39c0-1.657,1.344-3,3-3h49.5
		c1.658,0,3,1.343,3,3V84.301z"/>
	<g id="jd809Q.tif">
		<g>
			<linearGradient id="SVGID_3_" gradientUnits="userSpaceOnUse" x1="36.9619" y1="67.2959" x2="55.7275" y2="67.2959">
				<stop  offset="0" style="stop-color:#ADAFB2"/>
				<stop  offset="1" style="stop-color:#8A8A8A"/>
			</linearGradient>
			<path fill-rule="evenodd" clip-rule="evenodd" fill="url(#SVGID_3_)" d="M36.962,61.857c0.181-0.125,0.351-0.271,0.545-0.371
				c1.959-1.006,3.922-2.006,5.886-3.004c0.756-0.384,0.97-0.288,1.194,0.535c0.584,2.141,1.169,4.281,1.739,6.426
				c0.052,0.193-0.001,0.414-0.006,0.623c-0.193-0.029-0.402-0.021-0.578-0.096c-0.829-0.346-1.648-0.715-2.558-1.113
				c-0.285,2.523,0.416,4.6,2.234,6.266c1.929,1.766,5.159,2.52,8.338,0.665c0.646,0.909,1.295,1.824,1.971,2.776
				c-0.884,0.637-1.845,1.061-2.865,1.342c-0.639,0.176-1.296,0.282-1.945,0.42c-0.649,0-1.3,0-1.949,0
				c-0.111-0.034-0.22-0.083-0.333-0.1c-5.64-0.807-9.48-5.705-8.913-11.379c0.047-0.471,0.138-0.938,0.211-1.426
				c-0.997-0.455-1.984-0.907-2.971-1.359C36.962,61.994,36.962,61.926,36.962,61.857z"/>
			<linearGradient id="SVGID_4_" gradientUnits="userSpaceOnUse" x1="45.6943" y1="64.0098" x2="64.4619" y2="64.0098">
				<stop  offset="0" style="stop-color:#ADAFB2"/>
				<stop  offset="1" style="stop-color:#8A8A8A"/>
			</linearGradient>
			<path fill-rule="evenodd" clip-rule="evenodd" fill="url(#SVGID_4_)" d="M64.462,69.451c-0.184,0.122-0.356,0.264-0.552,0.363
				c-1.974,1.012-3.95,2.018-5.927,3.022c-0.704,0.358-0.925,0.261-1.133-0.502c-0.588-2.155-1.177-4.31-1.752-6.468
				c-0.052-0.195-0.004-0.416-0.003-0.626c0.207,0.032,0.432,0.024,0.619,0.103c0.816,0.34,1.622,0.706,2.517,1.1
				c0.299-2.443-0.373-4.477-2.093-6.143c-1.719-1.664-4.936-2.807-8.476-0.79c-0.646-0.911-1.293-1.826-1.969-2.78
				c1.139-0.78,2.359-1.267,3.671-1.541c0.312-0.066,0.624-0.139,0.937-0.207c0.752,0,1.505,0,2.257,0
				c0.077,0.03,0.151,0.078,0.23,0.089c6.064,0.884,9.971,6.437,8.737,12.443c-0.062,0.308,0.025,0.415,0.288,0.528
				c0.889,0.387,1.766,0.8,2.647,1.203C64.462,69.314,64.462,69.383,64.462,69.451z"/>
		</g>
	</g>
	<linearGradient id="SVGID_5_" gradientUnits="userSpaceOnUse" x1="22.3887" y1="64.8008" x2="27.3887" y2="64.8008">
		<stop  offset="0" style="stop-color:#ADAFB2"/>
		<stop  offset="1" style="stop-color:#8A8A8A"/>
	</linearGradient>
	<path fill="url(#SVGID_5_)" d="M27.389,87.301c-1.657,0-4.5,0.5-5-3v-39c0.5-3.5,3.343-3,5-3"/>
	
		<linearGradient id="SVGID_6_" gradientUnits="userSpaceOnUse" x1="229.7637" y1="-243.1992" x2="234.7637" y2="-243.1992" gradientTransform="matrix(-1 0 0 -1 307.7773 -178.3984)">
		<stop  offset="0" style="stop-color:#86878A"/>
		<stop  offset="1" style="stop-color:#5C5C5C"/>
	</linearGradient>
	<path fill="url(#SVGID_6_)" d="M73.014,42.301c1.657,0,4.5-0.5,5,3v39c-0.5,3.5-3.343,3-5,3"/>
	<rect x="64.576" y="40.801" opacity="0.2" width="7.531" height="1.5"/>
	<rect x="28.826" y="40.801" opacity="0.2" width="7.531" height="1.5"/>
	<g id="jd809Q.tif_2_">
		<g>
			<path fill-rule="evenodd" clip-rule="evenodd" fill="#FFFFFF" d="M36.837,61.982c0.181-0.125,0.351-0.271,0.545-0.371
				c1.959-1.006,3.922-2.006,5.886-3.004c0.756-0.384,0.97-0.288,1.194,0.535c0.584,2.141,1.169,4.281,1.739,6.426
				c0.052,0.193-0.001,0.414-0.006,0.623c-0.193-0.029-0.402-0.021-0.578-0.096c-0.829-0.346-1.648-0.715-2.558-1.113
				c-0.285,2.523,0.416,4.6,2.234,6.266c1.929,1.766,5.159,2.52,8.338,0.665c0.646,0.909,1.295,1.824,1.971,2.776
				c-0.884,0.637-1.845,1.061-2.865,1.342c-0.639,0.176-1.296,0.282-1.945,0.42c-0.649,0-1.3,0-1.949,0
				c-0.111-0.034-0.22-0.083-0.333-0.1c-5.64-0.807-9.48-5.705-8.913-11.379c0.047-0.471,0.138-0.938,0.211-1.426
				c-0.997-0.455-1.984-0.907-2.971-1.359C36.837,62.119,36.837,62.051,36.837,61.982z"/>
			<path fill-rule="evenodd" clip-rule="evenodd" fill="#FFFFFF" d="M64.337,69.576c-0.184,0.122-0.356,0.264-0.552,0.363
				c-1.974,1.012-3.95,2.018-5.927,3.022c-0.704,0.358-0.925,0.261-1.133-0.502c-0.588-2.155-1.177-4.31-1.752-6.468
				c-0.052-0.195-0.004-0.416-0.003-0.626c0.207,0.032,0.432,0.024,0.619,0.103c0.816,0.34,1.622,0.706,2.517,1.1
				c0.299-2.443-0.373-4.477-2.093-6.143c-1.719-1.664-4.936-2.807-8.476-0.79c-0.646-0.911-1.293-1.826-1.969-2.78
				c1.139-0.78,2.359-1.267,3.671-1.541c0.312-0.066,0.624-0.139,0.937-0.207c0.752,0,1.505,0,2.257,0
				c0.077,0.03,0.151,0.078,0.23,0.089c6.064,0.884,9.971,6.437,8.737,12.443c-0.062,0.308,0.025,0.415,0.288,0.528
				c0.889,0.387,1.766,0.8,2.647,1.203C64.337,69.439,64.337,69.508,64.337,69.576z"/>
		</g>
	</g>
</g>
</svg>
