<?xml version="1.0" encoding="utf-8"?>
<!-- Generator: Adobe Illustrator 16.0.4, SVG Export Plug-In . SVG Version: 6.00 Build 0)  -->
<!DOCTYPE svg PUBLIC "-//W3C//DTD SVG 1.1//EN" "http://www.w3.org/Graphics/SVG/1.1/DTD/svg11.dtd">
<svg version="1.1" id="Layer_1" xmlns="http://www.w3.org/2000/svg" xmlns:xlink="http://www.w3.org/1999/xlink" x="0px" y="0px"
	 width="102.977px" height="102.975px" viewBox="0 0 102.977 102.975" enable-background="new 0 0 102.977 102.975"
	 xml:space="preserve">
<radialGradient id="SVGID_1_" cx="51.4883" cy="51.4878" r="51.4878" gradientUnits="userSpaceOnUse">
	<stop  offset="0" style="stop-color:#13759D"/>
	<stop  offset="1" style="stop-color:#006B94"/>
</radialGradient>
<rect fill="url(#SVGID_1_)" width="102.977" height="102.975"/>
<path fill="#052E35" d="M31.868,46.579"/>
<g opacity="0.1">
	<path fill="#052E35" d="M78.03,78.735c0.008-0.009,0.016-0.018,0.022-0.025C78.037,78.713,78.023,78.719,78.03,78.735z"/>
	<path fill="#052E35" d="M91.036,28.849c1.679-2.513,2.998-5.208,3.492-8.237c0-0.293,0-0.588,0-0.881
		c-0.202-0.805-0.421-1.614-1.168-2.101c-0.416-0.272-0.885-0.464-1.33-0.691c-0.343,0-0.686,0-1.029,0
		c-0.039,0.029-0.074,0.076-0.117,0.084c-2.717,0.544-4.988,1.965-7.105,3.658c-5.143,4.112-9.723,8.826-14.105,13.706
		c-4.727,5.263-9.217,10.74-13.814,16.12c-2.434,2.848-4.982,5.605-7.288,8.552c-3.019,3.861-5.817,7.877-8.386,12.04l-1.261-0.729
		c-2.658-0.731-5.162-1.468-7.692-2.093c-0.856-0.211-1.796-0.262-2.673-0.164c-0.984,0.109-1.436,0.998-1.715,1.824
		c-0.268,0.789,0.459,1.158,0.991,1.527c2.451,1.696,4.913,3.375,7.471,5.13l1.31,0.649c-0.875,1.615-1.639,3.291-2.389,4.969
		c-0.3,0.672-0.236,1.334,0.399,1.928c0.662,0.619,1.304,0.565,2.011,0.227c0.418-0.199,0.841-0.409,1.212-0.682
		c1.072-0.788,2.151-1.568,3.23-2.346l1.083,1.286c-0.008,0.005-0.015,0.011-0.023,0.017c1.133,1.297,2.188,2.514,3.253,3.723
		c1.049,1.191,2.101,2.381,3.165,3.559c0.385,0.425,0.888,0.728,1.424,0.347c1.259-0.894,1.872-1.44,1.332-3.042
		c-0.795-2.357-1.691-4.684-2.603-7.084l0.031-0.02l-0.267-0.607c-0.168-0.445-0.337-0.887-0.506-1.34
		c-0.021,0.018-0.041,0.033-0.062,0.049l-0.65-1.477c0.478-0.373,0.959-0.738,1.428-1.119c5.119-4.153,9.91-8.674,14.222-13.686
		c1.222-1.42,2.486-2.805,3.753-4.188l1.216,0.869c1.178,1.39,2.569,2.617,3.706,4.033c1.182,1.471,1.761,3.357,2.511,5.071
		c1.514,3.459,3.053,6.919,4.47,10.418c-0.175,0.179-0.339,0.372-0.508,0.56c0.01-0.002,0.019-0.004,0.028-0.008
		c-0.975,1.271-2.126,2.316-1.908,4.008c0.119,0.924,0.54,1.621,1.278,1.632c0,0,1.432,0.114,2.631-0.821l0.002,0.002
		c-0.002-0.002,0.376-0.406,0.556-0.613c1.015,1.912,2.402,8.645,4.961,8.717c3.058,0.085,4.501-5.705,4.166-7.914
		c-0.369-2.443-2.992-6.57-1.518-8.885c1.109-1.743,5.064-4.172,3.085-6.832c-1.376-1.85-4.468,0.093-5.282,1.64
		c-0.568-1.88-1.136-3.847-1.514-5.772c-0.005-0.026,1.475-1.411,1.603-1.6c0.456-0.671,0.86-1.527,0.952-2.341
		c0.189-1.692-1.06-2.623-2.676-2.267l-1.217,1.23c-1.123-4.279-1.85-9.044-3.529-13.124l-0.361-1.814
		c2.521-2.85,4.965-5.765,7.232-8.834C88.069,33.047,89.608,30.985,91.036,28.849z"/>
	<path fill="#052E35" d="M72.257,70.51c-0.797,0.85-0.863,1.877-0.779,2.943c0.078,0.994,0.611,1.541,1.602,1.523
		c0.736-0.014,1.471-0.184,2.374-0.307c-0.819-1.9-1.547-3.585-2.314-5.359C72.804,69.774,72.569,70.18,72.257,70.51z"/>
	<path fill="#052E35" d="M28.809,39.934c-0.124,0.281-0.131,0.772-0.105,1.546c0.045,1.388,0.826,1.97,2.212,1.86
		c1.586-0.125,2.471-1.234,3.577-2.254l1.062-1.236c1.574,0.471,3.149,0.936,4.726,1.398l-1.085,1.226
		c0,0.969-0.108,1.851,0.046,2.685c0.074,0.395,0.59,0.847,1.008,1.008c0.915,0.353,1.873,0.086,2.668-0.384
		c0.667-0.396,1.184-1.046,1.852-1.662l1.055-1.283c0.212,0.06,0.424,0.123,0.637,0.182c3.08,0.856,5.858,2.096,8.26,4.193
		c0.399,0.348,0.864,0.621,1.347,0.962c3.798-4.475,7.555-8.903,11.373-13.402c-4.533-0.637-8.99-1.268-13.428-1.89l1.111-1.353
		c0-0.487,0.013-0.825-0.002-1.163c-0.049-1.222-0.807-1.831-2.028-1.758c-1.528,0.092-2.52,1.002-3.538,2.153l-1.181,1.335
		c-1.836-0.254-3.674-0.505-5.511-0.755l1.323-1.54c0.71-0.666,0.765-2.926,0.084-3.637c-0.161-0.168-0.411-0.378-0.605-0.364
		c-0.909,0.064-1.979-0.069-2.68,0.369c-1.172,0.734-2.107,1.849-3.188,2.845l-1.243,1.459c-2.511-0.35-5.021-0.705-7.527-1.083
		c-2.272-0.343-4.023,0.367-5.575,1.889c-0.957,0.939-1.893,1.9-2.838,2.852c0,0.147,0,0.294,0,0.441
		c0.431,0.346,0.816,0.795,1.304,1.014c0.911,0.408,1.869,0.718,2.827,1.004c1.752,0.525,3.503,1.054,5.253,1.583L28.809,39.934z"/>
</g>
<g>
	<path fill="#00425C" d="M80.777,14.593c-0.415-0.272-0.885-0.464-1.33-0.691c-0.343,0-0.686,0-1.028,0
		c-0.039,0.029-0.074,0.076-0.118,0.084c-2.716,0.544-4.988,1.964-7.105,3.658c-5.144,4.112-9.722,8.826-14.105,13.706
		c-4.727,5.263-9.217,10.74-13.813,16.12c-2.434,2.848-4.983,5.605-7.289,8.552c-4.469,5.713-8.462,11.758-11.93,18.135
		c-0.886,1.631-1.658,3.324-2.415,5.02c-0.301,0.672-0.236,1.334,0.399,1.926c0.662,0.619,1.304,0.566,2.011,0.229
		c0.418-0.199,0.841-0.408,1.212-0.682c3.626-2.667,7.344-5.221,10.836-8.055c5.117-4.153,9.91-8.674,14.221-13.686
		c1.708-1.985,3.499-3.9,5.262-5.839c6.257-6.883,12.831-13.489,18.376-20.993c1.526-2.066,3.065-4.128,4.493-6.264
		c1.679-2.513,2.998-5.208,3.492-8.237c0-0.293,0-0.588,0-0.882C81.743,15.889,81.524,15.08,80.777,14.593z M76.988,25.661
		c-0.362-0.651-0.72-1.221-1.009-1.823c-0.735-1.536-1.891-2.584-3.503-3.136c-0.461-0.158-0.921-0.328-1.367-0.523
		c-0.633-0.277-0.669-0.463-0.181-0.938c0.861-0.837,1.883-1.048,3.045-0.808c2.143,0.44,4.058,2.468,4.244,4.598
		C78.307,24.055,77.977,24.935,76.988,25.661z"/>
	<path fill="#00425C" d="M42.138,44.175c0.399,0.348,0.864,0.622,1.346,0.962c3.798-4.475,7.555-8.903,11.373-13.401
		c-6.067-0.854-11.997-1.694-17.929-2.52c-6.828-0.951-13.667-1.833-20.483-2.862c-2.273-0.344-4.023,0.367-5.576,1.888
		c-0.957,0.939-1.893,1.901-2.838,2.852c0,0.147,0,0.294,0,0.441c0.432,0.346,0.816,0.795,1.304,1.014
		c0.91,0.408,1.869,0.718,2.827,1.004c7.232,2.166,14.444,4.406,21.716,6.429C36.958,40.839,39.737,42.078,42.138,44.175z
		 M15.134,31.705c-0.309-0.069-0.644-0.106-0.909-0.26c-0.239-0.139-0.399-0.417-0.593-0.633c0.253-0.145,0.506-0.29,0.685-0.392
		c1.734,0.383,3.332,0.735,4.928,1.089c7.029,1.56,14.059,3.119,21.086,4.685c0.501,0.112,1.308,0.163,1.16,0.811
		c-0.152,0.668-0.926,0.333-1.407,0.229c-4.651-1.012-9.295-2.057-13.941-3.088C22.474,33.331,18.803,32.521,15.134,31.705z"/>
	<path fill="#00425C" d="M67.798,45.123c-0.208-0.792-0.435-1.578-0.688-2.49c-4.019,4.379-7.945,8.657-11.892,12.958
		c1.377,1.473,2.7,2.881,4.011,4.301c0.21,0.229,0.406,0.494,0.53,0.777c2.167,4.998,4.313,10.006,6.486,15.002
		c1.687,3.876,3.378,7.751,5.134,11.595c0.32,0.7,0.962,1.252,1.455,1.874c0.146,0,0.294,0,0.439,0
		c0.902-1.123,1.855-2.209,2.693-3.377c1.1-1.533,1.718-3.166,1.189-5.15C74.009,68.79,70.914,56.954,67.798,45.123z M72.692,83.081
		c-0.152,0.045-0.435-0.084-0.547-0.227c-0.191-0.242-0.321-0.545-0.434-0.84c-2.375-6.206-4.746-12.416-7.115-18.624
		c-0.811-2.122-1.627-4.243-2.422-6.372c-0.154-0.412-0.503-1.008,0.054-1.236c0.614-0.25,0.776,0.442,0.939,0.869
		c2.062,5.358,4.108,10.723,6.155,16.088c1.143,2.99,2.278,5.982,3.415,8.975c0.103,0.271,0.185,0.553,0.297,0.895
		C72.93,82.766,72.844,83.037,72.692,83.081z"/>
	<path fill="#00425C" d="M35.385,75.141c-2.058,1.576-3.927,3.008-5.828,4.465c1.132,1.297,2.188,2.514,3.252,3.723
		c1.049,1.191,2.101,2.381,3.166,3.559c0.385,0.425,0.887,0.728,1.424,0.347c1.259-0.894,1.872-1.44,1.331-3.042
		C37.718,81.196,36.546,78.254,35.385,75.141z"/>
	<path fill="#00425C" d="M26.341,67.333c-2.658-0.731-5.162-1.468-7.693-2.093c-0.856-0.211-1.796-0.262-2.673-0.164
		c-0.984,0.108-1.436,0.998-1.715,1.824c-0.268,0.788,0.458,1.158,0.991,1.527c2.451,1.696,4.913,3.375,7.471,5.13
		C23.936,71.469,25.116,69.44,26.341,67.333z"/>
	<path fill="#00425C" d="M77.094,64.333c-0.553,0.035-1.124,0.141-1.636,0.344c-0.385,0.154-0.881,0.359-0.707,1.006
		c0.51,1.882,0.995,3.77,1.532,5.816c0.784-1.072,1.428-2.021,2.144-2.913c0.599-0.748,0.696-1.604,0.656-2.483
		C79.022,64.813,78.386,64.252,77.094,64.333z"/>
	<path fill="#00425C" d="M31.161,26.919c0.14,0.019,0.336-0.054,0.442-0.153c0.71-0.666,0.765-2.926,0.084-3.637
		c-0.161-0.168-0.411-0.378-0.605-0.364c-0.909,0.063-1.98-0.07-2.679,0.368c-1.172,0.735-2.107,1.849-3.188,2.846
		c0.174,0.082,0.232,0.127,0.295,0.136C27.394,26.388,29.276,26.663,31.161,26.919z"/>
	<path fill="#00425C" d="M64.817,76.155c-0.98,1.283-2.025,2.395-1.805,4.096c0.119,0.924,0.539,1.622,1.277,1.632
		c0.791,0.011,1.588-0.153,2.373-0.296c0.121-0.021,0.311-0.396,0.26-0.521C66.256,79.449,65.551,77.848,64.817,76.155z"/>
	<path fill="#00425C" d="M16.121,38.442c0.045,1.388,0.826,1.97,2.211,1.86c1.586-0.125,2.471-1.234,3.578-2.254
		c-1.335-0.402-2.589-0.772-3.838-1.158C16.203,36.315,16.054,36.43,16.121,38.442z"/>
	<path fill="#00425C" d="M59.675,67.473c-0.797,0.85-0.864,1.876-0.78,2.943c0.079,0.994,0.612,1.541,1.602,1.522
		c0.737-0.013,1.471-0.183,2.374-0.307c-0.819-1.899-1.547-3.584-2.314-5.358C60.221,66.737,59.986,67.142,59.675,67.473z"/>
	<path fill="#00425C" d="M26.658,42.121c0.073,0.395,0.59,0.847,1.008,1.008c0.915,0.353,1.874,0.085,2.668-0.384
		c0.667-0.396,1.184-1.046,1.852-1.662c-1.922-0.567-3.646-1.078-5.574-1.647C26.612,40.405,26.504,41.288,26.658,42.121z"/>
	<path fill="#00425C" d="M42.54,27.331c-0.05-1.222-0.808-1.831-2.029-1.758c-1.528,0.092-2.52,1.003-3.538,2.153
		c1.884,0.26,3.664,0.505,5.568,0.768C42.541,28.006,42.554,27.668,42.54,27.331z"/>
	<path fill="#00425C" d="M74.899,55.901c-0.133-0.982-0.698-1.572-1.684-1.563c-0.453,0.005-0.904,0.099-1.414,0.16
		c0.483,1.831,0.943,3.569,1.431,5.419C74.335,58.712,75.116,57.522,74.899,55.901z"/>
	<path fill="#72A3B2" d="M73.974,18.432c-1.162-0.24-2.184-0.029-3.045,0.808c-0.488,0.475-0.452,0.661,0.181,0.938
		c0.446,0.195,0.906,0.365,1.367,0.523c1.612,0.552,2.768,1.6,3.503,3.136c0.289,0.603,0.646,1.172,1.009,1.823
		c0.988-0.726,1.318-1.606,1.229-2.631C78.031,20.899,76.116,18.872,73.974,18.432z"/>
	<path fill="#72A3B2" d="M41.491,37.005c0.147-0.647-0.659-0.699-1.16-0.811c-7.027-1.566-14.057-3.125-21.086-4.685
		c-1.596-0.354-3.193-0.706-4.928-1.089c-0.179,0.103-0.432,0.247-0.685,0.392c0.194,0.216,0.354,0.495,0.593,0.633
		c0.265,0.153,0.6,0.191,0.909,0.26c3.668,0.815,7.34,1.625,11.009,2.44c4.646,1.032,9.29,2.077,13.941,3.088
		C40.565,37.338,41.339,37.673,41.491,37.005z"/>
	<path fill="#72A3B2" d="M69.323,72.739c-2.047-5.365-4.094-10.729-6.155-16.088c-0.163-0.427-0.325-1.119-0.939-0.869
		c-0.557,0.229-0.208,0.824-0.054,1.236c0.795,2.129,1.611,4.25,2.422,6.372c2.369,6.208,4.74,12.418,7.115,18.624
		c0.112,0.295,0.242,0.598,0.434,0.84c0.112,0.143,0.395,0.271,0.547,0.227c0.151-0.044,0.237-0.314,0.343-0.473
		c-0.112-0.342-0.194-0.623-0.297-0.895C71.602,78.721,70.466,75.729,69.323,72.739z"/>
</g>
</svg>
