<?xml version="1.0" encoding="utf-8"?>
<!-- Generator: Adobe Illustrator 16.0.4, SVG Export Plug-In . SVG Version: 6.00 Build 0)  -->
<!DOCTYPE svg PUBLIC "-//W3C//DTD SVG 1.1//EN" "http://www.w3.org/Graphics/SVG/1.1/DTD/svg11.dtd">
<svg version="1.1" id="Layer_1" xmlns="http://www.w3.org/2000/svg" xmlns:xlink="http://www.w3.org/1999/xlink" x="0px" y="0px"
	 width="451px" height="451px" viewBox="0 0 451 451" enable-background="new 0 0 451 451" xml:space="preserve">
<rect fill-rule="evenodd" clip-rule="evenodd" fill="#FEF794" width="451" height="451"/>
<path fill-rule="evenodd" clip-rule="evenodd" fill="none" d="M239.678,229.057c-6.644-2.876-12.126-1.525-16.385,4.087
	c-6.485-1.983-10.585-7.19-10.562-13.263c0.021-5.896,4.408-11.345,10.626-13.203c6.745-2.016,14.117,0.501,17.853,6.095
	C244.589,217.83,244.094,223.776,239.678,229.057z"/>
<linearGradient id="SVGID_1_" gradientUnits="userSpaceOnUse" x1="446.2197" y1="455.7803" x2="226.8682" y2="236.4287">
	<stop  offset="0" style="stop-color:#566B5C;stop-opacity:0"/>
	<stop  offset="0.2224" style="stop-color:#5B6E5C;stop-opacity:0.2224"/>
	<stop  offset="0.4687" style="stop-color:#68775C;stop-opacity:0.4687"/>
	<stop  offset="0.7265" style="stop-color:#7E855C;stop-opacity:0.7265"/>
	<stop  offset="0.9908" style="stop-color:#9D995C;stop-opacity:0.9908"/>
	<stop  offset="1" style="stop-color:#9E9A5C"/>
</linearGradient>
<polygon opacity="0.4" fill-rule="evenodd" clip-rule="evenodd" fill="url(#SVGID_1_)" points="228.123,451.95 120.462,342.834 
	336.309,131.603 451,246.99 451,451 "/>
<path fill-rule="evenodd" clip-rule="evenodd" fill="none" d="M292.555,138.799c-24.862,23.298-49.736,46.585-74.566,69.918
	c-1.139,1.07-2.059,2.439-2.876,3.797c-17.27,28.67-34.504,57.353-51.751,86.048c-0.563,0.92-1.046,1.886-1.564,2.841
	c0.126,0.093,0.253,0.185,0.38,0.288c0.667-0.575,1.346-1.128,1.99-1.726c24.506-23.011,49.024-46.011,73.509-69.044
	c1.22-1.15,2.242-2.589,3.116-4.038c17.225-28.568,34.401-57.147,51.591-85.738c0.552-0.92,1.023-1.898,1.968-3.705
	C293.211,138.292,292.854,138.511,292.555,138.799z M229.23,229.806c-5.522,0.184-10.148-4.278-10.148-9.79
	c0.012-5.212,4.257-9.504,9.561-9.665c5.384-0.161,9.826,4.142,9.929,9.606C238.675,225.17,234.441,229.623,229.23,229.806z"/>
<circle fill-rule="evenodd" clip-rule="evenodd" fill="#FEF794" cx="228.074" cy="236.824" r="147.818"/>
<g>
	<g>
		<path fill="#757244" d="M279.538,93.398c-21.261-7.72-43.261-10.458-65.776-8.191c-3.486,0.356-5.028-0.713-5.719-3.82
			c7.019-10.194,6.098-20.083-2.773-26.365c-2.623-1.853-5.913-2.872-8.894-4.022h-7.559c-1.887,0-3.854,1.203-5.649,2.135
			c-6.5,3.337-10.447,8.552-10.504,15.973c-0.057,7.41,3.773,12.704,10.251,16.132c0.311,0.172,0.599,0.346,0.92,0.461
			c1.45,0.518,3.061,1.15,2.278,3.025c-0.414,1.001-1.599,2.026-2.658,2.348c-15.521,4.764-29.948,11.77-43.053,21.331
			c-36.334,26.498-57.593,62.026-63.059,106.759C76.907,222.766,76,226.378,76,229.979v10.988c0,7.121,1.482,14.312,2.759,21.354
			c7.433,41.108,28.498,73.749,62.427,97.91c22.941,16.338,48.754,25.194,76.873,27.093c1.691,0.115,3.399,0.677,5.09,0.677h9.608
			c7.019-1,14.082-1.47,21.055-2.643c30.512-5.121,56.975-18.564,79.203-40.01c25.657-24.76,41.005-54.924,45.365-90.383
			C387.103,184.126,346.454,117.71,279.538,93.398z M177.359,69.054c0.023-5.903,4.407-11.345,10.62-13.208
			c6.754-2.013,14.117,0.506,17.856,6.098c3.382,5.062,2.887,11-1.53,16.28c-6.65-2.876-12.127-1.519-16.384,4.084
			C181.432,80.329,177.336,75.117,177.359,69.054z M227.902,363.81c-70.424-0.139-127.675-57.505-127.606-127.847
			c0.081-70.552,57.17-127.573,127.756-127.584c70.62-0.023,127.606,56.906,127.698,127.561
			C355.842,306.535,298.43,363.947,227.902,363.81z"/>
		<g>
			<path fill-rule="evenodd" clip-rule="evenodd" fill="#757244" d="M291.987,141.479c-1.944,3.038-3.532,5.822-5.454,8.341
				c-0.632,0.84-2.139,1.013-3.232,1.496c-0.057-1.208-0.563-2.635-0.081-3.567c1.52-2.888,3.406-5.591,5.259-8.548
				c-25.474-15.475-52.5-20.296-81.747-15.268c0.61,2.715,1.127,4.994,1.623,7.156c11.574,0.69,18.19,5.407,20.111,14.094
				c1.933,8.812-2.06,15.532-12.794,21.354c4.764,10.228,9.573,20.445,14.255,30.731c1.139,2.485,2.198,4.786,5.638,5.131
				c-1.576,1.069-3.176,1.887-4.855,2.128c-3.602,0.506-7.375,0.219-10.85,1.127c-16.706,4.338-26.52,21.245-22.413,38.125
				c1.07,4.429-0.265,6.219-4.763,6.219h-31.375c-2.013,14-10.723,21.668-22.389,18.354c6.742-5.097,12.955-9.799,20.065-15.16
				c-4.119-1.117-7.156-1.96-10.619-2.903c2.773-2.152,5.154-4,8.226-6.382c-2.024-0.679-3.209-1.229-4.464-1.472
				c-5.039-1.012-10.102-1.874-15.141-2.933c-1.358-0.287-2.612-1.093-4.418-1.887c4.798-3.588,9.412-4.256,14.129-3.359
				c6.972,1.312,11.333,5.915,13.887,12.679c9.262-4.314,18.178-8.696,27.279-12.598c3.796-1.622,6.385-3.51,6.616-7.917
				c0.069-1.414,0.69-2.944,1.473-4.175c1.438-2.268,0.932-3.752-0.99-5.523c-4.015-3.716-7.777-7.72-11.644-11.609
				c5.442,1.312,10.528,2.992,15.475,5.016c2.807,1.163,4.97,1.358,7.248-1.127c1.416-1.553,3.417-2.703,5.362-3.635
				c1.726-0.84,2.174-1.91,2.163-3.728c-0.08-10.872-0.034-21.745-0.046-32.606c-0.011-0.748-0.207-1.496-0.299-2.186
				c-10.55-0.541-16.89-4.971-19.18-13.277c-2.267-8.226,1.024-15.141,10.263-21.285c-0.495-2.313-1.024-4.729-1.588-7.341
				c-28.027,5.752-55.249,25.174-68.837,47.253c2.681,1.703,5.488,3.267,7.997,5.211c0.897,0.703,1.047,2.347,1.542,3.556
				c-1.231-0.035-2.669,0.322-3.636-0.196c-2.876-1.53-5.557-3.417-8.284-5.143c-16.729,24.955-20.997,59.759-14.957,82.538
				c3.072-0.701,6.155-1.414,9.169-2.105c-0.241-9.595,1.3-14.013,6.144-17.521c0.449,1.517,0.886,2.979,1.358,4.602
				c2.083-2.301,8.284-1.864,15.82,0.839c-5.292,6.225-9.296,4.914-15.808,0.173c0.54,2.416,0.978,4.406,1.208,5.442
				c2.451-0.104,4.361-0.195,6.282-0.276c0.103,0.449,0.207,0.896,0.311,1.335c-1.852,0.818-3.693,1.634-5.833,2.577
				c0.104,0.495,0.368,1.715,0.632,2.922c0.276,1.242,0.541,2.485,0.92,4.222c3.187-6.339,9.78-9.341,14.439-7.028
				c-4.924,4.981-11.379,9.009-14.014,8.743c0.299,2.037,0.598,4.062,0.898,6.098c-0.369,0.241-0.737,0.495-1.093,0.748
				c-2.692-2.347-5.35-4.74-8.1-7.019c-0.851-0.701-2.024-1.691-2.922-1.564c-2.911,0.392-5.752,1.243-8.606,1.91
				c4.878,26.555,25.507,55.376,48.012,68.71c2.025-3.152,3.935-6.397,6.167-9.423c0.587-0.782,2.164-0.84,3.279-1.243
				c0.035,1.117,0.472,2.475,0.012,3.314c-1.83,3.29-3.947,6.408-5.948,9.572c16.981,13.955,62.957,21.859,82.332,14.117
				c-0.771-3.372-1.553-6.765-2.301-10.067c-11.38-0.529-18.259-4.786-19.939-13.128c-0.725-3.624-0.379-7.812,0.713-11.367
				c1.738-5.673,6.478-8.859,12.172-10.723c-4.43-9.895-8.674-19.502-13.081-29.027c-0.402-0.887-1.691-1.623-2.727-1.899
				c-1.979-0.54-4.062-0.714-6.098-1.047c-0.046-0.426-0.092-0.852-0.138-1.266c1.473-0.482,3.003-1.484,4.406-1.358
				c24.173,2.279,41.593-20.063,33.274-42.811c-1.289-3.532,0.058-5.488,3.809-5.43c9.837,0.16,19.674,0.345,29.511,0.506
				c1.68,0.035,3.372,0.012,5.028,0.012c0.806-11.69,5.155-17.96,13.657-20.02c8.836-2.151,15.038,1.185,21.618,11.747
				c2.543-0.564,5.155-1.163,8.02-1.807C331.796,180.805,316.138,158.393,291.987,141.479z M291.678,157.104
				c-17.189,28.591-34.367,57.17-51.592,85.739c-0.874,1.45-1.898,2.888-3.119,4.038c-24.482,23.032-49,46.032-73.506,69.043
				c-0.645,0.598-1.323,1.15-1.991,1.726c-0.126-0.104-0.253-0.195-0.379-0.288c0.518-0.954,1.001-1.921,1.564-2.841
				c17.247-28.695,34.482-57.378,51.751-86.048c0.817-1.358,1.738-2.729,2.876-3.798c24.829-23.333,49.704-46.62,74.567-69.918
				c0.299-0.288,0.656-0.506,1.795-1.357C292.701,155.206,292.229,156.184,291.678,157.104z"/>
		</g>
		<path fill-rule="evenodd" clip-rule="evenodd" fill="#757244" d="M314.537,290.577c0.426,1.128,0.519,2.646,1.324,3.279
			c2.301,1.829,4.89,3.29,7.363,4.901c-15.463,24.402-42.892,42.696-67.951,47.782c-0.782-3.395-1.563-6.812-2.427-10.574
			c5.178-2.865,8.882-6.661,10.25-12.414c2.382-10.032-4.164-20.008-14.404-21.47c-2.428-0.345-3.233-1.047-3.163-3.59
			c0.276-9.825,0.355-19.662,0.368-29.499c0.011-2.048,0.562-3.371,2.347-4.464c1.646-1.001,3.336-2.221,4.406-3.763
			c2.037-2.899,4.143-2.611,6.995-1.369c4.786,2.095,9.746,3.774,15.038,5.086c-4.062-4.2-8.054-8.491-12.23-12.587
			c-1.588-1.553-2.151-2.854-1.174-5.026c0.829-1.843,1.45-3.993,1.358-5.973c-0.173-3.497,1.829-4.566,4.545-5.73
			c9.538-4.095,18.995-8.42,28.486-12.655c0.196-0.08,0.438-0.057,0.932-0.127c4.292,9.09,11.241,13.854,21.619,11.553
			c7.915-1.749,12.229-7.802,13.6-18.409c2.508-0.564,5.131-1.15,8.181-1.841c5.246,29.143,0.689,56.1-14.395,81.618
			c-2.727-1.703-5.143-3.405-7.742-4.751C316.989,290.105,315.654,290.543,314.537,290.577z"/>
		<path fill-rule="evenodd" clip-rule="evenodd" fill="#757244" d="M221.275,158.554c-0.966-0.379-2.105-0.552-2.876-1.173
			c-4.89-3.9-9.699-7.893-15.233-12.438c0.875,4.199,1.312,7.501,2.336,10.608c0.622,1.933,2.129,3.566,3.325,5.454
			c-1.657,0.357-4.131,0.909-6.869,1.507c3.175-4.925,0.092-18.973-4.188-20.445c3.981-2.336,5.971-2.163,9.285,0.541
			c3.509,2.876,7.122,5.638,10.861,8.583c0.265-6.523-1.738-11.183-5.96-12.702c3.176-0.679,5.626-1.208,7.352-1.576
			c-0.115,2.301-0.587,4.556-0.276,6.708c0.575,4.061,1.646,8.042,2.393,12.081C221.597,156.609,221.332,157.599,221.275,158.554z"
			/>
		<path fill-rule="evenodd" clip-rule="evenodd" fill="#757244" d="M319.98,223.524c3.025-2.957,2.635-5.982,1.139-9.572
			c-2.474,0.541-4.855,1.047-8.227,1.783c1.565,2.358,2.716,4.108,3.958,5.993c-1.554,0.357-3.751,0.852-5.614,1.279
			c0.529-2.142,1.035-4.189,1.542-6.248c-0.473-0.414-0.944-0.829-1.405-1.243c-2.438,1.116-5.591,1.646-7.132,3.509
			c-1.669,2.014,0.816,5.477,4.763,7.709c-3.291,1.795-5.051,1.071-5.799-2.45c-0.978-4.626-1.91-9.273-2.589-14.244
			c1.381,3.359,3.705,2.83,6.247,2.163c3.188-0.829,6.501-1.243,9.677-2.163c1.714-0.484,3.233-1.646,5.027-2.601
			c0.921,4.314,2.003,9.388,3.153,14.75C323.063,222.662,321.521,223.088,319.98,223.524z"/>
		<path fill-rule="evenodd" clip-rule="evenodd" fill="#757244" d="M252.271,324.76c-0.059,1.853-2.268,3.819-3.878,5.373
			c-0.771,0.748-2.336,0.805-3.568,0.932c-3.75,0.369-4.314-0.252-4.382-4.981c1.059,1.001,1.793,1.783,2.623,2.439
			c1.807,1.403,3.773,1.507,5.108-0.415c1.427-2.048,0.357-3.75-1.68-4.694c-1.656-0.759-3.451-1.173-5.144-1.852
			c-2.807-1.128-4.463-3.176-4.451-6.271c0.011-3.003,1.781-4.867,4.395-5.937c1.254-0.519,2.611-0.874,3.957-1.024
			c4.258-0.472,5.431,0.679,5.73,5.811c-1.116-1.024-1.863-2.176-2.899-2.566c-1.702-0.633-3.602-1.069-5.386-0.966
			c-0.631,0.034-1.885,2.22-1.598,2.854c0.679,1.495,1.933,2.91,3.29,3.899c1.242,0.898,3.313,0.795,4.35,1.808
			C250.315,320.732,252.34,322.908,252.271,324.76z"/>
	</g>
	<path fill-rule="evenodd" clip-rule="evenodd" fill="#757244" d="M237.868,235.913c0.099,5.218-4.128,9.669-9.35,9.849
		c-5.519,0.189-10.148-4.275-10.143-9.783c0.006-5.219,4.251-9.513,9.563-9.668C233.32,226.153,237.768,230.452,237.868,235.913z"/>
</g>
</svg>
