<?xml version="1.0" encoding="utf-8"?>
<!-- Generator: Adobe Illustrator 16.0.4, SVG Export Plug-In . SVG Version: 6.00 Build 0)  -->
<!DOCTYPE svg PUBLIC "-//W3C//DTD SVG 1.1//EN" "http://www.w3.org/Graphics/SVG/1.1/DTD/svg11.dtd">
<svg version="1.1" id="Layer_1" xmlns="http://www.w3.org/2000/svg" xmlns:xlink="http://www.w3.org/1999/xlink" x="0px" y="0px"
	 width="451px" height="451px" viewBox="0 0 451 451" enable-background="new 0 0 451 451" xml:space="preserve">
<rect fill-rule="evenodd" clip-rule="evenodd" fill="#566B5C" width="451" height="451"/>
<path fill-rule="evenodd" clip-rule="evenodd" fill="none" d="M235.215,233.76c-5.774-2.5-10.54-1.326-14.241,3.552
	c-5.637-1.724-9.2-6.249-9.18-11.528c0.019-5.124,3.831-9.86,9.236-11.475c5.863-1.752,12.271,0.436,15.517,5.297
	C239.483,224.002,239.054,229.17,235.215,233.76z"/>
<linearGradient id="SVGID_1_" gradientUnits="userSpaceOnUse" x1="442.873" y1="459.127" x2="223.9973" y2="240.2512">
	<stop  offset="0" style="stop-color:#566B5C;stop-opacity:0"/>
	<stop  offset="0.0468" style="stop-color:#536759;stop-opacity:0.0468"/>
	<stop  offset="0.3946" style="stop-color:#405045;stop-opacity:0.3946"/>
	<stop  offset="0.7204" style="stop-color:#354239;stop-opacity:0.7204"/>
	<stop  offset="1" style="stop-color:#313D35"/>
</linearGradient>
<polygon opacity="0.4" fill-rule="evenodd" clip-rule="evenodd" fill="url(#SVGID_1_)" points="248.37,451 131.598,332.65 
	319.18,149.057 451,281.701 451,451 "/>
<path fill-rule="evenodd" clip-rule="evenodd" fill="none" d="M281.174,155.311c-21.609,20.25-43.229,40.49-64.81,60.77
	c-0.99,0.93-1.79,2.12-2.5,3.3c-15.01,24.919-29.99,49.849-44.98,74.79c-0.49,0.8-0.91,1.64-1.36,2.47
	c0.11,0.08,0.22,0.16,0.33,0.25c0.58-0.5,1.17-0.98,1.73-1.5c21.3-20,42.61-39.99,63.89-60.01c1.061-1,1.949-2.25,2.709-3.51
	c14.971-24.83,29.9-49.67,44.841-74.52c0.479-0.8,0.89-1.65,1.71-3.22C281.744,154.871,281.434,155.061,281.174,155.311z
	 M226.134,234.41c-4.8,0.16-8.82-3.719-8.82-8.509c0.01-4.53,3.7-8.26,8.31-8.4c4.68-0.14,8.54,3.6,8.629,8.35
	C234.344,230.381,230.665,234.252,226.134,234.41z"/>
<circle fill-rule="evenodd" clip-rule="evenodd" fill="#566B5C" cx="225.129" cy="240.511" r="128.477"/>
<g>
	<g>
		<path fill="#D4C9B9" d="M269.86,115.851c-18.479-6.71-37.601-9.09-57.17-7.12c-3.03,0.31-4.37-0.62-4.97-3.32
			c6.1-8.86,5.3-17.455-2.41-22.915c-2.28-1.61-5.14-2.496-7.73-3.496h-6.57c-1.64,0-3.35,1.046-4.91,1.855
			c-5.65,2.9-9.08,7.433-9.13,13.883c-0.05,6.44,3.28,11.042,8.91,14.021c0.27,0.15,0.52,0.301,0.8,0.401
			c1.26,0.45,2.66,1,1.98,2.63c-0.36,0.87-1.39,1.761-2.31,2.041c-13.49,4.14-26.03,10.23-37.42,18.54
			c-31.58,23.03-50.035,53.91-54.785,92.79c-0.381,3.13-1.146,6.271-1.146,9.399v9.551c0,6.189,1.265,12.439,2.375,18.56
			c6.46,35.729,24.757,64.1,54.248,85.1c19.94,14.2,42.369,21.944,66.809,23.595c1.47,0.1,2.949,0.635,4.418,0.635h8.35
			c6.101-1,12.24-1.324,18.301-2.344c26.52-4.451,49.52-16.158,68.84-34.799c22.3-21.52,35.64-47.748,39.43-78.567
			C363.351,194.72,328.021,136.981,269.86,115.851z M181.05,94.691c0.02-5.13,3.83-9.86,9.23-11.48c5.87-1.75,12.27,0.44,15.52,5.3
			c2.94,4.4,2.51,9.56-1.33,14.15c-5.78-2.5-10.54-1.32-14.24,3.55C184.59,104.491,181.03,99.961,181.05,94.691z M224.98,350.881
			c-61.21-0.12-110.97-49.98-110.91-111.119c0.07-61.32,49.69-110.88,111.04-110.891c61.38-0.02,110.91,49.46,110.99,110.871
			C336.181,301.101,286.28,351.001,224.98,350.881z"/>
		<g>
			<path fill-rule="evenodd" clip-rule="evenodd" fill="#D4C9B9" d="M280.681,157.641c-1.69,2.64-3.07,5.06-4.74,7.25
				c-0.55,0.73-1.859,0.88-2.81,1.3c-0.05-1.05-0.49-2.29-0.07-3.1c1.32-2.51,2.96-4.86,4.57-7.43
				c-22.141-13.45-45.631-17.64-71.051-13.27c0.53,2.36,0.98,4.34,1.41,6.22c10.06,0.6,15.81,4.7,17.48,12.25
				c1.68,7.66-1.79,13.5-11.12,18.56c4.14,8.89,8.32,17.77,12.39,26.71c0.99,2.16,1.91,4.16,4.9,4.46
				c-1.37,0.93-2.76,1.64-4.22,1.85c-3.13,0.44-6.41,0.19-9.43,0.98c-14.52,3.77-23.05,18.484-19.48,33.155
				c0.93,3.85-0.23,5.424-4.14,5.424H167.1c-1.75,12-9.32,18.814-19.46,15.935c5.86-4.43,11.26-8.526,17.44-13.187
				c-3.58-0.971-6.22-1.708-9.23-2.528c2.41-1.87,4.48-3.479,7.15-5.549c-1.76-0.59-2.79-1.07-3.88-1.28
				c-4.38-0.88-8.78-1.629-13.16-2.549c-1.18-0.25-2.27-0.951-3.84-1.641c4.17-3.119,8.18-3.699,12.28-2.92
				c6.06,1.141,9.85,5.141,12.07,11.02c8.05-3.75,15.8-7.559,23.71-10.949c3.3-1.41,5.55-3.051,5.75-6.881
				c0.06-1.229,0.6-2.56,1.28-3.629c1.25-1.971,0.81-3.261-0.86-4.801c-3.49-3.23-6.76-6.71-10.12-10.09
				c4.73,1.14,9.15,2.6,13.45,4.36c2.44,1.01,4.32,1.18,6.3-0.98c1.23-1.35,2.97-2.35,4.66-3.16c1.5-0.73,1.89-1.66,1.88-3.24
				c-0.07-9.45-0.03-18.9-0.04-28.34c-0.01-0.65-0.18-1.3-0.26-1.9c-9.17-0.47-14.68-4.32-16.67-11.54
				c-1.97-7.15,0.89-13.16,8.92-18.5c-0.43-2.01-0.89-4.11-1.38-6.38c-24.36,5-48.02,21.88-59.83,41.07
				c2.33,1.48,4.77,2.84,6.95,4.53c0.78,0.61,0.91,2.04,1.34,3.09c-1.07-0.03-2.32,0.28-3.16-0.17c-2.5-1.33-4.83-2.97-7.2-4.47
				c-14.54,21.69-18.25,51.94-13,71.739c2.67-0.609,5.35-1.229,7.97-1.83c-0.21-8.34,1.13-12.18,5.34-15.229
				c0.39,1.318,0.77,2.59,1.18,4c1.81-2,7.2-1.621,13.75,0.729c-4.6,5.41-8.08,4.271-13.74,0.15c0.47,2.1,0.85,3.83,1.05,4.73
				c2.13-0.09,3.79-0.17,5.46-0.24c0.09,0.391,0.18,0.779,0.27,1.16c-1.61,0.711-3.21,1.42-5.07,2.24
				c0.09,0.43,0.32,1.49,0.55,2.539c0.24,1.08,0.47,2.16,0.8,3.67c2.77-5.51,8.5-8.119,12.55-6.109c-4.28,4.33-9.89,7.83-12.18,7.6
				c0.26,1.771,0.52,3.53,0.78,5.3c-0.32,0.21-0.64,0.431-0.95,0.65c-2.34-2.04-4.65-4.12-7.04-6.101
				c-0.74-0.609-1.76-1.47-2.54-1.359c-2.53,0.34-5,1.08-7.48,1.66c4.24,23.08,22.17,48.13,41.73,59.72
				c1.76-2.74,3.42-5.561,5.36-8.19c0.51-0.68,1.88-0.729,2.85-1.08c0.03,0.971,0.41,2.15,0.01,2.881
				c-1.59,2.859-3.43,5.569-5.17,8.319c14.76,12.13,54.72,19,71.56,12.271c-0.67-2.931-1.35-5.88-2-8.75
				c-9.891-0.46-15.87-4.16-17.33-11.41c-0.63-3.15-0.33-6.79,0.62-9.88c1.51-4.931,5.63-7.7,10.58-9.32
				c-3.85-8.6-7.54-16.95-11.37-25.229c-0.35-0.771-1.47-1.41-2.37-1.65c-1.72-0.47-3.53-0.62-5.3-0.91
				c-0.04-0.37-0.08-0.74-0.12-1.1c1.28-0.42,2.61-1.29,3.83-1.181c21.01,1.98,36.151-17.438,28.92-37.209
				c-1.12-3.07,0.05-4.77,3.311-4.72c8.55,0.14,17.1,0.3,25.649,0.44c1.46,0.03,2.931,0.01,4.37,0.01
				c0.7-10.16,4.48-15.61,11.87-17.4c7.68-1.87,13.07,1.03,18.79,10.21c2.21-0.49,4.48-1.01,6.97-1.57
				C315.28,191.821,301.671,172.341,280.681,157.641z M280.411,171.221c-14.94,24.85-29.87,49.69-44.841,74.521
				c-0.76,1.26-1.65,2.51-2.711,3.51c-21.279,20.019-42.589,40.009-63.889,60.009c-0.56,0.52-1.15,1-1.73,1.5
				c-0.11-0.09-0.22-0.17-0.33-0.25c0.45-0.83,0.87-1.67,1.36-2.47c14.99-24.94,29.97-49.87,44.98-74.789
				c0.71-1.181,1.51-2.371,2.5-3.301c21.58-20.28,43.201-40.52,64.811-60.77c0.26-0.25,0.57-0.44,1.561-1.18
				C281.301,169.571,280.891,170.421,280.411,171.221z"/>
		</g>
		<path fill-rule="evenodd" clip-rule="evenodd" fill="#D4C9B9" d="M300.28,287.23c0.37,0.98,0.45,2.3,1.15,2.851
			c2,1.59,4.25,2.859,6.4,4.26c-13.44,21.21-37.28,37.11-59.061,41.53c-0.68-2.95-1.359-5.92-2.109-9.19
			c4.5-2.49,7.72-5.79,8.909-10.79c2.07-8.72-3.619-17.39-12.52-18.66c-2.11-0.3-2.811-0.91-2.75-3.12
			c0.24-8.54,0.31-17.09,0.32-25.64c0.01-1.78,0.489-2.93,2.04-3.88c1.43-0.87,2.899-1.93,3.829-3.271
			c1.771-2.52,3.601-2.27,6.08-1.189c4.16,1.82,8.471,3.28,13.07,4.42c-3.53-3.65-7-7.38-10.63-10.939
			c-1.38-1.35-1.87-2.48-1.021-4.369c0.721-1.602,1.261-3.471,1.181-5.191c-0.15-3.039,1.59-3.969,3.95-4.98
			c8.29-3.559,16.51-7.318,24.76-10.999c0.17-0.069,0.38-0.05,0.81-0.11c3.73,7.9,9.771,12.041,18.79,10.041
			c6.88-1.521,10.63-6.781,11.82-16c2.18-0.49,4.46-1,7.11-1.6c4.56,25.329,0.6,48.76-12.511,70.939
			c-2.37-1.48-4.47-2.96-6.729-4.13C302.411,286.82,301.251,287.201,300.28,287.23z"/>
		<path fill-rule="evenodd" clip-rule="evenodd" fill="#D4C9B9" d="M219.22,172.481c-0.84-0.33-1.83-0.48-2.5-1.02
			c-4.25-3.39-8.43-6.86-13.24-10.81c0.76,3.65,1.14,6.52,2.03,9.22c0.54,1.68,1.85,3.1,2.89,4.74c-1.44,0.31-3.59,0.79-5.97,1.31
			c2.76-4.28,0.08-16.49-3.64-17.77c3.46-2.03,5.19-1.88,8.07,0.47c3.05,2.5,6.19,4.9,9.44,7.46c0.23-5.67-1.51-9.72-5.18-11.04
			c2.76-0.59,4.89-1.05,6.39-1.37c-0.1,2-0.51,3.96-0.24,5.83c0.5,3.53,1.43,6.99,2.08,10.5
			C219.5,170.791,219.27,171.651,219.22,172.481z"/>
		<path fill-rule="evenodd" clip-rule="evenodd" fill="#D4C9B9" d="M305.011,228.951c2.63-2.57,2.29-5.2,0.99-8.32
			c-2.15,0.47-4.221,0.91-7.15,1.55c1.36,2.05,2.36,3.57,3.44,5.209c-1.351,0.311-3.261,0.74-4.88,1.111
			c0.46-1.861,0.899-3.641,1.34-5.431c-0.41-0.36-0.82-0.72-1.221-1.08c-2.119,0.97-4.859,1.43-6.199,3.05
			c-1.45,1.75,0.71,4.76,4.14,6.7c-2.86,1.56-4.39,0.931-5.04-2.13c-0.85-4.02-1.66-8.06-2.25-12.38c1.2,2.92,3.22,2.46,5.43,1.88
			c2.771-0.72,5.65-1.08,8.41-1.88c1.49-0.42,2.811-1.43,4.37-2.26c0.8,3.75,1.74,8.16,2.74,12.82
			C307.69,228.201,306.351,228.571,305.011,228.951z"/>
		<path fill-rule="evenodd" clip-rule="evenodd" fill="#D4C9B9" d="M246.161,316.94c-0.051,1.61-1.971,3.32-3.37,4.67
			c-0.67,0.65-2.03,0.7-3.102,0.811c-3.26,0.32-3.75-0.22-3.809-4.33c0.92,0.87,1.559,1.55,2.279,2.12
			c1.57,1.22,3.28,1.31,4.44-0.36c1.24-1.78,0.311-3.26-1.46-4.08c-1.439-0.66-3-1.02-4.471-1.609
			c-2.439-0.98-3.879-2.761-3.869-5.45c0.01-2.61,1.549-4.23,3.82-5.16c1.09-0.45,2.27-0.76,3.439-0.89
			c3.7-0.41,4.72,0.59,4.98,5.05c-0.971-0.891-1.62-1.891-2.521-2.23c-1.479-0.55-3.13-0.93-4.681-0.84
			c-0.549,0.03-1.639,1.93-1.389,2.48c0.59,1.3,1.68,2.529,2.859,3.39c1.08,0.78,2.88,0.69,3.78,1.57
			C244.461,313.44,246.221,315.331,246.161,316.94z"/>
	</g>
	<path fill-rule="evenodd" clip-rule="evenodd" fill="#D4C9B9" d="M233.643,239.719c0.086,4.535-3.587,8.404-8.126,8.561
		c-4.797,0.164-8.82-3.717-8.815-8.504c0.005-4.535,3.695-8.268,8.312-8.402C229.69,231.236,233.555,234.973,233.643,239.719z"/>
</g>
</svg>
