<?xml version="1.0" encoding="utf-8"?>
<!-- Generator: Adobe Illustrator 16.0.4, SVG Export Plug-In . SVG Version: 6.00 Build 0)  -->
<!DOCTYPE svg PUBLIC "-//W3C//DTD SVG 1.1//EN" "http://www.w3.org/Graphics/SVG/1.1/DTD/svg11.dtd">
<svg version="1.1" id="Layer_1" xmlns="http://www.w3.org/2000/svg" xmlns:xlink="http://www.w3.org/1999/xlink" x="0px" y="0px"
	 width="102.976px" height="102.976px" viewBox="0 0 102.976 102.976" enable-background="new 0 0 102.976 102.976"
	 xml:space="preserve">
<linearGradient id="SVGID_1_" gradientUnits="userSpaceOnUse" x1="17.6304" y1="21.4424" x2="104.737" y2="98.742">
	<stop  offset="0" style="stop-color:#292526"/>
	<stop  offset="1" style="stop-color:#000000"/>
</linearGradient>
<rect fill="url(#SVGID_1_)" width="102.976" height="102.976"/>
<path fill-rule="evenodd" clip-rule="evenodd" fill="#BCBEC0" d="M50.237,25.752c6.222-0.018,11.846,1.779,17.063,5.014
	c1.343,0.83,1.331,0.996,0.493,2.285c-1.385,2.125-2.724,4.281-4.051,6.443c-0.432,0.705-0.916,0.932-1.639,0.451
	c-2.222-1.477-4.675-2.455-7.28-2.873c-5.624-0.906-10.965-0.33-15.414,3.711c-2.913,2.645-4.433,5.984-4.982,9.879
	c-0.607,4.303,0.309,8.189,2.736,11.732c1.941,2.83,4.613,4.775,7.776,6.059c2.95,1.195,6.032,1.4,9.138,0.98
	c1.519-0.205,3.003-0.707,4.479-1.154c0.755-0.229,1.199-0.055,1.545,0.633c1.24,2.465,2.893,4.621,4.892,6.52
	c1.136,1.082,1.073,1.51-0.33,2.223c-2.218,1.129-4.578,1.777-7.01,2.314c-3.278,0.725-6.586,0.689-9.854,0.447
	c-4.676-0.348-9.008-1.967-12.958-4.545c-5.429-3.545-9.277-8.342-11.347-14.484c-1.434-4.258-1.684-8.641-0.868-13.066
	c1.086-5.887,3.708-10.967,8.116-15.049c3.706-3.432,8.01-5.797,13.011-6.711C45.894,26.17,48.075,26.016,50.237,25.752z"/>
<path fill-rule="evenodd" clip-rule="evenodd" fill="#BCBEC0" d="M84.13,62.918c0.003,4.348-3.715,8.057-8.129,7.994
	c-4.48-0.062-8.072-3.438-8.099-7.936c-0.025-4.463,3.532-7.955,8.132-7.967C80.479,54.998,84.125,58.596,84.13,62.918z"/>
</svg>
