<?xml version="1.0" encoding="utf-8"?>
<!-- Generator: Adobe Illustrator 16.0.4, SVG Export Plug-In . SVG Version: 6.00 Build 0)  -->
<!DOCTYPE svg PUBLIC "-//W3C//DTD SVG 1.1//EN" "http://www.w3.org/Graphics/SVG/1.1/DTD/svg11.dtd">
<svg version="1.1" id="Layer_1" xmlns="http://www.w3.org/2000/svg" xmlns:xlink="http://www.w3.org/1999/xlink" x="0px" y="0px"
	 width="102.977px" height="102.975px" viewBox="0 0 102.977 102.975" enable-background="new 0 0 102.977 102.975"
	 xml:space="preserve">
<linearGradient id="SVGID_1_" gradientUnits="userSpaceOnUse" x1="17.6323" y1="21.4429" x2="104.7384" y2="98.742">
	<stop  offset="0" style="stop-color:#ADAFB2"/>
	<stop  offset="1" style="stop-color:#B0B0B0"/>
</linearGradient>
<rect fill="url(#SVGID_1_)" width="102.977" height="102.975"/>
<g>
	<path fill="#58595B" d="M45.207,36.099c-6.514,0-13.025-0.005-19.539,0.003c-2.483,0.003-2.851,0.361-2.858,2.791
		c-0.021,6.443-0.046,12.889-0.046,19.333c0,5.631,0.051,11.262,0.039,16.893c-0.005,1.777,0.512,2.855,2.565,2.75
		c2.028-0.104,4.069-0.023,6.104-0.023c4.41,0,8.819,0.002,13.229-0.004c0.76,0,1.573,0.092,1.313-1.15
		c-0.313-1.518-0.655-3.045-0.741-4.582c-0.024-0.416,0.836-1.242,1.295-1.244c0.905-0.006,2.552,0.35,2.591,0.701
		c0.174,1.549,0.282,3.334-0.344,4.684c-0.722,1.553-0.244,1.602,0.98,1.598c2.172-0.006,4.342-0.002,6.513-0.002
		c3.188,0,6.377,0,9.565-0.002c0.812,0,1.893-0.295,1.071-1.166c-1.39-1.475-0.656-3.074-0.745-4.604
		c-0.022-0.396,0.761-1.168,1.194-1.184c0.932-0.035,2.643,0.201,2.689,0.52c0.226,1.559,0.505,3.445-0.171,4.721
		c-0.927,1.748-0.179,1.703,1.028,1.707c6.513,0.014,13.024-0.004,19.536,0.008c1.4,0.002,2.149-0.561,2.148-2.045
		c-0.014-12.551-0.017-25.099-0.001-37.651c0.002-1.35-0.572-1.955-1.92-2.057c-3.166-0.239-3.227-0.259-3.906-3.348
		c-0.376-1.705-1.254-2.313-2.981-2.273c-4,0.094-8.004,0.024-12.007,0.029c-3.248,0.003-3.358-0.019-4.064,3.067
		c-0.451,1.972-1.433,2.604-3.41,2.573C57.96,36.036,51.582,36.102,45.207,36.099z"/>
	<path fill="#58595B" d="M51.156,61.348c0-4.584-3.431-8.365-7.865-8.916c1.727-0.995,2.891-2.853,2.891-4.987
		c0-3.177-2.573-5.752-5.751-5.752c-3.177,0-5.754,2.575-5.754,5.752c0,2.135,1.167,3.992,2.893,4.987
		c-4.434,0.55-7.866,4.332-7.866,8.916H51.156z"/>
	<g>
		<line fill="#58595B" x1="58.657" y1="45.962" x2="85.346" y2="45.962"/>
		<rect x="58.657" y="44.883" fill="#58595B" width="26.688" height="2.157"/>
	</g>
	<g>
		<line fill="#58595B" x1="58.657" y1="52.971" x2="85.346" y2="52.971"/>
		<rect x="58.657" y="51.893" fill="#58595B" width="26.688" height="2.157"/>
	</g>
	<g>
		<line fill="#58595B" x1="58.657" y1="59.981" x2="85.346" y2="59.981"/>
		<rect x="58.657" y="58.901" fill="#58595B" width="26.688" height="2.158"/>
	</g>
</g>
<g>
	<path fill="#FFFFFF" d="M36.337,26.848c-6.514,0-13.025-0.004-19.539,0.003c-2.483,0.003-2.85,0.362-2.857,2.791
		c-0.021,6.444-0.046,12.89-0.046,19.333c0,5.631,0.05,11.26,0.038,16.893c-0.005,1.777,0.513,2.855,2.565,2.75
		c2.029-0.105,4.069-0.023,6.104-0.023c4.409,0,8.819,0.002,13.228-0.004c0.761,0,1.573,0.092,1.314-1.15
		c-0.314-1.518-0.656-3.047-0.741-4.582c-0.025-0.416,0.835-1.242,1.295-1.246c0.904-0.004,2.551,0.35,2.59,0.701
		c0.174,1.549,0.283,3.336-0.343,4.686c-0.722,1.553-0.245,1.602,0.979,1.598c2.172-0.006,4.342-0.002,6.513-0.002
		c3.188,0,6.377,0,9.565-0.004c0.812,0,1.893-0.293,1.071-1.164c-1.39-1.475-0.655-3.074-0.745-4.605
		c-0.022-0.395,0.761-1.166,1.194-1.184c0.933-0.033,2.643,0.201,2.689,0.521c0.226,1.559,0.506,3.445-0.171,4.721
		c-0.927,1.746-0.179,1.703,1.029,1.707c6.512,0.014,13.023-0.004,19.535,0.006c1.4,0.004,2.15-0.559,2.148-2.045
		c-0.014-12.549-0.017-25.098-0.001-37.65c0.003-1.349-0.571-1.955-1.92-2.057c-3.166-0.238-3.227-0.258-3.905-3.348
		c-0.376-1.705-1.255-2.312-2.982-2.273c-4,0.095-8.004,0.025-12.007,0.029c-3.248,0.003-3.358-0.019-4.063,3.068
		c-0.452,1.971-1.434,2.604-3.41,2.572C49.09,26.785,42.712,26.851,36.337,26.848z"/>
	<path fill="#A7A9AC" d="M42.287,52.097c0-4.583-3.432-8.363-7.866-8.915c1.727-0.994,2.892-2.852,2.892-4.987
		c0-3.177-2.574-5.752-5.752-5.752c-3.177,0-5.753,2.575-5.753,5.752c0,2.136,1.166,3.993,2.892,4.987
		c-4.433,0.552-7.866,4.332-7.866,8.915H42.287z"/>
	<g>
		<line fill="#D1D3D4" x1="49.787" y1="36.711" x2="76.476" y2="36.711"/>
		<rect x="49.787" y="35.633" fill="#D1D3D4" width="26.688" height="2.156"/>
	</g>
	<g>
		<line fill="#D1D3D4" x1="49.787" y1="43.721" x2="76.476" y2="43.721"/>
		<rect x="49.787" y="42.642" fill="#D1D3D4" width="26.688" height="2.157"/>
	</g>
	<g>
		<line fill="#D1D3D4" x1="49.787" y1="50.729" x2="76.476" y2="50.729"/>
		<rect x="49.787" y="49.651" fill="#D1D3D4" width="26.688" height="2.157"/>
	</g>
</g>
</svg>
