<?xml version="1.0" encoding="utf-8"?>
<!-- Generator: Adobe Illustrator 16.0.4, SVG Export Plug-In . SVG Version: 6.00 Build 0)  -->
<!DOCTYPE svg PUBLIC "-//W3C//DTD SVG 1.1//EN" "http://www.w3.org/Graphics/SVG/1.1/DTD/svg11.dtd">
<svg version="1.1" id="Layer_1" xmlns="http://www.w3.org/2000/svg" xmlns:xlink="http://www.w3.org/1999/xlink" x="0px" y="0px"
	 width="102.978px" height="102.977px" viewBox="0 0 102.978 102.977" enable-background="new 0 0 102.978 102.977"
	 xml:space="preserve">
<radialGradient id="SVGID_1_" cx="51.4888" cy="51.4883" r="51.4885" gradientUnits="userSpaceOnUse">
	<stop  offset="0" style="stop-color:#BEBFBF"/>
	<stop  offset="1" style="stop-color:#B7B8B8"/>
</radialGradient>
<rect fill="url(#SVGID_1_)" width="102.978" height="102.977"/>
<g>
	<g>
		<path fill="#3A3A3A" d="M94.835,35.803c0-2.75-2.25-5-5-5H13.964c-2.75,0-5,2.25-5,5v36.873c0,2.75,2.25,5,5,5h27.498
			c2.75,0,5.189,0,5.422,0s0.569,0.295,0.75,0.656s1.932,0.656,3.891,0.656s3.71-0.295,3.891-0.656s2.578-0.656,5.328-0.656h29.092
			c2.75,0,5-2.25,5-5V35.803z"/>
	</g>
	<g>
		<path fill="#BCBEC0" d="M52.087,76.363v-5.062l-7.125-5.437l-19.311-1.312l-8.625,5.812l-1.5,1.312l-4.312,3.375
			c0,0,8.625,3.375,17.249,1.688s18.749-0.562,20.437,0.562s3.188,0.375,3.188,0.375V76.363z"/>
		<linearGradient id="SVGID_2_" gradientUnits="userSpaceOnUse" x1="15.3389" y1="48.189" x2="52.0869" y2="48.189">
			<stop  offset="0" style="stop-color:#D4D5D7"/>
			<stop  offset="1" style="stop-color:#FFFFFF"/>
		</linearGradient>
		<path fill="url(#SVGID_2_)" d="M15.339,28.74c0,0,10.125-1.875,12.375-2.812c2.249-0.938,20.248-4.125,24.373,0.938v45.186
			c0,0-3.188-4.874-22.124-0.938c0,0-8.249,2.25-14.437,0.562L15.339,28.74z"/>
		<linearGradient id="SVGID_3_" gradientUnits="userSpaceOnUse" x1="11.0264" y1="51.8955" x2="15.7139" y2="51.8955">
			<stop  offset="0" style="stop-color:#D4D5D7"/>
			<stop  offset="1" style="stop-color:#FFFFFF"/>
		</linearGradient>
		<polygon fill="url(#SVGID_3_)" points="15.714,28.74 11.026,32.115 11.214,75.051 15.526,71.676 		"/>
	</g>
	<g>
		<path fill="#BCBEC0" d="M51.899,76.363v-5.062l7.125-5.437l19.312-1.312l8.625,5.812l1.5,1.312l4.312,3.375
			c0,0-8.624,3.375-17.249,1.688c-8.624-1.688-18.749-0.562-20.437,0.562s-3.188,0.375-3.188,0.375V76.363z"/>
		
			<linearGradient id="SVGID_4_" gradientUnits="userSpaceOnUse" x1="-293.8457" y1="48.189" x2="-257.0967" y2="48.189" gradientTransform="matrix(-1 0 0 1 -205.1973 0)">
			<stop  offset="0" style="stop-color:#B9BABD"/>
			<stop  offset="1" style="stop-color:#FFFFFF"/>
		</linearGradient>
		<path fill="url(#SVGID_4_)" d="M88.648,28.74c0,0-10.125-1.875-12.374-2.812c-2.25-0.938-20.25-4.125-24.375,0.938v45.186
			c0,0,3.188-4.874,22.125-0.938c0,0,8.249,2.25,14.437,0.562L88.648,28.74z"/>
		<linearGradient id="SVGID_5_" gradientUnits="userSpaceOnUse" x1="88.2725" y1="51.8955" x2="92.96" y2="51.8955">
			<stop  offset="0" style="stop-color:#D4D5D7"/>
			<stop  offset="1" style="stop-color:#FFFFFF"/>
		</linearGradient>
		<polygon fill="url(#SVGID_5_)" points="88.272,28.74 92.96,32.115 92.772,75.051 88.461,71.676 		"/>
	</g>
	<path fill="#2B2A2A" d="M39.49,52.646c0-3.652-2.733-6.663-6.267-7.104c1.376-0.791,2.305-2.271,2.305-3.972
		c0-2.531-2.052-4.583-4.584-4.583c-2.53,0-4.582,2.052-4.582,4.583c0,1.7,0.929,3.181,2.303,3.972
		c-3.531,0.44-6.264,3.451-6.264,7.104H39.49z"/>
	<path fill="#232323" d="M50.252,61.396l-6.53-6.532c-0.582-0.582-1.404-0.771-2.146-0.573l-2.076-2.076
		c4.295-4.738,4.157-12.088-0.412-16.658c-4.713-4.711-12.379-4.711-17.092,0.001c-4.711,4.712-4.711,12.379,0,17.091
		c4.323,4.321,11.131,4.677,15.863,1.069l2.146,2.146c-0.197,0.74-0.007,1.563,0.574,2.146l6.53,6.529
		c0.869,0.869,2.275,0.869,3.145,0C51.12,63.669,51.12,62.262,50.252,61.396z M23.608,51.034c-3.823-3.823-3.823-10.043,0-13.865
		c3.823-3.823,10.043-3.823,13.865-0.001c3.823,3.823,3.823,10.044,0,13.866C33.651,54.857,27.432,54.857,23.608,51.034z"/>
	<path fill="#BCBEC0" d="M50.776,59.997l-6.53-6.531c-0.581-0.582-1.405-0.771-2.146-0.573l-2.076-2.077
		c4.293-4.738,4.156-12.087-0.413-16.657c-4.712-4.712-12.379-4.712-17.091,0c-4.713,4.712-4.713,12.38,0,17.092
		c4.322,4.32,11.129,4.675,15.862,1.068l2.146,2.146c-0.197,0.741-0.008,1.564,0.574,2.146l6.53,6.53
		c0.868,0.868,2.276,0.868,3.145,0C51.645,62.271,51.645,60.864,50.776,59.997z M24.132,49.637c-3.822-3.823-3.822-10.044,0-13.866
		c3.824-3.823,10.043-3.823,13.867,0c3.822,3.822,3.822,10.044,0,13.866C34.175,53.459,27.956,53.459,24.132,49.637z"/>
	<g opacity="0.4">
		<path fill="#3F3F3F" d="M85.089,33.819c-1.132,0-4.386-0.287-11.856-2.677c-9.002-2.881-18.532,0.698-18.626,0.735
			c-0.387,0.147-0.821-0.045-0.969-0.432c-0.148-0.387,0.044-0.82,0.43-0.969c0.409-0.157,10.107-3.809,19.623-0.764
			c8.945,2.862,11.648,2.597,11.676,2.595c0.406-0.045,0.781,0.242,0.834,0.649c0.052,0.406-0.228,0.779-0.633,0.837
			C85.512,33.803,85.361,33.819,85.089,33.819z"/>
		<path fill="#3F3F3F" d="M85.089,37.652c-1.132,0-4.386-0.287-11.856-2.677c-9.002-2.881-18.532,0.699-18.626,0.735
			c-0.386,0.149-0.821-0.045-0.969-0.432c-0.148-0.387,0.044-0.82,0.43-0.969c0.409-0.157,10.107-3.809,19.623-0.764
			c8.945,2.862,11.648,2.598,11.676,2.595c0.406-0.041,0.781,0.242,0.834,0.649c0.052,0.406-0.228,0.779-0.633,0.837
			C85.512,37.636,85.361,37.652,85.089,37.652z"/>
		<path fill="#3F3F3F" d="M85.089,41.486c-1.132,0-4.386-0.288-11.856-2.677c-9.002-2.881-18.532,0.699-18.626,0.736
			c-0.386,0.15-0.821-0.045-0.969-0.432c-0.148-0.387,0.044-0.82,0.43-0.969c0.409-0.157,10.107-3.809,19.623-0.764
			c8.945,2.862,11.648,2.598,11.676,2.595c0.407-0.037,0.781,0.242,0.834,0.649c0.052,0.406-0.228,0.779-0.633,0.837
			C85.512,41.469,85.361,41.486,85.089,41.486z"/>
		<path fill="#3F3F3F" d="M85.089,45.319c-1.132,0-4.386-0.288-11.856-2.678c-9.002-2.881-18.532,0.7-18.626,0.736
			c-0.386,0.149-0.821-0.044-0.969-0.431c-0.148-0.387,0.044-0.821,0.43-0.97c0.409-0.157,10.107-3.809,19.623-0.763
			c8.945,2.862,11.648,2.598,11.676,2.595c0.406-0.041,0.781,0.243,0.834,0.649c0.052,0.407-0.228,0.782-0.633,0.838
			C85.512,45.303,85.361,45.319,85.089,45.319z"/>
		<path fill="#3F3F3F" d="M85.089,49.152c-1.132,0-4.386-0.288-11.856-2.677c-9.002-2.881-18.532,0.699-18.626,0.736
			c-0.386,0.15-0.821-0.045-0.969-0.432c-0.148-0.387,0.044-0.82,0.43-0.969c0.409-0.157,10.107-3.809,19.623-0.764
			c8.945,2.863,11.648,2.599,11.676,2.596c0.407-0.041,0.781,0.242,0.834,0.648c0.052,0.407-0.228,0.78-0.633,0.838
			C85.512,49.136,85.361,49.152,85.089,49.152z"/>
		<path fill="#3F3F3F" d="M85.089,52.985c-1.132,0-4.386-0.287-11.856-2.677c-9.002-2.881-18.532,0.699-18.626,0.736
			c-0.386,0.15-0.821-0.045-0.969-0.432c-0.148-0.387,0.044-0.82,0.43-0.969c0.409-0.157,10.107-3.809,19.623-0.764
			c8.945,2.862,11.648,2.598,11.676,2.595c0.406-0.045,0.781,0.242,0.834,0.648c0.052,0.407-0.228,0.78-0.633,0.838
			C85.512,52.969,85.361,52.985,85.089,52.985z"/>
		<path fill="#3F3F3F" d="M85.089,56.818c-1.132,0-4.386-0.287-11.856-2.677C64.23,51.26,54.7,54.841,54.606,54.877
			c-0.386,0.149-0.821-0.045-0.969-0.432c-0.148-0.387,0.044-0.82,0.43-0.969c0.409-0.157,10.107-3.809,19.623-0.764
			c8.945,2.862,11.648,2.598,11.676,2.595c0.406-0.045,0.781,0.243,0.834,0.649c0.052,0.406-0.228,0.779-0.633,0.837
			C85.512,56.802,85.361,56.818,85.089,56.818z"/>
		<path fill="#3F3F3F" d="M85.089,60.652c-1.132,0-4.386-0.288-11.856-2.678C64.23,55.094,54.7,58.674,54.606,58.71
			c-0.387,0.147-0.821-0.044-0.969-0.431c-0.148-0.387,0.044-0.82,0.43-0.97c0.409-0.157,10.107-3.81,19.623-0.764
			c8.945,2.862,11.648,2.598,11.676,2.595c0.406-0.045,0.781,0.242,0.834,0.649c0.052,0.407-0.227,0.783-0.633,0.838
			C85.512,60.636,85.361,60.652,85.089,60.652z"/>
		<path fill="#3F3F3F" d="M85.089,64.485c-1.132,0-4.386-0.288-11.856-2.678c-9.002-2.881-18.532,0.7-18.626,0.736
			c-0.386,0.149-0.821-0.045-0.969-0.432c-0.148-0.387,0.044-0.821,0.43-0.97c0.409-0.157,10.107-3.809,19.623-0.764
			c8.945,2.862,11.648,2.599,11.676,2.596c0.406-0.045,0.781,0.242,0.834,0.648c0.052,0.407-0.228,0.78-0.633,0.838
			C85.512,64.469,85.361,64.485,85.089,64.485z"/>
		<path fill="#3F3F3F" d="M85.089,68.318c-1.132,0-4.386-0.288-11.856-2.678C64.23,62.76,54.7,66.34,54.606,66.377
			c-0.387,0.147-0.821-0.045-0.969-0.432c-0.148-0.387,0.044-0.82,0.43-0.97c0.409-0.156,10.107-3.809,19.623-0.764
			c8.945,2.862,11.648,2.599,11.676,2.596c0.406-0.046,0.781,0.242,0.834,0.648c0.052,0.407-0.228,0.779-0.633,0.838
			C85.512,68.302,85.361,68.318,85.089,68.318z"/>
	</g>
</g>
</svg>
