<?xml version="1.0" encoding="utf-8"?>
<!-- Generator: Adobe Illustrator 16.0.4, SVG Export Plug-In . SVG Version: 6.00 Build 0)  -->
<!DOCTYPE svg PUBLIC "-//W3C//DTD SVG 1.1//EN" "http://www.w3.org/Graphics/SVG/1.1/DTD/svg11.dtd">
<svg version="1.1" id="Layer_1" xmlns="http://www.w3.org/2000/svg" xmlns:xlink="http://www.w3.org/1999/xlink" x="0px" y="0px"
	 width="102.978px" height="102.977px" viewBox="0 0 102.978 102.977" enable-background="new 0 0 102.978 102.977"
	 xml:space="preserve">
<radialGradient id="SVGID_1_" cx="51.4888" cy="51.4883" r="51.4885" gradientUnits="userSpaceOnUse">
	<stop  offset="0" style="stop-color:#BEBFBF"/>
	<stop  offset="1" style="stop-color:#B7B8B8"/>
</radialGradient>
<rect fill="url(#SVGID_1_)" width="102.978" height="102.977"/>
<g>
	<g>
		<path d="M82.318,78.977c5.579-5.586,1.155-10.199-9.749-10.885c5.85-1.208,11.32-3.472,14.126-6.076
			c4.176-3.876,1.354-7.032-6.301-7.051c-7.655-0.02-17.825,3.117-22.714,7.004c-3.285,2.611-3.115,4.888-0.099,6.107
			c-12.48,0.664-27.689,5.285-35.188,10.9H82.318z"/>
	</g>
	<path fill="#FFFFFF" d="M80.583,78.977c0-12.805-9.585-23.363-21.971-24.906c4.822-2.775,8.078-7.967,8.078-13.93
		c0-8.875-7.194-16.068-16.069-16.068c-8.876,0-16.069,7.193-16.069,16.068c0,5.963,3.256,11.154,8.078,13.93
		c-12.386,1.543-21.973,12.102-21.973,24.906H80.583z"/>
</g>
</svg>
