<?xml version="1.0" encoding="utf-8"?>
<!-- Generator: Adobe Illustrator 16.0.4, SVG Export Plug-In . SVG Version: 6.00 Build 0)  -->
<!DOCTYPE svg PUBLIC "-//W3C//DTD SVG 1.1//EN" "http://www.w3.org/Graphics/SVG/1.1/DTD/svg11.dtd">
<svg version="1.1" id="Layer_1" xmlns="http://www.w3.org/2000/svg" xmlns:xlink="http://www.w3.org/1999/xlink" x="0px" y="0px"
	 width="102.978px" height="102.976px" viewBox="0 0 102.978 102.976" enable-background="new 0 0 102.978 102.976"
	 xml:space="preserve">
<radialGradient id="SVGID_1_" cx="51.4888" cy="51.4878" r="51.4883" gradientUnits="userSpaceOnUse">
	<stop  offset="0" style="stop-color:#BEBFBF"/>
	<stop  offset="1" style="stop-color:#B7B8B8"/>
</radialGradient>
<rect fill="url(#SVGID_1_)" width="102.978" height="102.976"/>
<g>
	<g opacity="0.5">
		<path fill="#808285" d="M50.555,72.38c1.11-0.494,1.111-0.495,1.849,0.131c1.275,1.084,2.529,2.195,3.833,3.246
			c1.337,1.078,3.248,0.579,3.952-0.985c0.526-1.168,0.229-2.382-0.855-3.34c-1.043-0.921-2.107-1.816-3.107-2.675
			c0.27-0.363,0.464-0.628,0.685-0.928c1.894,1.606,3.65,3.153,5.47,4.624c1.723,1.392,4.043,0.597,4.571-1.545
			c0.312-1.264-0.173-2.284-1.146-3.113c-1.801-1.534-3.587-3.082-5.454-4.689c0.246-0.345,0.481-0.671,0.765-1.065
			c0.998,0.829,1.896,1.564,2.781,2.314c1.507,1.277,2.989,2.586,4.517,3.841c1.056,0.866,2.23,0.948,3.267,0.328
			c1.041-0.62,1.779-1.98,1.321-3.092c-0.403-0.974-1.127-1.897-1.918-2.61c-2.053-1.849-4.197-3.593-6.344-5.332
			c-2.729-2.213-5.453-4.438-8.26-6.549c-2.222-1.669-4.269-1.202-5.82,1.131c-0.316,0.474-0.6,0.974-0.958,1.413
			c-0.942,1.155-2.168,1.669-3.65,1.373c-1.514-0.303-2.49-1.241-2.936-2.714c-0.421-1.392-0.088-2.636,0.796-3.762
			c1.273-1.626,2.537-3.258,3.965-5.09c-2.562,0.433-4.711,1.162-6.718,2.353c-1.894,1.122-3.271,2.605-4.256,4.63
			c-2.177,4.482-4.553,8.867-6.843,13.295c-0.225,0.432-0.422,0.878-0.678,1.411c0.365,0.03,0.588,0.07,0.811,0.065
			c1.991-0.048,3.939,0.145,5.817,0.891c0.28,0.111,0.701-0.005,1.018-0.119c2.087-0.771,4.311,0.291,4.987,2.419
			c0.139,0.433,0.216,0.886,0.327,1.357c1.28-0.25,2.568-0.334,3.479,0.585c0.806,0.812,1.333,1.897,2.039,2.941
			c3.344-0.775,5.831,2.438,3.897,5.939c0.086,0.044,0.168,0.114,0.258,0.128c1.021,0.16,1.864-0.264,2.338-1.166
			c0.475-0.901,0.334-1.995-0.48-2.76C52.823,74.28,51.704,73.372,50.555,72.38z"/>
		<path fill="#808285" d="M73.888,45.132c4.482,8.643,8.895,17.15,13.357,25.754c4.158-2.29,8.206-4.521,12.32-6.787
			c-5.666-8.017-11.221-15.876-16.803-23.775C79.76,41.95,76.882,43.508,73.888,45.132z"/>
		<path fill="#808285" d="M82.362,64.172c-0.945-1.814-1.792-3.436-2.632-5.058c-2.093-4.039-4.197-8.073-6.263-12.128
			c-0.322-0.631-0.71-0.81-1.404-0.807c-1.232,0.004-2.521,0.049-3.686-0.279c-2.439-0.688-4.871-1.472-7.199-2.467
			c-2.937-1.255-5.702-1.328-8.835-0.446c-3.787,1.065-5.849,3.833-8.013,6.602c-0.972,1.241-0.382,3.093,0.964,3.933
			c1.262,0.788,2.875,0.417,3.804-0.876c0.545-0.761,1.041-1.564,1.646-2.275c1.397-1.649,3.563-2.012,5.421-0.946
			c0.666,0.383,1.338,0.774,1.946,1.24c4.196,3.211,8.404,6.405,12.544,9.69c1.203,0.954,2.184,2.189,3.293,3.271
			c0.158,0.154,0.455,0.237,0.686,0.232c0.762-0.016,1.524-0.165,2.279-0.123C78.657,63.831,80.396,64.008,82.362,64.172z"/>
		<path fill="#808285" d="M38.03,45.126c-2.739-1.483-5.369-2.869-7.957-4.333c-0.709-0.4-1.049-0.328-1.518,0.341
			c-4.36,6.224-8.759,12.421-13.143,18.627c-1,1.413-1.99,2.83-3.057,4.35c4.158,2.284,8.208,4.51,12.322,6.771
			C29.154,62.247,33.555,53.759,38.03,45.126z"/>
		<path fill="#808285" d="M36.948,75.298c0.559-0.265,1.339-0.383,1.636-0.825c0.977-1.454,1.914-2.967,2.595-4.571
			c0.468-1.104-0.409-2.487-1.549-3.059c-1.088-0.545-2.576-0.356-3.275,0.657c-0.865,1.257-1.684,2.595-2.224,4.013
			C33.461,73.263,35.013,75.174,36.948,75.298z"/>
		<path fill="#808285" d="M43.524,70.221c-0.667,0.389-1.539,0.628-1.957,1.199c-0.859,1.174-1.572,2.483-2.163,3.817
			c-0.559,1.266,0.181,2.869,1.406,3.488c1.243,0.629,2.75,0.285,3.544-0.924c0.695-1.058,1.348-2.159,1.878-3.307
			C47.106,72.605,45.686,70.434,43.524,70.221z"/>
		<path fill="#808285" d="M48.749,73.861c-0.599,0.377-1.361,0.63-1.759,1.157c-0.735,0.981-1.341,2.086-1.842,3.208
			c-0.545,1.22,0.065,2.662,1.216,3.259c1.137,0.589,2.487,0.302,3.2-0.784c0.621-0.947,1.204-1.936,1.673-2.967
			C52.036,75.971,50.75,74.029,48.749,73.861z"/>
		<path fill-rule="evenodd" clip-rule="evenodd" fill="#808285" d="M50.555,72.38c1.149,0.992,2.269,1.9,3.317,2.882
			c0.814,0.765,0.955,1.858,0.48,2.76c-0.474,0.902-1.317,1.326-2.338,1.166c-0.09-0.014-0.172-0.084-0.258-0.128
			c1.934-3.502-0.554-6.715-3.897-5.939c-0.706-1.044-1.233-2.129-2.039-2.941c-0.91-0.919-2.198-0.835-3.479-0.585
			c-0.111-0.472-0.188-0.925-0.327-1.357c-0.677-2.128-2.9-3.189-4.987-2.419c-0.316,0.114-0.737,0.23-1.018,0.119
			c-1.878-0.746-3.826-0.938-5.817-0.891c-0.223,0.005-0.445-0.035-0.811-0.065c0.256-0.533,0.453-0.979,0.678-1.411
			c2.29-4.428,4.666-8.812,6.843-13.295c0.984-2.024,2.362-3.508,4.256-4.63c2.007-1.19,4.156-1.92,6.718-2.353
			c-1.428,1.832-2.691,3.464-3.965,5.09c-0.884,1.126-1.217,2.37-0.796,3.762c0.445,1.473,1.422,2.411,2.936,2.714
			c1.482,0.296,2.708-0.218,3.65-1.373c0.358-0.439,0.642-0.939,0.958-1.413c1.552-2.333,3.599-2.8,5.82-1.131
			c2.807,2.111,5.53,4.336,8.26,6.549c2.146,1.739,4.291,3.483,6.344,5.332c0.791,0.713,1.515,1.637,1.918,2.61
			c0.458,1.111-0.28,2.472-1.321,3.092c-1.036,0.62-2.211,0.538-3.267-0.328c-1.527-1.255-3.01-2.563-4.517-3.841
			c-0.885-0.75-1.783-1.485-2.781-2.314c-0.283,0.395-0.519,0.721-0.765,1.065c1.867,1.607,3.653,3.155,5.454,4.689
			c0.974,0.829,1.458,1.85,1.146,3.113c-0.528,2.142-2.849,2.937-4.571,1.545c-1.819-1.471-3.576-3.018-5.47-4.624
			c-0.221,0.3-0.415,0.564-0.685,0.928c1,0.858,2.064,1.754,3.107,2.675c1.084,0.958,1.382,2.172,0.855,3.34
			c-0.704,1.564-2.615,2.063-3.952,0.985c-1.304-1.051-2.558-2.162-3.833-3.246C51.666,71.885,51.665,71.886,50.555,72.38z"/>
		<path fill-rule="evenodd" clip-rule="evenodd" fill="#808285" d="M73.888,45.132c2.994-1.624,5.872-3.182,8.875-4.809
			c5.582,7.899,11.137,15.759,16.803,23.775c-4.114,2.267-8.162,4.497-12.32,6.787C82.782,62.282,78.37,53.774,73.888,45.132z"/>
		<path fill-rule="evenodd" clip-rule="evenodd" fill="#808285" d="M82.362,64.172c-1.967-0.164-3.705-0.341-5.449-0.437
			c-0.755-0.042-1.518,0.107-2.279,0.123c-0.23,0.005-0.527-0.078-0.686-0.232c-1.109-1.082-2.09-2.317-3.293-3.271
			c-4.14-3.285-8.348-6.479-12.544-9.69c-0.608-0.466-1.28-0.857-1.946-1.24c-1.857-1.065-4.023-0.703-5.421,0.946
			c-0.604,0.711-1.101,1.515-1.646,2.275c-0.929,1.293-2.542,1.664-3.804,0.876c-1.346-0.84-1.936-2.691-0.964-3.933
			c2.164-2.769,4.226-5.536,8.013-6.602c3.133-0.882,5.898-0.809,8.835,0.446c2.328,0.995,4.76,1.778,7.199,2.467
			c1.164,0.328,2.453,0.283,3.686,0.279c0.694-0.003,1.082,0.176,1.404,0.807c2.065,4.055,4.17,8.089,6.263,12.128
			C80.57,60.736,81.417,62.357,82.362,64.172z"/>
		<path fill-rule="evenodd" clip-rule="evenodd" fill="#808285" d="M38.03,45.126c-4.476,8.633-8.876,17.121-13.352,25.756
			c-4.114-2.262-8.164-4.487-12.322-6.771c1.066-1.52,2.057-2.937,3.057-4.35c4.384-6.206,8.782-12.403,13.143-18.627
			c0.469-0.669,0.809-0.741,1.518-0.341C32.661,42.257,35.291,43.643,38.03,45.126z M19.453,60.73
			c-0.898-0.024-1.663,0.71-1.696,1.629c-0.032,0.953,0.631,1.68,1.571,1.719c0.932,0.037,1.718-0.647,1.773-1.545
			C21.157,61.614,20.373,60.757,19.453,60.73z"/>
		<path fill-rule="evenodd" clip-rule="evenodd" fill="#808285" d="M36.948,75.298c-1.936-0.124-3.487-2.035-2.817-3.785
			c0.54-1.418,1.358-2.756,2.224-4.013c0.699-1.014,2.188-1.202,3.275-0.657c1.14,0.571,2.017,1.955,1.549,3.059
			c-0.681,1.604-1.618,3.117-2.595,4.571C38.287,74.915,37.507,75.033,36.948,75.298z"/>
		<path fill-rule="evenodd" clip-rule="evenodd" fill="#808285" d="M43.524,70.221c2.161,0.213,3.582,2.385,2.708,4.274
			c-0.53,1.147-1.183,2.249-1.878,3.307c-0.794,1.209-2.301,1.553-3.544,0.924c-1.226-0.619-1.965-2.223-1.406-3.488
			c0.591-1.334,1.304-2.644,2.163-3.817C41.985,70.849,42.857,70.609,43.524,70.221z"/>
		<path fill-rule="evenodd" clip-rule="evenodd" fill="#808285" d="M48.749,73.861c2.001,0.168,3.287,2.109,2.488,3.873
			c-0.469,1.031-1.052,2.02-1.673,2.967c-0.713,1.086-2.063,1.373-3.2,0.784c-1.15-0.597-1.761-2.039-1.216-3.259
			c0.501-1.122,1.106-2.227,1.842-3.208C47.388,74.491,48.15,74.238,48.749,73.861z"/>
		<path fill-rule="evenodd" clip-rule="evenodd" fill="#808285" d="M19.453,60.73c0.92,0.026,1.704,0.884,1.648,1.803
			c-0.056,0.897-0.842,1.582-1.773,1.545c-0.94-0.039-1.604-0.766-1.571-1.719C17.79,61.44,18.555,60.706,19.453,60.73z"/>
	</g>
	<g>
		<path fill="#58595B" d="M45.065,60.811c1.109-0.495,1.11-0.496,1.847,0.13c1.276,1.084,2.529,2.195,3.834,3.246
			c1.337,1.079,3.248,0.579,3.952-0.985c0.525-1.168,0.229-2.381-0.855-3.34c-1.043-0.921-2.108-1.816-3.107-2.674
			c0.269-0.364,0.464-0.629,0.685-0.929c1.893,1.606,3.65,3.153,5.47,4.624c1.723,1.392,4.043,0.597,4.57-1.545
			c0.312-1.263-0.172-2.284-1.146-3.113c-1.8-1.534-3.587-3.082-5.453-4.689c0.246-0.345,0.481-0.671,0.765-1.064
			c0.998,0.829,1.896,1.564,2.78,2.313c1.508,1.277,2.99,2.587,4.518,3.841c1.056,0.867,2.23,0.948,3.267,0.328
			c1.041-0.62,1.778-1.98,1.32-3.092c-0.402-0.973-1.126-1.897-1.918-2.61c-2.052-1.848-4.196-3.593-6.343-5.332
			c-2.73-2.213-5.453-4.438-8.26-6.548c-2.222-1.669-4.27-1.203-5.821,1.131c-0.316,0.474-0.6,0.973-0.958,1.413
			c-0.942,1.155-2.167,1.669-3.649,1.373c-1.514-0.302-2.49-1.24-2.936-2.713c-0.422-1.393-0.088-2.636,0.796-3.763
			c1.272-1.626,2.537-3.257,3.965-5.09c-2.562,0.433-4.712,1.163-6.719,2.353c-1.892,1.122-3.271,2.605-4.255,4.63
			c-2.177,4.483-4.553,8.868-6.844,13.295c-0.225,0.432-0.422,0.877-0.677,1.411c0.365,0.03,0.588,0.069,0.811,0.064
			c1.99-0.048,3.94,0.146,5.817,0.891c0.28,0.112,0.7-0.004,1.017-0.119c2.088-0.771,4.312,0.291,4.988,2.419
			c0.138,0.433,0.216,0.886,0.328,1.357c1.278-0.25,2.566-0.334,3.477,0.585c0.807,0.813,1.334,1.898,2.04,2.942
			c3.343-0.776,5.83,2.438,3.896,5.938c0.086,0.044,0.168,0.114,0.258,0.129c1.021,0.159,1.865-0.265,2.338-1.167
			c0.475-0.9,0.335-1.995-0.48-2.759C47.333,62.71,46.214,61.802,45.065,60.811z"/>
		<path fill="#58595B" d="M68.397,33.562c4.481,8.644,8.895,17.15,13.357,25.754c4.157-2.291,8.206-4.521,12.32-6.787
			c-5.666-8.017-11.221-15.875-16.804-23.775C74.269,30.38,71.392,31.938,68.397,33.562z"/>
		<path fill="#58595B" d="M76.872,52.602c-0.945-1.814-1.792-3.435-2.633-5.057c-2.092-4.039-4.197-8.074-6.263-12.128
			c-0.321-0.631-0.709-0.81-1.403-0.807c-1.232,0.004-2.521,0.049-3.687-0.279c-2.438-0.688-4.87-1.472-7.199-2.467
			c-2.936-1.255-5.702-1.328-8.835-0.446c-3.786,1.065-5.849,3.833-8.013,6.602c-0.972,1.241-0.381,3.093,0.965,3.933
			c1.262,0.788,2.875,0.417,3.803-0.876c0.546-0.761,1.041-1.564,1.646-2.275c1.396-1.649,3.563-2.011,5.42-0.946
			c0.667,0.383,1.339,0.775,1.946,1.24c4.197,3.211,8.404,6.406,12.544,9.69c1.204,0.955,2.186,2.189,3.294,3.272
			c0.157,0.154,0.454,0.237,0.685,0.231c0.763-0.016,1.525-0.164,2.28-0.123C73.166,52.261,74.905,52.438,76.872,52.602z"/>
		<path fill="#58595B" d="M32.54,33.556c-2.739-1.483-5.37-2.869-7.957-4.333c-0.709-0.4-1.05-0.328-1.519,0.341
			c-4.359,6.224-8.758,12.421-13.142,18.627c-1,1.412-1.99,2.829-3.058,4.349c4.158,2.284,8.209,4.511,12.323,6.771
			C23.664,50.677,28.064,42.188,32.54,33.556z"/>
		<path fill="#58595B" d="M31.458,63.728c0.559-0.265,1.339-0.383,1.636-0.825c0.976-1.453,1.914-2.967,2.595-4.571
			c0.467-1.103-0.408-2.487-1.55-3.059c-1.088-0.545-2.575-0.356-3.275,0.658c-0.864,1.257-1.684,2.595-2.223,4.012
			C27.971,61.693,29.522,63.604,31.458,63.728z"/>
		<path fill="#58595B" d="M38.034,58.65c-0.668,0.39-1.539,0.628-1.957,1.199c-0.859,1.174-1.572,2.484-2.163,3.818
			c-0.56,1.266,0.181,2.869,1.406,3.487c1.242,0.63,2.75,0.285,3.543-0.924c0.695-1.058,1.348-2.158,1.878-3.306
			C41.616,61.035,40.194,58.864,38.034,58.65z"/>
		<path fill="#58595B" d="M43.258,62.291c-0.598,0.378-1.361,0.63-1.757,1.157c-0.736,0.981-1.342,2.086-1.844,3.208
			c-0.545,1.22,0.066,2.662,1.217,3.259c1.137,0.589,2.486,0.303,3.2-0.784c0.62-0.947,1.204-1.936,1.673-2.967
			C46.545,64.4,45.26,62.459,43.258,62.291z"/>
		<path fill-rule="evenodd" clip-rule="evenodd" fill="#58595B" d="M45.065,60.811c1.148,0.991,2.268,1.899,3.315,2.882
			c0.815,0.764,0.955,1.858,0.48,2.759c-0.473,0.902-1.316,1.326-2.338,1.167c-0.09-0.015-0.172-0.085-0.258-0.129
			c1.934-3.501-0.554-6.715-3.896-5.938c-0.706-1.044-1.233-2.129-2.04-2.942c-0.91-0.919-2.198-0.835-3.477-0.585
			c-0.112-0.472-0.19-0.925-0.328-1.357c-0.677-2.128-2.9-3.189-4.988-2.419c-0.316,0.115-0.736,0.231-1.017,0.119
			c-1.877-0.745-3.827-0.938-5.817-0.891c-0.223,0.005-0.445-0.034-0.811-0.064c0.255-0.534,0.452-0.979,0.677-1.411
			c2.291-4.428,4.667-8.812,6.844-13.295c0.983-2.025,2.363-3.508,4.255-4.63c2.007-1.19,4.157-1.92,6.719-2.353
			c-1.428,1.833-2.692,3.464-3.965,5.09c-0.884,1.126-1.218,2.37-0.796,3.763c0.445,1.473,1.422,2.411,2.936,2.713
			c1.482,0.296,2.707-0.218,3.649-1.373c0.358-0.439,0.642-0.939,0.958-1.413c1.552-2.333,3.6-2.8,5.821-1.131
			c2.807,2.111,5.529,4.335,8.26,6.548c2.146,1.739,4.291,3.484,6.343,5.332c0.792,0.713,1.516,1.638,1.918,2.61
			c0.458,1.111-0.279,2.472-1.32,3.092c-1.036,0.62-2.211,0.539-3.267-0.328c-1.527-1.254-3.01-2.563-4.518-3.841
			c-0.885-0.749-1.782-1.484-2.78-2.313c-0.283,0.394-0.519,0.72-0.765,1.064c1.866,1.607,3.653,3.155,5.453,4.689
			c0.975,0.829,1.459,1.851,1.146,3.113c-0.527,2.142-2.848,2.937-4.57,1.545c-1.819-1.471-3.577-3.018-5.47-4.624
			c-0.221,0.3-0.416,0.564-0.685,0.929c0.999,0.857,2.064,1.753,3.107,2.674c1.084,0.959,1.381,2.172,0.855,3.34
			c-0.704,1.564-2.615,2.064-3.952,0.985c-1.305-1.051-2.558-2.162-3.834-3.246C46.176,60.314,46.175,60.315,45.065,60.811z"/>
		<path fill-rule="evenodd" clip-rule="evenodd" fill="#58595B" d="M68.397,33.562c2.994-1.624,5.871-3.181,8.874-4.808
			c5.583,7.899,11.138,15.758,16.804,23.775c-4.114,2.266-8.163,4.496-12.32,6.787C77.292,50.712,72.879,42.205,68.397,33.562z"/>
		<path fill-rule="evenodd" clip-rule="evenodd" fill="#58595B" d="M76.872,52.602c-1.967-0.164-3.706-0.341-5.449-0.437
			c-0.755-0.041-1.518,0.107-2.28,0.123c-0.23,0.006-0.527-0.077-0.685-0.231c-1.108-1.083-2.09-2.317-3.294-3.272
			c-4.14-3.284-8.347-6.479-12.544-9.69c-0.607-0.465-1.279-0.857-1.946-1.24c-1.856-1.064-4.023-0.703-5.42,0.946
			c-0.605,0.711-1.101,1.515-1.646,2.275c-0.928,1.293-2.541,1.664-3.803,0.876c-1.346-0.84-1.937-2.691-0.965-3.933
			c2.164-2.768,4.227-5.536,8.013-6.602c3.133-0.881,5.899-0.809,8.835,0.446c2.329,0.996,4.761,1.779,7.199,2.467
			c1.165,0.328,2.454,0.283,3.687,0.279c0.694-0.003,1.082,0.176,1.403,0.807c2.065,4.054,4.171,8.089,6.263,12.128
			C75.08,49.167,75.927,50.787,76.872,52.602z"/>
		<path fill-rule="evenodd" clip-rule="evenodd" fill="#58595B" d="M32.54,33.556c-4.476,8.633-8.876,17.121-13.352,25.756
			c-4.114-2.261-8.165-4.487-12.323-6.771c1.067-1.52,2.058-2.937,3.058-4.349c4.384-6.206,8.782-12.404,13.142-18.627
			c0.469-0.669,0.81-0.742,1.519-0.341C27.17,30.687,29.801,32.073,32.54,33.556z M13.962,49.161
			c-0.897-0.025-1.662,0.709-1.695,1.629c-0.033,0.952,0.631,1.679,1.57,1.718c0.932,0.037,1.719-0.647,1.773-1.544
			C15.666,50.044,14.882,49.187,13.962,49.161z"/>
		<path fill-rule="evenodd" clip-rule="evenodd" fill="#58595B" d="M31.458,63.728c-1.936-0.123-3.487-2.034-2.817-3.785
			c0.539-1.417,1.358-2.755,2.223-4.012c0.7-1.015,2.188-1.203,3.275-0.658c1.142,0.571,2.017,1.956,1.55,3.059
			c-0.681,1.604-1.619,3.118-2.595,4.571C32.797,63.345,32.017,63.463,31.458,63.728z"/>
		<path fill-rule="evenodd" clip-rule="evenodd" fill="#58595B" d="M38.034,58.65c2.16,0.214,3.582,2.385,2.707,4.275
			c-0.53,1.147-1.183,2.248-1.878,3.306c-0.793,1.209-2.301,1.554-3.543,0.924c-1.226-0.618-1.966-2.222-1.406-3.487
			c0.591-1.334,1.304-2.645,2.163-3.818C36.495,59.278,37.366,59.04,38.034,58.65z"/>
		<path fill-rule="evenodd" clip-rule="evenodd" fill="#58595B" d="M43.258,62.291c2.002,0.168,3.287,2.109,2.489,3.873
			c-0.469,1.031-1.053,2.02-1.673,2.967c-0.714,1.087-2.063,1.373-3.2,0.784c-1.15-0.597-1.762-2.039-1.217-3.259
			c0.502-1.122,1.107-2.227,1.844-3.208C41.896,62.921,42.66,62.669,43.258,62.291z"/>
		<path fill-rule="evenodd" clip-rule="evenodd" fill="#58595B" d="M13.962,49.161c0.92,0.025,1.704,0.883,1.648,1.803
			c-0.055,0.896-0.842,1.581-1.773,1.544c-0.939-0.039-1.604-0.766-1.57-1.718C12.3,49.87,13.064,49.136,13.962,49.161z"/>
	</g>
</g>
</svg>
