<?xml version="1.0" encoding="utf-8"?>
<!-- Generator: Adobe Illustrator 16.0.4, SVG Export Plug-In . SVG Version: 6.00 Build 0)  -->
<!DOCTYPE svg PUBLIC "-//W3C//DTD SVG 1.1//EN" "http://www.w3.org/Graphics/SVG/1.1/DTD/svg11.dtd">
<svg version="1.1" id="Layer_1" xmlns="http://www.w3.org/2000/svg" xmlns:xlink="http://www.w3.org/1999/xlink" x="0px" y="0px"
	 width="102.977px" height="102.977px" viewBox="0 0 102.977 102.977" enable-background="new 0 0 102.977 102.977"
	 xml:space="preserve">
<g>
	<radialGradient id="SVGID_1_" cx="51.4888" cy="51.4888" r="51.4883" gradientUnits="userSpaceOnUse">
		<stop  offset="0" style="stop-color:#FFFFFF"/>
		<stop  offset="1" style="stop-color:#E7E8E8"/>
	</radialGradient>
	<rect fill="url(#SVGID_1_)" width="102.977" height="102.977"/>
	<g>
		<path d="M10.967,48.413h0.618v6.399h9.149v-6.399h0.618v14.252h-0.618V55.35h-9.149v7.314h-0.618V48.413z"/>
		<path d="M30.183,60.891h-0.04c-0.147,0.252-0.326,0.495-0.539,0.727c-0.212,0.233-0.462,0.439-0.748,0.619
			s-0.615,0.325-0.986,0.438c-0.373,0.113-0.797,0.17-1.276,0.17c-1.05,0-1.857-0.285-2.422-0.857
			c-0.565-0.57-0.847-1.322-0.847-2.252V52.36h0.618v7.314c0,0.892,0.242,1.556,0.728,1.994c0.485,0.438,1.159,0.657,2.023,0.657
			c0.518,0,0.99-0.085,1.415-0.259c0.425-0.172,0.791-0.402,1.096-0.688s0.545-0.618,0.718-0.996
			c0.172-0.379,0.259-0.768,0.259-1.166V52.36h0.598v10.305h-0.598V60.891z"/>
		<path d="M39.552,62.665h-0.598V55.35c0-0.878-0.227-1.531-0.678-1.964c-0.451-0.432-1.056-0.647-1.813-0.647
			c-0.479,0-0.917,0.083-1.316,0.249c-0.398,0.166-0.745,0.389-1.036,0.668c-0.292,0.278-0.519,0.601-0.678,0.966
			c-0.159,0.366-0.239,0.742-0.239,1.127v6.916h-0.598V52.36h0.598v1.793h0.04c0.146-0.252,0.315-0.494,0.509-0.728
			c0.192-0.231,0.425-0.438,0.697-0.617c0.272-0.179,0.582-0.325,0.927-0.438c0.346-0.113,0.744-0.17,1.196-0.17
			c0.771,0,1.395,0.188,1.874,0.559c0.478,0.372,0.79,0.883,0.936,1.535h0.06c0.279-0.598,0.705-1.097,1.276-1.495
			c0.571-0.399,1.295-0.599,2.172-0.599c0.983,0,1.73,0.286,2.242,0.857c0.512,0.572,0.768,1.315,0.768,2.232v7.375h-0.598V55.35
			c0-0.878-0.219-1.531-0.657-1.964c-0.439-0.432-1.057-0.647-1.854-0.647c-0.479,0-0.917,0.08-1.315,0.239
			c-0.399,0.159-0.737,0.371-1.017,0.638c-0.279,0.266-0.499,0.584-0.658,0.956s-0.239,0.765-0.239,1.177V62.665z"/>
		<path d="M55.538,62.785c-0.452,0-0.771-0.13-0.957-0.389c-0.187-0.259-0.279-0.602-0.279-1.026v-0.698h-0.039
			c-0.121,0.293-0.297,0.571-0.529,0.837c-0.232,0.267-0.515,0.499-0.846,0.699c-0.333,0.198-0.709,0.357-1.127,0.477
			c-0.418,0.121-0.887,0.18-1.405,0.18c-0.984,0-1.777-0.245-2.382-0.737c-0.605-0.491-0.907-1.176-0.907-2.054
			c0-0.557,0.106-1.02,0.319-1.385c0.212-0.365,0.501-0.657,0.867-0.877c0.365-0.219,0.787-0.385,1.266-0.498
			c0.478-0.113,0.99-0.202,1.535-0.27c0.638-0.066,1.163-0.135,1.575-0.209c0.412-0.072,0.744-0.166,0.996-0.279
			c0.252-0.112,0.429-0.256,0.529-0.429c0.1-0.172,0.148-0.397,0.148-0.677v-0.16c0-1.715-0.957-2.571-2.87-2.571
			c-1.01,0-1.794,0.21-2.352,0.628c-0.559,0.418-0.871,1.08-0.938,1.983h-0.618c0.04-0.451,0.14-0.87,0.299-1.256
			c0.16-0.385,0.399-0.718,0.718-0.997c0.319-0.278,0.714-0.498,1.186-0.658c0.472-0.158,1.039-0.238,1.704-0.238
			c1.156,0,2.023,0.266,2.601,0.798c0.578,0.531,0.867,1.309,0.867,2.331v6.001c0,0.385,0.07,0.645,0.21,0.776
			c0.14,0.134,0.322,0.199,0.548,0.199c0.106,0,0.206-0.016,0.299-0.049c0.094-0.033,0.172-0.062,0.24-0.09h0.059v0.478
			c-0.066,0.04-0.162,0.077-0.289,0.11C55.839,62.768,55.697,62.785,55.538,62.785z M50.395,62.346c0.571,0,1.1-0.086,1.585-0.26
			c0.484-0.172,0.897-0.408,1.236-0.707c0.34-0.299,0.604-0.654,0.797-1.066c0.193-0.412,0.289-0.857,0.289-1.336v-2.312
			c-0.252,0.2-0.611,0.369-1.076,0.508c-0.465,0.141-1.149,0.264-2.053,0.369c-0.545,0.066-1.033,0.15-1.465,0.25
			c-0.432,0.1-0.798,0.242-1.097,0.428c-0.299,0.188-0.532,0.43-0.697,0.729c-0.167,0.299-0.25,0.682-0.25,1.146
			c0,0.413,0.08,0.761,0.239,1.046c0.16,0.287,0.369,0.52,0.628,0.699s0.552,0.309,0.877,0.389
			C49.733,62.306,50.062,62.346,50.395,62.346z"/>
		<path d="M57.709,54.213h0.04c0.146-0.252,0.332-0.502,0.559-0.748c0.226-0.245,0.488-0.461,0.787-0.646
			c0.299-0.188,0.645-0.336,1.036-0.449c0.393-0.113,0.834-0.17,1.326-0.17c1.023,0,1.814,0.286,2.372,0.857
			c0.558,0.572,0.837,1.315,0.837,2.232v7.375h-0.598V55.35c0-0.878-0.243-1.531-0.729-1.964c-0.484-0.432-1.146-0.647-1.982-0.647
			c-0.532,0-1.02,0.083-1.465,0.249c-0.446,0.166-0.831,0.389-1.156,0.668c-0.326,0.278-0.578,0.601-0.758,0.966
			c-0.18,0.366-0.27,0.742-0.27,1.127v6.916h-0.598V52.36h0.598V54.213z"/>
	</g>
	<g>
		<path d="M11.581,78.299h-0.618V64.047h5.701c1.328,0,2.358,0.325,3.089,0.977s1.096,1.588,1.096,2.811
			c0,0.93-0.216,1.694-0.647,2.292c-0.433,0.599-1.106,1.003-2.023,1.216v0.021c0.824,0.187,1.412,0.577,1.764,1.177
			c0.352,0.598,0.548,1.414,0.588,2.451c0.013,0.664,0.042,1.199,0.089,1.604c0.046,0.405,0.096,0.724,0.149,0.956
			s0.11,0.396,0.169,0.489c0.06,0.093,0.116,0.159,0.169,0.198v0.061h-0.677c-0.053-0.041-0.107-0.109-0.16-0.209
			c-0.054-0.1-0.106-0.266-0.159-0.498c-0.054-0.232-0.1-0.556-0.14-0.967c-0.04-0.412-0.067-0.957-0.08-1.635
			c-0.04-1.17-0.303-2.017-0.787-2.542c-0.486-0.524-1.299-0.787-2.442-0.787h-5.083V78.299z M11.581,71.083h4.864
			c1.275,0,2.222-0.278,2.84-0.837s0.927-1.355,0.927-2.393c0-1.036-0.307-1.836-0.917-2.401c-0.611-0.565-1.508-0.848-2.691-0.848
			h-5.023V71.083z"/>
		<path d="M22.345,73.117c0,0.704,0.089,1.353,0.268,1.943c0.18,0.592,0.439,1.101,0.778,1.524c0.338,0.426,0.764,0.762,1.275,1.008
			c0.511,0.246,1.099,0.367,1.764,0.367c0.943,0,1.711-0.234,2.302-0.707c0.591-0.471,1.006-1.133,1.246-1.982h0.599
			c-0.107,0.451-0.27,0.873-0.489,1.266c-0.219,0.393-0.501,0.734-0.847,1.026s-0.754,0.521-1.226,0.688
			c-0.472,0.165-1,0.249-1.584,0.249c-0.758,0-1.429-0.137-2.013-0.408c-0.585-0.272-1.077-0.648-1.475-1.126
			c-0.399-0.479-0.698-1.05-0.896-1.715c-0.2-0.665-0.299-1.388-0.299-2.173c0-0.744,0.106-1.438,0.319-2.083
			c0.212-0.644,0.515-1.202,0.907-1.675c0.392-0.471,0.874-0.84,1.445-1.105c0.571-0.266,1.215-0.398,1.934-0.398
			c0.544,0,1.036,0.079,1.475,0.238c0.439,0.16,0.831,0.387,1.176,0.678c0.571,0.479,0.99,1.09,1.256,1.834
			c0.266,0.744,0.412,1.595,0.438,2.552H22.345z M30.079,72.619c-0.08-1.382-0.456-2.438-1.127-3.17
			c-0.671-0.73-1.538-1.097-2.601-1.097c-0.558,0-1.077,0.101-1.555,0.299c-0.478,0.2-0.89,0.486-1.236,0.857
			c-0.346,0.373-0.621,0.821-0.827,1.346c-0.206,0.525-0.329,1.113-0.369,1.765H30.079z"/>
		<path d="M31.872,75.129c0.081,0.918,0.419,1.622,1.017,2.113c0.598,0.492,1.448,0.737,2.551,0.737
			c1.037,0,1.833-0.216,2.392-0.647c0.559-0.432,0.838-1.006,0.838-1.725c0-0.345-0.054-0.648-0.16-0.906
			c-0.107-0.26-0.289-0.481-0.548-0.668c-0.259-0.186-0.598-0.349-1.017-0.488s-0.946-0.27-1.584-0.389
			c-1.25-0.213-2.176-0.521-2.781-0.927c-0.604-0.405-0.906-1.007-0.906-1.804c0-0.771,0.299-1.398,0.897-1.884
			c0.598-0.485,1.455-0.728,2.571-0.728c0.611,0,1.136,0.076,1.575,0.229c0.438,0.153,0.808,0.363,1.106,0.628
			c0.299,0.267,0.531,0.579,0.697,0.937c0.167,0.359,0.283,0.751,0.349,1.177h-0.598c-0.107-0.745-0.406-1.336-0.897-1.774
			c-0.492-0.438-1.236-0.658-2.232-0.658c-1.01,0-1.741,0.197-2.193,0.589c-0.452,0.392-0.677,0.887-0.677,1.485
			c0,0.305,0.056,0.571,0.169,0.797c0.112,0.226,0.299,0.426,0.558,0.598c0.259,0.173,0.598,0.322,1.016,0.449
			c0.418,0.126,0.933,0.242,1.544,0.349c0.625,0.106,1.17,0.235,1.635,0.388c0.465,0.154,0.85,0.347,1.156,0.578
			c0.306,0.232,0.535,0.512,0.688,0.838c0.152,0.325,0.229,0.721,0.229,1.186c0,0.891-0.345,1.596-1.036,2.113
			c-0.691,0.518-1.622,0.777-2.791,0.777c-0.678,0-1.27-0.086-1.774-0.26c-0.505-0.172-0.931-0.408-1.275-0.707
			c-0.346-0.299-0.611-0.654-0.798-1.066c-0.186-0.411-0.292-0.857-0.319-1.336H31.872z"/>
		<path d="M44.629,78.499c-0.73,0-1.385-0.14-1.963-0.418c-0.579-0.279-1.07-0.661-1.475-1.146
			c-0.406-0.484-0.715-1.053-0.928-1.704s-0.318-1.349-0.318-2.093c0-0.731,0.105-1.422,0.318-2.073s0.521-1.216,0.928-1.694
			c0.404-0.479,0.896-0.857,1.475-1.137c0.578-0.279,1.232-0.418,1.963-0.418c0.731,0,1.388,0.139,1.974,0.418
			c0.584,0.279,1.076,0.658,1.476,1.137c0.398,0.479,0.704,1.039,0.917,1.684c0.212,0.645,0.318,1.34,0.318,2.084
			s-0.106,1.441-0.318,2.093c-0.213,0.651-0.519,1.22-0.917,1.704c-0.399,0.485-0.891,0.867-1.476,1.146
			C46.017,78.359,45.36,78.499,44.629,78.499z M44.629,77.98c0.599,0,1.146-0.116,1.645-0.349s0.927-0.561,1.286-0.986
			s0.638-0.938,0.837-1.535s0.299-1.256,0.299-1.973c0-0.719-0.1-1.373-0.299-1.964s-0.479-1.097-0.837-1.515
			c-0.359-0.419-0.787-0.744-1.286-0.978c-0.499-0.232-1.046-0.349-1.645-0.349c-0.598,0-1.146,0.116-1.644,0.349
			c-0.499,0.233-0.927,0.559-1.286,0.978c-0.358,0.418-0.641,0.924-0.846,1.515c-0.207,0.591-0.309,1.245-0.309,1.964
			c0,0.717,0.103,1.375,0.309,1.973c0.206,0.598,0.488,1.109,0.846,1.535c0.359,0.426,0.787,0.754,1.286,0.986
			C43.483,77.864,44.031,77.98,44.629,77.98z"/>
		<path d="M57.366,76.526h-0.039c-0.146,0.252-0.325,0.494-0.539,0.727c-0.212,0.232-0.461,0.439-0.747,0.618
			c-0.285,0.18-0.614,0.326-0.986,0.438c-0.372,0.113-0.798,0.17-1.275,0.17c-1.05,0-1.857-0.286-2.422-0.857
			c-0.565-0.571-0.848-1.322-0.848-2.252v-7.376h0.618v7.315c0,0.891,0.242,1.555,0.728,1.994c0.485,0.438,1.159,0.656,2.022,0.656
			c0.52,0,0.99-0.085,1.416-0.258s0.791-0.402,1.097-0.688c0.306-0.286,0.544-0.619,0.718-0.997
			c0.172-0.378,0.258-0.768,0.258-1.166v-6.857h0.599v10.306h-0.599V76.526z"/>
		<path d="M64.244,68.552c-0.187-0.026-0.376-0.037-0.568-0.03s-0.382,0.03-0.568,0.07c-0.412,0.066-0.784,0.202-1.116,0.408
			s-0.617,0.462-0.857,0.768c-0.238,0.306-0.425,0.639-0.558,0.997c-0.134,0.358-0.199,0.717-0.199,1.076v6.458h-0.599V67.994h0.599
			v2.093h0.04c0.266-0.57,0.617-1.022,1.057-1.355c0.438-0.332,0.916-0.537,1.435-0.617c0.226-0.08,0.455-0.13,0.688-0.15
			c0.232-0.02,0.447-0.016,0.647,0.01V68.552z"/>
		<path d="M73.093,74.831c-0.066,0.532-0.206,1.023-0.419,1.476s-0.494,0.841-0.846,1.165c-0.354,0.326-0.781,0.579-1.287,0.758
			c-0.505,0.18-1.076,0.27-1.713,0.27c-0.746,0-1.403-0.14-1.975-0.418c-0.571-0.279-1.053-0.661-1.445-1.146
			c-0.392-0.484-0.69-1.053-0.896-1.704s-0.309-1.349-0.309-2.093s0.103-1.439,0.309-2.084s0.505-1.205,0.896-1.684
			c0.393-0.479,0.874-0.857,1.445-1.137s1.229-0.418,1.975-0.418c1.129,0,2.062,0.278,2.8,0.836
			c0.737,0.559,1.199,1.355,1.386,2.393h-0.598c-0.213-0.957-0.646-1.645-1.297-2.062s-1.415-0.629-2.291-0.629
			c-0.611,0-1.164,0.117-1.655,0.35c-0.492,0.232-0.914,0.559-1.266,0.977c-0.353,0.418-0.625,0.92-0.817,1.505
			s-0.289,1.235-0.289,1.954c0,0.717,0.097,1.372,0.289,1.963c0.192,0.592,0.465,1.1,0.817,1.525
			c0.352,0.425,0.773,0.754,1.266,0.986c0.491,0.232,1.044,0.348,1.655,0.348c1.062,0,1.91-0.281,2.541-0.846
			s1.012-1.326,1.146-2.283H73.093z"/>
		<path d="M74.29,73.117c0,0.704,0.09,1.353,0.269,1.943c0.18,0.592,0.438,1.101,0.778,1.524c0.338,0.426,0.763,0.762,1.275,1.008
			c0.512,0.246,1.099,0.367,1.764,0.367c0.943,0,1.711-0.234,2.303-0.707c0.591-0.471,1.006-1.133,1.245-1.982h0.599
			c-0.107,0.451-0.27,0.873-0.488,1.266c-0.22,0.393-0.502,0.734-0.848,1.026s-0.754,0.521-1.226,0.688
			c-0.472,0.165-1,0.249-1.585,0.249c-0.758,0-1.429-0.137-2.014-0.408c-0.584-0.272-1.076-0.648-1.475-1.126
			c-0.398-0.479-0.697-1.05-0.896-1.715c-0.2-0.665-0.299-1.388-0.299-2.173c0-0.744,0.105-1.438,0.318-2.083
			c0.213-0.644,0.516-1.202,0.906-1.675c0.393-0.471,0.875-0.84,1.445-1.105c0.572-0.266,1.217-0.398,1.934-0.398
			c0.545,0,1.037,0.079,1.476,0.238c0.438,0.16,0.83,0.387,1.177,0.678c0.57,0.479,0.988,1.09,1.255,1.834
			c0.266,0.744,0.411,1.595,0.438,2.552H74.29z M82.024,72.619c-0.08-1.382-0.456-2.438-1.127-3.17
			c-0.671-0.73-1.538-1.097-2.602-1.097c-0.558,0-1.076,0.101-1.555,0.299c-0.478,0.2-0.89,0.486-1.235,0.857
			c-0.347,0.373-0.621,0.821-0.827,1.346c-0.207,0.525-0.329,1.113-0.369,1.765H82.024z"/>
		<path d="M83.817,75.129c0.08,0.918,0.419,1.622,1.017,2.113c0.599,0.492,1.448,0.737,2.552,0.737c1.037,0,1.834-0.216,2.392-0.647
			c0.559-0.432,0.838-1.006,0.838-1.725c0-0.345-0.054-0.648-0.16-0.906c-0.106-0.26-0.288-0.481-0.548-0.668
			c-0.26-0.186-0.598-0.349-1.018-0.488c-0.418-0.14-0.946-0.27-1.584-0.389c-1.249-0.213-2.176-0.521-2.781-0.927
			c-0.604-0.405-0.906-1.007-0.906-1.804c0-0.771,0.299-1.398,0.896-1.884c0.599-0.485,1.455-0.728,2.572-0.728
			c0.611,0,1.136,0.076,1.574,0.229c0.439,0.153,0.808,0.363,1.106,0.628c0.299,0.267,0.531,0.579,0.698,0.937
			c0.166,0.359,0.281,0.751,0.349,1.177h-0.599c-0.106-0.745-0.405-1.336-0.896-1.774c-0.492-0.438-1.236-0.658-2.232-0.658
			c-1.01,0-1.741,0.197-2.193,0.589c-0.451,0.392-0.678,0.887-0.678,1.485c0,0.305,0.057,0.571,0.17,0.797s0.299,0.426,0.558,0.598
			c0.259,0.173,0.599,0.322,1.017,0.449c0.418,0.126,0.934,0.242,1.545,0.349c0.625,0.106,1.17,0.235,1.635,0.388
			c0.465,0.154,0.851,0.347,1.156,0.578c0.306,0.232,0.535,0.512,0.688,0.838c0.152,0.325,0.229,0.721,0.229,1.186
			c0,0.891-0.345,1.596-1.036,2.113s-1.622,0.777-2.791,0.777c-0.678,0-1.27-0.086-1.774-0.26c-0.505-0.172-0.931-0.408-1.274-0.707
			c-0.347-0.299-0.611-0.654-0.799-1.066c-0.186-0.411-0.292-0.857-0.318-1.336H83.817z"/>
	</g>
	<g>
		<path fill="#231F20" d="M10.476,35.515c0-6.202,3.943-10.964,10.436-10.964c5.498,0,8.969,2.85,9.645,7.525h-5.939
			c-0.32-1.353-1.585-2.467-3.467-2.467c-2.94,0-4.439,2.467-4.439,5.908c0,3.436,1.703,5.996,4.673,5.996
			c2.236-0.002,3.322-1.207,3.706-2.618h-3.941v-4.353h9.821v11.406l-4.089,0.004l-0.471-2.237l-0.057-0.001
			c-1.321,1.914-3.468,2.738-6.025,2.738c-2.823,0-5.236-0.973-6.938-2.794C11.448,41.597,10.476,38.775,10.476,35.515"/>
		<polygon fill="#231F20" points="31.815,24.935 37.961,24.935 37.961,40.689 45.407,40.689 45.407,45.949 31.815,45.951 		"/>
		<path fill="#231F20" d="M60.655,43.716h-0.059c-1.324,1.912-3.467,2.736-6.029,2.736c-2.82,0-5.229-0.973-6.937-2.794
			c-1.939-2.062-2.907-4.883-2.908-8.141c0-6.204,3.936-10.966,10.434-10.966c5.499,0,8.968,2.85,9.643,7.525h-5.937
			c-0.325-1.353-1.588-2.467-3.471-2.467c-2.938,0-4.438,2.467-4.44,5.908c0.002,3.435,1.708,5.996,4.672,5.994
			c2.238,0,3.324-1.204,3.708-2.615h-3.94v-4.351l9.819-0.001v11.406h-4.085L60.655,43.716z"/>
	</g>
</g>
</svg>
