<?xml version="1.0" encoding="utf-8"?>
<!-- Generator: Adobe Illustrator 16.0.4, SVG Export Plug-In . SVG Version: 6.00 Build 0)  -->
<!DOCTYPE svg PUBLIC "-//W3C//DTD SVG 1.1//EN" "http://www.w3.org/Graphics/SVG/1.1/DTD/svg11.dtd">
<svg version="1.1" id="Layer_1" xmlns="http://www.w3.org/2000/svg" xmlns:xlink="http://www.w3.org/1999/xlink" x="0px" y="0px"
	 width="102.976px" height="102.976px" viewBox="0 0 102.976 102.976" enable-background="new 0 0 102.976 102.976"
	 xml:space="preserve">
<linearGradient id="SVGID_1_" gradientUnits="userSpaceOnUse" x1="17.6304" y1="21.4424" x2="104.737" y2="98.742">
	<stop  offset="0" style="stop-color:#292526"/>
	<stop  offset="1" style="stop-color:#000000"/>
</linearGradient>
<rect fill="url(#SVGID_1_)" width="102.976" height="102.976"/>
<g>
	<rect x="25.799" y="24.829" fill="#231F20" width="56.551" height="15.468"/>
	<rect x="25.799" y="39.718" fill="#231F20" width="56.552" height="43.017"/>
</g>
<g>
	<rect x="22.906" y="21.357" fill="#D1D3D4" width="56.551" height="15.468"/>
	<rect x="22.906" y="36.825" fill="#F1F2F2" width="56.552" height="43.017"/>
	<circle fill="none" stroke="#A7A9AC" stroke-miterlimit="10" cx="37.348" cy="29.564" r="3.571"/>
	<circle fill="none" stroke="#A7A9AC" stroke-miterlimit="10" cx="63.96" cy="29.564" r="3.571"/>
	<path fill="#E6E7E8" d="M40.411,29.036c0,1.578-1.278,2.857-2.856,2.857l0,0c-1.578,0-2.856-1.279-2.856-2.857V16.894
		c0-1.578,1.278-2.857,2.856-2.857l0,0c1.578,0,2.856,1.279,2.856,2.857V29.036z"/>
	<path fill="#E6E7E8" d="M67.023,29.036c0,1.578-1.279,2.857-2.856,2.857l0,0c-1.578,0-2.857-1.279-2.857-2.857V16.894
		c0-1.578,1.279-2.857,2.857-2.857l0,0c1.577,0,2.856,1.279,2.856,2.857V29.036z"/>
	<rect x="27.22" y="40.477" fill="#414042" stroke="#E6E7E8" stroke-miterlimit="10" width="5.785" height="5.785"/>
	<rect x="34.162" y="40.477" fill="#414042" stroke="#E6E7E8" stroke-miterlimit="10" width="5.785" height="5.785"/>
	<rect x="41.104" y="40.477" fill="#414042" stroke="#E6E7E8" stroke-miterlimit="10" width="5.785" height="5.785"/>
	<rect x="48.047" y="40.477" fill="#414042" stroke="#E6E7E8" stroke-miterlimit="10" width="5.785" height="5.785"/>
	<rect x="54.989" y="40.477" fill="#414042" stroke="#E6E7E8" stroke-miterlimit="10" width="5.785" height="5.785"/>
	<rect x="61.932" y="40.477" fill="#414042" stroke="#E6E7E8" stroke-miterlimit="10" width="5.785" height="5.785"/>
	<rect x="68.873" y="40.477" fill="#414042" stroke="#E6E7E8" stroke-miterlimit="10" width="5.785" height="5.785"/>
	<rect x="27.22" y="47.419" fill="#414042" stroke="#E6E7E8" stroke-miterlimit="10" width="5.785" height="5.785"/>
	<rect x="34.162" y="47.419" fill="#414042" stroke="#E6E7E8" stroke-miterlimit="10" width="5.785" height="5.785"/>
	<rect x="41.104" y="47.419" fill="#414042" stroke="#E6E7E8" stroke-miterlimit="10" width="5.785" height="5.785"/>
	<rect x="48.047" y="47.419" fill="#414042" stroke="#E6E7E8" stroke-miterlimit="10" width="5.785" height="5.785"/>
	<rect x="54.989" y="47.419" fill="#414042" stroke="#E6E7E8" stroke-miterlimit="10" width="5.785" height="5.785"/>
	<rect x="61.932" y="47.419" fill="#414042" stroke="#E6E7E8" stroke-miterlimit="10" width="5.785" height="5.785"/>
	<rect x="68.873" y="47.419" fill="#414042" stroke="#E6E7E8" stroke-miterlimit="10" width="5.785" height="5.785"/>
	<rect x="27.22" y="54.361" fill="#414042" stroke="#E6E7E8" stroke-miterlimit="10" width="5.785" height="5.785"/>
	<rect x="34.162" y="54.361" fill="#414042" stroke="#E6E7E8" stroke-miterlimit="10" width="5.785" height="5.785"/>
	<rect x="41.104" y="54.361" fill="#414042" stroke="#E6E7E8" stroke-miterlimit="10" width="5.785" height="5.785"/>
	<rect x="48.047" y="54.361" fill="#414042" stroke="#E6E7E8" stroke-miterlimit="10" width="5.785" height="5.785"/>
	<rect x="54.989" y="54.361" fill="#414042" stroke="#E6E7E8" stroke-miterlimit="10" width="5.785" height="5.785"/>
	<rect x="61.932" y="54.361" fill="#414042" stroke="#E6E7E8" stroke-miterlimit="10" width="5.785" height="5.785"/>
	<rect x="68.873" y="54.361" fill="#414042" stroke="#E6E7E8" stroke-miterlimit="10" width="5.785" height="5.785"/>
	<rect x="27.22" y="61.304" fill="#414042" stroke="#E6E7E8" stroke-miterlimit="10" width="5.785" height="5.785"/>
	<rect x="34.162" y="61.304" fill="#414042" stroke="#E6E7E8" stroke-miterlimit="10" width="5.785" height="5.785"/>
	<rect x="41.104" y="61.304" fill="#414042" stroke="#E6E7E8" stroke-miterlimit="10" width="5.785" height="5.785"/>
	<rect x="48.047" y="61.304" fill="#414042" stroke="#E6E7E8" stroke-miterlimit="10" width="5.785" height="5.785"/>
	<rect x="54.989" y="61.304" fill="#414042" stroke="#E6E7E8" stroke-miterlimit="10" width="5.785" height="5.785"/>
	<rect x="61.932" y="61.304" fill="#414042" stroke="#E6E7E8" stroke-miterlimit="10" width="5.785" height="5.785"/>
	<rect x="68.873" y="61.304" fill="#414042" stroke="#E6E7E8" stroke-miterlimit="10" width="5.785" height="5.785"/>
</g>
</svg>
