<?xml version="1.0" encoding="utf-8"?>
<!-- Generator: Adobe Illustrator 16.0.4, SVG Export Plug-In . SVG Version: 6.00 Build 0)  -->
<!DOCTYPE svg PUBLIC "-//W3C//DTD SVG 1.1//EN" "http://www.w3.org/Graphics/SVG/1.1/DTD/svg11.dtd">
<svg version="1.1" id="Layer_1" xmlns="http://www.w3.org/2000/svg" xmlns:xlink="http://www.w3.org/1999/xlink" x="0px" y="0px"
	 width="102.978px" height="102.977px" viewBox="0 0 102.978 102.977" enable-background="new 0 0 102.978 102.977"
	 xml:space="preserve">
<radialGradient id="SVGID_1_" cx="51.4888" cy="51.4883" r="51.4885" gradientUnits="userSpaceOnUse">
	<stop  offset="0" style="stop-color:#FFFFFF"/>
	<stop  offset="1" style="stop-color:#EFF0F0"/>
</radialGradient>
<rect fill="url(#SVGID_1_)" width="102.978" height="102.977"/>
<path d="M92.315,49.828c-5.375-2.375-10.5,1.75-10.5,6.625s3.875,8,7.375,8s6.375-2.875,6.875-4.5h-3.5c0,0,0,1.625-3.75,1.625
	c-3.375,0-3.625-3.625-3.625-3.625h11.5C96.69,57.953,97.69,52.203,92.315,49.828z M85.398,55.203c0,0,0.292-3.375,4.042-3.375
	s3.875,3.375,3.875,3.375H85.398z"/>
<polygon points="75.815,44.391 79.212,44.391 79.212,49.453 81.712,49.453 81.712,51.828 79.149,51.828 79.149,63.891 
	75.878,63.891 75.878,51.891 73.315,51.891 73.315,49.391 75.815,49.391 "/>
<rect x="68.315" y="44.391" width="3.5" height="3.125"/>
<rect x="68.315" y="49.391" width="3.438" height="14.625"/>
<polygon points="66.44,49.391 63.253,49.391 59.503,60.016 55.69,49.453 52.628,49.453 57.94,63.953 61.128,63.953 "/>
<path d="M45.003,49.266c-2.5,0-4.875,2.062-4.875,2.062v-6.938h-3.062v19.5h2.938v-1.812h0.25c0,0,1.438,2.188,4.375,2.188
	s7.562-1.875,7.562-7.688S47.503,49.266,45.003,49.266z M44.69,61.453c-2.52,0-4.562-2.042-4.562-4.562
	c0-2.52,2.043-4.562,4.562-4.562s4.562,2.043,4.562,4.562C49.253,59.411,47.21,61.453,44.69,61.453z"/>
<path d="M27.737,49.094c-4.211,0-7.625,3.414-7.625,7.625s3.414,7.625,7.625,7.625s7.625-3.414,7.625-7.625
	S31.948,49.094,27.737,49.094z M27.737,61.188c-2.468,0-4.469-2.001-4.469-4.469s2.001-4.469,4.469-4.469s4.469,2.001,4.469,4.469
	S30.205,61.188,27.737,61.188z"/>
<path d="M18.336,44.453v14.688c0,0-0.125,5.062-5.75,5.062s-6.375-5.625-6.375-5.625h4.062c0,0,0.312,2.438,2.25,2.438
	s2.25-1.125,2.25-2.562s0-14,0-14H18.336z"/>
</svg>
