<?xml version="1.0" encoding="utf-8"?>
<!-- Generator: Adobe Illustrator 16.0.4, SVG Export Plug-In . SVG Version: 6.00 Build 0)  -->
<!DOCTYPE svg PUBLIC "-//W3C//DTD SVG 1.1//EN" "http://www.w3.org/Graphics/SVG/1.1/DTD/svg11.dtd">
<svg version="1.1" id="Layer_1" xmlns="http://www.w3.org/2000/svg" xmlns:xlink="http://www.w3.org/1999/xlink" x="0px" y="0px"
	 width="102.977px" height="102.977px" viewBox="0 0 102.977 102.977" enable-background="new 0 0 102.977 102.977"
	 xml:space="preserve">
<rect fill="#E13F2B" width="102.977" height="102.977"/>
<g>
	<linearGradient id="SVGID_1_" gradientUnits="userSpaceOnUse" x1="31.9873" y1="47.9282" x2="81.4387" y2="91.8121">
		<stop  offset="0" style="stop-color:#292526"/>
		<stop  offset="1" style="stop-color:#000000"/>
	</linearGradient>
	<rect x="14.821" y="43.818" fill-rule="evenodd" clip-rule="evenodd" fill="url(#SVGID_1_)" width="72.773" height="42.333"/>
	<polygon fill-rule="evenodd" clip-rule="evenodd" fill="#333333" points="51.041,47.151 87.123,47.151 69.083,61.651 
		51.041,76.151 33,61.651 14.959,47.151 	"/>
	<g>
		
			<linearGradient id="SVGID_2_" gradientUnits="userSpaceOnUse" x1="-348.2446" y1="768.8936" x2="-315.7908" y2="797.6935" gradientTransform="matrix(-1 0 0 -1 -284.3555 823.9707)">
			<stop  offset="0" style="stop-color:#292526"/>
			<stop  offset="1" style="stop-color:#000000"/>
		</linearGradient>
		<path fill-rule="evenodd" clip-rule="evenodd" fill="url(#SVGID_2_)" d="M52.271,44.151c-0.55,0-1.45,0-2,0H15.626
			c-0.55,0-0.647-0.279-0.216-0.62l16.753-13.26c0.431-0.341,1.137-0.899,1.568-1.24l16.755-13.26c0.431-0.341,1.137-0.341,1.568,0
			l16.754,13.26c0.431,0.341,1.137,0.899,1.568,1.24l16.753,13.26c0.431,0.341,0.334,0.62-0.216,0.62H52.271z"/>
	</g>
	<rect x="34.82" y="35.151" fill-rule="evenodd" clip-rule="evenodd" fill="#FFFFFF" width="32.22" height="44.667"/>
	<polygon fill-rule="evenodd" clip-rule="evenodd" fill="#939393" points="86.901,66.651 86.901,85.953 74.818,76.802 
		62.735,66.651 74.818,56.5 86.901,46.349 	"/>
	<polygon fill-rule="evenodd" clip-rule="evenodd" fill="#939393" points="15.24,66.649 15.24,46.348 27.322,56.499 39.405,66.649 
		27.322,76.801 15.24,85.952 	"/>
	<g>
		<path fill="#939393" d="M47.842,42.823c-0.171,0.005-0.383,0.024-0.636,0.058c-0.253,0.033-0.468,0.075-0.645,0.126
			c-0.208,0.062-0.348,0.164-0.421,0.308c-0.073,0.143-0.11,0.299-0.11,0.468v6.453c0,0.338-0.081,0.696-0.243,1.074
			c-0.162,0.379-0.398,0.717-0.709,1.014c-0.36,0.348-0.789,0.619-1.286,0.813c-0.498,0.194-1.066,0.291-1.707,0.291
			c-0.995,0-1.802-0.233-2.421-0.702c-0.619-0.468-0.929-1.099-0.929-1.892c0-0.348,0.107-0.656,0.32-0.925s0.525-0.402,0.934-0.402
			c0.366,0,0.66,0.086,0.883,0.257c0.223,0.172,0.334,0.397,0.334,0.679c0,0.164-0.04,0.328-0.119,0.491
			c-0.08,0.164-0.168,0.31-0.266,0.438c-0.091,0.118-0.195,0.256-0.311,0.415c-0.116,0.158-0.198,0.302-0.247,0.43
			c0.128,0.169,0.328,0.317,0.6,0.444c0.271,0.128,0.636,0.192,1.093,0.192c0.445,0,0.81-0.086,1.094-0.257
			c0.284-0.172,0.496-0.4,0.636-0.688c0.134-0.266,0.23-0.593,0.289-0.981c0.058-0.39,0.087-0.824,0.087-1.305v-5.763
			c0-0.18-0.035-0.329-0.105-0.449s-0.215-0.227-0.435-0.318c-0.189-0.082-0.426-0.145-0.709-0.188
			c-0.284-0.043-0.517-0.07-0.7-0.08v-0.545h5.729V42.823z"/>
		<path fill="#939393" d="M63.858,42.823c-0.158,0.005-0.351,0.034-0.576,0.088c-0.227,0.054-0.412,0.119-0.559,0.195
			c-0.207,0.107-0.373,0.246-0.498,0.415s-0.249,0.368-0.371,0.599c-0.408,0.813-1.021,2.081-1.84,3.802
			c-0.817,1.722-1.659,3.516-2.525,5.383h-0.76c-0.879-1.979-1.727-3.888-2.543-5.724c-0.818-1.837-1.373-3.077-1.666-3.722
			c-0.073-0.159-0.171-0.299-0.293-0.419s-0.284-0.233-0.485-0.341c-0.165-0.087-0.348-0.152-0.549-0.196
			c-0.201-0.043-0.387-0.07-0.558-0.08v-0.545h5.374v0.545c-0.458,0.021-0.844,0.059-1.158,0.115
			c-0.314,0.056-0.471,0.155-0.471,0.299c0,0.057,0.012,0.123,0.036,0.199c0.024,0.077,0.046,0.139,0.063,0.185
			c0.227,0.501,0.592,1.319,1.099,2.453s1.227,2.748,2.159,4.842c0.465-0.947,0.998-2.065,1.602-3.355
			c0.604-1.29,1.01-2.176,1.218-2.657c0.201-0.466,0.319-0.788,0.353-0.968c0.033-0.179,0.051-0.324,0.051-0.438
			c0-0.117-0.063-0.216-0.188-0.295s-0.291-0.147-0.499-0.204c-0.201-0.051-0.405-0.089-0.613-0.114
			c-0.207-0.026-0.418-0.047-0.631-0.062v-0.545h4.83V42.823z"/>
	</g>
	<g>
		<path fill-rule="evenodd" clip-rule="evenodd" fill="#606060" d="M35.833,65.651c-1.65,0-3.927,0.981-5.061,2.181L15.52,83.971
			c-1.133,1.199-0.71,2.181,0.939,2.181h31.749c1.65,0,4.351,0,6,0h31.747c1.65,0,2.073-0.981,0.939-2.181L71.643,67.832
			c-1.133-1.199-3.41-2.181-5.061-2.181H35.833z"/>
	</g>
</g>
</svg>
