<?xml version="1.0" encoding="utf-8"?>
<!-- Generator: Adobe Illustrator 16.0.4, SVG Export Plug-In . SVG Version: 6.00 Build 0)  -->
<!DOCTYPE svg PUBLIC "-//W3C//DTD SVG 1.1//EN" "http://www.w3.org/Graphics/SVG/1.1/DTD/svg11.dtd">
<svg version="1.1" id="Layer_1" xmlns="http://www.w3.org/2000/svg" xmlns:xlink="http://www.w3.org/1999/xlink" x="0px" y="0px"
	 width="243.333px" height="73.833px" viewBox="0 0 243.333 73.833" enable-background="new 0 0 243.333 73.833"
	 xml:space="preserve">
<g>
	<path fill="#EC3537" d="M9.678,9.684H9.605v49.387H7.383V6.129h3.332l21.25,49.905h0.074L52.994,6.129h3.479V59.07h-2.295V9.684
		h-0.073L33.15,59.071h-2.369L9.678,9.684z"/>
	<path fill="#EC3537" d="M76.361,62.997c-2.739,7.033-5.035,8.588-9.625,8.588c-1.555,0-2.517-0.223-3.332-0.519v-2.071h0.074
		c0.741,0.295,1.851,0.518,3.332,0.518c3.332,0,5.109-1.111,7.478-7.184l1.481-3.777l-15.031-37.76h2.37L76.88,55.665h0.075
		l13.253-34.874h2.37L76.361,62.997z"/>
</g>
<g>
	<path d="M97.03,31.615c0-15.929,10.125-28.16,26.803-28.16c14.121,0,23.037,7.32,24.771,19.328h-15.252
		c-0.823-3.474-4.071-6.337-8.904-6.337c-7.552,0-11.402,6.337-11.402,15.174c0,8.828,4.373,15.4,12.002,15.4
		c5.744-0.005,8.535-3.1,9.519-6.723h-10.123v-11.18h25.224v29.295l-10.504,0.01l-1.209-5.743l-0.147-0.005
		c-3.392,4.916-8.904,7.031-15.474,7.031c-7.25,0-13.45-2.498-17.82-7.178C99.525,47.235,97.03,39.988,97.03,31.615"/>
	<polygon points="151.838,4.438 167.624,4.438 167.624,44.904 186.749,44.904 186.749,58.415 151.838,58.418 	"/>
	<path d="M225.913,52.679h-0.15c-3.399,4.911-8.904,7.026-15.485,7.026c-7.243,0-13.431-2.498-17.817-7.178
		c-4.98-5.294-7.467-12.541-7.471-20.909c0-15.934,10.111-28.165,26.799-28.165c14.125,0,23.033,7.32,24.769,19.328h-15.25
		c-0.833-3.474-4.076-6.337-8.913-6.337c-7.546,0-11.398,6.337-11.402,15.174c0.004,8.823,4.387,15.4,12.004,15.396
		c5.746,0,8.533-3.095,9.521-6.718h-10.122V29.122l25.219-0.004v29.296h-10.49L225.913,52.679z"/>
</g>
</svg>
