<?xml version="1.0" encoding="utf-8"?>
<!-- Generator: Adobe Illustrator 16.0.4, SVG Export Plug-In . SVG Version: 6.00 Build 0)  -->
<!DOCTYPE svg PUBLIC "-//W3C//DTD SVG 1.1//EN" "http://www.w3.org/Graphics/SVG/1.1/DTD/svg11.dtd">
<svg version="1.1" id="Layer_1" xmlns="http://www.w3.org/2000/svg" xmlns:xlink="http://www.w3.org/1999/xlink" x="0px" y="0px"
	 width="102.851px" height="102.814px" viewBox="0 0 102.851 102.814" enable-background="new 0 0 102.851 102.814"
	 xml:space="preserve">
<linearGradient id="SVGID_1_" gradientUnits="userSpaceOnUse" x1="17.5859" y1="21.3867" x2="104.4614" y2="98.4813">
	<stop  offset="0" style="stop-color:#2D2A2B"/>
	<stop  offset="1" style="stop-color:#000000"/>
</linearGradient>
<rect fill="url(#SVGID_1_)" width="102.704" height="102.703"/>
<g>
	<path fill="none" stroke="#FFFFFF" stroke-width="8" stroke-miterlimit="10" d="M21.542,13.867"/>
	<g>
		<polyline fill="#898D90" points="66.68,25.286 66.68,8.053 60.461,7.994 28.278,19.176 22.371,27.424 51.962,27.363 
			53.517,25.469 		"/>
		<polygon fill="#D1D3D4" points="26.776,21.251 31.957,21.19 32.891,22.476 33.046,26.874 52.479,26.874 53.412,25.225 
			66.782,25.225 66.782,26.019 53.567,26.019 52.895,27.485 22.318,27.424 		"/>
	</g>
	<g>
		<polyline fill="#898D90" points="66.68,66.547 66.68,79.64 60.461,79.685 28.278,71.188 22.371,64.92 51.962,64.968 
			53.517,66.407 		"/>
		<polygon fill="#D1D3D4" points="26.776,69.612 31.957,69.656 32.891,68.682 33.046,65.34 52.479,65.34 53.412,66.594 
			66.782,66.594 66.782,65.989 53.567,65.989 52.895,64.875 22.318,64.92 		"/>
	</g>
	<g>
		<path fill="#D1D3D4" d="M79.428,8.116h5.803v5.804c0,0,0,2.688,0.829,3.177c0.83,0.488,1.867,0.245,1.867,0.245v0.977h3.73
			l0.827-0.733h10.366l-3.939,3.424c0,0-12.002,4.888-13.059,4.888c-1.347,0-6.479,0-6.479,0L79.428,8.116z"/>
		<path fill="#898D90" d="M86.009,25.164c-1.349,0-6.479,0-6.479,0l0.053-17.048h5.804v5.804c0,0,0,2.688,0.83,3.177
			c0.829,0.488,1.863,0.245,1.863,0.245v0.977l-0.153,2.995c0,0-0.624,1.1,0.776,1.1c1.398,0,5.44-0.184,5.44-0.184L86.009,25.164z"
			/>
	</g>
	<g>
		<path fill="#5A5A58" d="M79.428,56.062h5.803v-8.128c0,0,0-3.766,0.829-4.45c0.83-0.683,1.867-0.344,1.867-0.344v-1.368h3.73
			l0.827,1.029h10.366l-3.939-4.794c0,0-12.002-6.844-13.059-6.844c-1.347,0-6.479,0-6.479,0L79.428,56.062z"/>
		<path fill="#5A5A58" d="M86.009,32.191c-1.349,0-6.479,0-6.479,0l0.053,23.871h5.804v-8.128c0,0,0-3.766,0.83-4.45
			c0.829-0.683,1.863-0.344,1.863-0.344v-1.368l-0.153-4.191c0,0-0.624-1.541,0.776-1.541c1.398,0,5.44,0.257,5.44,0.257
			L86.009,32.191z"/>
	</g>
	<rect x="66.626" y="8.704" fill="#CFD0BC" width="12.904" height="94.11"/>
	<path fill="#BEC3C7" d="M89.6,91.314c0,1.701-0.991,3.083-2.212,3.083H65.263c-1.223,0-2.212-1.382-2.212-3.083V54.009
		c0-1.701,0.989-3.08,2.212-3.08h22.125c1.221,0,2.212,1.379,2.212,3.08V91.314z"/>
	<path fill="#A0A5A8" d="M87.634,89.231c0,1.526-0.892,2.768-1.987,2.768H67.25c-1.098,0-1.987-1.241-1.987-2.768V56.752
		c0-1.526,0.89-2.765,1.987-2.765h18.396c1.096,0,1.987,1.238,1.987,2.765V89.231z"/>
	<rect x="70.179" y="60.169" fill="#697363" width="8.85" height="26.354"/>
	<path fill="#768485" d="M84.93,75.228c0,1.134-0.66,2.055-1.477,2.055l0,0c-0.814,0-1.474-0.921-1.474-2.055v-3.423
		c0-1.133,0.659-2.051,1.474-2.051l0,0c0.816,0,1.477,0.918,1.477,2.051V75.228z"/>
	<line fill="none" stroke="#000000" stroke-width="0.5" stroke-miterlimit="10" x1="66.646" y1="24.916" x2="70.183" y2="24.916"/>
	<line fill="none" stroke="#000000" stroke-width="0.5" stroke-miterlimit="10" x1="74.632" y1="24.916" x2="79.511" y2="24.916"/>
	<line fill="none" stroke="#000000" stroke-width="0.5" stroke-miterlimit="10" x1="74.632" y1="24.916" x2="79.511" y2="24.916"/>
	<line fill="none" stroke="#000000" stroke-width="0.5" stroke-miterlimit="10" x1="74.632" y1="35.185" x2="79.511" y2="35.185"/>
	<line fill="none" stroke="#000000" stroke-width="0.5" stroke-miterlimit="10" x1="76.965" y1="26.97" x2="79.511" y2="26.97"/>
	<line fill="none" stroke="#000000" stroke-width="0.5" stroke-miterlimit="10" x1="76.965" y1="29.025" x2="79.511" y2="29.025"/>
	<line fill="none" stroke="#000000" stroke-width="0.5" stroke-miterlimit="10" x1="76.965" y1="31.077" x2="79.511" y2="31.077"/>
	<line fill="none" stroke="#000000" stroke-width="0.5" stroke-miterlimit="10" x1="76.965" y1="33.131" x2="79.511" y2="33.131"/>
	<line fill="none" stroke="#000000" stroke-width="0.5" stroke-miterlimit="10" x1="74.632" y1="45.451" x2="79.511" y2="45.451"/>
	<line fill="none" stroke="#000000" stroke-width="0.5" stroke-miterlimit="10" x1="76.965" y1="37.237" x2="79.511" y2="37.237"/>
	<line fill="none" stroke="#000000" stroke-width="0.5" stroke-miterlimit="10" x1="76.965" y1="39.292" x2="79.511" y2="39.292"/>
	<line fill="none" stroke="#000000" stroke-width="0.5" stroke-miterlimit="10" x1="76.965" y1="41.346" x2="79.511" y2="41.346"/>
	<line fill="none" stroke="#000000" stroke-width="0.5" stroke-miterlimit="10" x1="76.965" y1="43.397" x2="79.511" y2="43.397"/>
	
		<line fill="none" stroke="#000000" stroke-width="0.5" stroke-miterlimit="10" x1="76.965" y1="101.796" x2="79.511" y2="101.796"/>
	<line fill="none" stroke="#000000" stroke-width="0.5" stroke-miterlimit="10" x1="74.632" y1="95.763" x2="79.511" y2="95.763"/>
	<line fill="none" stroke="#000000" stroke-width="0.5" stroke-miterlimit="10" x1="76.965" y1="97.817" x2="79.511" y2="97.817"/>
	<line fill="none" stroke="#000000" stroke-width="0.5" stroke-miterlimit="10" x1="76.965" y1="99.869" x2="79.511" y2="99.869"/>
	<line fill="none" stroke="#000000" stroke-width="0.5" stroke-miterlimit="10" x1="76.965" y1="47.507" x2="79.511" y2="47.507"/>
	<line fill="none" stroke="#000000" stroke-width="0.5" stroke-miterlimit="10" x1="76.552" y1="49.56" x2="79.57" y2="49.56"/>
	<line fill="none" stroke="#000000" stroke-width="0.5" stroke-miterlimit="10" x1="66.646" y1="45.451" x2="70.183" y2="45.451"/>
	<line fill="none" stroke="#000000" stroke-width="0.5" stroke-miterlimit="10" x1="66.646" y1="29.025" x2="69.243" y2="29.025"/>
	<line fill="none" stroke="#000000" stroke-width="0.5" stroke-miterlimit="10" x1="66.646" y1="33.131" x2="69.243" y2="33.131"/>
	<line fill="none" stroke="#000000" stroke-width="0.5" stroke-miterlimit="10" x1="66.646" y1="37.237" x2="69.243" y2="37.237"/>
	<line fill="none" stroke="#000000" stroke-width="0.5" stroke-miterlimit="10" x1="66.646" y1="41.346" x2="69.243" y2="41.346"/>
	<line fill="none" stroke="#000000" stroke-width="0.5" stroke-miterlimit="10" x1="66.646" y1="49.56" x2="69.243" y2="49.56"/>
	<line fill="none" stroke="#000000" stroke-width="0.5" stroke-miterlimit="10" x1="66.553" y1="95.763" x2="70.089" y2="95.763"/>
	<line fill="none" stroke="#000000" stroke-width="0.5" stroke-miterlimit="10" x1="66.553" y1="99.869" x2="69.149" y2="99.869"/>
</g>
<g>
	<rect x="10.252" y="27.57" fill="#F4F4F4" width="30.004" height="37.517"/>
	<rect x="10.252" y="27.598" fill="#898D90" width="30.004" height="1.007"/>
	<rect x="10.252" y="28.691" fill="#898D90" width="30.004" height="1.656"/>
	<rect x="12.721" y="39.172" fill="#CCCCCC" width="7.125" height="8.039"/>
	<rect x="12.812" y="31.773" fill="#CCCCCC" width="25.131" height="5.847"/>
	<rect x="12.812" y="61.099" fill="#CCCCCC" width="25.131" height="1.827"/>
	<rect x="21.815" y="39.172" fill="#CCCCCC" width="7.125" height="8.039"/>
	<rect x="30.816" y="39.172" fill="#CCCCCC" width="7.127" height="8.039"/>
	<rect x="13.188" y="29.124" fill="#F4F4F4" width="23.817" height="0.728"/>
	<ellipse fill="#F4F4F4" cx="12.532" cy="28.118" rx="0.28" ry="0.272"/>
	<ellipse fill="#F4F4F4" cx="11.689" cy="28.118" rx="0.281" ry="0.272"/>
	<ellipse fill="#F4F4F4" cx="10.811" cy="28.118" rx="0.281" ry="0.272"/>
	<rect x="12.721" y="48.948" fill="#CCCCCC" width="11.815" height="10.597"/>
	<rect x="26.41" y="48.948" fill="#CCCCCC" width="11.533" height="10.597"/>
</g>
<path fill="#768485" d="M92.443,68.663c-0.553,0-1,0.447-1,1v0.75h-1.875v2.5h1.875v0.75c0,0.553,0.447,1,1,1s1-0.447,1-1v-4
	C93.443,69.11,92.996,68.663,92.443,68.663z"/>
<line fill="none" stroke="#231F20" stroke-width="0.5" stroke-miterlimit="10" x1="91.443" y1="69.788" x2="93.443" y2="69.788"/>
<line fill="none" stroke="#231F20" stroke-width="0.5" stroke-miterlimit="10" x1="91.443" y1="70.788" x2="93.443" y2="70.788"/>
<line fill="none" stroke="#231F20" stroke-width="0.5" stroke-miterlimit="10" x1="91.443" y1="71.788" x2="93.443" y2="71.788"/>
<line fill="none" stroke="#231F20" stroke-width="0.5" stroke-miterlimit="10" x1="91.443" y1="72.788" x2="93.443" y2="72.788"/>
<line fill="none" stroke="#231F20" stroke-width="0.5" stroke-miterlimit="10" x1="91.443" y1="72.788" x2="93.443" y2="72.788"/>
<line fill="none" stroke="#231F20" stroke-width="0.5" stroke-miterlimit="10" x1="91.443" y1="73.788" x2="93.443" y2="73.788"/>
</svg>
