<?xml version="1.0" encoding="utf-8"?>
<!-- Generator: Adobe Illustrator 16.0.4, SVG Export Plug-In . SVG Version: 6.00 Build 0)  -->
<!DOCTYPE svg PUBLIC "-//W3C//DTD SVG 1.1//EN" "http://www.w3.org/Graphics/SVG/1.1/DTD/svg11.dtd">
<svg version="1.1" id="Layer_1" xmlns="http://www.w3.org/2000/svg" xmlns:xlink="http://www.w3.org/1999/xlink" x="0px" y="0px"
	 width="102.976px" height="102.975px" viewBox="0 0 102.976 102.975" enable-background="new 0 0 102.976 102.975"
	 xml:space="preserve">
<linearGradient id="SVGID_1_" gradientUnits="userSpaceOnUse" x1="17.6309" y1="21.4429" x2="104.7369" y2="98.742">
	<stop  offset="0" style="stop-color:#292526"/>
	<stop  offset="1" style="stop-color:#000000"/>
</linearGradient>
<rect fill="url(#SVGID_1_)" width="102.976" height="102.975"/>
<g>
	<path fill="#808285" d="M83.801,77.042L71.348,64.588c-1.108-1.109-2.679-1.471-4.093-1.094l-3.961-3.961
		c8.191-9.037,7.929-23.051-0.787-31.768c-8.985-8.986-23.607-8.986-32.593,0.002c-8.986,8.984-8.986,23.607,0,32.594
		c8.243,8.242,21.225,8.918,30.251,2.039l4.092,4.092c-0.377,1.412-0.014,2.982,1.095,4.092l12.454,12.453
		c1.656,1.656,4.34,1.656,5.996,0C85.456,81.381,85.456,78.698,83.801,77.042z M32.988,57.285c-7.291-7.291-7.291-19.152,0-26.443
		s19.153-7.291,26.444,0c7.29,7.291,7.291,19.154,0,26.443C52.142,64.577,40.279,64.577,32.988,57.285z"/>
	<g>
		<path fill="#808285" d="M32.188,42.734c0-3.129,1.988-5.533,5.266-5.533c2.774,0,4.525,1.439,4.867,3.799h-2.998
			c-0.163-0.684-0.801-1.246-1.75-1.246c-1.483,0-2.239,1.246-2.239,2.98c0,1.736,0.859,3.027,2.358,3.027
			c1.127,0,1.677-0.609,1.869-1.32h-1.988v-2.195h4.955v5.756h-2.062l-0.237-1.127H40.2c-0.667,0.963-1.75,1.379-3.041,1.379
			c-1.424,0-2.641-0.49-3.501-1.41C32.678,45.805,32.188,44.383,32.188,42.734"/>
		<polygon fill="#808285" points="42.958,37.395 46.058,37.395 46.058,45.346 49.817,45.346 49.817,48.002 42.958,48.002 		"/>
		<path fill="#808285" d="M57.511,46.875h-0.029c-0.668,0.963-1.75,1.379-3.042,1.379c-1.425,0-2.64-0.49-3.501-1.41
			c-0.979-1.039-1.469-2.461-1.469-4.109c0-3.129,1.988-5.533,5.266-5.533c2.775,0,4.525,1.439,4.867,3.799h-2.996
			c-0.164-0.684-0.802-1.246-1.752-1.246c-1.482,0-2.24,1.246-2.24,2.98c0,1.736,0.861,3.027,2.359,3.027
			c1.128,0,1.676-0.609,1.869-1.32h-1.988v-2.195h4.955v5.756h-2.062L57.511,46.875z"/>
	</g>
</g>
<g>
	<path fill="#BCBEC0" d="M81.384,77.299L68.931,64.844c-1.109-1.109-2.68-1.471-4.094-1.094l-3.96-3.961
		c8.19-9.035,7.929-23.051-0.787-31.768c-8.986-8.984-23.608-8.984-32.594,0.002c-8.987,8.984-8.987,23.607,0,32.594
		c8.243,8.242,21.225,8.918,30.251,2.039l4.092,4.092c-0.376,1.412-0.014,2.982,1.096,4.092l12.453,12.453
		c1.656,1.656,4.34,1.656,5.996,0C83.039,81.637,83.039,78.954,81.384,77.299z M30.571,57.541c-7.291-7.291-7.291-19.152,0-26.443
		c7.291-7.291,19.153-7.291,26.444,0s7.291,19.154,0,26.443C49.724,64.833,37.861,64.833,30.571,57.541z"/>
	<g>
		<path fill="#FFFFFF" d="M29.771,42.992c0-3.131,1.988-5.535,5.266-5.535c2.774,0,4.525,1.439,4.867,3.799h-2.997
			c-0.163-0.684-0.801-1.246-1.75-1.246c-1.483,0-2.24,1.246-2.24,2.982c0,1.734,0.859,3.025,2.358,3.025
			c1.128,0,1.677-0.607,1.869-1.32h-1.988v-2.195h4.955v5.756h-2.062l-0.237-1.127h-0.029c-0.667,0.965-1.75,1.379-3.041,1.379
			c-1.425,0-2.641-0.49-3.501-1.41C30.261,46.062,29.771,44.639,29.771,42.992"/>
		<polygon fill="#FFFFFF" points="40.54,37.65 43.64,37.65 43.64,45.602 47.399,45.602 47.399,48.258 40.54,48.258 		"/>
		<path fill="#FFFFFF" d="M55.093,47.131h-0.029c-0.668,0.965-1.75,1.379-3.042,1.379c-1.424,0-2.64-0.49-3.501-1.41
			c-0.979-1.037-1.469-2.461-1.469-4.107c0-3.131,1.988-5.535,5.266-5.535c2.775,0,4.525,1.439,4.867,3.799h-2.996
			c-0.164-0.682-0.802-1.246-1.751-1.246c-1.483,0-2.24,1.246-2.24,2.982c0,1.734,0.861,3.025,2.358,3.025
			c1.128,0,1.676-0.607,1.87-1.32h-1.988v-2.195h4.955v5.756h-2.061L55.093,47.131z"/>
	</g>
</g>
</svg>
