<?xml version="1.0" encoding="utf-8"?>
<!-- Generator: Adobe Illustrator 16.0.4, SVG Export Plug-In . SVG Version: 6.00 Build 0)  -->
<!DOCTYPE svg PUBLIC "-//W3C//DTD SVG 1.1//EN" "http://www.w3.org/Graphics/SVG/1.1/DTD/svg11.dtd">
<svg version="1.1" id="Layer_1" xmlns="http://www.w3.org/2000/svg" xmlns:xlink="http://www.w3.org/1999/xlink" x="0px" y="0px"
	 width="102.977px" height="102.976px" viewBox="0 0 102.977 102.976" enable-background="new 0 0 102.977 102.976"
	 xml:space="preserve">
<radialGradient id="SVGID_1_" cx="51.4883" cy="51.4878" r="51.4883" gradientUnits="userSpaceOnUse">
	<stop  offset="0" style="stop-color:#13759D"/>
	<stop  offset="1" style="stop-color:#006B94"/>
</radialGradient>
<rect fill="url(#SVGID_1_)" width="102.977" height="102.976"/>
<g opacity="0.3">
	<g>
		<path fill="#58595B" d="M87.85,83.18c-0.039,0.059,0.092,0.199-0.095,0.189c-0.108-0.006-0.221-0.002-0.33-0.002
			c-21.389,0-42.779,0-64.169,0.01c-0.353,0-0.434-0.08-0.433-0.434c0.01-17.521,0.01-35.041,0-52.562
			c-0.001-0.354,0.08-0.434,0.433-0.434c21.39,0.01,42.78,0.01,64.169,0c0.354,0,0.434,0.08,0.434,0.434
			C87.848,46.44,87.85,62.498,87.85,78.555c-0.036,0.009-0.071,0.017-0.107,0.025c-1.07-0.026-2.144-0.056-3.215,0.015
			c-0.057-0.011-0.114-0.022-0.172-0.033c-0.013-0.061-0.021-0.125-0.046-0.182c-1.621-3.724-3.252-7.443-4.865-11.172
			c-1.625-3.755-3.227-7.521-4.857-11.274c-0.132-0.303-0.153-0.685-0.486-0.883c-0.181-0.389-0.175-0.818-0.268-1.228
			c-0.362-1.577-0.966-3.062-1.654-4.52c0.118-0.111,0.098-0.258,0.098-0.397c0-5.102-0.002-10.203,0.006-15.305
			c0-0.324-0.098-0.443-0.431-0.438c-0.832,0.017-1.663,0.002-2.496,0c-0.004-0.864-0.03-1.729-0.002-2.593
			c0.015-0.421-0.117-0.529-0.53-0.525c-2.356,0.019-4.714,0.009-7.072,0.009c-6.661,0-13.324,0.004-19.987-0.009
			c-0.413-0.001-0.546,0.104-0.53,0.525c0.028,0.863,0.001,1.729-0.002,2.593c-0.786,0.002-1.572,0.023-2.356-0.002
			c-0.384-0.012-0.478,0.128-0.478,0.49c0.01,4.934,0.007,9.867,0.009,14.802c0,0.166-0.048,0.352,0.12,0.479
			c-0.086,0.185-0.171,0.371-0.26,0.555c-2.785,5.784-2.784,11.562,0.027,17.339c0.637,1.309,1.513,2.458,2.367,3.623
			c-0.012,0.194,0.06,0.364,0.135,0.539c1.093,2.522,2.182,5.049,3.271,7.572c-0.203,0.009-0.407,0.025-0.611,0.025
			c-6.665,0.001-13.331,0.004-19.998-0.008c-0.402-0.001-0.539,0.079-0.526,0.513c0.035,1.178,0.035,2.358,0.001,3.536
			c-0.014,0.449,0.133,0.533,0.548,0.533c5.771-0.014,11.541-0.01,17.311-0.01c15.172,0,30.343,0,45.516,0
			c0.479,0.001,0.958,0.003,1.437,0.005C87.778,83.164,87.813,83.171,87.85,83.18z"/>
		<path fill-rule="evenodd" clip-rule="evenodd" fill="#58595B" d="M87.85,83.18c-0.036-0.009-0.071-0.017-0.107-0.024
			c0.041-1.525,0.043-3.05,0-4.575c0.036-0.009,0.071-0.017,0.107-0.025C87.85,80.096,87.85,81.638,87.85,83.18z"/>
		<path fill-rule="evenodd" clip-rule="evenodd" fill="#58595B" d="M72.179,49.304c0.688,1.457,1.292,2.942,1.654,4.52
			c0.093,0.409,0.087,0.839,0.268,1.228c-0.005,0.062-0.022,0.127-0.014,0.188c0.305,1.938,0.296,3.871-0.003,5.812
			c-0.571,3.725-2.126,6.987-4.627,9.788c-2.411,2.702-5.375,4.566-8.856,5.588c-3.042,0.891-6.123,1.01-9.221,0.363
			c-3.916-0.817-7.244-2.703-10.011-5.594c-0.237-0.247-0.407-0.56-0.708-0.746c-0.854-1.165-1.73-2.314-2.367-3.623
			c-2.812-5.776-2.812-11.555-0.027-17.339c0.089-0.184,0.174-0.37,0.26-0.555c0.639-0.966,1.225-1.967,1.97-2.86
			c0.269-0.322,0.614-0.589,0.771-0.998c0.149-0.029,0.238-0.145,0.338-0.244c1.785-1.781,3.805-3.212,6.133-4.21
			c3.631-1.558,7.388-1.917,11.244-1.169c3.872,0.751,7.179,2.581,9.936,5.404c0.119,0.122,0.222,0.271,0.404,0.312
			C70.341,46.501,71.374,47.825,72.179,49.304z M55.269,43.529c-7.963-0.128-14.622,6.552-14.642,14.559
			c-0.019,7.789,6.224,14.672,14.597,14.679c8.158,0.009,14.646-6.447,14.666-14.608C69.912,49.795,63.066,43.434,55.269,43.529z"/>
		<path fill-rule="evenodd" clip-rule="evenodd" fill="#58595B" d="M69.322,45.168c-0.183-0.041-0.285-0.19-0.404-0.312
			c-2.757-2.823-6.063-4.653-9.936-5.404c-3.856-0.748-7.613-0.389-11.244,1.169c-2.328,0.998-4.348,2.429-6.133,4.21
			c-0.1,0.1-0.188,0.215-0.339,0.244c-0.011-0.219-0.029-0.438-0.029-0.657c-0.003-3.751-0.004-7.502-0.006-11.253
			c0.003-0.864,0.03-1.729,0.002-2.593c-0.016-0.421,0.117-0.526,0.53-0.525c6.663,0.013,13.326,0.009,19.987,0.009
			c2.358,0,4.716,0.01,7.072-0.009c0.413-0.004,0.545,0.104,0.53,0.525c-0.028,0.863-0.002,1.729,0.002,2.593
			c-0.002,3.782-0.004,7.564-0.007,11.347C69.349,44.731,69.331,44.95,69.322,45.168z"/>
		<path fill-rule="evenodd" clip-rule="evenodd" fill="#58595B" d="M69.322,41.478c-0.183-0.042-0.285-0.19-0.404-0.312
			c-2.757-2.823-6.063-4.653-9.936-5.404c-3.856-0.748-7.613-0.389-11.244,1.169c-2.328,0.998-4.348,2.429-6.133,4.21
			c-0.1,0.099-0.188,0.215-0.339,0.244c-0.011-0.22-0.029-0.438-0.029-0.657c-0.003-3.751-0.004-7.503-0.006-11.253
			c0.003-0.864,0.03-1.729,0.002-2.592c-0.016-0.422,0.117-0.527,0.53-0.526c6.663,0.013,13.326,0.009,19.987,0.009
			c2.358,0,4.716,0.01,7.072-0.01c0.413-0.003,0.545,0.105,0.53,0.527c-0.028,0.862-0.002,1.728,0.002,2.592
			c-0.002,3.783-0.004,7.564-0.007,11.348C69.349,41.041,69.331,41.26,69.322,41.478z"/>
		<path fill-rule="evenodd" clip-rule="evenodd" fill="#58595B" d="M86.306,83.151c-15.173,0-30.344,0-45.516,0
			c-5.77,0-11.54-0.004-17.311,0.01c-0.415,0-0.562-0.084-0.548-0.533c0.034-1.178,0.034-2.358-0.001-3.536
			c-0.013-0.434,0.124-0.514,0.526-0.513c6.667,0.012,13.333,0.009,19.998,0.008c0.204,0,0.408-0.017,0.611-0.025
			c0.156,0.006,0.314,0.019,0.471,0.019c13.116,0.001,26.232,0.001,39.349,0c0.156,0,0.313-0.012,0.47-0.018
			c0.058,0.011,0.115,0.022,0.172,0.033c0.021,0.45,0.253,0.826,0.418,1.228C85.396,80.932,85.979,81.989,86.306,83.151z"/>
		<path fill-rule="evenodd" clip-rule="evenodd" fill="#58595B" d="M84.355,78.562c-0.156,0.006-0.313,0.018-0.47,0.018
			c-13.116,0.001-26.232,0.001-39.349,0c-0.156,0-0.314-0.013-0.471-0.019c-1.089-2.523-2.178-5.05-3.271-7.572
			c-0.075-0.175-0.146-0.345-0.135-0.539c0.301,0.187,0.471,0.499,0.708,0.746c2.767,2.891,6.095,4.776,10.011,5.594
			c3.098,0.646,6.179,0.527,9.221-0.363c3.481-1.021,6.445-2.886,8.856-5.588c2.501-2.801,4.056-6.063,4.627-9.788
			c0.299-1.94,0.308-3.874,0.003-5.812c-0.009-0.061,0.009-0.125,0.014-0.188c0.333,0.198,0.354,0.58,0.486,0.883
			c1.631,3.753,3.232,7.52,4.857,11.274c1.613,3.729,3.244,7.448,4.865,11.172C84.335,78.437,84.343,78.501,84.355,78.562z"/>
		<path fill-rule="evenodd" clip-rule="evenodd" fill="#58595B" d="M69.322,45.168c0.009-0.219,0.026-0.438,0.026-0.657
			c0.003-3.782,0.005-7.564,0.007-11.347c0.833,0.002,1.664,0.017,2.496,0c0.333-0.006,0.431,0.113,0.431,0.438
			c-0.008,5.102-0.006,10.203-0.006,15.305c0,0.14,0.021,0.286-0.098,0.397C71.374,47.825,70.341,46.501,69.322,45.168z"/>
		<path fill-rule="evenodd" clip-rule="evenodd" fill="#58595B" d="M41.231,33.165c0.002,3.751,0.003,7.502,0.006,11.253
			c0,0.22,0.019,0.438,0.029,0.657c-0.156,0.409-0.502,0.676-0.771,0.998c-0.745,0.894-1.331,1.895-1.97,2.86
			c-0.168-0.127-0.12-0.312-0.12-0.479c-0.002-4.935,0.001-9.868-0.009-14.802c0-0.362,0.094-0.502,0.478-0.49
			C39.659,33.188,40.445,33.167,41.231,33.165z"/>
		<path fill-rule="evenodd" clip-rule="evenodd" fill="#58595B" d="M86.306,83.151c-0.326-1.162-0.909-2.219-1.36-3.328
			c-0.165-0.401-0.396-0.777-0.418-1.228c1.071-0.07,2.145-0.041,3.215-0.015c0.043,1.525,0.041,3.05,0,4.575
			C87.264,83.154,86.784,83.152,86.306,83.151z"/>
		<path fill-rule="evenodd" clip-rule="evenodd" fill="#58595B" d="M55.269,43.529c7.798-0.095,14.644,6.267,14.621,14.629
			c-0.021,8.161-6.508,14.617-14.666,14.608c-8.373-0.007-14.615-6.89-14.597-14.679C40.646,50.081,47.306,43.401,55.269,43.529z"/>
	</g>
	<circle fill-rule="evenodd" clip-rule="evenodd" fill="#58595B" cx="65.284" cy="61.956" r="1.932"/>
	<rect x="26.376" y="27.248" fill-rule="evenodd" clip-rule="evenodd" fill="#58595B" width="9.842" height="2.735"/>
</g>
<g>
	<g>
		<path fill="#D8D8D8" d="M80.55,76.235c-0.039,0.06,0.093,0.2-0.095,0.19c-0.108-0.006-0.22-0.002-0.33-0.002
			c-21.388,0-42.778-0.001-64.168,0.009c-0.354,0-0.434-0.079-0.434-0.433c0.011-17.521,0.011-35.041,0-52.562
			c0-0.354,0.08-0.434,0.434-0.434c21.39,0.01,42.78,0.01,64.168,0c0.354,0,0.435,0.079,0.435,0.434
			c-0.011,16.058-0.01,32.115-0.01,48.173c-0.036,0.009-0.07,0.017-0.106,0.024c-1.071-0.025-2.144-0.056-3.214,0.016
			c-0.058-0.011-0.115-0.022-0.172-0.033c-0.015-0.061-0.022-0.125-0.047-0.182c-1.621-3.724-3.252-7.443-4.865-11.172
			c-1.625-3.755-3.228-7.521-4.857-11.275c-0.132-0.302-0.153-0.684-0.486-0.883c-0.181-0.388-0.175-0.817-0.269-1.227
			c-0.36-1.577-0.966-3.062-1.654-4.52c0.119-0.111,0.098-0.258,0.098-0.397c0-5.102-0.001-10.203,0.007-15.305
			c0-0.324-0.099-0.443-0.432-0.438c-0.831,0.017-1.663,0.002-2.495,0c-0.004-0.864-0.031-1.729-0.002-2.593
			c0.015-0.421-0.118-0.529-0.53-0.525c-2.356,0.019-4.715,0.009-7.071,0.009c-6.663,0-13.326,0.004-19.989-0.009
			c-0.412-0.001-0.544,0.104-0.529,0.525c0.028,0.863,0.002,1.729-0.002,2.593c-0.786,0.002-1.572,0.022-2.356-0.002
			c-0.384-0.012-0.478,0.127-0.477,0.489c0.009,4.935,0.006,9.868,0.008,14.803c0,0.166-0.048,0.352,0.12,0.479
			c-0.086,0.185-0.171,0.371-0.259,0.555c-2.787,5.783-2.785,11.562,0.026,17.339c0.637,1.309,1.513,2.458,2.367,3.623
			c-0.012,0.194,0.06,0.364,0.136,0.539c1.092,2.522,2.181,5.048,3.27,7.572c-0.203,0.009-0.407,0.025-0.61,0.025
			c-6.666,0-13.333,0.004-19.998-0.008c-0.403-0.001-0.54,0.079-0.527,0.513c0.035,1.178,0.035,2.358,0,3.536
			c-0.013,0.449,0.134,0.533,0.55,0.532c5.77-0.014,11.54-0.009,17.31-0.009c15.172,0,30.342-0.001,45.515-0.001
			c0.479,0.002,0.959,0.003,1.438,0.006C80.479,76.219,80.514,76.227,80.55,76.235z"/>
		<path fill-rule="evenodd" clip-rule="evenodd" fill="#A5A5A5" d="M80.55,76.235c-0.036-0.008-0.07-0.016-0.106-0.023
			c0.041-1.525,0.042-3.051,0-4.576c0.036-0.008,0.07-0.016,0.106-0.024C80.55,73.152,80.55,74.694,80.55,76.235z"/>
		<path fill-rule="evenodd" clip-rule="evenodd" fill="#818282" d="M64.879,42.36c0.688,1.457,1.294,2.942,1.654,4.52
			c0.094,0.409,0.088,0.839,0.269,1.227c-0.005,0.063-0.023,0.128-0.014,0.188c0.304,1.938,0.295,3.871-0.003,5.812
			c-0.571,3.725-2.126,6.987-4.626,9.787c-2.413,2.703-5.376,4.566-8.858,5.588c-3.041,0.892-6.121,1.011-9.22,0.364
			c-3.915-0.817-7.244-2.703-10.011-5.594c-0.236-0.247-0.407-0.56-0.708-0.746c-0.854-1.165-1.73-2.314-2.367-3.623
			c-2.812-5.776-2.813-11.556-0.026-17.339c0.088-0.184,0.173-0.37,0.259-0.555c0.639-0.966,1.225-1.967,1.97-2.86
			c0.269-0.322,0.614-0.589,0.771-0.999c0.15-0.028,0.239-0.145,0.338-0.243c1.786-1.781,3.807-3.212,6.134-4.21
			c3.63-1.558,7.386-1.917,11.243-1.169c3.873,0.751,7.18,2.581,9.938,5.404c0.118,0.122,0.221,0.271,0.402,0.312
			C63.041,39.557,64.074,40.88,64.879,42.36z M47.97,36.584c-7.962-0.128-14.622,6.552-14.642,14.559
			c-0.019,7.789,6.225,14.671,14.596,14.679c8.158,0.009,14.646-6.448,14.667-14.608C62.613,42.851,55.768,36.49,47.97,36.584z"/>
		<path fill-rule="evenodd" clip-rule="evenodd" fill="#A5A5A5" d="M62.022,38.224c-0.182-0.042-0.284-0.19-0.402-0.312
			c-2.758-2.823-6.064-4.653-9.938-5.404c-3.857-0.748-7.613-0.389-11.243,1.169c-2.327,0.998-4.348,2.429-6.134,4.21
			c-0.099,0.099-0.188,0.215-0.338,0.243c-0.011-0.218-0.029-0.438-0.029-0.656c-0.003-3.751-0.005-7.502-0.006-11.253
			c0.004-0.864,0.03-1.729,0.002-2.593c-0.015-0.421,0.117-0.526,0.529-0.525c6.663,0.013,13.326,0.009,19.989,0.009
			c2.356,0,4.715,0.01,7.071-0.009c0.412-0.004,0.545,0.104,0.53,0.525c-0.029,0.863-0.002,1.729,0.002,2.593
			c-0.002,3.782-0.003,7.564-0.007,11.347C62.05,37.787,62.031,38.005,62.022,38.224z"/>
		<path fill-rule="evenodd" clip-rule="evenodd" fill="#A5A5A5" d="M62.022,34.534c-0.182-0.042-0.284-0.19-0.402-0.312
			c-2.758-2.823-6.064-4.653-9.938-5.404c-3.857-0.748-7.613-0.389-11.243,1.169c-2.327,0.998-4.348,2.429-6.134,4.21
			c-0.099,0.099-0.188,0.215-0.338,0.244c-0.011-0.22-0.029-0.438-0.029-0.657c-0.003-3.751-0.005-7.503-0.006-11.253
			c0.004-0.864,0.03-1.729,0.002-2.593c-0.015-0.421,0.117-0.526,0.529-0.525c6.663,0.013,13.326,0.009,19.989,0.009
			c2.356,0,4.715,0.01,7.071-0.01c0.412-0.003,0.545,0.105,0.53,0.526c-0.029,0.863-0.002,1.729,0.002,2.593
			c-0.002,3.782-0.003,7.564-0.007,11.347C62.05,34.096,62.031,34.315,62.022,34.534z"/>
		<path fill-rule="evenodd" clip-rule="evenodd" fill="#4C4C4C" d="M79.006,76.206c-15.173,0-30.343,0.001-45.515,0.001
			c-5.77,0-11.54-0.005-17.31,0.009c-0.416,0.001-0.562-0.083-0.55-0.532c0.035-1.178,0.035-2.358,0-3.536
			c-0.013-0.434,0.124-0.514,0.527-0.513c6.665,0.012,13.332,0.008,19.998,0.008c0.203,0,0.407-0.017,0.61-0.025
			c0.156,0.006,0.313,0.019,0.471,0.019c13.116,0,26.232,0,39.349,0c0.156,0,0.313-0.012,0.471-0.018
			c0.057,0.011,0.114,0.022,0.172,0.033c0.02,0.449,0.252,0.826,0.416,1.228C78.099,73.988,78.681,75.044,79.006,76.206z"/>
		<path fill-rule="evenodd" clip-rule="evenodd" fill="#D8D8D8" d="M77.058,71.618c-0.157,0.006-0.314,0.018-0.471,0.018
			c-13.116,0-26.232,0-39.349,0c-0.157,0-0.314-0.013-0.471-0.019c-1.089-2.524-2.178-5.05-3.27-7.572
			c-0.076-0.175-0.147-0.345-0.136-0.539c0.301,0.187,0.472,0.499,0.708,0.746c2.767,2.891,6.096,4.776,10.011,5.594
			c3.099,0.646,6.179,0.527,9.22-0.364c3.482-1.021,6.445-2.885,8.858-5.588c2.5-2.8,4.055-6.062,4.626-9.787
			c0.298-1.941,0.307-3.875,0.003-5.812c-0.01-0.06,0.009-0.124,0.014-0.188c0.333,0.199,0.354,0.581,0.486,0.883
			c1.63,3.754,3.232,7.521,4.857,11.275c1.613,3.729,3.244,7.448,4.865,11.172C77.035,71.493,77.043,71.557,77.058,71.618z"/>
		<path fill-rule="evenodd" clip-rule="evenodd" fill="#C2C2C2" d="M62.022,38.224c0.009-0.219,0.027-0.438,0.027-0.657
			c0.004-3.782,0.005-7.564,0.007-11.347c0.832,0.002,1.664,0.017,2.495,0c0.333-0.006,0.432,0.113,0.432,0.438
			c-0.008,5.102-0.007,10.203-0.007,15.305c0,0.14,0.021,0.286-0.098,0.397C64.074,40.88,63.041,39.557,62.022,38.224z"/>
		<path fill-rule="evenodd" clip-rule="evenodd" fill="#C2C2C2" d="M33.933,26.22c0.001,3.751,0.003,7.502,0.006,11.253
			c0,0.219,0.019,0.438,0.029,0.656c-0.156,0.41-0.502,0.677-0.771,0.999c-0.745,0.894-1.331,1.895-1.97,2.86
			c-0.168-0.127-0.12-0.312-0.12-0.479c-0.002-4.935,0.001-9.868-0.008-14.803c-0.001-0.362,0.093-0.501,0.477-0.489
			C32.36,26.243,33.146,26.222,33.933,26.22z"/>
		<path fill-rule="evenodd" clip-rule="evenodd" fill="#4C4C4C" d="M79.006,76.206c-0.325-1.161-0.907-2.218-1.36-3.327
			c-0.164-0.401-0.396-0.778-0.416-1.228c1.07-0.071,2.143-0.041,3.214-0.016c0.042,1.525,0.041,3.051,0,4.576
			C79.965,76.208,79.485,76.208,79.006,76.206z"/>
		<path fill-rule="evenodd" clip-rule="evenodd" fill="#414042" d="M47.97,36.584c7.798-0.095,14.644,6.267,14.621,14.629
			c-0.021,8.16-6.509,14.617-14.667,14.608c-8.371-0.008-14.614-6.89-14.596-14.679C33.348,43.136,40.008,36.457,47.97,36.584z"/>
	</g>
	<path fill="#C2C2C2" d="M54.052,50.438c-1.58,0-3.159-0.603-4.364-1.807c-0.759-0.761-1.998-0.761-2.759,0
		c-2.41,2.41-6.317,2.41-8.728-0.001c-2.409-2.41-2.409-6.317,0.001-8.727c5.574-5.572,14.642-5.571,20.213,0
		c2.41,2.41,2.41,6.317,0,8.728C57.21,49.835,55.631,50.438,54.052,50.438z"/>
	<circle fill-rule="evenodd" clip-rule="evenodd" fill="#C2C2C2" cx="57.985" cy="55.011" r="1.931"/>
	<rect x="19.077" y="20.303" fill-rule="evenodd" clip-rule="evenodd" fill="#A5A5A5" width="9.842" height="2.734"/>
</g>
</svg>
