<?xml version="1.0" encoding="utf-8"?>
<!-- Generator: Adobe Illustrator 16.0.4, SVG Export Plug-In . SVG Version: 6.00 Build 0)  -->
<!DOCTYPE svg PUBLIC "-//W3C//DTD SVG 1.1//EN" "http://www.w3.org/Graphics/SVG/1.1/DTD/svg11.dtd">
<svg version="1.1" id="Layer_1" xmlns="http://www.w3.org/2000/svg" xmlns:xlink="http://www.w3.org/1999/xlink" x="0px" y="0px"
	 width="102.976px" height="102.976px" viewBox="0 0 102.976 102.976" enable-background="new 0 0 102.976 102.976"
	 xml:space="preserve">
<g>
	<linearGradient id="SVGID_1_" gradientUnits="userSpaceOnUse" x1="17.6313" y1="21.4429" x2="104.7374" y2="98.742">
		<stop  offset="0" style="stop-color:#292526"/>
		<stop  offset="1" style="stop-color:#000000"/>
	</linearGradient>
	<rect fill="url(#SVGID_1_)" width="102.976" height="102.976"/>
	<g>
		<g>
			<g>
				<g enable-background="new    ">
					<g>
						<polygon fill="#D8D9DA" points="30.895,50.272 31.978,49.672 31.875,56.431 30.791,57.031 						"/>
					</g>
					<g>
						<polygon fill="#D3D4D5" points="31.438,14.672 32.522,14.072 32.931,14.173 31.847,14.774 						"/>
					</g>
					<g>
						<polygon fill="#D8D9DA" points="31.639,14.95 32.723,14.349 51.37,37.491 50.286,38.092 						"/>
					</g>
					<g>
						<polygon fill="#E4E4E4" points="31.639,14.95 32.723,14.349 35.577,17.458 34.493,18.059 						"/>
					</g>
					<g>
						<polygon fill="#D8D9DA" points="31.847,14.774 32.931,14.173 35.577,17.458 34.493,18.059 						"/>
					</g>
					<g>
						<polygon fill="#D2D3D4" points="50.286,38.092 51.37,37.491 31.978,49.672 30.895,50.272 						"/>
					</g>
					<g>
						<polygon fill="#3A5DCC" points="54.287,43.057 55.371,42.456 31.875,56.431 30.791,57.031 						"/>
					</g>
					<g>
						<polygon fill="#426BE9" points="30.895,50.272 50.286,38.092 54.287,43.057 30.791,57.031 						"/>
					</g>
					<g>
						<polygon fill="#3B60D1" points="50.286,38.092 51.37,37.491 55.371,42.456 54.287,43.057 						"/>
					</g>
					<g>
						<polygon fill="#D8D9DA" points="54.287,43.057 55.371,42.456 59.179,47.182 58.095,47.782 						"/>
					</g>
					<g>
						<polygon fill="#DFDFDF" points="86.575,28.646 87.659,28.046 67.34,41.698 66.257,42.299 						"/>
					</g>
					<g>
						<polygon fill="#D2D3D4" points="86.575,28.646 87.659,28.046 87.346,28.22 86.262,28.821 						"/>
					</g>
					<g>
						<polygon fill="#DFDFDF" points="61.776,45.308 62.86,44.708 59.179,47.182 58.095,47.782 						"/>
					</g>
					<g>
						<polygon fill="#D7D8D9" points="61.776,45.308 62.86,44.708 87.429,69.373 86.345,69.975 						"/>
					</g>
					<g>
						<polygon fill="#3B60D2" points="86.448,63.216 87.532,62.615 87.429,69.373 86.345,69.975 						"/>
					</g>
					<g>
						<polygon fill="#3B60D1" points="66.256,42.299 67.34,41.698 87.532,62.615 86.448,63.216 						"/>
					</g>
					<g>
						<polygon fill="#F0F1F2" points="87.183,28.571 86.494,73.635 30.75,59.735 31.438,14.672 31.847,14.774 34.493,18.059 
							31.639,14.95 50.286,38.092 30.895,50.272 30.791,57.031 54.287,43.057 58.095,47.782 61.776,45.308 86.345,69.975 
							86.448,63.216 66.257,42.299 86.575,28.646 86.262,28.821 86.782,28.471 						"/>
					</g>
					<g>
						<polygon fill="#3A5DCC" points="86.782,28.471 87.866,27.871 87.346,28.22 86.262,28.821 						"/>
					</g>
					<g>
						<polygon fill="#D3D4D5" points="86.782,28.471 87.866,27.871 88.267,27.97 87.183,28.571 						"/>
					</g>
					<g>
						<polygon fill="#3A5DCC" points="86.548,28.665 86.571,28.649 86.262,28.821 58.558,44.275 59.642,43.674 						"/>
					</g>
					<g>
						<polygon fill="#E4E4E4" points="34.493,18.059 35.577,17.458 59.642,43.674 58.558,44.274 						"/>
					</g>
					<g>
						<polygon fill="#DFDFDF" points="66.257,42.299 67.34,41.698 62.86,44.708 61.776,45.308 						"/>
					</g>
					<g>
						<polygon fill="#426BE9" points="66.256,42.299 86.448,63.216 86.345,69.975 61.776,45.308 						"/>
					</g>
					<g>
						<polygon fill="#FEFEFE" points="86.575,28.646 66.257,42.299 61.776,45.308 58.095,47.782 54.287,43.057 50.286,38.092 
							31.639,14.95 34.493,18.059 58.558,44.274 86.262,28.821 						"/>
					</g>
					<g>
						<polygon fill="#426BE9" points="86.782,28.471 86.262,28.821 58.558,44.274 34.493,18.059 31.847,14.774 						"/>
					</g>
					<g>
						<polygon fill="#3A5ECD" points="31.847,14.774 32.931,14.173 87.866,27.871 86.782,28.471 						"/>
					</g>
					<g>
						<polygon fill="#D8D9DA" points="87.183,28.571 88.267,27.97 87.578,73.033 86.494,73.635 						"/>
					</g>
				</g>
			</g>
		</g>
		<g>
			<g>
				<g enable-background="new    ">
					<g>
						<polygon fill="#D0D1D2" points="23.631,56.563 24.715,55.963 24.612,62.722 23.528,63.322 						"/>
					</g>
					<g>
						<polygon fill="#CECFCF" points="24.175,20.973 25.259,20.372 25.667,20.474 24.583,21.074 						"/>
					</g>
					<g>
						<polygon fill="#D0D1D2" points="24.376,21.249 25.46,20.648 44.106,43.783 43.022,44.384 						"/>
					</g>
					<g>
						<polygon fill="#DCDCDC" points="24.376,21.249 25.46,20.648 28.32,23.764 27.236,24.365 						"/>
					</g>
					<g>
						<polygon fill="#D0D1D2" points="24.583,21.074 25.667,20.474 28.32,23.764 27.236,24.365 						"/>
					</g>
					<g>
						<polygon fill="#CDCECF" points="43.022,44.384 44.106,43.783 24.715,55.963 23.631,56.563 						"/>
					</g>
					<g>
						<polygon fill="#09BE12" points="47.023,49.349 48.107,48.748 24.612,62.722 23.528,63.322 						"/>
					</g>
					<g>
						<polygon fill="#D0D1D2" points="47.023,49.349 48.107,48.748 51.916,53.473 50.832,54.073 						"/>
					</g>
					<g>
						<polygon fill="#D9D9D9" points="54.514,51.601 55.598,51 51.916,53.473 50.832,54.073 						"/>
					</g>
					<g>
						<polygon fill="#D0D0D1" points="54.514,51.601 55.598,51 80.166,75.673 79.082,76.273 						"/>
					</g>
					<g>
						<polygon fill="#09C012" points="79.186,69.516 80.27,68.915 80.166,75.673 79.082,76.273 						"/>
					</g>
					<g>
						<polygon fill="#09C012" points="58.993,48.593 60.077,47.992 80.27,68.915 79.186,69.516 						"/>
					</g>
					<g>
						<polygon fill="#DCDCDC" points="27.236,24.365 28.32,23.764 52.379,49.974 51.295,50.574 						"/>
					</g>
					<g>
						<polygon fill="#09BE12" points="78.997,35.121 80.081,34.521 52.379,49.974 51.295,50.574 						"/>
					</g>
					<g>
						<polygon fill="#CDCECF" points="79.312,34.946 80.396,34.345 80.081,34.521 78.997,35.121 						"/>
					</g>
					<g>
						<polygon fill="#09BE12" points="79.519,34.771 80.603,34.17 80.081,34.521 78.997,35.121 						"/>
					</g>
					<g>
						<polygon fill="#D9D9D9" points="79.312,34.946 80.396,34.345 60.077,47.992 58.993,48.593 						"/>
					</g>
					<g>
						<polygon fill="#F1F2F3" points="79.92,34.871 79.231,79.926 23.486,66.027 24.175,20.973 24.583,21.074 27.236,24.365 
							24.376,21.249 43.022,44.384 23.631,56.563 23.528,63.322 47.023,49.349 50.832,54.073 54.514,51.601 79.082,76.273 
							79.186,69.516 58.993,48.593 79.312,34.946 78.997,35.121 79.519,34.771 						"/>
					</g>
					<g>
						<polygon fill="#0ADF15" points="23.631,56.563 43.022,44.384 47.023,49.349 23.528,63.322 						"/>
					</g>
					<g>
						<polygon fill="#09C012" points="43.022,44.384 44.106,43.783 48.107,48.748 47.023,49.349 						"/>
					</g>
					<g>
						<polygon fill="#D9D9D9" points="58.993,48.593 60.077,47.992 55.598,51 54.514,51.601 						"/>
					</g>
					<g>
						<polygon fill="#0ADF15" points="58.993,48.593 79.186,69.516 79.082,76.273 54.514,51.601 						"/>
					</g>
					<g>
						<polygon fill="#FFFFFF" points="79.312,34.946 58.993,48.593 54.514,51.601 50.832,54.073 47.023,49.349 43.022,44.384 
							24.376,21.249 27.236,24.365 51.295,50.574 78.997,35.121 						"/>
					</g>
					<g>
						<polygon fill="#0ADF15" points="79.519,34.771 78.997,35.121 51.295,50.574 27.236,24.365 24.583,21.074 						"/>
					</g>
					<g>
						<polygon fill="#09BE12" points="24.583,21.074 25.667,20.474 80.603,34.17 79.519,34.771 						"/>
					</g>
					<g>
						<polygon fill="#CECFCF" points="79.519,34.771 80.603,34.17 81.004,34.271 79.92,34.871 						"/>
					</g>
					<g>
						<polygon fill="#D0D1D2" points="79.92,34.871 81.004,34.271 80.315,79.325 79.231,79.926 						"/>
					</g>
				</g>
			</g>
		</g>
		<g>
			<g>
				<g enable-background="new    ">
					<g>
						<polygon fill="#B6B7B8" points="14.676,63.827 15.76,63.227 15.657,69.984 14.573,70.586 						"/>
					</g>
					<g>
						<polygon fill="#B7B8B9" points="15.22,28.235 16.304,27.634 16.713,27.736 15.629,28.337 						"/>
					</g>
					<g>
						<polygon fill="#BCBCBD" points="15.421,28.513 16.505,27.912 35.151,51.046 34.067,51.646 						"/>
					</g>
					<g>
						<polygon fill="#C7C7C7" points="15.421,28.513 16.505,27.912 19.369,31.032 18.285,31.633 						"/>
					</g>
					<g>
						<polygon fill="#BCBCBD" points="15.629,28.337 16.713,27.736 19.369,31.032 18.285,31.633 						"/>
					</g>
					<g>
						<polygon fill="#B0B1B1" points="34.067,51.646 35.151,51.046 15.76,63.227 14.676,63.827 						"/>
					</g>
					<g>
						<polygon fill="#A42E1F" points="38.068,56.611 39.152,56.011 15.657,69.984 14.573,70.586 						"/>
					</g>
					<g>
						<polygon fill="#E03F2B" points="14.676,63.827 34.067,51.646 38.068,56.611 14.573,70.586 						"/>
					</g>
					<g>
						<polygon fill="#AF3121" points="34.067,51.646 35.151,51.046 39.152,56.011 38.068,56.611 						"/>
					</g>
					<g>
						<polygon fill="#BCBCBD" points="38.068,56.611 39.152,56.011 42.961,60.735 41.877,61.336 						"/>
					</g>
					<g>
						<polygon fill="#C7C7C7" points="18.285,31.633 19.369,31.032 43.417,57.234 42.333,57.835 						"/>
					</g>
					<g>
						<polygon fill="#BABABA" points="45.558,58.863 46.642,58.263 42.961,60.735 41.877,61.336 						"/>
					</g>
					<g>
						<polygon fill="#BABABA" points="50.037,55.854 51.121,55.254 46.642,58.263 45.558,58.863 						"/>
					</g>
					<g>
						<polygon fill="#BCBCBD" points="45.558,58.863 46.642,58.263 71.211,82.937 70.127,83.537 						"/>
					</g>
					<g>
						<polygon fill="#AA3021" points="70.23,76.778 71.314,76.178 71.211,82.937 70.127,83.537 						"/>
					</g>
					<g>
						<polygon fill="#E03F2B" points="50.037,55.854 70.23,76.778 70.127,83.537 45.558,58.863 						"/>
					</g>
					<g>
						<polygon fill="#AF3121" points="50.037,55.854 51.121,55.254 71.314,76.178 70.23,76.778 						"/>
					</g>
					<g>
						<polygon fill="#A42E1F" points="70.557,42.032 71.641,41.431 71.12,41.781 70.036,42.382 						"/>
					</g>
					<g>
						<polygon fill="#BABABA" points="70.349,42.208 71.433,41.606 51.121,55.254 50.037,55.854 						"/>
					</g>
					<g>
						<polygon fill="#B0B1B1" points="70.349,42.208 71.433,41.606 71.12,41.781 70.036,42.382 						"/>
					</g>
					<g>
						<polygon fill="#B7B8B9" points="70.557,42.032 71.641,41.431 72.049,41.533 70.965,42.134 						"/>
					</g>
					<g>
						<polygon fill="#A42E1F" points="70.335,42.217 70.036,42.382 42.333,57.835 43.417,57.234 70.312,42.232 						"/>
					</g>
					<g>
						<polygon fill="#FEFEFE" points="70.349,42.208 50.037,55.854 45.558,58.863 41.877,61.336 38.068,56.611 34.067,51.646 
							15.421,28.513 18.285,31.633 42.333,57.835 70.036,42.382 						"/>
					</g>
					<g>
						<polygon fill="#E03F2B" points="70.557,42.032 70.036,42.382 42.333,57.835 18.285,31.633 15.629,28.337 						"/>
					</g>
					<g>
						<polygon fill="#AB3021" points="15.629,28.337 16.713,27.736 71.641,41.431 70.557,42.032 						"/>
					</g>
					<g>
						<polygon fill="#F0F1F2" points="70.965,42.134 70.276,87.189 14.531,73.291 15.22,28.235 15.629,28.337 18.285,31.633 
							15.421,28.513 34.067,51.646 14.676,63.827 14.573,70.586 38.068,56.611 41.877,61.336 45.558,58.863 70.127,83.537 
							70.23,76.778 50.037,55.854 70.349,42.208 70.036,42.382 70.557,42.032 						"/>
					</g>
					<g>
						<polygon fill="#B6B7B8" points="70.965,42.134 72.049,41.533 71.36,86.589 70.276,87.189 						"/>
					</g>
				</g>
			</g>
		</g>
	</g>
</g>
</svg>
