<?xml version="1.0" encoding="utf-8"?>
<!-- Generator: Adobe Illustrator 16.0.4, SVG Export Plug-In . SVG Version: 6.00 Build 0)  -->
<!DOCTYPE svg PUBLIC "-//W3C//DTD SVG 1.1//EN" "http://www.w3.org/Graphics/SVG/1.1/DTD/svg11.dtd">
<svg version="1.1" id="Layer_1" xmlns="http://www.w3.org/2000/svg" xmlns:xlink="http://www.w3.org/1999/xlink" x="0px" y="0px"
	 width="102.976px" height="102.976px" viewBox="0 0 102.976 102.976" enable-background="new 0 0 102.976 102.976"
	 xml:space="preserve">
<rect fill="#E13F2B" width="102.976" height="102.976"/>
<linearGradient id="SVGID_1_" gradientUnits="userSpaceOnUse" x1="111.6831" y1="99.1069" x2="69.0882" y2="62.0797">
	<stop  offset="0" style="stop-color:#E13F2B;stop-opacity:0"/>
	<stop  offset="0.6247" style="stop-color:#CE3927"/>
</linearGradient>
<polygon fill="url(#SVGID_1_)" points="102.488,102.889 66.07,102.889 51.736,92.998 75.4,21.565 102.488,45.863 "/>
<g>
	<path fill="#FFFFFF" d="M81.011,40.207c0,0.184-0.002,0.372-0.006,0.558c-0.004,0.141-0.007,0.282-0.013,0.427
		c-0.003,0.055-0.003,0.11-0.005,0.165c-0.008,0.148-0.016,0.293-0.021,0.442c-0.011,0.2-0.025,0.406-0.039,0.606
		c-0.113,1.365-0.316,2.751-0.61,4.151c-0.011,0.049-0.018,0.096-0.029,0.142c-4.507,21.39-28.552,46.301-28.552,46.301
		S27.691,68.086,23.184,46.697c-0.01-0.046-0.018-0.092-0.028-0.142c-0.293-1.4-0.498-2.786-0.61-4.151
		c-0.014-0.2-0.029-0.406-0.039-0.606c-0.007-0.148-0.014-0.293-0.021-0.442c-0.003-0.055-0.003-0.11-0.007-0.165
		c-0.003-0.145-0.007-0.286-0.011-0.427c-0.003-0.187-0.007-0.375-0.007-0.558c0-16.169,13.107-29.275,29.275-29.275
		C67.905,10.931,81.011,24.038,81.011,40.207z"/>
</g>
<path fill="#CC322A" d="M76.957,40.777c0,0.158-0.005,0.319-0.008,0.48c-0.002,0.122-0.005,0.244-0.009,0.368
	c-0.003,0.048-0.003,0.095-0.007,0.143c-0.004,0.127-0.012,0.253-0.018,0.379c-0.008,0.173-0.021,0.351-0.033,0.523
	c-0.098,1.175-0.273,2.37-0.525,3.576c-0.01,0.042-0.014,0.083-0.024,0.122C72.45,64.794,51.736,86.255,51.736,86.255
	S31.023,64.794,27.14,46.368c-0.009-0.039-0.015-0.079-0.024-0.122c-0.252-1.206-0.428-2.401-0.526-3.576
	c-0.013-0.172-0.023-0.35-0.033-0.523c-0.006-0.126-0.012-0.252-0.019-0.379c-0.002-0.048-0.002-0.095-0.005-0.143
	c-0.002-0.124-0.006-0.246-0.009-0.368c-0.003-0.161-0.006-0.322-0.006-0.48c0-13.928,11.29-25.219,25.218-25.219
	C65.664,15.558,76.957,26.849,76.957,40.777z"/>
<path fill="#FFFFFF" d="M63.904,39.831h-4.25V28.842c0-2.143-1.498-3.878-3.348-3.878h-9.385c-1.851,0-3.35,1.736-3.35,3.878v10.989
	h-4.036c-0.286,0-0.516,0.505-0.516,1.13c0,0.622,0.23,1.128,0.516,1.128h0.958v8.304c-0.049,0.172-0.077,0.352-0.077,0.539
	c0,1.092,0.884,1.976,1.976,1.976h6.353v1.412h1.731v7.407h-8.271c-0.108,0-0.208,0.035-0.298,0.095
	c-0.269,0.136-0.457,0.414-0.457,0.736v3.373c0,0.459,0.372,0.83,0.831,0.83s0.831-0.371,0.831-0.83v-2.556h7.67v2.556
	c0,0.459,0.372,0.83,0.831,0.83c0.458,0,0.831-0.371,0.831-0.83v-2.556h7.652v2.556c0,0.459,0.371,0.83,0.832,0.83
	c0.458,0,0.83-0.371,0.83-0.83v-3.373c0-0.285-0.146-0.539-0.364-0.686c-0.106-0.092-0.234-0.146-0.372-0.146h-8.27V54.32h1.73
	v-1.412h6.353c0.707,0,1.324-0.371,1.673-0.927c0.188-0.204,0.304-0.469,0.304-0.765v-9.127h1.094c0.305,0,0.55-0.506,0.55-1.128
	C64.454,40.335,64.208,39.831,63.904,39.831z M43.571,42.088v5.815c0,0.365,0.047,0.717,0.128,1.053h-0.949v-6.868H43.571z
	 M60.552,48.957h-1.025c0.081-0.336,0.127-0.688,0.127-1.053v-5.815h0.898V48.957z"/>
</svg>
