<?xml version="1.0" encoding="utf-8"?>
<!-- Generator: Adobe Illustrator 16.0.4, SVG Export Plug-In . SVG Version: 6.00 Build 0)  -->
<!DOCTYPE svg PUBLIC "-//W3C//DTD SVG 1.1//EN" "http://www.w3.org/Graphics/SVG/1.1/DTD/svg11.dtd">
<svg version="1.1" id="Layer_1" xmlns="http://www.w3.org/2000/svg" xmlns:xlink="http://www.w3.org/1999/xlink" x="0px" y="0px"
	 width="102.977px" height="102.975px" viewBox="0 0 102.977 102.975" enable-background="new 0 0 102.977 102.975"
	 xml:space="preserve">
<radialGradient id="SVGID_1_" cx="51.4883" cy="51.4873" r="51.4878" gradientUnits="userSpaceOnUse">
	<stop  offset="0" style="stop-color:#13759D"/>
	<stop  offset="1" style="stop-color:#006B94"/>
</radialGradient>
<rect fill="url(#SVGID_1_)" width="102.977" height="102.975"/>
<g>
	<path fill="#00425C" d="M72.3,37.719c-2.006,0-3.93,0.338-5.711,0.959c-3.008-4.133-8.015-6.842-13.687-6.842
		c-3.352,0-6.47,0.949-9.083,2.576c-2.752-2.801-6.663-4.555-11.005-4.555c-8.333,0-15.087,6.447-15.087,14.4
		c0,2.182,0.511,4.25,1.42,6.102c-4.065,2.184-6.812,6.338-6.812,11.107c0,7.035,5.973,12.736,13.342,12.736
		c0.914,0,1.807-0.09,2.67-0.256c1.619,5.293,6.737,9.16,12.805,9.16c5.706,0,10.572-3.418,12.479-8.227
		c1.557,0.729,3.305,1.139,5.155,1.139c4.812,0,8.944-2.768,10.753-6.725c0.898,0.143,1.821,0.221,2.762,0.221
		c9.199,0,16.657-7.117,16.657-15.898S81.499,37.719,72.3,37.719z"/>
	<g id="qLb5Wx.tif">
		<g>
			<path fill-rule="evenodd" clip-rule="evenodd" fill="#72A3B2" d="M52.67,49.652c-1.16,0-2.283,0-3.462,0
				c0.072-0.322,0.131-0.59,0.192-0.869c1.033,0,2.029-0.018,3.024,0.008c0.374,0.01,0.549-0.096,0.664-0.473
				c0.554-1.799,1.252-3.537,2.308-5.111c0.912-1.361,1.991-2.555,3.603-3.084c1.684-0.555,3.329-0.451,4.773,0.656
				c0.42,0.322,0.712,0.857,0.962,1.346c0.185,0.363,0.112,0.793-0.262,1.078c-0.314,0.238-0.922,0.225-1.26-0.068
				c-0.247-0.213-0.451-0.482-0.646-0.75c-0.187-0.254-0.321-0.543-0.502-0.801c-0.767-1.094-1.933-1.311-3.044-0.564
				c-0.957,0.639-1.505,1.605-1.896,2.631c-0.604,1.578-1.099,3.199-1.637,4.803c-0.025,0.076-0.017,0.162-0.03,0.307
				c1.021,0,2.024,0,3.092,0c-0.082,0.336-0.147,0.6-0.219,0.891c-0.925,0-1.822,0.023-2.717-0.012
				c-0.396-0.016-0.543,0.141-0.646,0.488c-1.125,3.732-2.257,7.463-3.395,11.193c-0.813,2.664-1.567,5.354-2.851,7.848
				c-0.8,1.555-1.752,3.014-3.32,3.885c-2.095,1.164-4.277,1.395-6.464,0.236c-0.897-0.475-1.312-1.455-1.08-2.254
				c0.173-0.594,0.682-0.92,1.343-0.859c0.573,0.053,0.954,0.434,1.018,1.041c0.022,0.213,0.012,0.434-0.006,0.646
				c-0.06,0.719,0.145,1.055,0.854,1.229c1.297,0.316,2.437-0.01,3.392-0.939c1.147-1.117,1.85-2.527,2.355-4.004
				c1.163-3.406,2.256-6.838,3.348-10.268c0.84-2.641,1.633-5.295,2.445-7.943C52.631,49.863,52.642,49.783,52.67,49.652z"/>
		</g>
	</g>
	<path fill="#FFFFFF" d="M37.94,56.938h0.565c0.566,2.686,1.461,3.955,3.217,3.955c1.578,0,2.591-1.18,2.591-2.627
		c0-1.385-0.924-2.064-2.562-2.922c-2.202-1.119-3.663-1.891-3.663-3.895c0-2.006,1.668-3.482,4.229-3.482
		c1.224,0,2.442,0.324,3.635,1.004v3.127h-0.626c-0.268-2.242-1.638-3.568-3.216-3.568c-1.341,0-2.204,0.766-2.204,1.889
		c0,1.297,0.923,1.711,2.056,2.33c2.681,1.447,4.557,2.184,4.557,4.693c0,2.418-2.085,4.102-4.975,4.102
		c-1.251,0-2.472-0.326-3.604-0.975V56.938z"/>
</g>
</svg>
