<?xml version="1.0" encoding="utf-8"?>
<!-- Generator: Adobe Illustrator 16.0.4, SVG Export Plug-In . SVG Version: 6.00 Build 0)  -->
<!DOCTYPE svg PUBLIC "-//W3C//DTD SVG 1.1//EN" "http://www.w3.org/Graphics/SVG/1.1/DTD/svg11.dtd">
<svg version="1.1" id="Layer_1" xmlns="http://www.w3.org/2000/svg" xmlns:xlink="http://www.w3.org/1999/xlink" x="0px" y="0px"
	 width="102.978px" height="103.974px" viewBox="0 0 102.978 103.974" enable-background="new 0 0 102.978 103.974"
	 xml:space="preserve">
<radialGradient id="SVGID_1_" cx="51.4888" cy="52.4854" r="51.4885" gradientUnits="userSpaceOnUse">
	<stop  offset="0" style="stop-color:#BEBFBF"/>
	<stop  offset="1" style="stop-color:#B7B8B8"/>
</radialGradient>
<rect y="0.997" fill="url(#SVGID_1_)" width="102.978" height="102.977"/>
<g opacity="0.1">
	<g>
		<g enable-background="new    ">
			<g>
				<polygon points="68.16,50.773 67.745,50.537 70.08,50.883 68.718,50.856 				"/>
			</g>
			<g>
				<polygon points="59.481,52.15 58.16,52.697 59.147,51.844 59.562,52.081 				"/>
			</g>
			<g>
				<polygon points="70.08,50.883 70.171,52.131 67.623,54.334 67.532,53.086 				"/>
			</g>
			<g>
				<polygon points="65.611,52.977 65.196,52.74 67.745,50.537 68.16,50.773 				"/>
			</g>
			<g>
				<polygon points="59.562,52.081 59.147,51.844 65.196,52.74 65.611,52.977 				"/>
			</g>
			<g>
				<polygon points="68.718,50.856 70.08,50.883 67.532,53.086 66.169,53.06 				"/>
			</g>
			<g>
				<polygon points="64.209,53.593 64.3,54.842 58.251,53.945 58.16,52.697 				"/>
			</g>
			<g>
				<polygon points="65.53,53.047 64.209,53.593 58.16,52.697 59.481,52.15 				"/>
			</g>
			<g>
				<polygon points="66.169,53.06 67.532,53.086 73.581,53.982 72.218,53.956 				"/>
			</g>
			<g>
				<polygon points="72.595,54.835 72.686,56.084 66.636,55.188 66.545,53.939 				"/>
			</g>
			<g>
				<polygon points="73.581,53.982 73.672,55.23 72.686,56.084 72.595,54.835 				"/>
			</g>
			<g>
				<polygon points="72.138,54.025 72.595,54.835 66.545,53.939 66.088,53.129 				"/>
			</g>
			<g>
				<polygon points="72.218,53.956 73.581,53.982 72.595,54.835 72.138,54.025 				"/>
			</g>
			<g>
				<polygon points="62.985,55.247 61.665,55.793 64.209,53.593 65.53,53.047 				"/>
			</g>
			<g>
				<polygon points="68.718,50.856 66.169,53.06 72.218,53.956 72.138,54.025 66.088,53.129 63.544,55.329 62.985,55.247 
					65.53,53.047 59.481,52.15 59.562,52.081 65.611,52.977 68.16,50.773 				"/>
			</g>
			<g>
				<polygon points="66.088,53.129 66.545,53.939 64,56.139 63.544,55.329 				"/>
			</g>
			<g>
				<polygon points="63.544,55.329 64,56.139 61.665,55.793 62.985,55.247 				"/>
			</g>
			<g>
				<polygon points="66.545,53.939 66.636,55.188 64.091,57.387 64,56.139 				"/>
			</g>
			<g>
				<polygon points="64,56.139 64.091,57.387 61.756,57.041 61.665,55.793 				"/>
			</g>
		</g>
		<g enable-background="new    ">
			<g>
				<polygon points="41.181,50.357 40.766,50.12 44.463,50.668 43.1,50.642 				"/>
			</g>
			<g>
				<polygon points="26.964,52.982 25.643,53.529 27.2,52.182 27.615,52.419 				"/>
			</g>
			<g>
				<polygon points="37.161,53.833 36.746,53.596 40.766,50.12 41.181,50.357 				"/>
			</g>
			<g>
				<polygon points="27.615,52.419 27.2,52.182 36.746,53.596 37.161,53.833 				"/>
			</g>
			<g>
				<polygon points="44.463,50.668 44.554,51.916 40.533,55.392 40.442,54.144 				"/>
			</g>
			<g>
				<polygon points="43.1,50.642 44.463,50.668 40.442,54.144 39.079,54.117 				"/>
			</g>
			<g>
				<polygon points="36.509,54.396 35.188,54.943 25.643,53.529 26.964,52.982 				"/>
			</g>
			<g>
				<polygon points="35.188,54.943 35.278,56.191 25.733,54.777 25.643,53.529 				"/>
			</g>
			<g>
				<polygon points="20.089,56.94 19.674,56.704 22.01,57.05 20.647,57.023 				"/>
			</g>
			<g>
				<polygon points="39.079,54.117 40.442,54.144 49.987,55.558 48.624,55.531 				"/>
			</g>
			<g>
				<polygon points="11.411,58.317 10.089,58.864 11.076,58.011 11.491,58.248 				"/>
			</g>
			<g>
				<polygon points="48.624,55.531 49.987,55.558 48.429,56.904 47.972,56.095 				"/>
			</g>
			<g>
				<polygon points="48.429,56.904 48.52,58.153 38.975,56.739 38.884,55.49 				"/>
			</g>
			<g>
				<polygon points="49.987,55.558 50.078,56.806 48.52,58.153 48.429,56.904 				"/>
			</g>
			<g>
				<polygon points="47.972,56.095 48.429,56.904 38.884,55.49 38.427,54.681 				"/>
			</g>
			<g>
				<polygon points="22.01,57.05 22.101,58.298 19.552,60.501 19.461,59.253 				"/>
			</g>
			<g>
				<polygon points="32.488,57.872 31.167,58.418 35.188,54.943 36.509,54.396 				"/>
			</g>
			<g>
				<polygon points="17.54,59.144 17.125,58.907 19.674,56.704 20.089,56.94 				"/>
			</g>
			<g>
				<polygon points="11.491,58.248 11.076,58.011 17.125,58.907 17.54,59.144 				"/>
			</g>
			<g>
				<polygon points="20.647,57.023 22.01,57.05 19.461,59.253 18.098,59.227 				"/>
			</g>
			<g>
				<polygon points="17.459,59.213 16.138,59.76 10.089,58.864 11.411,58.317 				"/>
			</g>
			<g>
				<polygon points="16.138,59.76 16.229,61.009 10.18,60.112 10.089,58.864 				"/>
			</g>
			<g>
				<polygon points="43.1,50.642 39.079,54.117 48.624,55.531 47.972,56.095 38.427,54.681 34.407,58.156 32.488,57.872 
					36.509,54.396 26.964,52.982 27.615,52.419 37.161,53.833 41.181,50.357 				"/>
			</g>
			<g>
				<polygon points="38.884,55.49 38.975,56.739 34.955,60.215 34.863,58.966 				"/>
			</g>
			<g>
				<polygon points="38.427,54.681 38.884,55.49 34.863,58.966 34.407,58.156 				"/>
			</g>
			<g>
				<polygon points="34.407,58.156 34.863,58.966 31.167,58.418 32.488,57.872 				"/>
			</g>
			<g>
				<polygon points="34.863,58.966 34.955,60.215 31.258,59.667 31.167,58.418 				"/>
			</g>
			<g>
				<polygon points="18.098,59.227 19.461,59.253 25.51,60.149 24.147,60.123 				"/>
			</g>
			<g>
				<polygon points="85.523,55.629 85.108,55.393 89.292,56.012 87.93,55.986 				"/>
			</g>
			<g>
				<polygon points="24.523,61.002 24.614,62.251 18.565,61.354 18.475,60.106 				"/>
			</g>
			<g>
				<polygon points="25.51,60.149 25.601,61.397 24.614,62.251 24.523,61.002 				"/>
			</g>
			<g>
				<polygon points="24.066,60.192 24.523,61.002 18.475,60.106 18.018,59.296 				"/>
			</g>
			<g>
				<polygon points="24.147,60.123 25.51,60.149 24.523,61.002 24.066,60.192 				"/>
			</g>
			<g>
				<polygon points="14.911,61.417 13.589,61.963 16.138,59.76 17.459,59.213 				"/>
			</g>
			<g>
				<polygon points="20.647,57.023 18.098,59.227 24.147,60.123 24.066,60.192 18.018,59.296 15.469,61.499 14.911,61.417 
					17.459,59.213 11.411,58.317 11.491,58.248 17.54,59.144 20.089,56.94 				"/>
			</g>
			<g>
				<polygon points="15.469,61.499 15.926,62.31 13.589,61.963 14.911,61.417 				"/>
			</g>
			<g>
				<polygon points="18.475,60.106 18.565,61.354 16.017,63.558 15.926,62.31 				"/>
			</g>
			<g>
				<polygon points="15.926,62.31 16.017,63.558 13.681,63.212 13.589,61.963 				"/>
			</g>
			<g>
				<polygon points="18.018,59.296 18.475,60.106 15.926,62.31 15.469,61.499 				"/>
			</g>
			<g>
				<polygon points="69.283,58.707 67.962,59.253 69.724,57.73 70.139,57.967 				"/>
			</g>
			<g>
				<polygon points="55.68,59.31 55.265,59.073 59.824,59.749 58.462,59.722 				"/>
			</g>
			<g>
				<polygon points="80.964,59.571 80.549,59.333 85.108,55.393 85.523,55.629 				"/>
			</g>
			<g>
				<polygon points="70.139,57.967 69.724,57.73 80.549,59.333 80.964,59.571 				"/>
			</g>
			<g>
				<polygon points="37.933,62.734 36.611,63.28 38.532,61.62 38.947,61.856 				"/>
			</g>
			<g>
				<polygon points="89.292,56.012 89.384,57.261 84.824,61.202 84.733,59.954 				"/>
			</g>
			<g>
				<polygon points="87.93,55.986 89.292,56.012 84.733,59.954 83.37,59.927 				"/>
			</g>
			<g>
				<polygon points="80.108,60.311 78.787,60.856 67.962,59.253 69.283,58.707 				"/>
			</g>
			<g>
				<polygon points="78.787,60.856 78.878,62.104 68.053,60.501 67.962,59.253 				"/>
			</g>
			<g>
				<polygon points="26.01,63.991 25.595,63.754 29.787,64.375 28.424,64.349 				"/>
			</g>
			<g>
				<polygon points="50.717,63.601 50.302,63.363 55.265,59.073 55.68,59.31 				"/>
			</g>
			<g>
				<polygon points="38.947,61.856 38.532,61.62 50.302,63.363 50.717,63.601 				"/>
			</g>
			<g>
				<polygon points="59.824,59.749 59.916,60.997 54.953,65.287 54.862,64.039 				"/>
			</g>
			<g>
				<polygon points="9.778,67.069 8.457,67.616 10.218,66.093 10.633,66.33 				"/>
			</g>
			<g>
				<polygon points="58.462,59.722 59.824,59.749 54.862,64.039 53.499,64.013 				"/>
			</g>
			<g>
				<polygon points="48.381,65.024 48.472,66.272 36.702,64.528 36.611,63.28 				"/>
			</g>
			<g>
				<polygon points="49.702,64.478 48.381,65.024 36.611,63.28 37.933,62.734 				"/>
			</g>
			<g>
				<polygon points="83.37,59.927 84.733,59.954 95.559,61.558 94.195,61.531 				"/>
			</g>
			<g>
				<polygon points="21.45,67.933 21.035,67.695 25.595,63.754 26.01,63.991 				"/>
			</g>
			<g>
				<polygon points="10.633,66.33 10.218,66.093 21.035,67.695 21.45,67.933 				"/>
			</g>
			<g>
				<polygon points="94.195,61.531 95.559,61.558 93.797,63.08 93.34,62.271 				"/>
			</g>
			<g>
				<polygon points="93.34,62.271 93.797,63.08 82.972,61.477 82.515,60.667 				"/>
			</g>
			<g>
				<polygon points="93.797,63.08 93.888,64.329 83.062,62.725 82.972,61.477 				"/>
			</g>
			<g>
				<polygon points="95.559,61.558 95.649,62.806 93.888,64.329 93.797,63.08 				"/>
			</g>
			<g>
				<polygon points="29.787,64.375 29.878,65.624 25.319,69.565 25.228,68.316 				"/>
			</g>
			<g>
				<polygon points="75.55,64.251 74.229,64.798 78.787,60.856 80.108,60.311 				"/>
			</g>
			<g>
				<polygon points="28.424,64.349 29.787,64.375 25.228,68.316 23.865,68.29 				"/>
			</g>
			<g>
				<polygon points="19.274,69.219 19.365,70.467 8.547,68.864 8.457,67.616 				"/>
			</g>
			<g>
				<polygon points="20.595,68.672 19.274,69.219 8.457,67.616 9.778,67.069 				"/>
			</g>
			<g>
				<polygon points="87.93,55.986 83.37,59.927 94.195,61.531 93.34,62.271 82.515,60.667 77.956,64.608 75.55,64.251 
					80.108,60.311 69.283,58.707 70.139,57.967 80.964,59.571 85.523,55.629 				"/>
			</g>
			<g>
				<polygon points="53.499,64.013 54.862,64.039 66.64,65.784 65.276,65.757 				"/>
			</g>
			<g>
				<polygon points="77.956,64.608 78.413,65.418 74.229,64.798 75.55,64.251 				"/>
			</g>
			<g>
				<polygon points="78.413,65.418 78.504,66.666 74.319,66.046 74.229,64.798 				"/>
			</g>
			<g>
				<polygon points="82.972,61.477 83.062,62.725 78.504,66.666 78.413,65.418 				"/>
			</g>
			<g>
				<polygon points="82.515,60.667 82.972,61.477 78.413,65.418 77.956,64.608 				"/>
			</g>
			<g>
				<polygon points="64.719,67.444 64.81,68.692 53.032,66.948 52.941,65.699 				"/>
			</g>
			<g>
				<polygon points="64.262,66.635 64.719,67.444 52.941,65.699 52.484,64.89 				"/>
			</g>
			<g>
				<polygon points="65.276,65.757 66.64,65.784 64.719,67.444 64.262,66.635 				"/>
			</g>
			<g>
				<polygon points="66.64,65.784 66.73,67.032 64.81,68.692 64.719,67.444 				"/>
			</g>
			<g>
				<polygon points="44.744,68.764 43.422,69.311 48.381,65.024 49.702,64.478 				"/>
			</g>
			<g>
				<polygon points="23.865,68.29 25.228,68.316 36.045,69.919 34.682,69.893 				"/>
			</g>
			<g>
				<polygon points="58.462,59.722 53.499,64.013 65.276,65.757 64.262,66.635 52.484,64.89 47.526,69.177 44.744,68.764 
					49.702,64.478 37.933,62.734 38.947,61.856 50.717,63.601 55.68,59.31 				"/>
			</g>
			<g>
				<polygon points="52.484,64.89 52.941,65.699 47.982,69.986 47.526,69.177 				"/>
			</g>
			<g>
				<polygon points="47.526,69.177 47.982,69.986 43.422,69.311 44.744,68.764 				"/>
			</g>
			<g>
				<polygon points="52.941,65.699 53.032,66.948 48.073,71.234 47.982,69.986 				"/>
			</g>
			<g>
				<polygon points="47.982,69.986 48.073,71.234 43.514,70.559 43.422,69.311 				"/>
			</g>
			<g>
				<polygon points="87.577,66.938 87.162,66.701 89.747,67.084 88.384,67.058 				"/>
			</g>
			<g>
				<polygon points="34.284,71.442 34.375,72.69 23.557,71.088 23.466,69.84 				"/>
			</g>
			<g>
				<polygon points="34.682,69.893 36.045,69.919 34.284,71.442 33.827,70.632 				"/>
			</g>
			<g>
				<polygon points="33.827,70.632 34.284,71.442 23.466,69.84 23.01,69.03 				"/>
			</g>
			<g>
				<polygon points="36.045,69.919 36.136,71.168 34.375,72.69 34.284,71.442 				"/>
			</g>
			<g>
				<polygon points="16.036,72.613 14.715,73.159 19.274,69.219 20.595,68.672 				"/>
			</g>
			<g>
				<polygon points="28.424,64.349 23.865,68.29 34.682,69.893 33.827,70.632 23.01,69.03 18.451,72.971 16.036,72.613 
					20.595,68.672 9.778,67.069 10.633,66.33 21.45,67.933 26.01,63.991 				"/>
			</g>
			<g>
				<polygon points="77.896,68.543 76.575,69.089 77.664,68.147 78.079,68.385 				"/>
			</g>
			<g>
				<polygon points="18.451,72.971 18.907,73.78 14.715,73.159 16.036,72.613 				"/>
			</g>
			<g>
				<polygon points="18.907,73.78 18.998,75.029 14.806,74.408 14.715,73.159 				"/>
			</g>
			<g>
				<polygon points="23.466,69.84 23.557,71.088 18.998,75.029 18.907,73.78 				"/>
			</g>
			<g>
				<polygon points="23.01,69.03 23.466,69.84 18.907,73.78 18.451,72.971 				"/>
			</g>
			<g>
				<polygon points="89.747,67.084 89.838,68.333 87.02,70.769 86.929,69.521 				"/>
			</g>
			<g>
				<polygon points="84.76,69.374 84.345,69.138 87.162,66.701 87.577,66.938 				"/>
			</g>
			<g>
				<polygon points="78.079,68.385 77.664,68.147 84.345,69.138 84.76,69.374 				"/>
			</g>
			<g>
				<polygon points="88.384,67.058 89.747,67.084 86.929,69.521 85.566,69.494 				"/>
			</g>
			<g>
				<polygon points="83.256,70.079 83.347,71.327 76.666,70.338 76.575,69.089 				"/>
			</g>
			<g>
				<polygon points="84.577,69.532 83.256,70.079 76.575,69.089 77.896,68.543 				"/>
			</g>
			<g>
				<polygon points="68.559,70.295 68.144,70.058 72.328,70.678 70.966,70.651 				"/>
			</g>
			<g>
				<polygon points="41.786,73.443 41.371,73.206 43.964,73.591 42.601,73.564 				"/>
			</g>
			<g>
				<polygon points="85.566,69.494 86.929,69.521 93.617,70.511 92.254,70.484 				"/>
			</g>
			<g>
				<polygon points="52.319,73.372 50.998,73.918 52.759,72.396 53.175,72.633 				"/>
			</g>
			<g>
				<polygon points="32.105,75.048 30.784,75.594 31.873,74.652 32.288,74.89 				"/>
			</g>
			<g>
				<polygon points="92.071,70.643 92.528,71.452 85.84,70.462 85.384,69.652 				"/>
			</g>
			<g>
				<polygon points="92.254,70.484 93.617,70.511 92.528,71.452 92.071,70.643 				"/>
			</g>
			<g>
				<polygon points="92.528,71.452 92.619,72.701 85.931,71.71 85.84,70.462 				"/>
			</g>
			<g>
				<polygon points="93.617,70.511 93.708,71.76 92.619,72.701 92.528,71.452 				"/>
			</g>
			<g>
				<polygon points="81.759,71.969 80.438,72.515 83.256,70.079 84.577,69.532 				"/>
			</g>
			<g>
				<polygon points="88.384,67.058 85.566,69.494 92.254,70.484 92.071,70.643 85.384,69.652 82.565,72.088 81.759,71.969 
					84.577,69.532 77.896,68.543 78.079,68.385 84.76,69.374 87.577,66.938 				"/>
			</g>
			<g>
				<polygon points="85.84,70.462 85.931,71.71 83.113,74.146 83.022,72.897 				"/>
			</g>
			<g>
				<polygon points="83.022,72.897 83.113,74.146 80.528,73.763 80.438,72.515 				"/>
			</g>
			<g>
				<polygon points="85.384,69.652 85.84,70.462 83.022,72.897 82.565,72.088 				"/>
			</g>
			<g>
				<polygon points="82.565,72.088 83.022,72.897 80.438,72.515 81.759,71.969 				"/>
			</g>
			<g>
				<polygon points="43.964,73.591 44.055,74.839 41.237,77.274 41.146,76.026 				"/>
			</g>
			<g>
				<polygon points="32.288,74.89 31.873,74.652 38.554,75.643 38.969,75.879 				"/>
			</g>
			<g>
				<polygon points="38.969,75.879 38.554,75.643 41.371,73.206 41.786,73.443 				"/>
			</g>
			<g>
				<polygon points="42.601,73.564 43.964,73.591 41.146,76.026 39.783,76 				"/>
			</g>
			<g>
				<polygon points="53.175,72.633 52.759,72.396 63.585,73.999 64,74.236 				"/>
			</g>
			<g>
				<polygon points="64,74.236 63.585,73.999 68.144,70.058 68.559,70.295 				"/>
			</g>
			<g>
				<polygon points="37.465,76.584 37.556,77.832 30.875,76.843 30.784,75.594 				"/>
			</g>
			<g>
				<polygon points="38.786,76.037 37.465,76.584 30.784,75.594 32.105,75.048 				"/>
			</g>
			<g>
				<polygon points="72.328,70.678 72.419,71.926 67.86,75.867 67.77,74.619 				"/>
			</g>
			<g>
				<polygon points="70.966,70.651 72.328,70.678 67.77,74.619 66.406,74.593 				"/>
			</g>
			<g>
				<polygon points="63.145,74.976 61.823,75.521 50.998,73.918 52.319,73.372 				"/>
			</g>
			<g>
				<polygon points="61.823,75.521 61.914,76.771 51.089,75.167 50.998,73.918 				"/>
			</g>
			<g>
				<polygon points="39.783,76 41.146,76.026 47.827,77.016 46.463,76.989 				"/>
			</g>
			<g>
				<polygon points="46.281,77.147 46.737,77.957 40.057,76.968 39.6,76.158 				"/>
			</g>
			<g>
				<polygon points="46.737,77.957 46.829,79.206 40.148,78.216 40.057,76.968 				"/>
			</g>
			<g>
				<polygon points="47.827,77.016 47.917,78.265 46.829,79.206 46.737,77.957 				"/>
			</g>
			<g>
				<polygon points="46.463,76.989 47.827,77.016 46.737,77.957 46.281,77.147 				"/>
			</g>
			<g>
				<polygon points="35.968,78.474 34.647,79.02 37.465,76.584 38.786,76.037 				"/>
			</g>
			<g>
				<polygon points="42.601,73.564 39.783,76 46.463,76.989 46.281,77.147 39.6,76.158 36.783,78.594 35.968,78.474 38.786,76.037 
					32.105,75.048 32.288,74.89 38.969,75.879 41.786,73.443 				"/>
			</g>
			<g>
				<polygon points="36.783,78.594 37.239,79.403 34.647,79.02 35.968,78.474 				"/>
			</g>
			<g>
				<polygon points="39.6,76.158 40.057,76.968 37.239,79.403 36.783,78.594 				"/>
			</g>
			<g>
				<polygon points="40.057,76.968 40.148,78.216 37.33,80.652 37.239,79.403 				"/>
			</g>
			<g>
				<polygon points="37.239,79.403 37.33,80.652 34.738,80.268 34.647,79.02 				"/>
			</g>
			<g>
				<polygon points="66.406,74.593 67.77,74.619 78.595,76.223 77.231,76.196 				"/>
			</g>
			<g>
				<polygon points="76.833,77.745 76.924,78.994 66.099,77.391 66.008,76.142 				"/>
			</g>
			<g>
				<polygon points="78.595,76.223 78.686,77.472 76.924,78.994 76.833,77.745 				"/>
			</g>
			<g>
				<polygon points="77.231,76.196 78.595,76.223 76.833,77.745 76.376,76.936 				"/>
			</g>
			<g>
				<polygon points="76.376,76.936 76.833,77.745 66.008,76.142 65.551,75.332 				"/>
			</g>
			<g>
				<polygon points="58.585,78.917 57.265,79.463 61.823,75.521 63.145,74.976 				"/>
			</g>
			<g>
				<polygon points="70.966,70.651 66.406,74.593 77.231,76.196 76.376,76.936 65.551,75.332 60.992,79.273 58.585,78.917 
					63.145,74.976 52.319,73.372 53.175,72.633 64,74.236 68.559,70.295 				"/>
			</g>
			<g>
				<polygon points="60.992,79.273 61.448,80.083 57.265,79.463 58.585,78.917 				"/>
			</g>
			<g>
				<polygon points="66.008,76.142 66.099,77.391 61.54,81.331 61.448,80.083 				"/>
			</g>
			<g>
				<polygon points="61.448,80.083 61.54,81.331 57.355,80.712 57.265,79.463 				"/>
			</g>
			<g>
				<polygon points="65.551,75.332 66.008,76.142 61.448,80.083 60.992,79.273 				"/>
			</g>
		</g>
	</g>
</g>
<g>
	<g>
		<g enable-background="new    ">
			<g>
				<polygon fill="#577885" points="72.479,26.325 72.064,26.088 74.4,26.435 73.038,26.408 				"/>
			</g>
			<g>
				<polygon fill="#658C9A" points="63.063,28.34 61.742,28.887 62.934,27.857 63.349,28.094 				"/>
			</g>
			<g>
				<polygon fill="#344850" points="74.4,26.435 74.491,27.683 71.409,30.348 71.318,29.1 				"/>
			</g>
			<g>
				<polygon fill="#658C9A" points="69.396,28.99 68.981,28.753 72.064,26.088 72.479,26.325 				"/>
			</g>
			<g>
				<polygon fill="#577885" points="63.349,28.094 62.934,27.857 68.981,28.753 69.396,28.99 				"/>
			</g>
			<g>
				<polygon fill="#5A7C89" points="73.038,26.408 74.4,26.435 71.318,29.1 69.955,29.073 				"/>
			</g>
			<g>
				<polygon fill="#3D545D" points="67.791,29.783 67.882,31.031 61.833,30.135 61.742,28.887 				"/>
			</g>
			<g>
				<polygon fill="#638A98" points="69.112,29.236 67.791,29.783 61.742,28.887 63.063,28.34 				"/>
			</g>
			<g>
				<polygon fill="#577885" points="69.955,29.073 71.318,29.1 77.367,29.996 76.005,29.969 				"/>
			</g>
			<g>
				<polygon fill="#3D545D" points="76.177,31.025 76.268,32.273 70.218,31.377 70.127,30.129 				"/>
			</g>
			<g>
				<polygon fill="#344850" points="77.367,29.996 77.458,31.244 76.268,32.273 76.177,31.025 				"/>
			</g>
			<g>
				<polygon fill="#638A98" points="75.72,30.215 76.177,31.025 70.127,30.129 69.671,29.319 				"/>
			</g>
			<g>
				<polygon fill="#5A7C89" points="76.005,29.969 77.367,29.996 76.177,31.025 75.72,30.215 				"/>
			</g>
			<g>
				<polygon fill="#658C9A" points="66.029,31.901 64.708,32.448 67.791,29.783 69.112,29.236 				"/>
			</g>
			<g>
				<polygon fill="#638998" points="73.038,26.408 69.955,29.073 76.005,29.969 75.72,30.215 69.671,29.319 66.588,31.984 
					66.029,31.901 69.112,29.236 63.063,28.34 63.349,28.094 69.396,28.99 72.479,26.325 				"/>
			</g>
			<g>
				<polygon fill="#5A7C89" points="69.671,29.319 70.127,30.129 67.044,32.794 66.588,31.984 				"/>
			</g>
			<g>
				<polygon fill="#638A98" points="66.588,31.984 67.044,32.794 64.708,32.448 66.029,31.901 				"/>
			</g>
			<g>
				<polygon fill="#344850" points="70.127,30.129 70.218,31.377 67.135,34.042 67.044,32.794 				"/>
			</g>
			<g>
				<polygon fill="#3D545D" points="67.044,32.794 67.135,34.042 64.799,33.696 64.708,32.448 				"/>
			</g>
		</g>
		<g enable-background="new    ">
			<g>
				<polygon fill="#C57C1C" points="44.764,26.547 44.349,26.31 48.045,26.857 46.682,26.831 				"/>
			</g>
			<g>
				<polygon fill="#E59020" points="29.375,30.184 28.054,30.73 29.938,29.102 30.353,29.339 				"/>
			</g>
			<g>
				<polygon fill="#C57C1C" points="30.353,29.339 29.938,29.102 39.483,30.516 39.898,30.753 				"/>
			</g>
			<g>
				<polygon fill="#E59020" points="39.898,30.753 39.483,30.516 44.349,26.31 44.764,26.547 				"/>
			</g>
			<g>
				<polygon fill="#764A11" points="48.045,26.857 48.136,28.106 43.271,32.312 43.18,31.063 				"/>
			</g>
			<g>
				<polygon fill="#CC801D" points="46.682,26.831 48.045,26.857 43.18,31.063 41.816,31.037 				"/>
			</g>
			<g>
				<polygon fill="#E28D20" points="38.921,31.598 37.6,32.144 28.054,30.73 29.375,30.184 				"/>
			</g>
			<g>
				<polygon fill="#8A5613" points="37.6,32.144 37.69,33.393 28.145,31.979 28.054,30.73 				"/>
			</g>
			<g>
				<polygon fill="#C57C1C" points="41.816,31.037 43.18,31.063 52.733,32.479 51.37,32.452 				"/>
			</g>
			<g>
				<polygon fill="#577885" points="21.656,34.872 21.241,34.635 23.585,34.982 22.222,34.956 				"/>
			</g>
			<g>
				<polygon fill="#8A5613" points="50.849,34.107 50.94,35.355 41.387,33.94 41.296,32.692 				"/>
			</g>
			<g>
				<polygon fill="#764A11" points="52.733,32.479 52.824,33.727 50.94,35.355 50.849,34.107 				"/>
			</g>
			<g>
				<polygon fill="#E28D20" points="50.392,33.297 50.849,34.107 41.296,32.692 40.839,31.882 				"/>
			</g>
			<g>
				<polygon fill="#CC801D" points="51.37,32.452 52.733,32.479 50.849,34.107 50.392,33.297 				"/>
			</g>
			<g>
				<polygon fill="#658C9A" points="12.24,36.887 10.919,37.434 12.109,36.404 12.524,36.641 				"/>
			</g>
			<g>
				<polygon fill="#E59020" points="34.052,35.807 32.73,36.354 37.6,32.144 38.921,31.598 				"/>
			</g>
			<g>
				<polygon fill="#456B82" points="89.374,31.586 88.959,31.35 93.144,31.97 91.781,31.943 				"/>
			</g>
			<g>
				<polygon fill="#E18D1F" points="46.682,26.831 41.816,31.037 51.37,32.452 50.392,33.297 40.839,31.882 35.97,36.091 
					34.052,35.807 38.921,31.598 29.375,30.184 30.353,29.339 39.898,30.753 44.764,26.547 				"/>
			</g>
			<g>
				<polygon fill="#344850" points="23.585,34.982 23.676,36.231 20.593,38.896 20.502,37.647 				"/>
			</g>
			<g>
				<polygon fill="#658C9A" points="18.573,37.537 18.158,37.3 21.241,34.635 21.656,34.872 				"/>
			</g>
			<g>
				<polygon fill="#577885" points="12.524,36.641 12.109,36.404 18.158,37.3 18.573,37.537 				"/>
			</g>
			<g>
				<polygon fill="#5A7C89" points="22.222,34.956 23.585,34.982 20.502,37.647 19.14,37.621 				"/>
			</g>
			<g>
				<polygon fill="#764A11" points="41.296,32.692 41.387,33.94 36.518,38.149 36.427,36.901 				"/>
			</g>
			<g>
				<polygon fill="#CC801D" points="40.839,31.882 41.296,32.692 36.427,36.901 35.97,36.091 				"/>
			</g>
			<g>
				<polygon fill="#E28D20" points="35.97,36.091 36.427,36.901 32.73,36.354 34.052,35.807 				"/>
			</g>
			<g>
				<polygon fill="#8A5613" points="36.427,36.901 36.518,38.149 32.821,37.602 32.73,36.354 				"/>
			</g>
			<g>
				<polygon fill="#3D545D" points="16.967,38.33 17.058,39.578 11.01,38.682 10.919,37.434 				"/>
			</g>
			<g>
				<polygon fill="#638A98" points="18.289,37.783 16.967,38.33 10.919,37.434 12.24,36.887 				"/>
			</g>
			<g>
				<polygon fill="#577885" points="19.14,37.621 20.502,37.647 26.543,38.542 25.18,38.516 				"/>
			</g>
			<g>
				<polygon fill="#638A98" points="24.896,38.762 25.353,39.572 19.312,38.677 18.855,37.867 				"/>
			</g>
			<g>
				<polygon fill="#344850" points="26.543,38.542 26.634,39.791 25.443,40.82 25.353,39.572 				"/>
			</g>
			<g>
				<polygon fill="#3D545D" points="25.353,39.572 25.443,40.82 19.403,39.925 19.312,38.677 				"/>
			</g>
			<g>
				<polygon fill="#5A7C89" points="25.18,38.516 26.543,38.542 25.353,39.572 24.896,38.762 				"/>
			</g>
			<g>
				<polygon fill="#517C96" points="71.806,35.813 70.484,36.359 72.616,34.516 73.032,34.753 				"/>
			</g>
			<g>
				<polygon fill="#C26421" points="57.858,36.721 57.443,36.484 61.996,37.158 60.633,37.132 				"/>
			</g>
			<g>
				<polygon fill="#658C9A" points="15.206,40.448 13.884,40.995 16.967,38.33 18.289,37.783 				"/>
			</g>
			<g>
				<polygon fill="#638998" points="22.222,34.956 19.14,37.621 25.18,38.516 24.896,38.762 18.855,37.867 15.772,40.532 
					15.206,40.448 18.289,37.783 12.24,36.887 12.524,36.641 18.573,37.537 21.656,34.872 				"/>
			</g>
			<g>
				<polygon fill="#5A7C89" points="18.855,37.867 19.312,38.677 16.229,41.342 15.772,40.532 				"/>
			</g>
			<g>
				<polygon fill="#344850" points="19.312,38.677 19.403,39.925 16.32,42.59 16.229,41.342 				"/>
			</g>
			<g>
				<polygon fill="#638A98" points="15.772,40.532 16.229,41.342 13.884,40.995 15.206,40.448 				"/>
			</g>
			<g>
				<polygon fill="#3D545D" points="16.229,41.342 16.32,42.59 13.975,42.243 13.884,40.995 				"/>
			</g>
			<g>
				<polygon fill="#517C96" points="83.856,36.356 83.442,36.119 88.959,31.35 89.374,31.586 				"/>
			</g>
			<g>
				<polygon fill="#456B82" points="73.032,34.753 72.616,34.516 83.442,36.119 83.856,36.356 				"/>
			</g>
			<g>
				<polygon fill="#2A404E" points="93.144,31.97 93.234,33.218 87.718,37.988 87.626,36.739 				"/>
			</g>
			<g>
				<polygon fill="#486F86" points="91.781,31.943 93.144,31.97 87.626,36.739 86.264,36.713 				"/>
			</g>
			<g>
				<polygon fill="#304B5B" points="81.31,37.963 81.4,39.212 70.575,37.608 70.484,36.359 				"/>
			</g>
			<g>
				<polygon fill="#4F7A94" points="82.63,37.417 81.31,37.963 70.484,36.359 71.806,35.813 				"/>
			</g>
			<g>
				<polygon fill="#E17427" points="38.66,41.392 37.339,41.938 39.664,39.929 40.079,40.166 				"/>
			</g>
			<g>
				<polygon fill="#456B82" points="86.264,36.713 87.626,36.739 98.451,38.343 97.089,38.316 				"/>
			</g>
			<g>
				<polygon fill="#A92D31" points="26.309,43.027 25.894,42.79 30.078,43.41 28.715,43.384 				"/>
			</g>
			<g>
				<polygon fill="#E17427" points="51.856,41.91 51.441,41.673 57.443,36.484 57.858,36.721 				"/>
			</g>
			<g>
				<polygon fill="#C26421" points="40.079,40.166 39.664,39.929 51.441,41.673 51.856,41.91 				"/>
			</g>
			<g>
				<polygon fill="#743C14" points="61.996,37.158 62.087,38.407 56.084,43.596 55.993,42.348 				"/>
			</g>
			<g>
				<polygon fill="#C86823" points="60.633,37.132 61.996,37.158 55.993,42.348 54.63,42.321 				"/>
			</g>
			<g>
				<polygon fill="#486F86" points="97.089,38.316 98.451,38.343 96.318,40.187 95.862,39.377 				"/>
			</g>
			<g>
				<polygon fill="#304B5B" points="96.318,40.187 96.409,41.435 85.585,39.832 85.493,38.583 				"/>
			</g>
			<g>
				<polygon fill="#2A404E" points="98.451,38.343 98.542,39.591 96.409,41.435 96.318,40.187 				"/>
			</g>
			<g>
				<polygon fill="#4F7A94" points="95.862,39.377 96.318,40.187 85.493,38.583 85.037,37.773 				"/>
			</g>
			<g>
				<polygon fill="#DE7326" points="50.438,43.136 49.117,43.683 37.339,41.938 38.66,41.392 				"/>
			</g>
			<g>
				<polygon fill="#874617" points="49.117,43.683 49.208,44.931 37.43,43.187 37.339,41.938 				"/>
			</g>
			<g>
				<polygon fill="#517C96" points="77.113,42.187 75.792,42.733 81.31,37.963 82.63,37.417 				"/>
			</g>
			<g>
				<polygon fill="#C43438" points="8.739,47.254 7.418,47.8 9.555,45.953 9.97,46.189 				"/>
			</g>
			<g>
				<polygon fill="#4F7A94" points="91.781,31.943 86.264,36.713 97.089,38.316 95.862,39.377 85.037,37.773 79.52,42.543 
					77.113,42.187 82.63,37.417 71.806,35.813 73.032,34.753 83.856,36.356 89.374,31.586 				"/>
			</g>
			<g>
				<polygon fill="#2A404E" points="85.493,38.583 85.585,39.832 80.067,44.601 79.977,43.353 				"/>
			</g>
			<g>
				<polygon fill="#4F7A94" points="79.52,42.543 79.977,43.353 75.792,42.733 77.113,42.187 				"/>
			</g>
			<g>
				<polygon fill="#304B5B" points="79.977,43.353 80.067,44.601 75.883,43.981 75.792,42.733 				"/>
			</g>
			<g>
				<polygon fill="#486F86" points="85.037,37.773 85.493,38.583 79.977,43.353 79.52,42.543 				"/>
			</g>
			<g>
				<polygon fill="#C26421" points="54.63,42.321 55.993,42.348 67.771,44.092 66.407,44.066 				"/>
			</g>
			<g>
				<polygon fill="#A92D31" points="9.97,46.189 9.555,45.953 20.381,47.556 20.796,47.793 				"/>
			</g>
			<g>
				<polygon fill="#C43438" points="20.796,47.793 20.381,47.556 25.894,42.79 26.309,43.027 				"/>
			</g>
			<g>
				<polygon fill="#651B1D" points="30.078,43.41 30.169,44.659 24.656,49.425 24.565,48.176 				"/>
			</g>
			<g>
				<polygon fill="#AF2F32" points="28.715,43.384 30.078,43.41 24.565,48.176 23.202,48.15 				"/>
			</g>
			<g>
				<polygon fill="#C13437" points="19.565,48.857 18.244,49.404 7.418,47.8 8.739,47.254 				"/>
			</g>
			<g>
				<polygon fill="#762022" points="18.244,49.404 18.334,50.652 7.509,49.049 7.418,47.8 				"/>
			</g>
			<g>
				<polygon fill="#874617" points="65.446,46.102 65.537,47.351 53.76,45.605 53.669,44.357 				"/>
			</g>
			<g>
				<polygon fill="#DE7326" points="64.989,45.292 65.446,46.102 53.669,44.357 53.212,43.547 				"/>
			</g>
			<g>
				<polygon fill="#743C14" points="67.771,44.092 67.861,45.341 65.537,47.351 65.446,46.102 				"/>
			</g>
			<g>
				<polygon fill="#C86823" points="66.407,44.066 67.771,44.092 65.446,46.102 64.989,45.292 				"/>
			</g>
			<g>
				<polygon fill="#50658B" points="89.145,44.87 88.729,44.633 91.322,45.017 89.959,44.991 				"/>
			</g>
			<g>
				<polygon fill="#E17427" points="44.439,48.322 43.118,48.869 49.117,43.683 50.438,43.136 				"/>
			</g>
			<g>
				<polygon fill="#DD7226" points="60.633,37.132 54.63,42.321 66.407,44.066 64.989,45.292 53.212,43.547 47.213,48.733 
					44.439,48.322 50.438,43.136 38.66,41.392 40.079,40.166 51.856,41.91 57.858,36.721 				"/>
			</g>
			<g>
				<polygon fill="#A92D31" points="23.202,48.15 24.565,48.176 35.383,49.779 34.02,49.752 				"/>
			</g>
			<g>
				<polygon fill="#DE7326" points="47.213,48.733 47.67,49.543 43.118,48.869 44.439,48.322 				"/>
			</g>
			<g>
				<polygon fill="#874617" points="47.67,49.543 47.761,50.792 43.209,50.117 43.118,48.869 				"/>
			</g>
			<g>
				<polygon fill="#743C14" points="53.669,44.357 53.76,45.605 47.761,50.792 47.67,49.543 				"/>
			</g>
			<g>
				<polygon fill="#C86823" points="53.212,43.547 53.669,44.357 47.67,49.543 47.213,48.733 				"/>
			</g>
			<g>
				<polygon fill="#5D75A1" points="78.644,47.183 77.322,47.729 78.644,46.587 79.059,46.824 				"/>
			</g>
			<g>
				<polygon fill="#651B1D" points="35.383,49.779 35.474,51.027 33.336,52.875 33.246,51.626 				"/>
			</g>
			<g>
				<polygon fill="#AF2F32" points="34.02,49.752 35.383,49.779 33.246,51.626 32.789,50.816 				"/>
			</g>
			<g>
				<polygon fill="#C13437" points="32.789,50.816 33.246,51.626 22.428,50.024 21.971,49.214 				"/>
			</g>
			<g>
				<polygon fill="#762022" points="33.246,51.626 33.336,52.875 22.519,51.272 22.428,50.024 				"/>
			</g>
			<g>
				<polygon fill="#303D53" points="91.322,45.017 91.413,46.266 88.008,49.209 87.917,47.96 				"/>
			</g>
			<g>
				<polygon fill="#50658B" points="79.059,46.824 78.644,46.587 85.325,47.577 85.74,47.813 				"/>
			</g>
			<g>
				<polygon fill="#5D75A1" points="85.74,47.813 85.325,47.577 88.729,44.633 89.145,44.87 				"/>
			</g>
			<g>
				<polygon fill="#53698F" points="89.959,44.991 91.322,45.017 87.917,47.96 86.555,47.934 				"/>
			</g>
			<g>
				<polygon fill="#384761" points="84.004,48.719 84.095,49.967 77.413,48.978 77.322,47.729 				"/>
			</g>
			<g>
				<polygon fill="#5C749F" points="85.325,48.172 84.004,48.719 77.322,47.729 78.644,47.183 				"/>
			</g>
			<g>
				<polygon fill="#C43438" points="14.052,53.624 12.73,54.17 18.244,49.404 19.565,48.857 				"/>
			</g>
			<g>
				<polygon fill="#12345F" points="68.851,49.33 68.436,49.093 72.62,49.712 71.257,49.686 				"/>
			</g>
			<g>
				<polygon fill="#C13337" points="28.715,43.384 23.202,48.15 34.02,49.752 32.789,50.816 21.971,49.214 16.458,53.98 
					14.052,53.624 19.565,48.857 8.739,47.254 9.97,46.189 20.796,47.793 26.309,43.027 				"/>
			</g>
			<g>
				<polygon fill="#C13437" points="16.458,53.98 16.915,54.79 12.73,54.17 14.052,53.624 				"/>
			</g>
			<g>
				<polygon fill="#AF2F32" points="21.971,49.214 22.428,50.024 16.915,54.79 16.458,53.98 				"/>
			</g>
			<g>
				<polygon fill="#651B1D" points="22.428,50.024 22.519,51.272 17.006,56.039 16.915,54.79 				"/>
			</g>
			<g>
				<polygon fill="#762022" points="16.915,54.79 17.006,56.039 12.821,55.418 12.73,54.17 				"/>
			</g>
			<g>
				<polygon fill="#50658B" points="86.555,47.934 87.917,47.96 94.598,48.95 93.234,48.924 				"/>
			</g>
			<g>
				<polygon fill="#384761" points="93.276,50.093 93.367,51.341 86.687,50.352 86.596,49.103 				"/>
			</g>
			<g>
				<polygon fill="#5C749F" points="92.819,49.283 93.276,50.093 86.596,49.103 86.14,48.293 				"/>
			</g>
			<g>
				<polygon fill="#53698F" points="93.234,48.924 94.598,48.95 93.276,50.093 92.819,49.283 				"/>
			</g>
			<g>
				<polygon fill="#303D53" points="94.598,48.95 94.688,50.199 93.367,51.341 93.276,50.093 				"/>
			</g>
			<g>
				<polygon fill="#50658B" points="40.602,53.754 40.187,53.518 42.778,53.901 41.416,53.875 				"/>
			</g>
			<g>
				<polygon fill="#5D75A1" points="81.92,51.116 80.599,51.663 84.004,48.719 85.325,48.172 				"/>
			</g>
			<g>
				<polygon fill="#5C739E" points="89.959,44.991 86.555,47.934 93.234,48.924 92.819,49.283 86.14,48.293 82.734,51.237 
					81.92,51.116 85.325,48.172 78.644,47.183 79.059,46.824 85.74,47.813 89.145,44.87 				"/>
			</g>
			<g>
				<polygon fill="#153C6E" points="51.281,53.556 49.96,54.103 52.097,52.255 52.512,52.492 				"/>
			</g>
			<g>
				<polygon fill="#384761" points="83.19,52.046 83.282,53.295 80.689,52.911 80.599,51.663 				"/>
			</g>
			<g>
				<polygon fill="#53698F" points="86.14,48.293 86.596,49.103 83.19,52.046 82.734,51.237 				"/>
			</g>
			<g>
				<polygon fill="#5C749F" points="82.734,51.237 83.19,52.046 80.599,51.663 81.92,51.116 				"/>
			</g>
			<g>
				<polygon fill="#303D53" points="86.596,49.103 86.687,50.352 83.282,53.295 83.19,52.046 				"/>
			</g>
			<g>
				<polygon fill="#5D75A1" points="30.101,56.067 28.779,56.613 30.101,55.471 30.516,55.708 				"/>
			</g>
			<g>
				<polygon fill="#153C6E" points="63.337,54.096 62.922,53.858 68.436,49.093 68.851,49.33 				"/>
			</g>
			<g>
				<polygon fill="#12345F" points="52.512,52.492 52.097,52.255 62.922,53.858 63.337,54.096 				"/>
			</g>
			<g>
				<polygon fill="#0B1F39" points="72.62,49.712 72.711,50.961 67.197,55.727 67.106,54.479 				"/>
			</g>
			<g>
				<polygon fill="#133662" points="71.257,49.686 72.62,49.712 67.106,54.479 65.743,54.452 				"/>
			</g>
			<g>
				<polygon fill="#303D53" points="42.778,53.901 42.87,55.15 39.465,58.094 39.374,56.845 				"/>
			</g>
			<g>
				<polygon fill="#5D75A1" points="37.196,56.698 36.781,56.461 40.187,53.518 40.602,53.754 				"/>
			</g>
			<g>
				<polygon fill="#50658B" points="30.516,55.708 30.101,55.471 36.781,56.461 37.196,56.698 				"/>
			</g>
			<g>
				<polygon fill="#53698F" points="41.416,53.875 42.778,53.901 39.374,56.845 38.011,56.819 				"/>
			</g>
			<g>
				<polygon fill="#0D2442" points="60.785,55.706 60.876,56.955 50.051,55.351 49.96,54.103 				"/>
			</g>
			<g>
				<polygon fill="#153B6C" points="62.106,55.16 60.785,55.706 49.96,54.103 51.281,53.556 				"/>
			</g>
			<g>
				<polygon fill="#384761" points="35.46,57.603 35.551,58.852 28.87,57.862 28.779,56.613 				"/>
			</g>
			<g>
				<polygon fill="#5C749F" points="36.781,57.057 35.46,57.603 28.779,56.613 30.101,56.067 				"/>
			</g>
			<g>
				<polygon fill="#50658B" points="38.011,56.819 39.374,56.845 46.054,57.835 44.691,57.809 				"/>
			</g>
			<g>
				<polygon fill="#12345F" points="65.743,54.452 67.106,54.479 77.932,56.082 76.569,56.056 				"/>
			</g>
			<g>
				<polygon fill="#303D53" points="46.054,57.835 46.145,59.083 44.824,60.226 44.733,58.977 				"/>
			</g>
			<g>
				<polygon fill="#384761" points="44.733,58.977 44.824,60.226 38.144,59.236 38.052,57.987 				"/>
			</g>
			<g>
				<polygon fill="#53698F" points="44.691,57.809 46.054,57.835 44.733,58.977 44.276,58.167 				"/>
			</g>
			<g>
				<polygon fill="#5C749F" points="44.276,58.167 44.733,58.977 38.052,57.987 37.596,57.178 				"/>
			</g>
			<g>
				<polygon fill="#5D75A1" points="33.376,60 32.055,60.547 35.46,57.603 36.781,57.057 				"/>
			</g>
			<g>
				<polygon fill="#5C739E" points="41.416,53.875 38.011,56.819 44.691,57.809 44.276,58.167 37.596,57.178 34.191,60.121 
					33.376,60 36.781,57.057 30.101,56.067 30.516,55.708 37.196,56.698 40.602,53.754 				"/>
			</g>
			<g>
				<polygon fill="#133662" points="76.569,56.056 77.932,56.082 75.795,57.93 75.338,57.12 				"/>
			</g>
			<g>
				<polygon fill="#0B1F39" points="77.932,56.082 78.022,57.331 75.886,59.178 75.795,57.93 				"/>
			</g>
			<g>
				<polygon fill="#0D2442" points="75.795,57.93 75.886,59.178 65.061,57.575 64.97,56.326 				"/>
			</g>
			<g>
				<polygon fill="#153B6C" points="75.338,57.12 75.795,57.93 64.97,56.326 64.513,55.516 				"/>
			</g>
			<g>
				<polygon fill="#5C749F" points="34.191,60.121 34.647,60.931 32.055,60.547 33.376,60 				"/>
			</g>
			<g>
				<polygon fill="#303D53" points="38.052,57.987 38.144,59.236 34.738,62.18 34.647,60.931 				"/>
			</g>
			<g>
				<polygon fill="#384761" points="34.647,60.931 34.738,62.18 32.146,61.795 32.055,60.547 				"/>
			</g>
			<g>
				<polygon fill="#53698F" points="37.596,57.178 38.052,57.987 34.647,60.931 34.191,60.121 				"/>
			</g>
			<g>
				<polygon fill="#153C6E" points="56.593,59.926 55.271,60.473 60.785,55.706 62.106,55.16 				"/>
			</g>
			<g>
				<polygon fill="#153B6C" points="71.257,49.686 65.743,54.452 76.569,56.056 75.338,57.12 64.513,55.516 58.999,60.282 
					56.593,59.926 62.106,55.16 51.281,53.556 52.512,52.492 63.337,54.096 68.851,49.33 				"/>
			</g>
			<g>
				<polygon fill="#133662" points="64.513,55.516 64.97,56.326 59.456,61.092 58.999,60.282 				"/>
			</g>
			<g>
				<polygon fill="#153B6C" points="58.999,60.282 59.456,61.092 55.271,60.473 56.593,59.926 				"/>
			</g>
			<g>
				<polygon fill="#0D2442" points="59.456,61.092 59.547,62.341 55.362,61.721 55.271,60.473 				"/>
			</g>
			<g>
				<polygon fill="#0B1F39" points="64.97,56.326 65.061,57.575 59.547,62.341 59.456,61.092 				"/>
			</g>
		</g>
	</g>
</g>
</svg>
