<?xml version="1.0" encoding="utf-8"?>
<!-- Generator: Adobe Illustrator 16.0.4, SVG Export Plug-In . SVG Version: 6.00 Build 0)  -->
<!DOCTYPE svg PUBLIC "-//W3C//DTD SVG 1.1//EN" "http://www.w3.org/Graphics/SVG/1.1/DTD/svg11.dtd">
<svg version="1.1" id="Layer_1" xmlns="http://www.w3.org/2000/svg" xmlns:xlink="http://www.w3.org/1999/xlink" x="0px" y="0px"
	 width="102.977px" height="102.977px" viewBox="0 0 102.977 102.977" enable-background="new 0 0 102.977 102.977"
	 xml:space="preserve">
<g>
	<linearGradient id="SVGID_1_" gradientUnits="userSpaceOnUse" x1="0" y1="51.4883" x2="102.9766" y2="51.4883">
		<stop  offset="0" style="stop-color:#292526"/>
		<stop  offset="1" style="stop-color:#000000"/>
	</linearGradient>
	<rect fill="url(#SVGID_1_)" width="102.977" height="102.977"/>
	<g>
		<path fill="#FAFAFA" d="M93.988,90.488c0,0.553-0.447,1-1,1h-83c-0.553,0-1-0.447-1-1v-69c0-0.553,0.447-1,1-1h83
			c0.553,0,1,0.447,1,1V90.488z"/>
		<path fill="#EF453E" d="M93.988,32.488c0,0.553-0.447,1-1,1h-83c-0.553,0-1-0.447-1-1v-19c0-0.553,0.447-1,1-1h83
			c0.553,0,1,0.447,1,1V32.488z"/>
	</g>
	<circle fill="#4A4A4A" cx="23.822" cy="22.821" r="3.333"/>
	<circle fill="#4A4A4A" cx="79.822" cy="22.821" r="3.333"/>
	<path fill="#FAFAFA" d="M80.822,22.488c0,1.288-1.045,2.333-2.333,2.333H25.155c-1.288,0-2.333-1.045-2.333-2.333l0,0
		c0-1.289,1.045-2.334,2.333-2.334h53.334C79.777,20.154,80.822,21.199,80.822,22.488L80.822,22.488z"/>
	<rect x="13.155" y="39.486" fill="#4A4A4A" width="15.999" height="13.333"/>
	<rect x="33.155" y="39.486" fill="#4A4A4A" width="15.999" height="13.333"/>
	<rect x="53.155" y="39.486" fill="#4A4A4A" width="15.999" height="13.333"/>
	<rect x="73.155" y="39.486" fill="#DFE0E1" width="15.999" height="13.333"/>
	<rect x="13.155" y="56.486" fill="#DFE0E1" width="15.999" height="13.333"/>
	<rect x="33.155" y="56.486" fill="#4A4A4A" width="15.999" height="13.333"/>
	<rect x="53.155" y="56.486" fill="#EF453E" width="15.999" height="13.333"/>
	<rect x="73.155" y="56.486" fill="#4A4A4A" width="15.999" height="13.333"/>
	<rect x="13.155" y="73.486" fill="#4A4A4A" width="15.999" height="13.333"/>
	<rect x="33.155" y="73.486" fill="#4A4A4A" width="15.999" height="13.333"/>
	<rect x="53.155" y="73.486" fill="#4A4A4A" width="15.999" height="13.333"/>
	<rect x="73.155" y="73.486" fill="#DFE0E1" width="15.999" height="13.333"/>
</g>
<radialGradient id="SVGID_2_" cx="51.4888" cy="51.4883" r="51.4885" gradientUnits="userSpaceOnUse">
	<stop  offset="0" style="stop-color:#BEBFBF"/>
	<stop  offset="1" style="stop-color:#B7B8B8"/>
</radialGradient>
<rect fill="url(#SVGID_2_)" width="102.978" height="102.977"/>
<g opacity="0.1">
	<g>
		<g enable-background="new    ">
			<g>
				<polygon points="71.612,54.42 71.197,54.184 73.541,54.53 72.178,54.504 				"/>
			</g>
			<g>
				<polygon points="62.196,56.436 60.875,56.981 62.069,55.949 62.484,56.186 				"/>
			</g>
			<g>
				<polygon points="73.541,54.53 73.632,55.779 70.553,58.44 70.462,57.191 				"/>
			</g>
			<g>
				<polygon points="68.533,57.082 68.118,56.845 71.197,54.184 71.612,54.42 				"/>
			</g>
			<g>
				<polygon points="62.484,56.186 62.069,55.949 68.118,56.845 68.533,57.082 				"/>
			</g>
			<g>
				<polygon points="72.178,54.504 73.541,54.53 70.462,57.191 69.1,57.166 				"/>
			</g>
			<g>
				<polygon points="66.923,57.878 67.015,59.126 60.966,58.23 60.875,56.981 				"/>
			</g>
			<g>
				<polygon points="68.244,57.332 66.923,57.878 60.875,56.981 62.196,56.436 				"/>
			</g>
			<g>
				<polygon points="69.1,57.166 70.462,57.191 76.504,58.087 75.141,58.061 				"/>
			</g>
			<g>
				<polygon points="75.309,59.12 75.399,60.368 69.358,59.474 69.268,58.225 				"/>
			</g>
			<g>
				<polygon points="76.504,58.087 76.595,59.336 75.399,60.368 75.309,59.12 				"/>
			</g>
			<g>
				<polygon points="74.853,58.311 75.309,59.12 69.268,58.225 68.811,57.415 				"/>
			</g>
			<g>
				<polygon points="75.141,58.061 76.504,58.087 75.309,59.12 74.853,58.311 				"/>
			</g>
			<g>
				<polygon points="65.162,59.996 63.841,60.543 66.923,57.878 68.244,57.332 				"/>
			</g>
			<g>
				<polygon points="72.178,54.504 69.1,57.166 75.141,58.061 74.853,58.311 68.811,57.415 65.728,60.08 65.162,59.996 
					68.244,57.332 62.196,56.436 62.484,56.186 68.533,57.082 71.612,54.42 				"/>
			</g>
			<g>
				<polygon points="68.811,57.415 69.268,58.225 66.185,60.89 65.728,60.08 				"/>
			</g>
			<g>
				<polygon points="65.728,60.08 66.185,60.89 63.841,60.543 65.162,59.996 				"/>
			</g>
			<g>
				<polygon points="69.268,58.225 69.358,59.474 66.275,62.139 66.185,60.89 				"/>
			</g>
			<g>
				<polygon points="66.185,60.89 66.275,62.139 63.932,61.791 63.841,60.543 				"/>
			</g>
		</g>
		<g enable-background="new    ">
			<g>
				<polygon points="43.903,54.643 43.488,54.406 47.185,54.953 45.822,54.928 				"/>
			</g>
			<g>
				<polygon points="28.508,58.278 27.187,58.825 29.07,57.196 29.485,57.434 				"/>
			</g>
			<g>
				<polygon points="29.485,57.434 29.07,57.196 38.624,58.611 39.039,58.849 				"/>
			</g>
			<g>
				<polygon points="39.039,58.849 38.624,58.611 43.488,54.406 43.903,54.643 				"/>
			</g>
			<g>
				<polygon points="47.185,54.953 47.275,56.202 42.411,60.407 42.32,59.159 				"/>
			</g>
			<g>
				<polygon points="45.822,54.928 47.185,54.953 42.32,59.159 40.957,59.133 				"/>
			</g>
			<g>
				<polygon points="38.061,59.694 36.74,60.24 27.187,58.825 28.508,58.278 				"/>
			</g>
			<g>
				<polygon points="36.74,60.24 36.831,61.489 27.277,60.073 27.187,58.825 				"/>
			</g>
			<g>
				<polygon points="40.957,59.133 42.32,59.159 51.865,60.573 50.502,60.547 				"/>
			</g>
			<g>
				<polygon points="20.789,62.967 20.374,62.729 22.718,63.077 21.355,63.051 				"/>
			</g>
			<g>
				<polygon points="49.981,62.202 50.072,63.45 40.527,62.036 40.436,60.788 				"/>
			</g>
			<g>
				<polygon points="51.865,60.573 51.956,61.822 50.072,63.45 49.981,62.202 				"/>
			</g>
			<g>
				<polygon points="49.524,61.393 49.981,62.202 40.436,60.788 39.979,59.979 				"/>
			</g>
			<g>
				<polygon points="50.502,60.547 51.865,60.573 49.981,62.202 49.524,61.393 				"/>
			</g>
			<g>
				<polygon points="11.38,64.983 10.059,65.529 11.254,64.496 11.669,64.733 				"/>
			</g>
			<g>
				<polygon points="33.196,63.899 31.875,64.446 36.74,60.24 38.061,59.694 				"/>
			</g>
			<g>
				<polygon points="88.507,59.682 88.092,59.444 92.284,60.065 90.921,60.039 				"/>
			</g>
			<g>
				<polygon points="45.822,54.928 40.957,59.133 50.502,60.547 49.524,61.393 39.979,59.979 35.114,64.184 33.196,63.899 
					38.061,59.694 28.508,58.278 29.485,57.434 39.039,58.849 43.903,54.643 				"/>
			</g>
			<g>
				<polygon points="22.718,63.077 22.809,64.325 19.73,66.987 19.639,65.738 				"/>
			</g>
			<g>
				<polygon points="17.71,65.628 17.295,65.392 20.374,62.729 20.789,62.967 				"/>
			</g>
			<g>
				<polygon points="11.669,64.733 11.254,64.496 17.295,65.392 17.71,65.628 				"/>
			</g>
			<g>
				<polygon points="21.355,63.051 22.718,63.077 19.639,65.738 18.276,65.712 				"/>
			</g>
			<g>
				<polygon points="40.436,60.788 40.527,62.036 35.662,66.242 35.571,64.993 				"/>
			</g>
			<g>
				<polygon points="39.979,59.979 40.436,60.788 35.571,64.993 35.114,64.184 				"/>
			</g>
			<g>
				<polygon points="35.114,64.184 35.571,64.993 31.875,64.446 33.196,63.899 				"/>
			</g>
			<g>
				<polygon points="35.571,64.993 35.662,66.242 31.966,65.694 31.875,64.446 				"/>
			</g>
			<g>
				<polygon points="16.1,66.424 16.19,67.673 10.15,66.778 10.059,65.529 				"/>
			</g>
			<g>
				<polygon points="17.421,65.878 16.1,66.424 10.059,65.529 11.38,64.983 				"/>
			</g>
			<g>
				<polygon points="18.276,65.712 19.639,65.738 25.688,66.635 24.325,66.608 				"/>
			</g>
			<g>
				<polygon points="24.036,66.858 24.493,67.668 18.444,66.771 17.987,65.962 				"/>
			</g>
			<g>
				<polygon points="25.688,66.635 25.778,67.883 24.583,68.916 24.493,67.668 				"/>
			</g>
			<g>
				<polygon points="24.493,67.668 24.583,68.916 18.535,68.021 18.444,66.771 				"/>
			</g>
			<g>
				<polygon points="24.325,66.608 25.688,66.635 24.493,67.668 24.036,66.858 				"/>
			</g>
			<g>
				<polygon points="70.945,63.909 69.624,64.455 71.757,62.611 72.172,62.849 				"/>
			</g>
			<g>
				<polygon points="56.991,64.815 56.576,64.579 61.136,65.254 59.773,65.228 				"/>
			</g>
			<g>
				<polygon points="14.338,68.543 13.017,69.09 16.1,66.424 17.421,65.878 				"/>
			</g>
			<g>
				<polygon points="21.355,63.051 18.276,65.712 24.325,66.608 24.036,66.858 17.987,65.962 14.904,68.627 14.338,68.543 
					17.421,65.878 11.38,64.983 11.669,64.733 17.71,65.628 20.789,62.967 				"/>
			</g>
			<g>
				<polygon points="17.987,65.962 18.444,66.771 15.361,69.437 14.904,68.627 				"/>
			</g>
			<g>
				<polygon points="18.444,66.771 18.535,68.021 15.452,70.686 15.361,69.437 				"/>
			</g>
			<g>
				<polygon points="14.904,68.627 15.361,69.437 13.017,69.09 14.338,68.543 				"/>
			</g>
			<g>
				<polygon points="15.361,69.437 15.452,70.686 13.108,70.338 13.017,69.09 				"/>
			</g>
			<g>
				<polygon points="82.989,64.451 82.574,64.214 88.092,59.444 88.507,59.682 				"/>
			</g>
			<g>
				<polygon points="72.172,62.849 71.757,62.611 82.574,64.214 82.989,64.451 				"/>
			</g>
			<g>
				<polygon points="92.284,60.065 92.375,61.314 86.857,66.084 86.767,64.835 				"/>
			</g>
			<g>
				<polygon points="90.921,60.039 92.284,60.065 86.767,64.835 85.403,64.809 				"/>
			</g>
			<g>
				<polygon points="80.441,66.058 80.532,67.307 69.715,65.704 69.624,64.455 				"/>
			</g>
			<g>
				<polygon points="81.763,65.512 80.441,66.058 69.624,64.455 70.945,63.909 				"/>
			</g>
			<g>
				<polygon points="37.797,69.482 36.476,70.029 38.796,68.023 39.21,68.261 				"/>
			</g>
			<g>
				<polygon points="85.403,64.809 86.767,64.835 97.584,66.438 96.221,66.411 				"/>
			</g>
			<g>
				<polygon points="25.441,71.122 25.026,70.885 29.21,71.505 27.848,71.479 				"/>
			</g>
			<g>
				<polygon points="50.988,70.005 50.573,69.769 56.576,64.579 56.991,64.815 				"/>
			</g>
			<g>
				<polygon points="39.21,68.261 38.796,68.023 50.573,69.769 50.988,70.005 				"/>
			</g>
			<g>
				<polygon points="61.136,65.254 61.227,66.503 55.224,71.692 55.133,70.443 				"/>
			</g>
			<g>
				<polygon points="59.773,65.228 61.136,65.254 55.133,70.443 53.771,70.417 				"/>
			</g>
			<g>
				<polygon points="96.221,66.411 97.584,66.438 95.451,68.281 94.994,67.472 				"/>
			</g>
			<g>
				<polygon points="95.451,68.281 95.542,69.53 84.725,67.928 84.634,66.679 				"/>
			</g>
			<g>
				<polygon points="97.584,66.438 97.675,67.687 95.542,69.53 95.451,68.281 				"/>
			</g>
			<g>
				<polygon points="94.994,67.472 95.451,68.281 84.634,66.679 84.177,65.869 				"/>
			</g>
			<g>
				<polygon points="49.574,71.228 48.253,71.773 36.476,70.029 37.797,69.482 				"/>
			</g>
			<g>
				<polygon points="48.253,71.773 48.344,73.022 36.566,71.277 36.476,70.029 				"/>
			</g>
			<g>
				<polygon points="76.249,70.277 74.929,70.824 80.441,66.058 81.763,65.512 				"/>
			</g>
			<g>
				<polygon points="7.876,75.345 6.555,75.892 8.688,74.048 9.103,74.284 				"/>
			</g>
			<g>
				<polygon points="90.921,60.039 85.403,64.809 96.221,66.411 94.994,67.472 84.177,65.869 78.664,70.636 76.249,70.277 
					81.763,65.512 70.945,63.909 72.172,62.849 82.989,64.451 88.507,59.682 				"/>
			</g>
			<g>
				<polygon points="84.634,66.679 84.725,67.928 79.212,72.693 79.12,71.445 				"/>
			</g>
			<g>
				<polygon points="78.664,70.636 79.12,71.445 74.929,70.824 76.249,70.277 				"/>
			</g>
			<g>
				<polygon points="79.12,71.445 79.212,72.693 75.02,72.072 74.929,70.824 				"/>
			</g>
			<g>
				<polygon points="84.177,65.869 84.634,66.679 79.12,71.445 78.664,70.636 				"/>
			</g>
			<g>
				<polygon points="53.771,70.417 55.133,70.443 66.903,72.188 65.54,72.161 				"/>
			</g>
			<g>
				<polygon points="9.103,74.284 8.688,74.048 19.513,75.651 19.928,75.889 				"/>
			</g>
			<g>
				<polygon points="19.928,75.889 19.513,75.651 25.026,70.885 25.441,71.122 				"/>
			</g>
			<g>
				<polygon points="29.21,71.505 29.301,72.754 23.788,77.52 23.697,76.271 				"/>
			</g>
			<g>
				<polygon points="27.848,71.479 29.21,71.505 23.697,76.271 22.334,76.245 				"/>
			</g>
			<g>
				<polygon points="18.701,76.948 17.38,77.495 6.555,75.892 7.876,75.345 				"/>
			</g>
			<g>
				<polygon points="17.38,77.495 17.471,78.743 6.646,77.14 6.555,75.892 				"/>
			</g>
			<g>
				<polygon points="64.583,74.193 64.674,75.441 52.904,73.698 52.813,72.449 				"/>
			</g>
			<g>
				<polygon points="64.126,73.383 64.583,74.193 52.813,72.449 52.356,71.64 				"/>
			</g>
			<g>
				<polygon points="66.903,72.188 66.994,73.436 64.674,75.441 64.583,74.193 				"/>
			</g>
			<g>
				<polygon points="65.54,72.161 66.903,72.188 64.583,74.193 64.126,73.383 				"/>
			</g>
			<g>
				<polygon points="88.277,72.965 87.862,72.728 90.455,73.111 89.092,73.085 				"/>
			</g>
			<g>
				<polygon points="43.572,76.417 42.25,76.963 48.253,71.773 49.574,71.228 				"/>
			</g>
			<g>
				<polygon points="59.773,65.228 53.771,70.417 65.54,72.161 64.126,73.383 52.356,71.64 46.354,76.829 43.572,76.417 
					49.574,71.228 37.797,69.482 39.21,68.261 50.988,70.005 56.991,64.815 				"/>
			</g>
			<g>
				<polygon points="22.334,76.245 23.697,76.271 34.522,77.875 33.16,77.849 				"/>
			</g>
			<g>
				<polygon points="46.354,76.829 46.811,77.639 42.25,76.963 43.572,76.417 				"/>
			</g>
			<g>
				<polygon points="46.811,77.639 46.901,78.887 42.341,78.212 42.25,76.963 				"/>
			</g>
			<g>
				<polygon points="52.813,72.449 52.904,73.698 46.901,78.887 46.811,77.639 				"/>
			</g>
			<g>
				<polygon points="52.356,71.64 52.813,72.449 46.811,77.639 46.354,76.829 				"/>
			</g>
			<g>
				<polygon points="77.779,75.274 76.458,75.82 77.775,74.682 78.19,74.919 				"/>
			</g>
			<g>
				<polygon points="34.522,77.875 34.613,79.123 32.481,80.967 32.39,79.719 				"/>
			</g>
			<g>
				<polygon points="33.16,77.849 34.522,77.875 32.39,79.719 31.933,78.909 				"/>
			</g>
			<g>
				<polygon points="31.933,78.909 32.39,79.719 21.564,78.115 21.107,77.305 				"/>
			</g>
			<g>
				<polygon points="32.39,79.719 32.481,80.967 21.655,79.363 21.564,78.115 				"/>
			</g>
			<g>
				<polygon points="90.455,73.111 90.546,74.36 87.141,77.304 87.05,76.056 				"/>
			</g>
			<g>
				<polygon points="78.19,74.919 77.775,74.682 84.457,75.672 84.872,75.908 				"/>
			</g>
			<g>
				<polygon points="84.872,75.908 84.457,75.672 87.862,72.728 88.277,72.965 				"/>
			</g>
			<g>
				<polygon points="89.092,73.085 90.455,73.111 87.05,76.056 85.687,76.029 				"/>
			</g>
			<g>
				<polygon points="83.14,76.811 83.23,78.059 76.55,77.069 76.458,75.82 				"/>
			</g>
			<g>
				<polygon points="84.461,76.264 83.14,76.811 76.458,75.82 77.779,75.274 				"/>
			</g>
			<g>
				<polygon points="13.184,81.719 11.863,82.265 17.38,77.495 18.701,76.948 				"/>
			</g>
			<g>
				<polygon points="67.982,77.425 67.567,77.188 71.76,77.809 70.397,77.782 				"/>
			</g>
			<g>
				<polygon points="27.848,71.479 22.334,76.245 33.16,77.849 31.933,78.909 21.107,77.305 15.59,82.074 13.184,81.719 
					18.701,76.948 7.876,75.345 9.103,74.284 19.928,75.889 25.441,71.122 				"/>
			</g>
			<g>
				<polygon points="15.59,82.074 16.047,82.885 11.863,82.265 13.184,81.719 				"/>
			</g>
			<g>
				<polygon points="21.107,77.305 21.564,78.115 16.047,82.885 15.59,82.074 				"/>
			</g>
			<g>
				<polygon points="21.564,78.115 21.655,79.363 16.138,84.133 16.047,82.885 				"/>
			</g>
			<g>
				<polygon points="16.047,82.885 16.138,84.133 11.954,83.513 11.863,82.265 				"/>
			</g>
			<g>
				<polygon points="85.687,76.029 87.05,76.056 93.729,77.045 92.367,77.019 				"/>
			</g>
			<g>
				<polygon points="92.413,78.184 92.504,79.433 85.823,78.442 85.732,77.194 				"/>
			</g>
			<g>
				<polygon points="91.956,77.374 92.413,78.184 85.732,77.194 85.275,76.385 				"/>
			</g>
			<g>
				<polygon points="92.367,77.019 93.729,77.045 92.413,78.184 91.956,77.374 				"/>
			</g>
			<g>
				<polygon points="93.729,77.045 93.821,78.294 92.504,79.433 92.413,78.184 				"/>
			</g>
			<g>
				<polygon points="39.742,81.851 39.327,81.613 41.911,81.996 40.548,81.97 				"/>
			</g>
			<g>
				<polygon points="81.052,79.211 79.73,79.757 83.14,76.811 84.461,76.264 				"/>
			</g>
			<g>
				<polygon points="89.092,73.085 85.687,76.029 92.367,77.019 91.956,77.374 85.275,76.385 81.866,79.332 81.052,79.211 
					84.461,76.264 77.779,75.274 78.19,74.919 84.872,75.908 88.277,72.965 				"/>
			</g>
			<g>
				<polygon points="50.425,81.648 49.104,82.194 51.237,80.351 51.652,80.588 				"/>
			</g>
			<g>
				<polygon points="82.323,80.142 82.414,81.39 79.822,81.006 79.73,79.757 				"/>
			</g>
			<g>
				<polygon points="85.275,76.385 85.732,77.194 82.323,80.142 81.866,79.332 				"/>
			</g>
			<g>
				<polygon points="81.866,79.332 82.323,80.142 79.73,79.757 81.052,79.211 				"/>
			</g>
			<g>
				<polygon points="85.732,77.194 85.823,78.442 82.414,81.39 82.323,80.142 				"/>
			</g>
			<g>
				<polygon points="29.237,84.158 27.916,84.705 29.232,83.566 29.647,83.804 				"/>
			</g>
			<g>
				<polygon points="62.47,82.19 62.055,81.953 67.567,77.188 67.982,77.425 				"/>
			</g>
			<g>
				<polygon points="51.652,80.588 51.237,80.351 62.055,81.953 62.47,82.19 				"/>
			</g>
			<g>
				<polygon points="71.76,77.809 71.851,79.057 66.338,83.823 66.247,82.574 				"/>
			</g>
			<g>
				<polygon points="70.397,77.782 71.76,77.809 66.247,82.574 64.884,82.548 				"/>
			</g>
			<g>
				<polygon points="41.911,81.996 42.002,83.245 38.597,86.188 38.506,84.94 				"/>
			</g>
			<g>
				<polygon points="36.336,84.794 35.921,84.557 39.327,81.613 39.742,81.851 				"/>
			</g>
			<g>
				<polygon points="29.647,83.804 29.232,83.566 35.921,84.557 36.336,84.794 				"/>
			</g>
			<g>
				<polygon points="40.548,81.97 41.911,81.996 38.506,84.94 37.143,84.914 				"/>
			</g>
			<g>
				<polygon points="59.922,83.797 60.013,85.046 49.195,83.443 49.104,82.194 				"/>
			</g>
			<g>
				<polygon points="61.243,83.251 59.922,83.797 49.104,82.194 50.425,81.648 				"/>
			</g>
			<g>
				<polygon points="34.604,85.695 34.695,86.944 28.007,85.953 27.916,84.705 				"/>
			</g>
			<g>
				<polygon points="35.926,85.149 34.604,85.695 27.916,84.705 29.237,84.158 				"/>
			</g>
			<g>
				<polygon points="37.143,84.914 38.506,84.94 45.187,85.93 43.824,85.903 				"/>
			</g>
			<g>
				<polygon points="64.884,82.548 66.247,82.574 77.063,84.177 75.701,84.15 				"/>
			</g>
			<g>
				<polygon points="45.187,85.93 45.277,87.178 43.96,88.316 43.87,87.068 				"/>
			</g>
			<g>
				<polygon points="43.87,87.068 43.96,88.316 37.28,87.327 37.189,86.078 				"/>
			</g>
			<g>
				<polygon points="43.824,85.903 45.187,85.93 43.87,87.068 43.413,86.258 				"/>
			</g>
			<g>
				<polygon points="43.413,86.258 43.87,87.068 37.189,86.078 36.732,85.269 				"/>
			</g>
			<g>
				<polygon points="32.517,88.097 31.195,88.643 34.604,85.695 35.926,85.149 				"/>
			</g>
			<g>
				<polygon points="40.548,81.97 37.143,84.914 43.824,85.903 43.413,86.258 36.732,85.269 33.323,88.216 32.517,88.097 
					35.926,85.149 29.237,84.158 29.647,83.804 36.336,84.794 39.742,81.851 				"/>
			</g>
			<g>
				<polygon points="75.701,84.15 77.063,84.177 74.932,86.021 74.475,85.211 				"/>
			</g>
			<g>
				<polygon points="77.063,84.177 77.155,85.426 75.022,87.27 74.932,86.021 				"/>
			</g>
			<g>
				<polygon points="74.932,86.021 75.022,87.27 64.205,85.667 64.114,84.418 				"/>
			</g>
			<g>
				<polygon points="74.475,85.211 74.932,86.021 64.114,84.418 63.657,83.608 				"/>
			</g>
			<g>
				<polygon points="33.323,88.216 33.78,89.025 31.195,88.643 32.517,88.097 				"/>
			</g>
			<g>
				<polygon points="37.189,86.078 37.28,87.327 33.871,90.274 33.78,89.025 				"/>
			</g>
			<g>
				<polygon points="33.78,89.025 33.871,90.274 31.286,89.892 31.195,88.643 				"/>
			</g>
			<g>
				<polygon points="36.732,85.269 37.189,86.078 33.78,89.025 33.323,88.216 				"/>
			</g>
			<g>
				<polygon points="55.726,88.021 54.404,88.566 59.922,83.797 61.243,83.251 				"/>
			</g>
			<g>
				<polygon points="70.397,77.782 64.884,82.548 75.701,84.15 74.475,85.211 63.657,83.608 58.14,88.378 55.726,88.021 
					61.243,83.251 50.425,81.648 51.652,80.588 62.47,82.19 67.982,77.425 				"/>
			</g>
			<g>
				<polygon points="63.657,83.608 64.114,84.418 58.597,89.188 58.14,88.378 				"/>
			</g>
			<g>
				<polygon points="58.14,88.378 58.597,89.188 54.404,88.566 55.726,88.021 				"/>
			</g>
			<g>
				<polygon points="58.597,89.188 58.688,90.437 54.495,89.815 54.404,88.566 				"/>
			</g>
			<g>
				<polygon points="64.114,84.418 64.205,85.667 58.688,90.437 58.597,89.188 				"/>
			</g>
		</g>
	</g>
</g>
<g>
	<g>
		<polygon fill="#E87828" points="67.995,49.63 54.749,49.63 54.749,36.384 49.622,36.384 49.622,49.63 36.376,49.63 36.376,54.757 
			49.622,54.757 49.622,68.003 54.749,68.003 54.749,54.757 67.995,54.757 		"/>
		<polygon fill="#EC9421" points="40.649,29.178 29.909,29.178 29.909,18.438 25.751,18.438 25.751,29.178 15.012,29.178 
			15.012,33.336 25.751,33.336 25.751,44.075 29.909,44.075 29.909,33.336 40.649,33.336 		"/>
		<polygon fill="#CA363A" points="43.212,72.483 31.041,72.483 31.041,60.312 26.329,60.312 26.329,72.483 14.157,72.483 
			14.157,77.195 26.329,77.195 26.329,89.367 31.041,89.367 31.041,77.195 43.212,77.195 		"/>
		<polygon fill="#163E71" points="91.067,72.483 78.896,72.483 78.896,60.312 74.185,60.312 74.185,72.483 62.013,72.483 
			62.013,77.195 74.185,77.195 74.185,89.367 78.896,89.367 78.896,77.195 91.067,77.195 		"/>
		<polygon fill="#53809B" points="91.067,27.191 78.896,27.191 78.896,15.02 74.185,15.02 74.185,27.191 62.013,27.191 
			62.013,31.903 74.185,31.903 74.185,44.075 78.896,44.075 78.896,31.903 91.067,31.903 		"/>
		<polygon fill="#68909F" points="61.551,15.806 54.749,15.806 54.749,9.003 52.115,9.003 52.115,15.806 45.314,15.806 
			45.314,18.438 52.115,18.438 52.115,25.239 54.749,25.239 54.749,18.438 61.551,18.438 		"/>
		<polygon fill="#68909F" points="22.241,50.843 15.439,50.843 15.439,44.04 12.806,44.04 12.806,50.843 6.004,50.843 6.004,53.476 
			12.806,53.476 12.806,60.276 15.439,60.276 15.439,53.476 22.241,53.476 		"/>
		<polygon fill="#6079A6" points="99.151,51.559 91.634,51.559 91.634,44.04 88.724,44.04 88.724,51.559 81.206,51.559 
			81.206,54.469 88.724,54.469 88.724,61.986 91.634,61.986 91.634,54.469 99.151,54.469 		"/>
		<polygon fill="#6079A6" points="62.405,86.596 54.888,86.596 54.888,79.077 51.978,79.077 51.978,86.596 44.459,86.596 
			44.459,89.506 51.978,89.506 51.978,97.023 54.888,97.023 54.888,89.506 62.405,89.506 		"/>
	</g>
</g>
</svg>
