<?xml version="1.0" encoding="utf-8"?>
<!-- Generator: Adobe Illustrator 16.0.4, SVG Export Plug-In . SVG Version: 6.00 Build 0)  -->
<!DOCTYPE svg PUBLIC "-//W3C//DTD SVG 1.1//EN" "http://www.w3.org/Graphics/SVG/1.1/DTD/svg11.dtd">
<svg version="1.1" id="Layer_1" xmlns="http://www.w3.org/2000/svg" xmlns:xlink="http://www.w3.org/1999/xlink" x="0px" y="0px"
	 width="102.976px" height="102.976px" viewBox="0 0 102.976 102.976" enable-background="new 0 0 102.976 102.976"
	 xml:space="preserve">
<linearGradient id="SVGID_1_" gradientUnits="userSpaceOnUse" x1="17.6304" y1="21.4424" x2="104.737" y2="98.742">
	<stop  offset="0" style="stop-color:#292526"/>
	<stop  offset="1" style="stop-color:#000000"/>
</linearGradient>
<rect fill="url(#SVGID_1_)" width="102.976" height="102.976"/>
<g>
	<g>
		<g>
			<g enable-background="new    ">
				<g>
					<polygon fill="#12789D" points="83.007,41.41 81.826,58.146 78.723,58.471 79.903,41.735 					"/>
				</g>
				<g>
					<polygon fill="#704298" points="23.469,38.386 22.288,55.122 19.144,54.398 20.324,37.662 					"/>
				</g>
				<g enable-background="new    ">
					<defs>
						<path id="SVGID_2_" enable-background="new    " d="M45.976,57.249c-0.129,0.009-0.257,0.02-0.385,0.03
							c0.354-5.021,0.827-11.715,1.181-16.736c0.118-0.009,0.215-0.007,0.383,0.008C46.761,46.118,46.369,51.683,45.976,57.249z"/>
					</defs>
					<clipPath id="SVGID_3_">
						<use xlink:href="#SVGID_2_"  overflow="visible"/>
					</clipPath>
					<g clip-path="url(#SVGID_3_)" enable-background="new    ">
						<path fill="#016932" d="M48.716,40.443L47.535,57.18c-0.527,0.009-1.048,0.032-1.559,0.069
							c-0.076,0.006-0.151,0.011-0.227,0.018L46.93,40.53c0.076-0.006,0.151-0.012,0.228-0.018
							C47.667,40.476,48.188,40.452,48.716,40.443"/>
						<path fill="#016631" d="M46.93,40.53l-1.181,16.736c-0.053,0.004-0.105,0.009-0.158,0.013l1.181-16.736
							C46.824,40.539,46.877,40.534,46.93,40.53"/>
					</g>
				</g>
				<g enable-background="new    ">
					<defs>
						<path id="SVGID_4_" enable-background="new    " d="M47.157,40.513c-0.001,0.013-0.002,0.026-0.003,0.039
							c-0.168-0.015-0.265-0.018-0.383-0.008C46.899,40.532,47.028,40.522,47.157,40.513z"/>
					</defs>
					<clipPath id="SVGID_5_">
						<use xlink:href="#SVGID_4_"  overflow="visible"/>
					</clipPath>
					<g clip-path="url(#SVGID_5_)" enable-background="new    ">
						<path fill="#016932" d="M48.716,40.443L47.535,57.18c-0.527,0.009-1.048,0.032-1.559,0.069
							c-0.076,0.006-0.151,0.011-0.227,0.018L46.93,40.53c0.076-0.006,0.151-0.012,0.228-0.018
							C47.667,40.476,48.188,40.452,48.716,40.443"/>
						<path fill="#016631" d="M46.93,40.53l-1.181,16.736c-0.053,0.004-0.105,0.009-0.158,0.013l1.181-16.736
							C46.824,40.539,46.877,40.534,46.93,40.53"/>
					</g>
				</g>
				<g enable-background="new    ">
					<defs>
						<path id="SVGID_6_" enable-background="new    " d="M46.771,40.543l-1.181,16.736c-0.027,0.003-0.054,0.006-0.081,0.008
							c-0.188,0.017-0.374,0.036-0.558,0.057c-0.149,0.017-0.297,0.035-0.443,0.055l1.181-16.736
							c0.146-0.02,0.294-0.038,0.443-0.055c0.184-0.021,0.37-0.04,0.558-0.057C46.718,40.548,46.745,40.546,46.771,40.543z"/>
					</defs>
					<clipPath id="SVGID_7_">
						<use xlink:href="#SVGID_6_"  overflow="visible"/>
					</clipPath>
					<g clip-path="url(#SVGID_7_)" enable-background="new    ">
						<path fill="#016631" d="M46.771,40.543l-1.181,16.736c-0.027,0.003-0.054,0.006-0.081,0.008
							c-0.188,0.017-0.374,0.036-0.558,0.057c-0.149,0.017-0.297,0.035-0.443,0.055l1.181-16.736
							c0.146-0.02,0.294-0.038,0.443-0.055c0.184-0.021,0.37-0.04,0.558-0.057C46.718,40.548,46.745,40.546,46.771,40.543"/>
					</g>
				</g>
				<g enable-background="new    ">
					<defs>
						<path id="SVGID_8_" enable-background="new    " d="M57.437,58.655c0.398-5.579,0.787-11.158,1.181-16.737
							c0.019,0.007,0.037,0.014,0.056,0.02c-0.395,5.579-0.788,11.157-1.181,16.736C57.474,58.668,57.455,58.661,57.437,58.655z"/>
					</defs>
					<clipPath id="SVGID_9_">
						<use xlink:href="#SVGID_8_"  overflow="visible"/>
					</clipPath>
					<g clip-path="url(#SVGID_9_)" enable-background="new    ">
						<path fill="#153065" d="M58.673,41.938l-1.181,16.736c-1.102-0.401-2.329-0.726-3.616-0.968l1.181-16.736
							C56.345,41.213,57.571,41.537,58.673,41.938"/>
					</g>
				</g>
				<g enable-background="new    ">
					<defs>
						<path id="SVGID_10_" enable-background="new    " d="M58.821,42.103c-0.984-0.355-2.632-0.949-5.621-1.347
							c-2.832-0.376-5.084-0.256-6.046-0.204c0.001-0.013,0.002-0.026,0.003-0.039c3.876-0.282,8.363,0.242,11.672,1.484
							C58.826,42.032,58.823,42.067,58.821,42.103z"/>
					</defs>
					<clipPath id="SVGID_11_">
						<use xlink:href="#SVGID_10_"  overflow="visible"/>
					</clipPath>
					<g clip-path="url(#SVGID_11_)" enable-background="new    ">
						<path fill="#017438" d="M58.921,42.032L57.74,58.769c-0.03-0.012-0.062-0.024-0.092-0.036
							c-1.144-0.429-2.428-0.772-3.779-1.026L55.05,40.97c1.352,0.254,2.636,0.597,3.779,1.027
							C58.859,42.008,58.892,42.02,58.921,42.032"/>
						<path fill="#017136" d="M55.05,40.97l-1.181,16.736c-0.827-0.155-1.679-0.277-2.54-0.365l1.181-16.736
							C53.371,40.692,54.223,40.814,55.05,40.97"/>
						<path fill="#016E35" d="M52.51,40.604L51.33,57.341c-0.658-0.067-1.321-0.114-1.981-0.141l1.181-16.736
							C51.189,40.49,51.852,40.537,52.51,40.604"/>
						<path fill="#016B34" d="M50.529,40.464L49.348,57.2c-0.609-0.024-1.215-0.031-1.813-0.021l1.181-16.737
							C49.314,40.432,49.92,40.439,50.529,40.464"/>
						<path fill="#016932" d="M48.716,40.443L47.535,57.18c-0.527,0.009-1.048,0.032-1.559,0.069
							c-0.076,0.006-0.151,0.011-0.227,0.018L46.93,40.53c0.076-0.006,0.151-0.012,0.228-0.018
							C47.667,40.476,48.188,40.452,48.716,40.443"/>
					</g>
				</g>
				<g enable-background="new    ">
					<defs>
						<path id="SVGID_12_" enable-background="new    " d="M57.437,58.655c-3.286-1.187-7.666-1.682-11.46-1.406
							c0.348-4.928,0.696-9.854,1.043-14.782l0.138-1.955c3.794-0.276,8.174,0.22,11.46,1.406
							C58.222,47.498,57.83,53.076,57.437,58.655z"/>
					</defs>
					<clipPath id="SVGID_13_">
						<use xlink:href="#SVGID_12_"  overflow="visible"/>
					</clipPath>
					<g clip-path="url(#SVGID_13_)" enable-background="new    ">
						<path fill="#153065" d="M58.673,41.938l-1.181,16.736c-1.102-0.401-2.329-0.726-3.616-0.968l1.181-16.736
							C56.345,41.213,57.571,41.537,58.673,41.938"/>
						<path fill="#142F63" d="M55.057,40.971l-1.181,16.736c-0.83-0.156-1.686-0.278-2.549-0.366l1.181-16.736
							C53.371,40.692,54.227,40.814,55.057,40.971"/>
						<path fill="#142E60" d="M52.508,40.604l-1.181,16.736c-0.658-0.067-1.32-0.114-1.979-0.141l1.181-16.736
							C51.188,40.49,51.85,40.537,52.508,40.604"/>
						<path fill="#132D5E" d="M50.528,40.464L49.348,57.2c-0.609-0.024-1.215-0.031-1.813-0.021l1.181-16.737
							C49.313,40.433,49.919,40.439,50.528,40.464"/>
						<path fill="#132B5B" d="M48.715,40.443L47.535,57.18c-0.527,0.009-1.048,0.032-1.559,0.069l1.181-16.736
							C47.667,40.476,48.188,40.452,48.715,40.443"/>
					</g>
				</g>
				<g>
					<path fill="#1C4188" d="M58.661,42.078c-1.978-0.776-4.361-1.286-6.777-1.507h0.001C54.302,40.792,56.685,41.302,58.661,42.078
						z"/>
				</g>
				<g enable-background="new    ">
					<defs>
						<path id="SVGID_14_" enable-background="new    " d="M47.154,40.552c0.962-0.052,3.214-0.172,6.046,0.204
							c2.989,0.397,4.637,0.992,5.621,1.347c-0.391,5.544-0.782,11.087-1.173,16.63c-3.309-1.242-7.796-1.766-11.672-1.483
							C46.369,51.683,46.761,46.118,47.154,40.552z"/>
					</defs>
					<clipPath id="SVGID_15_">
						<use xlink:href="#SVGID_14_"  overflow="visible"/>
					</clipPath>
					<g clip-path="url(#SVGID_15_)" enable-background="new    ">
						<path fill="#017438" d="M58.921,42.032L57.74,58.769c-0.03-0.012-0.062-0.024-0.092-0.036
							c-1.144-0.429-2.428-0.772-3.779-1.026L55.05,40.97c1.352,0.254,2.636,0.597,3.779,1.027
							C58.859,42.008,58.892,42.02,58.921,42.032"/>
						<path fill="#017136" d="M55.05,40.97l-1.181,16.736c-0.827-0.155-1.679-0.277-2.54-0.365l1.181-16.736
							C53.371,40.692,54.223,40.814,55.05,40.97"/>
						<path fill="#016E35" d="M52.51,40.604L51.33,57.341c-0.658-0.067-1.321-0.114-1.981-0.141l1.181-16.736
							C51.189,40.49,51.852,40.537,52.51,40.604"/>
						<path fill="#016B34" d="M50.529,40.464L49.348,57.2c-0.609-0.024-1.215-0.031-1.813-0.021l1.181-16.737
							C49.314,40.432,49.92,40.439,50.529,40.464"/>
						<path fill="#016932" d="M48.716,40.443L47.535,57.18c-0.527,0.009-1.048,0.032-1.559,0.069
							c-0.076,0.006-0.151,0.011-0.227,0.018L46.93,40.53c0.076-0.006,0.151-0.012,0.228-0.018
							C47.667,40.476,48.188,40.452,48.716,40.443"/>
					</g>
				</g>
				<g enable-background="new    ">
					<defs>
						<path id="SVGID_16_" enable-background="new    " d="M58.911,42.179l0.01-0.146c-0.029-0.012-0.062-0.024-0.092-0.036
							c-0.003,0.035-0.006,0.071-0.008,0.106C58.864,42.152,58.888,42.168,58.911,42.179z"/>
					</defs>
					<clipPath id="SVGID_17_">
						<use xlink:href="#SVGID_16_"  overflow="visible"/>
					</clipPath>
					<g clip-path="url(#SVGID_17_)" enable-background="new    ">
						<path fill="#017438" d="M58.921,42.032L57.74,58.769c-0.03-0.012-0.062-0.024-0.092-0.036
							c-1.144-0.429-2.428-0.772-3.779-1.026L55.05,40.97c1.352,0.254,2.636,0.597,3.779,1.027
							C58.859,42.008,58.892,42.02,58.921,42.032"/>
					</g>
				</g>
				<g>
					<path fill="#35AF74" d="M58.829,41.997c-3.309-1.242-7.796-1.766-11.672-1.484c-0.129,0.009-0.258,0.02-0.386,0.031
						c-0.027,0.002-0.054,0.005-0.081,0.007c-0.188,0.017-0.374,0.036-0.558,0.057c-0.149,0.017-0.297,0.035-0.443,0.055
						l5.632,3.999l7.6-2.629C58.892,42.02,58.859,42.008,58.829,41.997z M51.884,40.57h0.001c2.416,0.222,4.799,0.731,6.776,1.507
						C56.684,41.302,54.3,40.792,51.884,40.57"/>
				</g>
				<g>
					<path fill="#1C4188" d="M51.884,40.57c-1.15-0.105-2.307-0.146-3.432-0.12h0c1.125-0.027,2.283,0.014,3.434,0.12H51.884z"/>
				</g>
				<g>
					<polygon fill="#017539" points="45.267,40.362 44.086,57.099 36.868,51.968 38.049,35.232 					"/>
				</g>
				<g>
					<path fill="#1C4188" d="M47.157,40.513c0.425-0.031,0.858-0.052,1.295-0.062h0C48.015,40.461,47.582,40.481,47.157,40.513z"/>
				</g>
				<g>
					<polygon fill="#016430" points="69.325,38.429 68.145,55.165 59.153,58.279 60.334,41.543 					"/>
				</g>
				<g>
					<polygon fill="#017539" points="45.689,40.662 44.509,57.398 44.086,57.099 45.267,40.362 					"/>
				</g>
				<g enable-background="new    ">
					<defs>
						<path id="SVGID_18_" enable-background="new    " d="M57.648,58.732c0.391-5.543,0.782-11.086,1.173-16.63
							c0.043,0.049,0.066,0.065,0.09,0.076l-1.171,16.59C57.71,58.757,57.679,58.744,57.648,58.732z"/>
					</defs>
					<clipPath id="SVGID_19_">
						<use xlink:href="#SVGID_18_"  overflow="visible"/>
					</clipPath>
					<g clip-path="url(#SVGID_19_)" enable-background="new    ">
						<path fill="#017438" d="M58.921,42.032L57.74,58.769c-0.03-0.012-0.062-0.024-0.092-0.036
							c-1.144-0.429-2.428-0.772-3.779-1.026L55.05,40.97c1.352,0.254,2.636,0.597,3.779,1.027
							C58.859,42.008,58.892,42.02,58.921,42.032"/>
					</g>
				</g>
				<g>
					<polygon fill="#016430" points="60.334,41.543 59.153,58.279 57.74,58.769 58.921,42.032 					"/>
				</g>
				<g>
					<path fill="#019B4B" d="M40.84,34.918c9.362-0.819,20.468,0.427,28.485,3.51l-8.991,3.115l-1.413,0.489
						c-0.029-0.012-0.062-0.024-0.092-0.036c-3.309-1.242-7.796-1.766-11.672-1.484c-0.129,0.009-0.258,0.02-0.386,0.031
						c-0.027,0.002-0.054,0.005-0.081,0.007c-0.188,0.017-0.374,0.036-0.558,0.057c-0.149,0.017-0.297,0.035-0.443,0.055l-0.422-0.3
						l-7.218-5.13C38.958,35.106,39.89,35.001,40.84,34.918z"/>
				</g>
				<g>
					<polygon fill="#314364" points="50.367,61.559 50.358,61.552 50.467,61.602 					"/>
				</g>
				<g enable-background="new    ">
					<defs>
						<path id="SVGID_20_" enable-background="new    " d="M63.731,43.428l-1.181,16.736c-0.808-0.699-1.979-1.338-3.397-1.885
							l1.181-16.736C61.753,42.09,62.924,42.729,63.731,43.428z"/>
					</defs>
					<clipPath id="SVGID_21_">
						<use xlink:href="#SVGID_20_"  overflow="visible"/>
					</clipPath>
					<g clip-path="url(#SVGID_21_)" enable-background="new    ">
						<path fill="#137CA1" d="M63.731,43.428l-1.181,16.736c-0.078-0.067-0.16-0.135-0.245-0.201l1.182-16.737
							C63.571,43.293,63.653,43.36,63.731,43.428"/>
						<path fill="#137FA5" d="M63.487,43.226l-1.182,16.737c-0.467-0.366-1.033-0.714-1.682-1.038l1.181-16.737
							C62.454,42.513,63.021,42.861,63.487,43.226"/>
						<path fill="#1482AA" d="M61.805,42.188l-1.181,16.737c-0.452-0.227-0.944-0.442-1.471-0.646l1.181-16.736
							C60.86,41.746,61.353,41.961,61.805,42.188"/>
					</g>
				</g>
				<g>
					<polygon fill="#12789D" points="79.903,41.735 78.723,58.471 62.551,60.164 63.731,43.428 					"/>
				</g>
				<g>
					<path fill="#1AADE2" d="M74.049,36.792c0.287,0.064,5.731,1.281,8.958,4.617l-3.104,0.325l-16.172,1.693
						c-0.808-0.699-1.979-1.338-3.397-1.884l8.991-3.115L74.049,36.792z"/>
				</g>
				<g>
					<polygon fill="#3C839F" points="63.731,43.428 62.551,60.164 62.368,60.184 63.549,43.447 					"/>
				</g>
				<g>
					<path fill="#9156C5" d="M34.388,32.63l3.661,2.602l7.218,5.13c-2.457,0.349-4.306,0.991-5.421,1.794l-16.376-3.771
						l-3.145-0.724C20.438,37.486,22.615,34.15,34.388,32.63z"/>
				</g>
				<g>
					<polygon fill="#704298" points="39.846,42.157 38.665,58.893 22.288,55.122 23.469,38.386 					"/>
				</g>
				<g enable-background="new    ">
					<defs>
						<path id="SVGID_22_" enable-background="new    " d="M45.267,40.362l-1.181,16.736c-2.457,0.349-4.306,0.99-5.421,1.794
							l1.181-16.736C40.961,41.353,42.811,40.711,45.267,40.362z"/>
					</defs>
					<clipPath id="SVGID_23_">
						<use xlink:href="#SVGID_22_"  overflow="visible"/>
					</clipPath>
					<g clip-path="url(#SVGID_23_)" enable-background="new    ">
						<path fill="#603881" d="M45.267,40.362l-1.181,16.736c-0.188,0.026-0.374,0.055-0.555,0.085l1.181-16.736
							C44.894,40.417,45.079,40.389,45.267,40.362"/>
						<path fill="#5D377E" d="M44.712,40.447l-1.181,16.736c-2.181,0.363-3.836,0.968-4.867,1.709l1.181-16.736
							C40.876,41.415,42.531,40.811,44.712,40.447"/>
					</g>
				</g>
				<g>
					<polygon fill="#825EA0" points="42.467,42.76 41.286,59.496 38.665,58.893 39.846,42.157 					"/>
				</g>
				<g>
					<polygon fill="#288558" points="51.321,44.661 50.141,61.397 44.509,57.398 45.689,40.662 					"/>
				</g>
				<g>
					<polygon fill="#22714A" points="58.921,42.032 57.74,58.769 50.141,61.397 51.321,44.661 					"/>
				</g>
				<g>
					<polygon fill="#684B81" points="51.276,44.662 50.095,61.398 50.089,61.439 51.27,44.703 					"/>
				</g>
				<g>
					<path fill="#56BCE4" d="M60.334,41.543c1.419,0.546,2.59,1.186,3.397,1.884l-0.183,0.019l-12.15,1.27l-0.077-0.055l7.6-2.629
						L60.334,41.543z"/>
				</g>
				<g>
					<polygon fill="#418FAD" points="51.398,44.716 50.218,61.452 50.141,61.397 51.321,44.661 					"/>
				</g>
				<g>
					<polygon fill="#3C839F" points="63.549,43.447 62.368,60.184 50.218,61.452 51.398,44.716 					"/>
				</g>
				<g>
					<polygon fill="#765591" points="51.304,44.718 50.123,61.454 50.095,61.398 51.276,44.662 					"/>
				</g>
				<g enable-background="new    ">
					<defs>
						<path id="SVGID_24_" enable-background="new    " d="M64.75,45.669l-1.181,16.736c0.046-0.651-0.269-1.328-0.945-1.988
							c-0.081-0.078-0.166-0.156-0.256-0.233l1.181-16.737c0.09,0.078,0.175,0.156,0.256,0.234
							C64.481,44.341,64.796,45.018,64.75,45.669z"/>
					</defs>
					<clipPath id="SVGID_25_">
						<use xlink:href="#SVGID_24_"  overflow="visible"/>
					</clipPath>
					<g clip-path="url(#SVGID_25_)" enable-background="new    ">
						<path fill="#9C4101" d="M64.75,45.669l-1.181,16.736c0-0.012,0.001-0.023,0.002-0.036l1.181-16.736
							C64.751,45.645,64.751,45.657,64.75,45.669"/>
						<path fill="#A04301" d="M64.752,45.633l-1.181,16.736c0.013-0.26-0.031-0.523-0.133-0.788l1.181-16.736
							C64.721,45.109,64.765,45.373,64.752,45.633"/>
						<path fill="#A44501" d="M64.619,44.845l-1.181,16.736c-0.098-0.256-0.249-0.513-0.454-0.769l1.181-16.737
							C64.37,44.332,64.521,44.589,64.619,44.845"/>
						<path fill="#A94601" d="M64.165,44.076l-1.181,16.737c-0.105-0.133-0.227-0.265-0.36-0.396
							c-0.081-0.078-0.166-0.156-0.256-0.233l1.181-16.737c0.09,0.078,0.175,0.156,0.256,0.234
							C63.938,43.812,64.06,43.943,64.165,44.076"/>
					</g>
				</g>
				<g>
					<polygon fill="#767973" points="51.27,44.703 50.089,61.439 50.087,61.455 51.268,44.719 					"/>
				</g>
				<g>
					<polygon fill="#684B81" points="51.27,44.703 50.089,61.439 50.087,61.455 51.268,44.719 					"/>
				</g>
				<g>
					<path fill="#A879CF" d="M45.267,40.362l0.422,0.3l5.632,3.999l0.077,0.055l0.14,0.099l-0.234-0.098l-0.028-0.056l-0.006,0.041
						l-0.002,0.016l-0.009,0.064l-0.069-0.016l-0.087-0.02l-8.636-1.987l-2.621-0.603C40.961,41.353,42.811,40.711,45.267,40.362z"
						/>
				</g>
				<g>
					<polygon fill="#767973" points="51.26,44.699 51.268,44.719 51.27,44.703 					"/>
				</g>
				<g>
					<polygon fill="#838680" points="51.268,44.719 50.087,61.455 50.079,61.436 51.26,44.699 					"/>
				</g>
				<g>
					<polygon fill="#825EA0" points="51.103,44.747 49.922,61.483 41.286,59.496 42.467,42.76 					"/>
				</g>
				<g>
					<polygon fill="#35758E" points="51.062,44.751 51.085,44.743 51.103,44.747 					"/>
				</g>
				<g>
					<polygon fill="#832E5D" points="51.085,44.743 49.904,61.479 49.88,61.487 51.062,44.751 					"/>
				</g>
				<g>
					<polygon fill="#3C839F" points="51.103,44.747 49.922,61.483 49.88,61.487 51.062,44.751 					"/>
				</g>
				<g enable-background="new    ">
					<defs>
						<path id="SVGID_26_" enable-background="new    " d="M40.413,60.825l1.181-16.737c0.034-0.476,0.333-0.928,0.874-1.329
							l-1.181,16.736C40.746,59.897,40.446,60.349,40.413,60.825z"/>
					</defs>
					<clipPath id="SVGID_27_">
						<use xlink:href="#SVGID_26_"  overflow="visible"/>
					</clipPath>
					<g clip-path="url(#SVGID_27_)" enable-background="new    ">
						<path fill="#7B1648" d="M42.467,42.76l-1.181,16.736c-0.54,0.401-0.839,0.853-0.873,1.329l1.181-16.737
							C41.627,43.612,41.926,43.161,42.467,42.76"/>
					</g>
				</g>
				<g>
					<polygon fill="#825EA0" points="51.189,44.767 50.009,61.504 49.922,61.483 51.103,44.747 					"/>
				</g>
				<g>
					<polygon fill="#684B81" points="51.268,44.719 50.087,61.455 50.078,61.52 51.259,44.783 					"/>
				</g>
				<g>
					<polygon fill="#825EA0" points="51.259,44.783 50.078,61.52 50.009,61.504 51.189,44.767 					"/>
				</g>
				<g>
					<polygon fill="#B3642D" points="51.539,44.815 50.358,61.552 50.218,61.452 51.398,44.716 					"/>
				</g>
				<g>
					<polygon fill="#835EA1" points="51.539,44.815 50.358,61.552 50.123,61.454 51.304,44.718 					"/>
				</g>
				<g>
					<polygon fill="#B7672E" points="51.647,44.865 50.467,61.602 50.358,61.552 51.539,44.815 					"/>
				</g>
				<g>
					<polygon fill="#3E537C" points="51.647,44.865 50.467,61.602 50.358,61.552 51.539,44.815 					"/>
				</g>
				<g>
					<polygon fill="#95356A" points="51.189,44.767 50.009,61.504 40.486,61.261 41.667,44.525 					"/>
				</g>
				<g>
					<path fill="#CB4890" d="M42.467,42.76l8.618,1.983l-0.023,0.008l0.041-0.004l0.087,0.02l-9.523-0.242l-0.031-0.001
						C41.469,43.888,41.764,43.281,42.467,42.76z"/>
				</g>
				<g>
					
						<rect x="32.672" y="52.877" transform="matrix(0.0704 -0.9975 0.9975 0.0704 -14.5904 90.1296)" fill="#95356A" width="16.777" height="0.031"/>
				</g>
				<g enable-background="new    ">
					<defs>
						<path id="SVGID_28_" enable-background="new    " d="M40.413,60.825l1.181-16.737c-0.01,0.143,0.004,0.289,0.042,0.436
							l-1.181,16.737C40.417,61.113,40.402,60.968,40.413,60.825z"/>
					</defs>
					<clipPath id="SVGID_29_">
						<use xlink:href="#SVGID_28_"  overflow="visible"/>
					</clipPath>
					<g clip-path="url(#SVGID_29_)" enable-background="new    ">
						<path fill="#893162" d="M41.636,44.524l-1.181,16.737c-0.036-0.138-0.051-0.274-0.044-0.409l1.181-16.736
							C41.585,44.25,41.6,44.386,41.636,44.524"/>
						<path fill="#862F5F" d="M41.592,44.115l-1.181,16.736c0-0.009,0.001-0.018,0.001-0.026l1.181-16.737
							C41.593,44.097,41.592,44.106,41.592,44.115"/>
					</g>
				</g>
				<g>
					<polygon fill="#8C1953" points="41.636,44.524 40.455,61.261 27.521,60.936 28.702,44.199 					"/>
				</g>
				<g>
					<polygon fill="#8C1953" points="28.702,44.199 27.521,60.936 19.046,60.722 20.227,43.986 					"/>
				</g>
				<g enable-background="new    ">
					<defs>
						<path id="SVGID_30_" enable-background="new    " d="M18.638,59.129l1.181-16.737c-0.064,0.911,0.363,1.527,0.409,1.594
							l-1.181,16.736C19,60.656,18.573,60.04,18.638,59.129z"/>
					</defs>
					<clipPath id="SVGID_31_">
						<use xlink:href="#SVGID_30_"  overflow="visible"/>
					</clipPath>
					<g clip-path="url(#SVGID_31_)" enable-background="new    ">
						<path fill="#85184E" d="M20.227,43.986l-1.181,16.736c-0.023-0.032-0.139-0.199-0.242-0.47l1.181-16.736
							C20.089,43.786,20.205,43.953,20.227,43.986"/>
						<path fill="#82174C" d="M19.985,43.516l-1.181,16.736c-0.102-0.266-0.192-0.632-0.17-1.068l1.181-16.736
							C19.793,42.884,19.883,43.25,19.985,43.516"/>
						<path fill="#7E174A" d="M19.815,42.448l-1.181,16.736c0-0.018,0.002-0.036,0.003-0.055l1.181-16.737
							C19.817,42.411,19.816,42.429,19.815,42.448"/>
					</g>
				</g>
				<g>
					<path fill="#C02271" d="M23.469,38.386l16.376,3.771l2.621,0.603c-0.703,0.521-0.998,1.128-0.831,1.764l-12.934-0.325
						l-8.475-0.213C20.127,43.842,18.23,41.106,23.469,38.386z"/>
				</g>
				<g>
					<polygon fill="#B7672E" points="57.49,47.37 56.309,64.106 50.467,61.602 51.647,44.865 					"/>
				</g>
				<g enable-background="new    ">
					<defs>
						<path id="SVGID_32_" enable-background="new    " d="M56.309,64.106c-0.062,0.015-0.127,0.03-0.191,0.046l1.181-16.737
							c0.064-0.016,0.129-0.031,0.192-0.046C57.136,52.391,56.663,59.085,56.309,64.106z"/>
					</defs>
					<clipPath id="SVGID_33_">
						<use xlink:href="#SVGID_32_"  overflow="visible"/>
					</clipPath>
					<g clip-path="url(#SVGID_33_)" enable-background="new    ">
						<path fill="#975526" d="M57.49,47.37l-1.182,16.737c-0.062,0.015-0.127,0.03-0.191,0.046l1.181-16.737
							C57.362,47.4,57.427,47.385,57.49,47.37"/>
					</g>
				</g>
				<g enable-background="new    ">
					<defs>
						<path id="SVGID_34_" enable-background="new    " d="M57.49,47.37l-1.182,16.737c-0.062,0.015-0.127,0.03-0.191,0.046
							c-0.106,0.024-0.216,0.051-0.327,0.073l1.181-16.736c0.111-0.023,0.221-0.048,0.327-0.074
							C57.362,47.4,57.427,47.385,57.49,47.37z"/>
					</defs>
					<clipPath id="SVGID_35_">
						<use xlink:href="#SVGID_34_"  overflow="visible"/>
					</clipPath>
					<g clip-path="url(#SVGID_35_)" enable-background="new    ">
						<path fill="#797C77" d="M57.49,47.37l-1.182,16.737c-0.062,0.015-0.127,0.03-0.191,0.046
							c-0.106,0.024-0.216,0.051-0.327,0.073l1.181-16.736c0.111-0.023,0.221-0.048,0.327-0.074
							C57.362,47.4,57.427,47.385,57.49,47.37"/>
					</g>
				</g>
				<g>
					<path fill="#BDC2B9" d="M51.647,44.865l5.843,2.505c-0.063,0.015-0.128,0.03-0.192,0.046c-0.106,0.025-0.216,0.051-0.327,0.074
						c-0.685,0.147-1.417,0.253-2.178,0.319c-0.186,0.017-0.374,0.03-0.562,0.042c-0.284,0.018-0.569,0.03-0.857,0.037
						c-0.057,0.001-0.113,0.003-0.171,0.004c-0.092,0.001-0.185,0.003-0.278,0.003l-1.62-3.177l0.243,0.104L51.647,44.865z"/>
				</g>
				<g>
					<polygon fill="#858882" points="52.924,47.895 51.744,64.631 50.123,61.454 51.304,44.718 					"/>
				</g>
				<g enable-background="new    ">
					<defs>
						<path id="SVGID_36_" enable-background="new    " d="M56.971,47.489L55.79,64.226c-0.685,0.147-1.418,0.253-2.178,0.319
							c-0.187,0.017-0.374,0.03-0.562,0.042c-0.284,0.018-0.57,0.029-0.858,0.037c-0.056,0.001-0.113,0.002-0.17,0.004
							c-0.092,0.001-0.185,0.002-0.278,0.003l1.18-16.736c0.094,0,0.187-0.002,0.278-0.003c0.058-0.001,0.114-0.002,0.171-0.004
							c0.288-0.007,0.573-0.02,0.857-0.037c0.188-0.011,0.377-0.025,0.562-0.042C55.554,47.742,56.286,47.637,56.971,47.489z"/>
					</defs>
					<clipPath id="SVGID_37_">
						<use xlink:href="#SVGID_36_"  overflow="visible"/>
					</clipPath>
					<g clip-path="url(#SVGID_37_)" enable-background="new    ">
						<path fill="#797C77" d="M56.971,47.489L55.79,64.226c-0.235,0.051-0.477,0.097-0.723,0.138l1.181-16.737
							C56.494,47.585,56.735,47.54,56.971,47.489"/>
						<path fill="#7D807A" d="M56.248,47.626l-1.181,16.737c-0.469,0.078-0.956,0.139-1.455,0.182
							c-0.041,0.004-0.083,0.007-0.124,0.011l1.181-16.736c0.042-0.003,0.083-0.007,0.124-0.011
							C55.292,47.765,55.779,47.705,56.248,47.626"/>
						<path fill="#80837D" d="M54.669,47.819l-1.181,16.736c-0.146,0.012-0.292,0.022-0.438,0.031
							c-0.284,0.018-0.57,0.029-0.858,0.037c-0.056,0.001-0.113,0.002-0.17,0.004c-0.002,0-0.005,0-0.008,0l1.181-16.737
							c0.003,0,0.006,0,0.008,0c0.058-0.001,0.114-0.002,0.171-0.004c0.288-0.007,0.573-0.02,0.857-0.037
							C54.377,47.841,54.523,47.831,54.669,47.819"/>
						<path fill="#838781" d="M53.194,47.891l-1.181,16.737c-0.09,0.001-0.18,0.002-0.27,0.003l1.18-16.736
							C53.015,47.894,53.104,47.893,53.194,47.891"/>
					</g>
				</g>
				<g>
					<polygon fill="#B7672E" points="60.764,48.774 59.583,65.511 56.309,64.106 57.49,47.37 					"/>
				</g>
				<g>
					<path fill="#EC843C" d="M63.549,43.447c0.09,0.078,0.175,0.156,0.256,0.234c1.941,1.892,0.896,3.921-3.041,5.094L57.49,47.37
						c-0.063,0.015-0.128,0.03-0.192,0.046c0.064-0.016,0.129-0.031,0.192-0.046l-5.843-2.505l-0.109-0.049l-0.14-0.099
						L63.549,43.447z"/>
				</g>
				<g enable-background="new    ">
					<defs>
						<path id="SVGID_38_" enable-background="new    " d="M64.75,45.669l-1.181,16.736c-0.086,1.216-1.424,2.343-3.986,3.105
							l1.181-16.736C63.326,48.011,64.664,46.885,64.75,45.669z"/>
					</defs>
					<clipPath id="SVGID_39_">
						<use xlink:href="#SVGID_38_"  overflow="visible"/>
					</clipPath>
					<g clip-path="url(#SVGID_39_)" enable-background="new    ">
						<path fill="#975526" d="M64.75,45.669l-1.181,16.736c-0.086,1.216-1.424,2.343-3.986,3.105l1.181-16.736
							C63.326,48.011,64.664,46.885,64.75,45.669"/>
					</g>
				</g>
				<g>
					<polygon fill="#7C7E7A" points="53.106,48.251 51.925,64.987 51.744,64.631 52.924,47.895 					"/>
				</g>
				<g>
					<path fill="#4F6BA0" d="M41.667,44.525l9.523,0.242l0.069,0.016l-0.485,3.382c-3.629-0.294-6.993-1.315-8.461-2.712
						C41.985,45.142,41.772,44.83,41.667,44.525z"/>
				</g>
				<g enable-background="new    ">
					<defs>
						<path id="SVGID_40_" enable-background="new    " d="M50.774,48.166l-1.181,16.737c-3.63-0.295-6.993-1.316-8.461-2.713
							c-0.328-0.312-0.54-0.623-0.646-0.929l1.181-16.736c0.106,0.305,0.318,0.617,0.646,0.928
							C43.781,46.85,47.145,47.871,50.774,48.166z"/>
					</defs>
					<clipPath id="SVGID_41_">
						<use xlink:href="#SVGID_40_"  overflow="visible"/>
					</clipPath>
					<g clip-path="url(#SVGID_41_)" enable-background="new    ">
						<path fill="#384C72" d="M50.774,48.166l-1.181,16.737c-0.182-0.015-0.363-0.031-0.543-0.05l1.181-16.737
							C50.411,48.134,50.592,48.151,50.774,48.166"/>
						<path fill="#3A4E75" d="M50.231,48.116L49.05,64.853c-0.724-0.074-1.434-0.177-2.117-0.305l1.181-16.736
							C48.796,47.939,49.506,48.042,50.231,48.116"/>
						<path fill="#3B5078" d="M48.114,47.812l-1.181,16.736c-1.65-0.311-3.141-0.771-4.284-1.343l1.181-16.737
							C44.973,47.04,46.463,47.501,48.114,47.812"/>
						<path fill="#3A4E75" d="M43.83,46.468l-1.181,16.737c-0.457-0.229-0.859-0.475-1.193-0.736l1.181-16.736
							C42.971,45.994,43.373,46.24,43.83,46.468"/>
						<path fill="#384C72" d="M42.637,45.732l-1.181,16.736c-0.116-0.092-0.225-0.185-0.324-0.279
							c-0.113-0.107-0.213-0.215-0.299-0.322l1.181-16.737c0.086,0.107,0.186,0.215,0.299,0.323
							C42.412,45.548,42.521,45.641,42.637,45.732"/>
						<path fill="#374A6F" d="M42.014,45.13l-1.181,16.737c-0.15-0.188-0.26-0.375-0.33-0.559l1.181-16.736
							C41.754,44.756,41.863,44.943,42.014,45.13"/>
						<path fill="#36486C" d="M41.684,44.572l-1.181,16.736c-0.006-0.016-0.012-0.031-0.017-0.048l1.181-16.736
							C41.672,44.541,41.678,44.556,41.684,44.572"/>
					</g>
				</g>
				<g enable-background="new    ">
					<defs>
						<path id="SVGID_42_" enable-background="new    " d="M53.106,48.251l-1.181,16.736c-0.154,0.002-0.309,0.001-0.464,0
							c-0.622-0.006-1.249-0.035-1.868-0.085l1.181-16.737c0.62,0.05,1.247,0.08,1.868,0.085
							C52.797,48.252,52.952,48.252,53.106,48.251z"/>
					</defs>
					<clipPath id="SVGID_43_">
						<use xlink:href="#SVGID_42_"  overflow="visible"/>
					</clipPath>
					<g clip-path="url(#SVGID_43_)" enable-background="new    ">
						<path fill="#A5A359" d="M53.106,48.251l-1.181,16.736c-0.154,0.002-0.309,0.001-0.464,0c-0.26-0.003-0.521-0.009-0.783-0.02
							l1.181-16.736c0.261,0.01,0.523,0.017,0.783,0.02C52.797,48.252,52.952,48.252,53.106,48.251"/>
						<path fill="#A9A75C" d="M51.859,48.231l-1.181,16.736c-0.363-0.015-0.725-0.037-1.085-0.065l1.181-16.737
							C51.134,48.195,51.497,48.217,51.859,48.231"/>
					</g>
				</g>
				<g>
					<path fill="#EEEB81" d="M51.276,44.662l0.028,0.056l1.62,3.177l0.183,0.356c-0.154,0.001-0.31,0.001-0.464,0
						c-0.622-0.006-1.249-0.035-1.868-0.085l0.485-3.382l0.009-0.064l0.002-0.016L51.276,44.662z"/>
				</g>
				<g>
					<polygon fill="#B84D01" points="71.978,53.586 70.797,70.322 59.583,65.511 60.764,48.774 					"/>
				</g>
				<g enable-background="new    ">
					<defs>
						<path id="SVGID_44_" enable-background="new    " d="M82.707,46.934L81.526,63.67c-0.208,2.946-3.554,5.668-9.972,7.451
							l1.181-16.736C79.153,52.601,82.499,49.879,82.707,46.934z"/>
					</defs>
					<clipPath id="SVGID_45_">
						<use xlink:href="#SVGID_44_"  overflow="visible"/>
					</clipPath>
					<g clip-path="url(#SVGID_45_)" enable-background="new    ">
						<path fill="#983F01" d="M82.707,46.934L81.526,63.67c-0.208,2.946-3.554,5.668-9.972,7.451l1.181-16.736
							C79.153,52.601,82.499,49.879,82.707,46.934"/>
					</g>
				</g>
				<g enable-background="new    ">
					<defs>
						<path id="SVGID_46_" enable-background="new    " d="M71.978,53.586l-1.181,16.736c-0.188,0.068-0.379,0.135-0.571,0.199
							c-2.763,0.919-5.988,1.398-8.81,1.646c-2.349,0.205-4.416,0.249-5.703,0.252l1.182-16.737
							c1.286-0.002,3.354-0.046,5.702-0.251c2.821-0.247,6.047-0.727,8.81-1.646C71.599,53.721,71.789,53.654,71.978,53.586z"/>
					</defs>
					<clipPath id="SVGID_47_">
						<use xlink:href="#SVGID_46_"  overflow="visible"/>
					</clipPath>
					<g clip-path="url(#SVGID_47_)" enable-background="new    ">
						<path fill="#717370" d="M71.978,53.586l-1.181,16.736c-0.188,0.068-0.379,0.135-0.571,0.199
							c-1.51,0.502-3.156,0.873-4.8,1.146l1.181-16.736c1.644-0.273,3.291-0.645,4.8-1.146
							C71.599,53.721,71.789,53.654,71.978,53.586"/>
						<path fill="#757673" d="M66.606,54.932l-1.181,16.736c-1.366,0.227-2.729,0.387-4.01,0.499
							c-0.127,0.011-0.254,0.021-0.379,0.031l1.181-16.736c0.126-0.01,0.252-0.021,0.379-0.031
							C63.877,55.318,65.24,55.158,66.606,54.932"/>
						<path fill="#787A76" d="M62.218,55.462l-1.181,16.736c-1.641,0.134-3.126,0.189-4.28,0.21l1.181-16.736
							C59.092,55.651,60.577,55.596,62.218,55.462"/>
						<path fill="#7B7D79" d="M57.938,55.672l-1.181,16.736c-0.388,0.007-0.737,0.01-1.044,0.011l1.182-16.737
							C57.2,55.682,57.55,55.679,57.938,55.672"/>
					</g>
				</g>
				<g>
					<path fill="#ED6301" d="M79.903,41.735c5.439,4.681,2.963,9.834-7.168,12.65l-1.329-0.6c0.192-0.064,0.383-0.131,0.571-0.199
						l-11.214-4.812c3.937-1.172,4.982-3.202,3.041-5.094c-0.081-0.078-0.166-0.156-0.256-0.234l0.183-0.019L79.903,41.735z"/>
				</g>
				<g>
					<polygon fill="#B84D01" points="72.735,54.385 71.555,71.121 70.226,70.521 71.406,53.785 					"/>
				</g>
				<g>
					<polygon fill="#112854" points="50.773,48.169 49.593,64.905 48.918,69.593 50.099,52.857 					"/>
				</g>
				<g enable-background="new    ">
					<defs>
						<path id="SVGID_48_" enable-background="new    " d="M50.099,52.857l-1.181,16.736c-8.507-0.689-16.403-3.079-19.84-6.349
							c-0.816-0.776-1.328-1.552-1.557-2.309l1.181-16.737c0.229,0.757,0.74,1.533,1.556,2.309
							C33.695,49.777,41.592,52.167,50.099,52.857z"/>
					</defs>
					<clipPath id="SVGID_49_">
						<use xlink:href="#SVGID_48_"  overflow="visible"/>
					</clipPath>
					<g clip-path="url(#SVGID_49_)" enable-background="new    ">
						<path fill="#142E60" d="M50.099,52.857l-1.181,16.736c-0.429-0.034-0.857-0.073-1.282-0.117l1.181-16.736
							C49.242,52.783,49.669,52.822,50.099,52.857"/>
						<path fill="#142F63" d="M48.816,52.739l-1.181,16.736c-1.702-0.173-3.371-0.414-4.976-0.716l1.181-16.736
							C45.445,52.325,47.115,52.566,48.816,52.739"/>
						<path fill="#153065" d="M43.841,52.024L42.66,68.76c-3.869-0.727-7.364-1.808-10.042-3.146l1.181-16.737
							C36.477,50.216,39.972,51.296,43.841,52.024"/>
						<path fill="#142F63" d="M33.799,48.876l-1.181,16.737c-1.067-0.534-2.004-1.109-2.784-1.719l1.181-16.736
							C31.794,47.768,32.732,48.343,33.799,48.876"/>
						<path fill="#142E60" d="M31.015,47.158l-1.181,16.736c-0.271-0.213-0.524-0.43-0.756-0.65c-0.266-0.253-0.5-0.506-0.701-0.758
							l1.181-16.736c0.202,0.252,0.436,0.505,0.701,0.758C30.491,46.729,30.743,46.945,31.015,47.158"/>
						<path fill="#132D5E" d="M29.557,45.75l-1.181,16.736c-0.35-0.438-0.605-0.872-0.77-1.302l1.181-16.736
							C28.952,44.878,29.207,45.313,29.557,45.75"/>
						<path fill="#132B5B" d="M28.788,44.448l-1.181,16.736c-0.032-0.083-0.06-0.167-0.085-0.249l1.181-16.737
							C28.727,44.282,28.755,44.365,28.788,44.448"/>
					</g>
				</g>
				<g>
					<path fill="#1C4087" d="M42.312,45.453c1.468,1.397,4.832,2.418,8.461,2.716l-0.675,4.688c-8.507-0.69-16.403-3.08-19.84-6.349
						c-0.816-0.776-1.328-1.552-1.556-2.309l12.934,0.325C41.772,44.83,41.985,45.142,42.312,45.453z"/>
				</g>
				<g>
					<polygon fill="#7C7E7A" points="56.895,55.682 55.713,72.419 51.925,64.987 53.106,48.251 					"/>
				</g>
				<g>
					<path fill="#B1B4AE" d="M57.49,47.37l3.273,1.405l11.214,4.812c-0.188,0.068-0.379,0.135-0.571,0.199
						c-2.763,0.919-5.988,1.398-8.81,1.646c-2.348,0.205-4.416,0.249-5.702,0.251l-3.788-7.431c-0.154,0.001-0.31,0.001-0.464,0
						c0.155,0.001,0.31,0.001,0.464,0l-0.183-0.356c0.094,0,0.187-0.002,0.278-0.003c0.058-0.001,0.114-0.002,0.171-0.004
						c0.288-0.007,0.574-0.02,0.857-0.037c0.188-0.011,0.377-0.025,0.562-0.042c0.761-0.066,1.493-0.172,2.178-0.319
						c0.111-0.023,0.221-0.048,0.327-0.074C57.362,47.4,57.427,47.385,57.49,47.37z"/>
				</g>
				<g>
					<path fill="#D3D400" d="M50.774,48.169c0.62,0.047,1.247,0.076,1.868,0.082c0.155,0.001,0.31,0.001,0.464,0l3.788,7.431
						l0.792,1.556c-0.136,0.014-0.273,0.027-0.412,0.039c-3.492,0.306-7.577-0.119-7.792-0.142l0.616-4.278L50.774,48.169z"/>
				</g>
				<g enable-background="new    ">
					<defs>
						<path id="SVGID_50_" enable-background="new    " d="M57.687,57.237l-1.181,16.736c-0.136,0.015-0.273,0.027-0.412,0.039
							c-3.493,0.306-7.577-0.119-7.792-0.142l1.181-16.736c0.215,0.022,4.3,0.447,7.792,0.142
							C57.413,57.265,57.551,57.251,57.687,57.237z"/>
					</defs>
					<clipPath id="SVGID_51_">
						<use xlink:href="#SVGID_50_"  overflow="visible"/>
					</clipPath>
					<g clip-path="url(#SVGID_51_)" enable-background="new    ">
						<path fill="#8B8C00" d="M57.687,57.237l-1.181,16.736c-0.136,0.015-0.273,0.027-0.412,0.039
							c-0.05,0.005-0.101,0.009-0.15,0.013l1.181-16.736c0.051-0.004,0.101-0.008,0.15-0.013
							C57.413,57.265,57.551,57.251,57.687,57.237"/>
						<path fill="#8F9000" d="M57.124,57.289l-1.181,16.736c-0.637,0.052-1.291,0.08-1.937,0.092l1.181-16.736
							C55.833,57.369,56.487,57.341,57.124,57.289"/>
						<path fill="#939400" d="M55.188,57.381l-1.181,16.736c-0.923,0.017-1.827-0.002-2.633-0.034l1.181-16.736
							C53.361,57.379,54.265,57.397,55.188,57.381"/>
						<path fill="#979700" d="M52.555,57.347l-1.181,16.736c-1.571-0.063-2.774-0.181-3.03-0.207l1.181-16.736
							C49.78,57.166,50.983,57.283,52.555,57.347"/>
						<path fill="#9B9B00" d="M49.524,57.14l-1.181,16.736c-0.02-0.002-0.034-0.004-0.042-0.005l1.181-16.736
							C49.491,57.136,49.505,57.138,49.524,57.14"/>
					</g>
				</g>
			</g>
		</g>
	</g>
</g>
</svg>
