<?xml version="1.0" encoding="utf-8"?>
<!-- Generator: Adobe Illustrator 16.0.4, SVG Export Plug-In . SVG Version: 6.00 Build 0)  -->
<!DOCTYPE svg PUBLIC "-//W3C//DTD SVG 1.1//EN" "http://www.w3.org/Graphics/SVG/1.1/DTD/svg11.dtd">
<svg version="1.1" id="Layer_1" xmlns="http://www.w3.org/2000/svg" xmlns:xlink="http://www.w3.org/1999/xlink" x="0px" y="0px"
	 width="102.977px" height="102.976px" viewBox="0 0 102.977 102.976" enable-background="new 0 0 102.977 102.976"
	 xml:space="preserve">
<radialGradient id="SVGID_1_" cx="51.4883" cy="51.4878" r="51.4883" gradientUnits="userSpaceOnUse">
	<stop  offset="0" style="stop-color:#13759D"/>
	<stop  offset="1" style="stop-color:#006B94"/>
</radialGradient>
<rect fill="url(#SVGID_1_)" width="102.977" height="102.976"/>
<g>
	<g>
		<path fill="#D8D8D8" d="M84.55,83.284c-0.039,0.06,0.093,0.2-0.095,0.19c-0.108-0.006-0.22-0.002-0.33-0.002
			c-21.388,0-42.778-0.001-64.168,0.009c-0.354,0-0.434-0.079-0.434-0.433c0.011-17.521,0.011-35.041,0-52.562
			c0-0.354,0.08-0.434,0.434-0.434c21.39,0.01,42.78,0.01,64.168,0c0.354,0,0.435,0.079,0.435,0.434
			c-0.011,16.058-0.01,32.115-0.01,48.173c-0.036,0.009-0.07,0.017-0.106,0.024c-1.071-0.025-2.144-0.056-3.214,0.016
			c-0.058-0.011-0.115-0.022-0.172-0.033c-0.015-0.061-0.022-0.125-0.047-0.182c-1.621-3.724-3.252-7.443-4.865-11.172
			c-1.625-3.755-3.228-7.521-4.857-11.275c-0.132-0.302-0.153-0.684-0.486-0.883c-0.181-0.388-0.175-0.817-0.269-1.227
			c-0.36-1.577-0.966-3.062-1.654-4.52c0.119-0.111,0.098-0.258,0.098-0.397c0-5.102-0.001-10.203,0.007-15.305
			c0-0.324-0.099-0.443-0.432-0.438c-0.831,0.017-1.663,0.002-2.495,0c-0.004-0.864-0.031-1.729-0.002-2.593
			c0.015-0.421-0.118-0.529-0.53-0.525c-2.356,0.019-4.715,0.009-7.071,0.009c-6.663,0-13.326,0.004-19.989-0.009
			c-0.412-0.001-0.544,0.104-0.529,0.525c0.028,0.863,0.002,1.729-0.002,2.593c-0.786,0.002-1.572,0.022-2.356-0.002
			c-0.384-0.012-0.478,0.127-0.477,0.489c0.009,4.935,0.006,9.868,0.008,14.803c0,0.166-0.048,0.352,0.12,0.479
			c-0.086,0.185-0.171,0.371-0.259,0.555c-2.787,5.783-2.785,11.562,0.026,17.339c0.637,1.309,1.513,2.458,2.367,3.623
			c-0.012,0.194,0.06,0.364,0.136,0.539c1.092,2.522,2.181,5.048,3.27,7.572c-0.203,0.009-0.407,0.025-0.61,0.025
			c-6.666,0-13.333,0.004-19.998-0.008c-0.403-0.001-0.54,0.079-0.527,0.513c0.035,1.178,0.035,2.358,0,3.536
			c-0.013,0.449,0.134,0.533,0.55,0.532c5.77-0.014,11.54-0.009,17.31-0.009c15.172,0,30.342-0.001,45.515-0.001
			c0.479,0.002,0.959,0.003,1.438,0.006C84.479,83.268,84.514,83.276,84.55,83.284z"/>
		<path fill-rule="evenodd" clip-rule="evenodd" fill="#A5A5A5" d="M84.55,83.284c-0.036-0.008-0.07-0.016-0.106-0.023
			c0.041-1.525,0.042-3.051,0-4.576c0.036-0.008,0.07-0.016,0.106-0.024C84.55,80.201,84.55,81.743,84.55,83.284z"/>
		<path fill-rule="evenodd" clip-rule="evenodd" fill="#818282" d="M68.879,49.409c0.688,1.457,1.294,2.942,1.654,4.52
			c0.094,0.409,0.088,0.839,0.269,1.227c-0.005,0.063-0.023,0.128-0.014,0.188c0.304,1.938,0.295,3.871-0.003,5.812
			c-0.571,3.725-2.126,6.987-4.626,9.787c-2.413,2.703-5.376,4.566-8.858,5.588c-3.041,0.892-6.121,1.011-9.22,0.364
			c-3.915-0.817-7.244-2.703-10.011-5.594c-0.236-0.247-0.407-0.56-0.708-0.746c-0.854-1.165-1.73-2.314-2.367-3.623
			c-2.812-5.776-2.813-11.556-0.026-17.339c0.088-0.184,0.173-0.37,0.259-0.555c0.639-0.966,1.225-1.967,1.97-2.86
			c0.269-0.322,0.614-0.589,0.771-0.999c0.15-0.028,0.239-0.145,0.338-0.243c1.786-1.781,3.807-3.212,6.134-4.21
			c3.63-1.558,7.386-1.917,11.243-1.169c3.873,0.751,7.18,2.581,9.938,5.404c0.118,0.122,0.221,0.271,0.402,0.312
			C67.041,46.606,68.074,47.929,68.879,49.409z M51.97,43.633c-7.962-0.128-14.622,6.552-14.642,14.559
			c-0.019,7.789,6.225,14.671,14.596,14.679c8.158,0.009,14.646-6.448,14.667-14.608C66.613,49.9,59.768,43.539,51.97,43.633z"/>
		<path fill-rule="evenodd" clip-rule="evenodd" fill="#A5A5A5" d="M66.022,45.273c-0.182-0.042-0.284-0.19-0.402-0.312
			c-2.758-2.823-6.064-4.653-9.938-5.404c-3.857-0.748-7.613-0.389-11.243,1.169c-2.327,0.998-4.348,2.429-6.134,4.21
			c-0.099,0.099-0.188,0.215-0.338,0.243c-0.011-0.218-0.029-0.438-0.029-0.656c-0.003-3.751-0.005-7.502-0.006-11.253
			c0.004-0.864,0.03-1.729,0.002-2.593c-0.015-0.421,0.117-0.526,0.529-0.525c6.663,0.013,13.326,0.009,19.989,0.009
			c2.356,0,4.715,0.01,7.071-0.009c0.412-0.004,0.545,0.104,0.53,0.525c-0.029,0.863-0.002,1.729,0.002,2.593
			c-0.002,3.782-0.003,7.564-0.007,11.347C66.05,44.835,66.031,45.054,66.022,45.273z"/>
		<path fill-rule="evenodd" clip-rule="evenodd" fill="#A5A5A5" d="M66.022,41.583c-0.182-0.042-0.284-0.19-0.402-0.312
			c-2.758-2.823-6.064-4.653-9.938-5.404c-3.857-0.748-7.613-0.389-11.243,1.169c-2.327,0.998-4.348,2.429-6.134,4.21
			c-0.099,0.099-0.188,0.215-0.338,0.244c-0.011-0.22-0.029-0.438-0.029-0.657c-0.003-3.751-0.005-7.503-0.006-11.253
			c0.004-0.864,0.03-1.729,0.002-2.593c-0.015-0.421,0.117-0.526,0.529-0.525c6.663,0.013,13.326,0.009,19.989,0.009
			c2.356,0,4.715,0.01,7.071-0.01c0.412-0.003,0.545,0.105,0.53,0.526c-0.029,0.863-0.002,1.729,0.002,2.593
			c-0.002,3.782-0.003,7.564-0.007,11.347C66.05,41.145,66.031,41.364,66.022,41.583z"/>
		<path fill-rule="evenodd" clip-rule="evenodd" fill="#4C4C4C" d="M83.006,83.254c-15.173,0-30.343,0.001-45.515,0.001
			c-5.77,0-11.54-0.005-17.31,0.009c-0.416,0.001-0.562-0.083-0.55-0.532c0.035-1.178,0.035-2.358,0-3.536
			c-0.013-0.434,0.124-0.514,0.527-0.513c6.665,0.012,13.332,0.008,19.998,0.008c0.203,0,0.407-0.017,0.61-0.025
			c0.156,0.006,0.313,0.019,0.471,0.019c13.116,0,26.232,0,39.349,0c0.156,0,0.313-0.012,0.471-0.018
			c0.057,0.011,0.114,0.022,0.172,0.033c0.02,0.449,0.252,0.826,0.416,1.228C82.099,81.037,82.681,82.093,83.006,83.254z"/>
		<path fill-rule="evenodd" clip-rule="evenodd" fill="#D8D8D8" d="M81.058,78.667c-0.157,0.006-0.314,0.018-0.471,0.018
			c-13.116,0-26.232,0-39.349,0c-0.157,0-0.314-0.013-0.471-0.019c-1.089-2.524-2.178-5.05-3.27-7.572
			c-0.076-0.175-0.147-0.345-0.136-0.539c0.301,0.187,0.472,0.499,0.708,0.746c2.767,2.891,6.096,4.776,10.011,5.594
			c3.099,0.646,6.179,0.527,9.22-0.364c3.482-1.021,6.445-2.885,8.858-5.588c2.5-2.8,4.055-6.062,4.626-9.787
			c0.298-1.941,0.307-3.875,0.003-5.812c-0.01-0.06,0.009-0.124,0.014-0.188c0.333,0.199,0.354,0.581,0.486,0.883
			c1.63,3.754,3.232,7.521,4.857,11.275c1.613,3.729,3.244,7.448,4.865,11.172C81.035,78.542,81.043,78.606,81.058,78.667z"/>
		<path fill-rule="evenodd" clip-rule="evenodd" fill="#C2C2C2" d="M66.022,45.273c0.009-0.219,0.027-0.438,0.027-0.657
			c0.004-3.782,0.005-7.564,0.007-11.347c0.832,0.002,1.664,0.017,2.495,0c0.333-0.006,0.432,0.113,0.432,0.438
			c-0.008,5.102-0.007,10.203-0.007,15.305c0,0.14,0.021,0.286-0.098,0.397C68.074,47.929,67.041,46.606,66.022,45.273z"/>
		<path fill-rule="evenodd" clip-rule="evenodd" fill="#C2C2C2" d="M37.933,33.269c0.001,3.751,0.003,7.502,0.006,11.253
			c0,0.219,0.019,0.438,0.029,0.656c-0.156,0.41-0.502,0.677-0.771,0.999c-0.745,0.894-1.331,1.895-1.97,2.86
			c-0.168-0.127-0.12-0.312-0.12-0.479c-0.002-4.935,0.001-9.868-0.008-14.803c-0.001-0.362,0.093-0.501,0.477-0.489
			C36.36,33.292,37.146,33.271,37.933,33.269z"/>
		<path fill-rule="evenodd" clip-rule="evenodd" fill="#4C4C4C" d="M83.006,83.254c-0.325-1.161-0.907-2.218-1.36-3.327
			c-0.164-0.401-0.396-0.778-0.416-1.228c1.07-0.071,2.143-0.041,3.214-0.016c0.042,1.525,0.041,3.051,0,4.576
			C83.965,83.257,83.485,83.256,83.006,83.254z"/>
		<path fill-rule="evenodd" clip-rule="evenodd" fill="#414042" d="M51.97,43.633c7.798-0.095,14.644,6.267,14.621,14.629
			c-0.021,8.16-6.509,14.617-14.667,14.608c-8.371-0.008-14.614-6.89-14.596-14.679C37.348,50.185,44.008,43.505,51.97,43.633z"/>
	</g>
	<path fill="#C2C2C2" d="M58.052,57.487c-1.58,0-3.159-0.603-4.364-1.807c-0.759-0.761-1.998-0.761-2.759,0
		c-2.41,2.41-6.317,2.41-8.728-0.001c-2.409-2.41-2.409-6.317,0.001-8.727c5.574-5.572,14.642-5.571,20.213,0
		c2.41,2.41,2.41,6.317,0,8.728C61.21,56.884,59.631,57.487,58.052,57.487z"/>
	<circle fill-rule="evenodd" clip-rule="evenodd" fill="#C2C2C2" cx="61.985" cy="62.06" r="1.931"/>
	<rect x="23.077" y="27.352" fill-rule="evenodd" clip-rule="evenodd" fill="#A5A5A5" width="9.842" height="2.734"/>
</g>
<linearGradient id="SVGID_2_" gradientUnits="userSpaceOnUse" x1="17.4844" y1="21.4429" x2="104.5904" y2="98.742">
	<stop  offset="0" style="stop-color:#292526"/>
	<stop  offset="1" style="stop-color:#000000"/>
</linearGradient>
<rect x="-0.147" fill="url(#SVGID_2_)" width="102.976" height="102.976"/>
<g>
	<g>
		<g id="XMLID_1_">
			<g>
				<path fill="#FF9D33" d="M94.355,51.507h4.526c0,10.449-3.363,20.104-9.069,27.943l-0.004-0.004l-5.501-3.998
					c4.896-6.717,7.774-14.991,7.774-23.941H94.355z"/>
				<path fill="#5597F3" d="M94.355,51.507h-2.273c0-22.512-18.215-40.728-40.723-40.728V8.506
					C75.12,8.506,94.355,27.742,94.355,51.507z"/>
				<path fill="#547BC2" d="M89.833,51.507h2.249c0,8.95-2.879,17.225-7.774,23.941l-1.822-1.322
					C87.109,67.781,89.833,59.966,89.833,51.507z"/>
				<path fill="#FFC32A" d="M92.082,51.507h-2.249c0-21.259-17.22-38.479-38.474-38.479V10.78
					C73.867,10.78,92.082,28.995,92.082,51.507z"/>
				<path fill="#5597F3" d="M87.556,51.507h2.277c0,8.459-2.724,16.273-7.348,22.619l-1.835-1.336
					C84.996,66.819,87.556,59.462,87.556,51.507z"/>
				<path fill="#FFFFFF" d="M89.833,51.507h-2.277h-2.248c0-18.776-15.177-33.953-33.949-33.953v-2.249v-2.277
					C72.613,13.029,89.833,30.249,89.833,51.507z"/>
				<path fill="#FFFFFF" d="M89.809,79.447l0.004,0.004c-5.837,8.024-14.123,14.145-23.765,17.266v-0.004l-2.102-6.464
					c8.266-2.675,15.368-7.922,20.361-14.8L89.809,79.447z"/>
				<path fill="#5597F3" d="M85.308,51.507h2.248c0,7.955-2.56,15.312-6.905,21.283l-1.819-1.318
					C82.907,65.869,85.308,58.97,85.308,51.507z"/>
				<path fill="#DF4B43" d="M83.034,51.507h2.273c0,7.463-2.4,14.361-6.477,19.965l-1.839-1.34
					C80.798,64.91,83.034,58.475,83.034,51.507z"/>
				<path fill="#FF9D33" d="M85.308,51.507h-2.273c0-17.523-14.156-31.679-31.675-31.679v-2.273
					C70.131,17.555,85.308,32.731,85.308,51.507z"/>
				<path fill="#5597F3" d="M82.485,74.126l1.822,1.322c-4.993,6.878-12.096,12.125-20.361,14.8l-0.692-2.139
					C71.057,85.579,77.763,80.623,82.485,74.126z"/>
				<path fill="#D4DC59" d="M83.034,51.507h-4.526c0-15.016-12.137-27.153-27.149-27.153v-2.273v-2.253
					C68.878,19.828,83.034,33.984,83.034,51.507z"/>
				<path fill="#DF4B43" d="M78.508,51.507h4.526c0,6.968-2.236,13.402-6.042,18.625l-5.489-3.985
					c2.99-4.108,4.752-9.167,4.752-14.64H78.508z"/>
				<path fill="#FF9D33" d="M78.831,71.472l1.819,1.318C76.201,78.898,69.89,83.563,62.55,85.943l-0.697-2.138
					C68.747,81.573,74.666,77.203,78.831,71.472z"/>
				<path fill="#FF9D33" d="M76.992,70.132l1.839,1.34c-4.165,5.73-10.084,10.101-16.979,12.333l-0.7-2.163
					C67.583,79.562,73.109,75.482,76.992,70.132z"/>
				<path fill="#DF5579" d="M78.508,51.507h-2.253h-2.273h-2.249h-2.277c0-10.002-8.098-18.101-18.096-18.101V28.88v-2.273v-2.253
					C66.371,24.354,78.508,36.491,78.508,51.507z"/>
				<path fill="#5597F3" d="M71.503,66.147l5.489,3.985c-3.883,5.35-9.409,9.43-15.84,11.51l-2.097-6.451
					C64.105,73.552,68.447,70.349,71.503,66.147z"/>
				<path fill="#DF4B43" d="M73.981,51.507h2.273c0,5.473-1.762,10.531-4.752,14.64l-1.843-1.34
					C72.38,61.076,73.981,56.484,73.981,51.507z"/>
				<path fill="#DF4B43" d="M71.732,51.507h2.249c0,4.977-1.602,9.568-4.321,13.3l-1.818-1.322
					C70.287,60.122,71.732,55.985,71.732,51.507z"/>
				<path fill="#5597F3" d="M69.455,51.507h2.277c0,4.478-1.445,8.614-3.891,11.978l-1.844-1.34
					C68.173,59.159,69.455,55.485,69.455,51.507z"/>
				<path fill="#FFC32A" d="M69.66,64.807l1.843,1.34c-3.056,4.202-7.397,7.405-12.447,9.044l-0.705-2.163
					C62.942,71.545,66.887,68.629,69.66,64.807z"/>
				<path fill="#FFC32A" d="M67.842,63.485l1.818,1.322c-2.773,3.822-6.718,6.738-11.31,8.221l-0.696-2.142
					C61.787,69.546,65.339,66.925,67.842,63.485z"/>
				<path fill="#5597F3" d="M67.207,51.507h2.248c0,3.978-1.282,7.651-3.457,10.638l-1.822-1.323
					C66.08,58.208,67.207,54.985,67.207,51.507z"/>
				<path fill="#FFC32A" d="M69.455,51.507h-2.248c0-8.749-7.104-15.852-15.848-15.852v-2.249
					C61.357,33.407,69.455,41.505,69.455,51.507z"/>
				<path fill="#FFC32A" d="M65.998,62.145l1.844,1.34c-2.503,3.44-6.055,6.062-10.188,7.401l-0.7-2.163
					C60.624,67.532,63.778,65.201,65.998,62.145z"/>
				<path fill="#5597F3" d="M64.934,51.507h2.273c0,3.478-1.127,6.701-3.031,9.314l-1.84-1.335
					C63.971,57.246,64.934,54.49,64.934,51.507z"/>
				<path fill="#FFFFFF" d="M67.207,51.507h-2.273c0-7.496-6.083-13.579-13.575-13.579v-2.273
					C60.104,35.655,67.207,42.758,67.207,51.507z"/>
				<path fill="#547BC2" d="M66.048,96.712v0.004c-4.625,1.503-9.561,2.314-14.689,2.314v-6.8c4.395,0,8.626-0.696,12.587-1.982
					L66.048,96.712z"/>
				<path fill="#FFC32A" d="M64.176,60.822l1.822,1.323c-2.22,3.056-5.374,5.387-9.044,6.578l-0.696-2.143
					C59.469,65.537,62.229,63.497,64.176,60.822z"/>
				<path fill="#5597F3" d="M62.681,51.507h2.253c0,2.982-0.963,5.738-2.598,7.979l-1.818-1.323
					C61.882,56.295,62.681,53.998,62.681,51.507z"/>
				<path fill="#D4DC59" d="M64.934,51.507h-2.253c0-6.267-5.059-11.326-11.322-11.326v-2.253
					C58.851,37.929,64.934,44.012,64.934,51.507z"/>
				<path fill="#FFC32A" d="M62.336,59.487l1.84,1.335c-1.946,2.675-4.707,4.715-7.918,5.759l-0.705-2.162
					C58.302,63.525,60.669,61.776,62.336,59.487z"/>
				<path fill="#5597F3" d="M62.55,85.943l0.7,2.167c-3.744,1.217-7.742,1.872-11.891,1.872v-2.277
					C55.267,87.705,59.026,87.086,62.55,85.943z"/>
				<path fill="#393D45" d="M60.407,51.507h2.273c0,2.49-0.799,4.788-2.163,6.656l-1.835-1.335
					C59.769,55.337,60.407,53.499,60.407,51.507z"/>
				<path fill="#393D45" d="M62.681,51.507h-2.273c0-5.014-4.039-9.052-9.048-9.052v-2.273
					C57.622,40.182,62.681,45.24,62.681,51.507z"/>
				<path fill="#5597F3" d="M61.853,83.805l0.697,2.138c-3.523,1.144-7.283,1.762-11.191,1.762v-2.249
					C55.024,85.456,58.552,84.878,61.853,83.805z"/>
				<path fill="#D4DC59" d="M60.518,58.164l1.818,1.323c-1.667,2.289-4.034,4.038-6.783,4.932l-0.696-2.143
					C57.159,61.535,59.133,60.077,60.518,58.164z"/>
				<path fill="#5597F3" d="M61.152,81.642l0.7,2.163c-3.301,1.073-6.828,1.65-10.494,1.65v-2.273
					C54.779,83.182,58.072,82.642,61.152,81.642z"/>
				<path fill="#547BC2" d="M59.056,75.191l2.097,6.451c-3.08,1-6.373,1.54-9.793,1.54v-2.253v-2.272v-2.253
					C54.046,76.404,56.631,75.977,59.056,75.191z"/>
				<path fill="#393D45" d="M58.683,56.829l1.835,1.335c-1.385,1.913-3.358,3.371-5.661,4.112l-0.7-2.158
					C55.995,59.524,57.572,58.36,58.683,56.829z"/>
				<path fill="#393D45" d="M58.154,51.507h2.253c0,1.991-0.639,3.83-1.725,5.321l-1.827-1.327
					C57.671,54.383,58.154,53.002,58.154,51.507z"/>
				<path fill="#393D45" d="M60.407,51.507h-2.253c0-3.76-3.039-6.799-6.795-6.799v-2.253
					C56.368,42.455,60.407,46.494,60.407,51.507z"/>
				<path fill="#547BC2" d="M58.351,73.028l0.705,2.163c-2.425,0.786-5.01,1.213-7.697,1.213V74.13
					C53.8,74.13,56.147,73.745,58.351,73.028z"/>
				<path fill="#393D45" d="M56.855,55.501l1.827,1.327c-1.11,1.531-2.688,2.695-4.526,3.289l-0.696-2.146
					C54.841,57.525,56.024,56.648,56.855,55.501z"/>
				<path fill="#547BC2" d="M57.654,70.886l0.696,2.142c-2.203,0.717-4.551,1.103-6.992,1.103v-2.249
					C53.555,71.881,55.672,71.534,57.654,70.886z"/>
				<path fill="#393D45" d="M58.154,51.507h-2.273c0-2.507-2.02-4.526-4.522-4.526v-2.273
					C55.115,44.708,58.154,47.747,58.154,51.507z"/>
				<path fill="#393D45" d="M55.881,51.507h2.273c0,1.495-0.483,2.876-1.299,3.994l-1.839-1.336
					C55.562,53.42,55.881,52.502,55.881,51.507z"/>
				<path fill="#547BC2" d="M56.954,68.723l0.7,2.163c-1.982,0.647-4.1,0.995-6.295,0.995v-2.277
					C53.312,69.604,55.192,69.296,56.954,68.723z"/>
				<path fill="#5597F3" d="M56.258,66.581l0.696,2.143c-1.762,0.573-3.642,0.881-5.595,0.881v-2.249
					C53.066,67.355,54.714,67.084,56.258,66.581z"/>
				<path fill="#393D45" d="M55.017,54.166l1.839,1.336c-0.831,1.146-2.015,2.023-3.396,2.47l-0.704-2.163
					C53.677,55.513,54.464,54.932,55.017,54.166z"/>
				<path fill="#5597F3" d="M55.553,64.418l0.705,2.162c-1.544,0.504-3.191,0.774-4.899,0.774v-2.273
					C52.821,65.082,54.234,64.848,55.553,64.418z"/>
				<path fill="#393D45" d="M51.359,51.507h4.522c0,0.995-0.319,1.913-0.864,2.658L51.359,51.507z"/>
				<path fill="#393D45" d="M55.881,51.507h-4.522v-4.526C53.861,46.981,55.881,49,55.881,51.507z"/>
				<path fill="#5597F3" d="M54.856,62.276l0.696,2.143c-1.318,0.43-2.731,0.663-4.194,0.663v-2.253
					C52.579,62.829,53.755,62.636,54.856,62.276z"/>
				<path fill="#393D45" d="M51.359,51.507l3.658,2.658c-0.553,0.767-1.34,1.348-2.261,1.643L51.359,51.507z"/>
				<path fill="#5597F3" d="M54.156,60.118l0.7,2.158c-1.102,0.36-2.277,0.553-3.498,0.553v-2.272
					C52.334,60.556,53.275,60.404,54.156,60.118z"/>
				<path fill="#5597F3" d="M53.46,57.971l0.696,2.146c-0.881,0.286-1.822,0.438-2.797,0.438v-2.253
					C52.092,58.303,52.801,58.188,53.46,57.971z"/>
				<path fill="#393D45" d="M52.756,55.808l0.704,2.163c-0.659,0.217-1.368,0.332-2.101,0.332V56.03
					C51.846,56.03,52.317,55.952,52.756,55.808z"/>
				<path fill="#393D45" d="M51.359,51.507l1.397,4.301c-0.438,0.144-0.91,0.222-1.397,0.222V51.507z"/>
				<path fill="#547BC2" d="M51.359,89.982v2.249c-22.512,0-40.728-18.216-40.728-40.724h2.249h2.278
					c0,20.001,16.196,36.197,36.201,36.197V89.982z"/>
				<path fill="#FF9D33" d="M51.359,85.456v2.249c-20.005,0-36.201-16.196-36.201-36.197h2.249
					C17.406,70.28,32.583,85.456,51.359,85.456z"/>
				<path fill="#DF5579" d="M51.359,78.657v2.272c-16.27,0-29.426-13.156-29.426-29.422h2.273
					C24.206,66.52,36.342,78.657,51.359,78.657z"/>
				<path fill="#DF5579" d="M51.359,80.929v2.253c-17.523,0-31.679-14.155-31.679-31.675h2.253
					C21.933,67.773,35.089,80.929,51.359,80.929z"/>
				<path fill="#5597F3" d="M51.359,76.404v2.253c-15.017,0-27.153-12.137-27.153-27.149h2.253
					C26.458,65.266,37.596,76.404,51.359,76.404z"/>
				<path fill="#D4DC59" d="M51.359,71.881v2.249c-12.51,0-22.627-10.117-22.627-22.623h2.249h2.277
					c0,9.999,8.098,18.097,18.101,18.097V71.881z"/>
				<path fill="#FF9D33" d="M51.359,67.355v2.249c-10.003,0-18.101-8.098-18.101-18.097h2.249h2.273
					c0,7.492,6.083,13.574,13.579,13.574V67.355z"/>
				<path fill="#DF5579" d="M51.359,62.829v2.253c-7.496,0-13.579-6.082-13.579-13.574h2.253
					C40.033,57.77,45.092,62.829,51.359,62.829z"/>
				<path fill="#FFFFFF" d="M51.359,60.556v2.272c-6.267,0-11.326-5.059-11.326-11.321h2.273
					C42.307,56.517,46.345,60.556,51.359,60.556z"/>
				<path fill="#393D45" d="M51.359,58.303v2.253c-5.014,0-9.052-4.039-9.052-9.049h2.252
					C44.559,55.263,47.599,58.303,51.359,58.303z"/>
				<path fill="#393D45" d="M51.359,56.03v2.273c-3.76,0-6.8-3.04-6.8-6.796h2.273C46.833,54.01,48.852,56.03,51.359,56.03z"/>
				<path fill="#393D45" d="M51.359,51.507v4.522c-2.507,0-4.526-2.02-4.526-4.522H51.359z"/>
				<path fill="#393D45" d="M51.359,46.981v4.526l-1.401-4.309C50.4,47.059,50.867,46.981,51.359,46.981z"/>
				<path fill="#5597F3" d="M51.359,44.708v2.273c-0.492,0-0.958,0.078-1.401,0.217l-0.701-2.159v-0.004
					C49.917,44.823,50.625,44.708,51.359,44.708z"/>
				<path fill="#5597F3" d="M51.359,42.455v2.253c-0.733,0-1.442,0.115-2.102,0.328l-0.696-2.143
					C49.442,42.611,50.38,42.455,51.359,42.455z"/>
				<path fill="#5597F3" d="M51.359,40.182v2.273c-0.979,0-1.917,0.156-2.798,0.438l-0.705-2.158
					C48.958,40.374,50.134,40.182,51.359,40.182z"/>
				<path fill="#5597F3" d="M51.359,37.929v2.253c-1.225,0-2.4,0.192-3.502,0.553l-0.696-2.143
					C48.483,38.162,49.893,37.929,51.359,37.929z"/>
				<path fill="#5597F3" d="M51.359,35.655v2.273c-1.466,0-2.875,0.233-4.199,0.664l-0.7-2.163
					C48.004,35.926,49.651,35.655,51.359,35.655z"/>
				<path fill="#5597F3" d="M51.359,33.407v2.249c-1.708,0-3.355,0.271-4.899,0.774l-0.696-2.142
					C47.525,33.714,49.405,33.407,51.359,33.407z"/>
				<path fill="#DF4B43" d="M51.359,28.88v4.526c-1.954,0-3.834,0.307-5.595,0.881l-0.705-2.163l-0.696-2.142
					C46.566,29.266,48.917,28.88,51.359,28.88z"/>
				<path fill="#DF4B43" d="M51.359,26.607v2.273c-2.441,0-4.792,0.385-6.996,1.102l-0.705-2.163
					C46.083,27.033,48.672,26.607,51.359,26.607z"/>
				<path fill="#DF4B43" d="M51.359,24.354v2.253c-2.687,0-5.276,0.426-7.701,1.212l-0.696-2.143
					C45.604,24.817,48.426,24.354,51.359,24.354z"/>
				<path fill="#5597F3" d="M51.359,22.081v2.273c-2.933,0-5.755,0.463-8.397,1.323l-0.701-2.163
					C45.125,22.581,48.185,22.081,51.359,22.081z"/>
				<path fill="#5597F3" d="M51.359,19.828v2.253c-3.174,0-6.234,0.5-9.098,1.434l-0.696-2.146
					C44.649,20.369,47.938,19.828,51.359,19.828z"/>
				<path fill="#547BC2" d="M51.359,17.555v2.273c-3.42,0-6.709,0.541-9.794,1.54l-1.401-4.297
					c3.523-1.146,7.287-1.765,11.195-1.765V17.555z"/>
				<path fill="#547BC2" d="M51.359,13.029v2.277c-3.908,0-7.672,0.619-11.195,1.765l-0.7-2.167
					C43.212,13.684,47.206,13.029,51.359,13.029z"/>
				<path fill="#FF9D33" d="M51.359,10.78v2.249c-4.153,0-8.147,0.655-11.895,1.876h-0.004l-1.396-4.301
					c4.186-1.364,8.655-2.098,13.296-2.098V10.78z"/>
				<path fill="#FF9D33" d="M51.359,3.98v4.526c-4.641,0-9.11,0.733-13.296,2.098l-1.397-4.301l-0.004-0.008
					C41.291,4.792,46.227,3.98,51.359,3.98z"/>
				<path fill="#393D45" d="M49.958,47.198l1.401,4.309l-2.663-3.666C49.077,47.567,49.499,47.35,49.958,47.198z"/>
				<path fill="#393D45" d="M48.696,47.841l2.663,3.666l-3.666-2.663C47.976,48.46,48.312,48.124,48.696,47.841z"/>
				<path fill="#393D45" d="M51.359,51.507h-4.526c0-0.492,0.078-0.958,0.217-1.401L51.359,51.507z"/>
				<path fill="#393D45" d="M51.359,51.507l-4.309-1.401c0.151-0.458,0.369-0.88,0.643-1.262L51.359,51.507z"/>
				<path fill="#5597F3" d="M49.257,45.04l0.701,2.159c-0.459,0.152-0.881,0.369-1.262,0.643l-1.335-1.839
					C47.93,45.588,48.569,45.261,49.257,45.04z"/>
				<path fill="#5597F3" d="M49.257,45.036v0.004c-0.688,0.221-1.327,0.549-1.896,0.963l-1.327-1.823
					c0.758-0.553,1.61-0.992,2.527-1.287L49.257,45.036z"/>
				<path fill="#D4DC59" d="M47.361,46.002l1.335,1.839c-0.385,0.283-0.721,0.619-1.003,1.003l-1.839-1.335
					C46.275,46.932,46.784,46.424,47.361,46.002z"/>
				<path fill="#FFFFFF" d="M47.856,40.735l0.705,2.158c-0.917,0.295-1.77,0.733-2.527,1.287l-1.331-1.835
					C45.653,41.648,46.714,41.104,47.856,40.735z"/>
				<path fill="#FFFFFF" d="M47.16,38.592l0.696,2.143c-1.143,0.369-2.204,0.913-3.154,1.609l-1.323-1.818
					C44.519,39.69,45.792,39.035,47.16,38.592z"/>
				<path fill="#393D45" d="M45.854,47.51l1.839,1.335c-0.274,0.381-0.492,0.803-0.643,1.262l-2.159-0.7
					C45.112,48.718,45.44,48.079,45.854,47.51z"/>
				<path fill="#D4DC59" d="M46.034,44.18l1.327,1.823c-0.577,0.422-1.085,0.93-1.507,1.507l-1.823-1.327
					C44.588,45.413,45.264,44.736,46.034,44.18z"/>
				<path fill="#FFFFFF" d="M46.46,36.43l0.7,2.163c-1.368,0.442-2.642,1.098-3.781,1.934l-1.339-1.843
					C43.372,37.716,44.862,36.946,46.46,36.43z"/>
				<path fill="#393D45" d="M44.891,49.406l2.159,0.7c-0.139,0.442-0.217,0.909-0.217,1.401h-2.273c0-0.733,0.115-1.442,0.328-2.101
					H44.891z"/>
				<path fill="#FFFFFF" d="M45.764,34.288l0.696,2.142c-1.598,0.516-3.088,1.286-4.42,2.253l-1.323-1.823
					C42.237,35.754,43.937,34.877,45.764,34.288z"/>
				<path fill="#D4DC59" d="M44.703,42.344l1.331,1.835c-0.77,0.557-1.446,1.233-2.003,2.003l-1.835-1.332
					C42.888,43.885,43.736,43.037,44.703,42.344z"/>
				<path fill="#393D45" d="M44.031,46.183l1.823,1.327c-0.414,0.569-0.741,1.208-0.962,1.896h-0.004l-2.143-0.696
					C43.04,47.792,43.478,46.94,44.031,46.183z"/>
				<path fill="#5597F3" d="M45.059,32.125l0.705,2.163c-1.827,0.59-3.527,1.466-5.046,2.572l-1.335-1.839
					C41.09,33.775,43.003,32.788,45.059,32.125z"/>
				<path fill="#5597F3" d="M44.363,29.982l0.696,2.142c-2.056,0.664-3.969,1.651-5.677,2.896l-1.327-1.823
					C39.955,31.813,42.077,30.72,44.363,29.982z"/>
				<path fill="#393D45" d="M42.745,48.71l2.143,0.696c-0.213,0.659-0.328,1.368-0.328,2.101h-2.252
					C42.307,50.528,42.462,49.59,42.745,48.71z"/>
				<path fill="#5597F3" d="M43.379,40.526l1.323,1.818c-0.967,0.692-1.814,1.541-2.507,2.507l-1.819-1.323
					C41.213,42.377,42.229,41.361,43.379,40.526z"/>
				<path fill="#DF4B43" d="M43.658,27.82l0.705,2.163c-2.286,0.737-4.408,1.831-6.308,3.215l-1.335-1.839
					C38.809,29.839,41.147,28.635,43.658,27.82z"/>
				<path fill="#393D45" d="M42.196,44.851l1.835,1.332c-0.553,0.758-0.991,1.61-1.286,2.527l-2.159-0.705
					C40.955,46.862,41.5,45.802,42.196,44.851z"/>
				<path fill="#5597F3" d="M42.962,25.677l0.696,2.143c-2.511,0.815-4.85,2.019-6.939,3.539l-1.327-1.823
					C37.674,27.873,40.222,26.562,42.962,25.677z"/>
				<path fill="#5597F3" d="M42.04,38.683l1.339,1.843c-1.151,0.835-2.167,1.852-3.002,3.002l-1.843-1.339
					C39.513,40.845,40.697,39.662,42.04,38.683z"/>
				<path fill="#DF4B43" d="M42.261,23.515l0.701,2.163c-2.74,0.885-5.288,2.196-7.57,3.859l-1.335-1.839
					C36.527,25.895,39.288,24.473,42.261,23.515z"/>
				<path fill="#5597F3" d="M40.586,48.005l2.159,0.705c-0.283,0.88-0.438,1.818-0.438,2.797h-2.273
					C40.033,50.283,40.226,49.107,40.586,48.005z"/>
				<path fill="#DF4B43" d="M41.565,21.368l0.696,2.146c-2.974,0.958-5.734,2.38-8.204,4.182L32.73,25.87
					C35.392,23.933,38.366,22.4,41.565,21.368z"/>
				<path fill="#5597F3" d="M40.377,43.528l1.819,1.323c-0.696,0.951-1.241,2.011-1.61,3.154l-2.142-0.696
					C38.886,45.941,39.542,44.667,40.377,43.528z"/>
				<path fill="#DF4B43" d="M40.717,36.86l1.323,1.823c-1.343,0.979-2.527,2.163-3.506,3.506l-1.823-1.323
					C37.83,39.33,39.181,37.978,40.717,36.86z"/>
				<path fill="#DF4B43" d="M40.164,17.071l1.401,4.297c-3.199,1.032-6.173,2.564-8.835,4.502l-2.654-3.654
					C33.115,20.004,36.51,18.255,40.164,17.071z"/>
				<path fill="#DF4B43" d="M39.382,35.021l1.335,1.839c-1.536,1.118-2.888,2.47-4.006,4.006l-1.839-1.335
					C36.129,37.802,37.653,36.278,39.382,35.021z"/>
				<path fill="#5597F3" d="M38.444,47.309l2.142,0.696c-0.36,1.102-0.553,2.277-0.553,3.502H37.78
					C37.78,50.041,38.014,48.632,38.444,47.309z"/>
				<path fill="#FFC32A" d="M38.534,42.189l1.843,1.339c-0.835,1.139-1.491,2.413-1.933,3.781l-2.163-0.701
					C36.797,45.011,37.567,43.52,38.534,42.189z"/>
				<path fill="#5597F3" d="M39.464,14.905l0.7,2.167c-3.654,1.184-7.049,2.933-10.088,5.145l-1.335-1.839
					c3.228-2.355,6.84-4.215,10.719-5.472H39.464z"/>
				<path fill="#547BC2" d="M38.063,10.604l1.396,4.301c-3.879,1.257-7.492,3.117-10.719,5.472l-2.663-3.666
					C29.687,14.085,33.725,12.005,38.063,10.604z"/>
				<path fill="#DF4B43" d="M38.055,33.198l1.327,1.823c-1.729,1.258-3.252,2.781-4.51,4.51l-1.823-1.327
					C34.442,36.282,36.134,34.59,38.055,33.198z"/>
				<path fill="#FFC32A" d="M36.711,40.866l1.823,1.323c-0.967,1.331-1.737,2.822-2.253,4.419l-2.143-0.696
					C34.729,44.085,35.605,42.385,36.711,40.866z"/>
				<path fill="#5597F3" d="M36.281,46.608l2.163,0.701c-0.43,1.323-0.664,2.732-0.664,4.198h-2.273L36.281,46.608z"/>
				<path fill="#FFFFFF" d="M36.666,6.303l1.397,4.301c-4.338,1.401-8.376,3.481-11.985,6.107c-3.649,2.654-6.861,5.866-9.515,9.515
					l-3.658-2.658l-0.008-0.004C18.733,15.54,27.02,9.416,36.662,6.295L36.666,6.303z"/>
				<path fill="#DF4B43" d="M36.719,31.359l1.335,1.839c-1.921,1.393-3.613,3.084-5.005,5.005l-1.839-1.335
					C32.746,34.754,34.606,32.895,36.719,31.359z"/>
				<path fill="#FF9D33" d="M35.392,29.536l1.327,1.823c-2.113,1.536-3.973,3.396-5.509,5.509l-1.823-1.327
					C31.059,33.235,33.086,31.207,35.392,29.536z"/>
				<path fill="#FFC32A" d="M34.872,39.53l1.839,1.335c-1.105,1.52-1.982,3.22-2.572,5.046l-2.163-0.705
					C32.64,43.151,33.627,41.238,34.872,39.53z"/>
				<path fill="#5597F3" d="M36.281,46.608l-0.774,4.899C35.507,49.799,35.777,48.153,36.281,46.608z"/>
				<path fill="#5597F3" d="M34.139,45.912l2.143,0.696c-0.504,1.544-0.774,3.191-0.774,4.899h-2.249
					C33.258,49.554,33.565,47.673,34.139,45.912z"/>
				<path fill="#5597F3" d="M34.057,27.697l1.335,1.839c-2.306,1.671-4.333,3.699-6.005,6.005l-1.839-1.335
					C29.359,31.707,31.558,29.507,34.057,27.697z"/>
				<path fill="#FFC32A" d="M33.049,38.203l1.823,1.327c-1.245,1.708-2.232,3.621-2.896,5.677l-2.142-0.696
					C30.571,42.226,31.665,40.104,33.049,38.203z"/>
				<path fill="#5597F3" d="M31.976,45.208l2.163,0.705c-0.573,1.761-0.88,3.642-0.88,5.595h-2.277
					C30.981,49.308,31.329,47.19,31.976,45.208z"/>
				<path fill="#5597F3" d="M32.73,25.87l1.327,1.827c-2.499,1.811-4.698,4.01-6.509,6.509l-1.827-1.327
					C27.671,30.187,30.039,27.82,32.73,25.87z"/>
				<path fill="#5597F3" d="M31.21,36.868l1.839,1.335c-1.385,1.901-2.478,4.022-3.215,6.308l-2.163-0.705
					C28.486,41.296,29.69,38.957,31.21,36.868z"/>
				<path fill="#5597F3" d="M30.076,22.216l2.654,3.654c-2.691,1.95-5.059,4.317-7.009,7.008l-3.653-2.654
					C24.3,27.152,27.003,24.449,30.076,22.216z"/>
				<path fill="#5597F3" d="M29.834,44.511l2.142,0.696c-0.647,1.982-0.995,4.1-0.995,6.3h-2.249L29.834,44.511z"/>
				<path fill="#FF9D33" d="M29.387,35.541l1.823,1.327c-1.52,2.089-2.724,4.428-3.539,6.938l-2.142-0.696
					C26.414,40.37,27.724,37.822,29.387,35.541z"/>
				<path fill="#D4DC59" d="M29.834,44.511l-1.102,6.996C28.732,49.066,29.117,46.715,29.834,44.511z"/>
				<path fill="#FFC32A" d="M27.671,43.807l2.163,0.705c-0.717,2.204-1.102,4.555-1.102,6.996h-2.273h-2.253h-2.273
					c0-3.174,0.5-6.234,1.434-9.097l2.163,0.7L27.671,43.807z"/>
				<path fill="#FF9D33" d="M27.548,34.206l1.839,1.335c-1.663,2.281-2.974,4.829-3.858,7.569l-2.163-0.7
					C24.325,39.436,25.746,36.675,27.548,34.206z"/>
				<path fill="#5597F3" d="M26.078,16.711l2.663,3.666c-3.265,2.372-6.14,5.247-8.512,8.512l-3.666-2.663
					C19.217,22.577,22.428,19.365,26.078,16.711z"/>
				<path fill="#FF9D33" d="M25.721,32.878l1.827,1.327c-1.802,2.47-3.224,5.23-4.182,8.205l-2.146-0.696
					C22.252,38.515,23.784,35.541,25.721,32.878z"/>
				<path fill="#FF9D33" d="M22.068,30.224l3.653,2.654c-1.938,2.663-3.469,5.636-4.501,8.835l-4.297-1.401
					C18.107,36.659,19.856,33.263,22.068,30.224z"/>
				<path fill="#FFC32A" d="M21.22,41.714l2.146,0.696c-0.934,2.863-1.434,5.923-1.434,9.097H19.68
					C19.68,48.087,20.22,44.798,21.22,41.714z"/>
				<path fill="#FF9D33" d="M20.229,28.889l1.839,1.335c-2.212,3.039-3.961,6.435-5.145,10.089l-2.167-0.705
					C16.014,35.729,17.873,32.117,20.229,28.889z"/>
				<path fill="#FFC32A" d="M16.923,40.313l4.297,1.401c-1,3.084-1.54,6.373-1.54,9.793h-2.273h-2.249
					C15.158,47.6,15.776,43.835,16.923,40.313z"/>
				<path fill="#FFC32A" d="M16.562,26.226l3.666,2.663c-2.355,3.228-4.215,6.84-5.473,10.72l-4.301-1.397
					C11.856,33.874,13.937,29.835,16.562,26.226z"/>
				<path fill="#FFC32A" d="M14.756,39.608l2.167,0.705c-1.147,3.522-1.765,7.287-1.765,11.194H12.88
					C12.88,47.354,13.536,43.356,14.756,39.608z"/>
				<path fill="#FFC32A" d="M12.905,23.568l3.658,2.658c-2.625,3.609-4.707,7.647-6.107,11.985l-4.301-1.396l-0.008-0.004
					c1.553-4.796,3.846-9.257,6.75-13.247L12.905,23.568z"/>
				<path fill="#5597F3" d="M10.455,38.211l4.301,1.397c-1.22,3.748-1.876,7.746-1.876,11.899h-2.249H8.358
					C8.358,46.867,9.091,42.397,10.455,38.211z"/>
				<path fill="#FFC32A" d="M6.154,36.815l4.301,1.396c-1.364,4.186-2.097,8.655-2.097,13.296H3.832
					c0-5.132,0.811-10.068,2.314-14.697L6.154,36.815z"/>
			</g>
			<g>
			</g>
		</g>
	</g>
</g>
</svg>
