<?xml version="1.0" encoding="utf-8"?>
<!-- Generator: Adobe Illustrator 16.0.4, SVG Export Plug-In . SVG Version: 6.00 Build 0)  -->
<!DOCTYPE svg PUBLIC "-//W3C//DTD SVG 1.1//EN" "http://www.w3.org/Graphics/SVG/1.1/DTD/svg11.dtd">
<svg version="1.1" id="Layer_1" xmlns="http://www.w3.org/2000/svg" xmlns:xlink="http://www.w3.org/1999/xlink" x="0px" y="0px"
	 width="102.977px" height="102.976px" viewBox="0 0 102.977 102.976" enable-background="new 0 0 102.977 102.976"
	 xml:space="preserve">
<radialGradient id="SVGID_1_" cx="51.4883" cy="51.4878" r="51.4883" gradientUnits="userSpaceOnUse">
	<stop  offset="0" style="stop-color:#13759D"/>
	<stop  offset="1" style="stop-color:#006B94"/>
</radialGradient>
<rect fill="url(#SVGID_1_)" width="102.977" height="102.976"/>
<g>
	<g>
		<path fill="#D8D8D8" d="M84.55,83.284c-0.039,0.06,0.093,0.2-0.095,0.19c-0.108-0.006-0.22-0.002-0.33-0.002
			c-21.388,0-42.778-0.001-64.168,0.009c-0.354,0-0.434-0.079-0.434-0.433c0.011-17.521,0.011-35.041,0-52.562
			c0-0.354,0.08-0.434,0.434-0.434c21.39,0.01,42.78,0.01,64.168,0c0.354,0,0.435,0.079,0.435,0.434
			c-0.011,16.058-0.01,32.115-0.01,48.173c-0.036,0.009-0.07,0.017-0.106,0.024c-1.071-0.025-2.144-0.056-3.214,0.016
			c-0.058-0.011-0.115-0.022-0.172-0.033c-0.015-0.061-0.022-0.125-0.047-0.182c-1.621-3.724-3.252-7.443-4.865-11.172
			c-1.625-3.755-3.228-7.521-4.857-11.275c-0.132-0.302-0.153-0.684-0.486-0.883c-0.181-0.388-0.175-0.817-0.269-1.227
			c-0.36-1.577-0.966-3.062-1.654-4.52c0.119-0.111,0.098-0.258,0.098-0.397c0-5.102-0.001-10.203,0.007-15.305
			c0-0.324-0.099-0.443-0.432-0.438c-0.831,0.017-1.663,0.002-2.495,0c-0.004-0.864-0.031-1.729-0.002-2.593
			c0.015-0.421-0.118-0.529-0.53-0.525c-2.356,0.019-4.715,0.009-7.071,0.009c-6.663,0-13.326,0.004-19.989-0.009
			c-0.412-0.001-0.544,0.104-0.529,0.525c0.028,0.863,0.002,1.729-0.002,2.593c-0.786,0.002-1.572,0.022-2.356-0.002
			c-0.384-0.012-0.478,0.127-0.477,0.489c0.009,4.935,0.006,9.868,0.008,14.803c0,0.166-0.048,0.352,0.12,0.479
			c-0.086,0.185-0.171,0.371-0.259,0.555c-2.787,5.783-2.785,11.562,0.026,17.339c0.637,1.309,1.513,2.458,2.367,3.623
			c-0.012,0.194,0.06,0.364,0.136,0.539c1.092,2.522,2.181,5.048,3.27,7.572c-0.203,0.009-0.407,0.025-0.61,0.025
			c-6.666,0-13.333,0.004-19.998-0.008c-0.403-0.001-0.54,0.079-0.527,0.513c0.035,1.178,0.035,2.358,0,3.536
			c-0.013,0.449,0.134,0.533,0.55,0.532c5.77-0.014,11.54-0.009,17.31-0.009c15.172,0,30.342-0.001,45.515-0.001
			c0.479,0.002,0.959,0.003,1.438,0.006C84.479,83.268,84.514,83.276,84.55,83.284z"/>
		<path fill-rule="evenodd" clip-rule="evenodd" fill="#A5A5A5" d="M84.55,83.284c-0.036-0.008-0.07-0.016-0.106-0.023
			c0.041-1.525,0.042-3.051,0-4.576c0.036-0.008,0.07-0.016,0.106-0.024C84.55,80.201,84.55,81.743,84.55,83.284z"/>
		<path fill-rule="evenodd" clip-rule="evenodd" fill="#818282" d="M68.879,49.409c0.688,1.457,1.294,2.942,1.654,4.52
			c0.094,0.409,0.088,0.839,0.269,1.227c-0.005,0.063-0.023,0.128-0.014,0.188c0.304,1.938,0.295,3.871-0.003,5.812
			c-0.571,3.725-2.126,6.987-4.626,9.787c-2.413,2.703-5.376,4.566-8.858,5.588c-3.041,0.892-6.121,1.011-9.22,0.364
			c-3.915-0.817-7.244-2.703-10.011-5.594c-0.236-0.247-0.407-0.56-0.708-0.746c-0.854-1.165-1.73-2.314-2.367-3.623
			c-2.812-5.776-2.813-11.556-0.026-17.339c0.088-0.184,0.173-0.37,0.259-0.555c0.639-0.966,1.225-1.967,1.97-2.86
			c0.269-0.322,0.614-0.589,0.771-0.999c0.15-0.028,0.239-0.145,0.338-0.243c1.786-1.781,3.807-3.212,6.134-4.21
			c3.63-1.558,7.386-1.917,11.243-1.169c3.873,0.751,7.18,2.581,9.938,5.404c0.118,0.122,0.221,0.271,0.402,0.312
			C67.041,46.606,68.074,47.929,68.879,49.409z M51.97,43.633c-7.962-0.128-14.622,6.552-14.642,14.559
			c-0.019,7.789,6.225,14.671,14.596,14.679c8.158,0.009,14.646-6.448,14.667-14.608C66.613,49.9,59.768,43.539,51.97,43.633z"/>
		<path fill-rule="evenodd" clip-rule="evenodd" fill="#A5A5A5" d="M66.022,45.273c-0.182-0.042-0.284-0.19-0.402-0.312
			c-2.758-2.823-6.064-4.653-9.938-5.404c-3.857-0.748-7.613-0.389-11.243,1.169c-2.327,0.998-4.348,2.429-6.134,4.21
			c-0.099,0.099-0.188,0.215-0.338,0.243c-0.011-0.218-0.029-0.438-0.029-0.656c-0.003-3.751-0.005-7.502-0.006-11.253
			c0.004-0.864,0.03-1.729,0.002-2.593c-0.015-0.421,0.117-0.526,0.529-0.525c6.663,0.013,13.326,0.009,19.989,0.009
			c2.356,0,4.715,0.01,7.071-0.009c0.412-0.004,0.545,0.104,0.53,0.525c-0.029,0.863-0.002,1.729,0.002,2.593
			c-0.002,3.782-0.003,7.564-0.007,11.347C66.05,44.835,66.031,45.054,66.022,45.273z"/>
		<path fill-rule="evenodd" clip-rule="evenodd" fill="#A5A5A5" d="M66.022,41.583c-0.182-0.042-0.284-0.19-0.402-0.312
			c-2.758-2.823-6.064-4.653-9.938-5.404c-3.857-0.748-7.613-0.389-11.243,1.169c-2.327,0.998-4.348,2.429-6.134,4.21
			c-0.099,0.099-0.188,0.215-0.338,0.244c-0.011-0.22-0.029-0.438-0.029-0.657c-0.003-3.751-0.005-7.503-0.006-11.253
			c0.004-0.864,0.03-1.729,0.002-2.593c-0.015-0.421,0.117-0.526,0.529-0.525c6.663,0.013,13.326,0.009,19.989,0.009
			c2.356,0,4.715,0.01,7.071-0.01c0.412-0.003,0.545,0.105,0.53,0.526c-0.029,0.863-0.002,1.729,0.002,2.593
			c-0.002,3.782-0.003,7.564-0.007,11.347C66.05,41.145,66.031,41.364,66.022,41.583z"/>
		<path fill-rule="evenodd" clip-rule="evenodd" fill="#4C4C4C" d="M83.006,83.254c-15.173,0-30.343,0.001-45.515,0.001
			c-5.77,0-11.54-0.005-17.31,0.009c-0.416,0.001-0.562-0.083-0.55-0.532c0.035-1.178,0.035-2.358,0-3.536
			c-0.013-0.434,0.124-0.514,0.527-0.513c6.665,0.012,13.332,0.008,19.998,0.008c0.203,0,0.407-0.017,0.61-0.025
			c0.156,0.006,0.313,0.019,0.471,0.019c13.116,0,26.232,0,39.349,0c0.156,0,0.313-0.012,0.471-0.018
			c0.057,0.011,0.114,0.022,0.172,0.033c0.02,0.449,0.252,0.826,0.416,1.228C82.099,81.037,82.681,82.093,83.006,83.254z"/>
		<path fill-rule="evenodd" clip-rule="evenodd" fill="#D8D8D8" d="M81.058,78.667c-0.157,0.006-0.314,0.018-0.471,0.018
			c-13.116,0-26.232,0-39.349,0c-0.157,0-0.314-0.013-0.471-0.019c-1.089-2.524-2.178-5.05-3.27-7.572
			c-0.076-0.175-0.147-0.345-0.136-0.539c0.301,0.187,0.472,0.499,0.708,0.746c2.767,2.891,6.096,4.776,10.011,5.594
			c3.099,0.646,6.179,0.527,9.22-0.364c3.482-1.021,6.445-2.885,8.858-5.588c2.5-2.8,4.055-6.062,4.626-9.787
			c0.298-1.941,0.307-3.875,0.003-5.812c-0.01-0.06,0.009-0.124,0.014-0.188c0.333,0.199,0.354,0.581,0.486,0.883
			c1.63,3.754,3.232,7.521,4.857,11.275c1.613,3.729,3.244,7.448,4.865,11.172C81.035,78.542,81.043,78.606,81.058,78.667z"/>
		<path fill-rule="evenodd" clip-rule="evenodd" fill="#C2C2C2" d="M66.022,45.273c0.009-0.219,0.027-0.438,0.027-0.657
			c0.004-3.782,0.005-7.564,0.007-11.347c0.832,0.002,1.664,0.017,2.495,0c0.333-0.006,0.432,0.113,0.432,0.438
			c-0.008,5.102-0.007,10.203-0.007,15.305c0,0.14,0.021,0.286-0.098,0.397C68.074,47.929,67.041,46.606,66.022,45.273z"/>
		<path fill-rule="evenodd" clip-rule="evenodd" fill="#C2C2C2" d="M37.933,33.269c0.001,3.751,0.003,7.502,0.006,11.253
			c0,0.219,0.019,0.438,0.029,0.656c-0.156,0.41-0.502,0.677-0.771,0.999c-0.745,0.894-1.331,1.895-1.97,2.86
			c-0.168-0.127-0.12-0.312-0.12-0.479c-0.002-4.935,0.001-9.868-0.008-14.803c-0.001-0.362,0.093-0.501,0.477-0.489
			C36.36,33.292,37.146,33.271,37.933,33.269z"/>
		<path fill-rule="evenodd" clip-rule="evenodd" fill="#4C4C4C" d="M83.006,83.254c-0.325-1.161-0.907-2.218-1.36-3.327
			c-0.164-0.401-0.396-0.778-0.416-1.228c1.07-0.071,2.143-0.041,3.214-0.016c0.042,1.525,0.041,3.051,0,4.576
			C83.965,83.257,83.485,83.256,83.006,83.254z"/>
		<path fill-rule="evenodd" clip-rule="evenodd" fill="#414042" d="M51.97,43.633c7.798-0.095,14.644,6.267,14.621,14.629
			c-0.021,8.16-6.509,14.617-14.667,14.608c-8.371-0.008-14.614-6.89-14.596-14.679C37.348,50.185,44.008,43.505,51.97,43.633z"/>
	</g>
	<path fill="#C2C2C2" d="M58.052,57.487c-1.58,0-3.159-0.603-4.364-1.807c-0.759-0.761-1.998-0.761-2.759,0
		c-2.41,2.41-6.317,2.41-8.728-0.001c-2.409-2.41-2.409-6.317,0.001-8.727c5.574-5.572,14.642-5.571,20.213,0
		c2.41,2.41,2.41,6.317,0,8.728C61.21,56.884,59.631,57.487,58.052,57.487z"/>
	<circle fill-rule="evenodd" clip-rule="evenodd" fill="#C2C2C2" cx="61.985" cy="62.06" r="1.931"/>
	<rect x="23.077" y="27.352" fill-rule="evenodd" clip-rule="evenodd" fill="#A5A5A5" width="9.842" height="2.734"/>
</g>
<linearGradient id="SVGID_2_" gradientUnits="userSpaceOnUse" x1="17.4844" y1="21.4429" x2="104.5904" y2="98.742">
	<stop  offset="0" style="stop-color:#292526"/>
	<stop  offset="1" style="stop-color:#000000"/>
</linearGradient>
<rect x="-0.147" fill="url(#SVGID_2_)" width="102.976" height="102.976"/>
<g>
	<g>
		<g>
			<g id="XMLID_1_">
				<g>
					<path fill="#FF9D33" d="M88.981,51.219h3.878c0,8.952-2.881,17.224-7.77,23.94l-0.004-0.004l-4.713-3.425
						c4.193-5.756,6.661-12.844,6.661-20.512H88.981z"/>
					<path fill="#5597F3" d="M88.981,51.219h-1.947c0-19.287-15.606-34.893-34.89-34.893v-1.948
						C72.502,14.379,88.981,30.858,88.981,51.219z"/>
					<path fill="#547BC2" d="M85.107,51.219h1.927c0,7.668-2.468,14.756-6.661,20.512l-1.562-1.134
						C82.773,65.162,85.107,58.465,85.107,51.219z"/>
					<path fill="#FFC32A" d="M87.034,51.219h-1.927c0-18.213-14.753-32.966-32.963-32.966v-1.927
						C71.428,16.327,87.034,31.932,87.034,51.219z"/>
					<path fill="#5597F3" d="M83.156,51.219h1.951c0,7.246-2.334,13.942-6.296,19.378l-1.572-1.144
						C80.963,64.336,83.156,58.034,83.156,51.219z"/>
					<path fill="#FFFFFF" d="M85.107,51.219h-1.951h-1.927c0-16.086-13.002-29.088-29.085-29.088v-1.926v-1.951
						C70.354,18.253,85.107,33.006,85.107,51.219z"/>
					<path fill="#FFFFFF" d="M85.086,75.156l0.004,0.004c-5.001,6.874-12.1,12.117-20.36,14.791v-0.004l-1.801-5.537
						c7.082-2.292,13.167-6.787,17.444-12.679L85.086,75.156z"/>
					<path fill="#5597F3" d="M81.229,51.219h1.927c0,6.814-2.193,13.117-5.917,18.234l-1.558-1.131
						C79.173,63.523,81.229,57.613,81.229,51.219z"/>
					<path fill="#DF4B43" d="M79.282,51.219h1.947c0,6.394-2.057,12.304-5.548,17.104l-1.576-1.147
						C77.366,62.702,79.282,57.188,79.282,51.219z"/>
					<path fill="#FF9D33" d="M81.229,51.219h-1.947c0-15.013-12.128-27.141-27.138-27.141v-1.948
						C68.228,22.131,81.229,35.133,81.229,51.219z"/>
					<path fill="#5597F3" d="M78.812,70.597l1.562,1.134c-4.277,5.892-10.362,10.387-17.444,12.679l-0.593-1.832
						C69.021,80.409,74.766,76.163,78.812,70.597z"/>
					<path fill="#D4DC59" d="M79.282,51.219h-3.878c0-12.865-10.398-23.263-23.26-23.263v-1.948v-1.93
						C67.154,24.079,79.282,36.207,79.282,51.219z"/>
					<path fill="#DF4B43" d="M75.404,51.219h3.878c0,5.969-1.916,11.482-5.177,15.956l-4.702-3.414
						c2.562-3.52,4.07-7.854,4.07-12.542H75.404z"/>
					<path fill="#FF9D33" d="M75.682,68.323l1.558,1.131c-3.811,5.231-9.219,9.229-15.507,11.268l-0.597-1.832
						C67.042,76.977,72.112,73.233,75.682,68.323z"/>
					<path fill="#FF9D33" d="M74.105,67.175l1.576,1.147c-3.569,4.91-8.64,8.654-14.546,10.566l-0.601-1.853
						C66.045,75.254,70.779,71.758,74.105,67.175z"/>
					<path fill="#DF5579" d="M75.404,51.219h-1.931h-1.947H69.6h-1.951c0-8.57-6.938-15.507-15.504-15.507v-3.878v-1.948v-1.93
						C65.006,27.957,75.404,38.354,75.404,51.219z"/>
					<path fill="#5597F3" d="M69.403,63.761l4.702,3.414c-3.326,4.583-8.061,8.079-13.57,9.861l-1.797-5.527
						C63.065,70.106,66.785,67.362,69.403,63.761z"/>
					<path fill="#DF4B43" d="M71.526,51.219h1.947c0,4.688-1.509,9.022-4.07,12.542l-1.579-1.147
						C70.154,59.417,71.526,55.483,71.526,51.219z"/>
					<path fill="#DF4B43" d="M69.6,51.219h1.927c0,4.264-1.372,8.197-3.702,11.395l-1.559-1.134
						C68.361,58.599,69.6,55.055,69.6,51.219z"/>
					<path fill="#5597F3" d="M67.648,51.219H69.6c0,3.836-1.238,7.38-3.334,10.261l-1.579-1.147
						C66.551,57.774,67.648,54.626,67.648,51.219z"/>
					<path fill="#FFC32A" d="M67.824,62.614l1.579,1.147c-2.618,3.601-6.338,6.345-10.665,7.748l-0.604-1.853
						C62.069,68.386,65.448,65.888,67.824,62.614z"/>
					<path fill="#FFC32A" d="M66.266,61.48l1.559,1.134c-2.376,3.274-5.755,5.772-9.689,7.043l-0.596-1.835
						C61.079,66.674,64.122,64.428,66.266,61.48z"/>
					<path fill="#5597F3" d="M65.722,51.219h1.927c0,3.407-1.098,6.555-2.962,9.113l-1.562-1.134
						C64.757,56.96,65.722,54.199,65.722,51.219z"/>
					<path fill="#FFC32A" d="M67.648,51.219h-1.927c0-7.496-6.085-13.581-13.577-13.581v-1.926
						C60.711,35.712,67.648,42.649,67.648,51.219z"/>
					<path fill="#FFC32A" d="M64.687,60.333l1.579,1.147c-2.144,2.948-5.187,5.194-8.727,6.342l-0.601-1.854
						C60.083,64.948,62.785,62.951,64.687,60.333z"/>
					<path fill="#5597F3" d="M63.774,51.219h1.947c0,2.979-0.965,5.741-2.597,7.979l-1.575-1.144
						C62.95,56.135,63.774,53.774,63.774,51.219z"/>
					<path fill="#FFFFFF" d="M65.722,51.219h-1.947c0-6.422-5.211-11.633-11.63-11.633v-1.948
						C59.637,37.638,65.722,43.723,65.722,51.219z"/>
					<path fill="#547BC2" d="M64.729,89.947v0.004c-3.962,1.288-8.191,1.982-12.585,1.982v-5.825c3.766,0,7.391-0.597,10.784-1.698
						L64.729,89.947z"/>
					<path fill="#FFC32A" d="M63.125,59.199l1.562,1.134c-1.901,2.618-4.604,4.615-7.748,5.636l-0.597-1.835
						C59.093,63.239,61.458,61.491,63.125,59.199z"/>
					<path fill="#5597F3" d="M61.845,51.219h1.93c0,2.555-0.824,4.916-2.225,6.836l-1.559-1.134
						C61.16,55.322,61.845,53.353,61.845,51.219z"/>
					<path fill="#D4DC59" d="M63.774,51.219h-1.93c0-5.369-4.334-9.703-9.7-9.703v-1.93C58.563,39.586,63.774,44.797,63.774,51.219z
						"/>
					<path fill="#FFC32A" d="M61.55,58.055l1.575,1.144c-1.667,2.292-4.032,4.04-6.783,4.935l-0.607-1.854
						C58.093,61.515,60.121,60.017,61.55,58.055z"/>
					<path fill="#5597F3" d="M61.732,80.721l0.6,1.856c-3.207,1.042-6.632,1.604-10.188,1.604V82.23
						C55.493,82.23,58.714,81.701,61.732,80.721z"/>
					<path fill="#393D45" d="M59.896,51.219h1.948c0,2.134-0.685,4.103-1.854,5.702l-1.572-1.144
						C59.35,54.5,59.896,52.924,59.896,51.219z"/>
					<path fill="#393D45" d="M61.845,51.219h-1.948c0-4.295-3.46-7.755-7.752-7.755v-1.948
						C57.511,41.516,61.845,45.85,61.845,51.219z"/>
					<path fill="#5597F3" d="M61.136,78.889l0.597,1.832c-3.019,0.979-6.239,1.509-9.588,1.509v-1.926
						C55.286,80.304,58.307,79.809,61.136,78.889z"/>
					<path fill="#D4DC59" d="M59.991,56.921l1.559,1.134c-1.429,1.962-3.457,3.46-5.815,4.225l-0.593-1.835
						C57.114,59.81,58.806,58.56,59.991,56.921z"/>
					<path fill="#5597F3" d="M60.535,77.037l0.601,1.853c-2.829,0.92-5.85,1.415-8.991,1.415v-1.948
						C55.075,78.356,57.893,77.893,60.535,77.037z"/>
					<path fill="#547BC2" d="M58.738,71.509l1.797,5.527c-2.643,0.856-5.46,1.319-8.391,1.319v-1.93v-1.948v-1.93
						C54.447,72.548,56.661,72.183,58.738,71.509z"/>
					<path fill="#393D45" d="M58.419,55.778l1.572,1.144c-1.186,1.639-2.877,2.889-4.85,3.523l-0.6-1.85
						C56.117,58.086,57.469,57.09,58.419,55.778z"/>
					<path fill="#393D45" d="M57.967,51.219h1.93c0,1.705-0.547,3.281-1.478,4.559l-1.564-1.137
						C57.553,53.682,57.967,52.5,57.967,51.219z"/>
					<path fill="#393D45" d="M59.896,51.219h-1.93c0-3.222-2.604-5.826-5.822-5.826v-1.93
						C56.437,43.464,59.896,46.924,59.896,51.219z"/>
					<path fill="#547BC2" d="M58.135,69.657l0.604,1.853c-2.077,0.674-4.291,1.039-6.594,1.039v-1.947
						C54.236,70.601,56.247,70.271,58.135,69.657z"/>
					<path fill="#393D45" d="M56.854,54.641l1.564,1.137c-0.95,1.312-2.302,2.309-3.877,2.817l-0.597-1.839
						C55.128,56.375,56.142,55.624,56.854,54.641z"/>
					<path fill="#547BC2" d="M57.539,67.822l0.596,1.835c-1.888,0.614-3.898,0.944-5.99,0.944v-1.927
						C54.025,68.674,55.84,68.375,57.539,67.822z"/>
					<path fill="#393D45" d="M57.967,51.219H56.02c0-2.148-1.73-3.878-3.875-3.878v-1.948
						C55.363,45.394,57.967,47.998,57.967,51.219z"/>
					<path fill="#393D45" d="M56.02,51.219h1.947c0,1.28-0.414,2.463-1.112,3.422l-1.576-1.145
						C55.745,52.858,56.02,52.072,56.02,51.219z"/>
					<path fill="#547BC2" d="M56.938,65.968l0.601,1.854c-1.699,0.554-3.514,0.853-5.395,0.853v-1.951
						C53.818,66.723,55.43,66.459,56.938,65.968z"/>
					<path fill="#5597F3" d="M56.342,64.133l0.597,1.835c-1.509,0.491-3.12,0.755-4.794,0.755v-1.927
						C53.608,64.796,55.019,64.565,56.342,64.133z"/>
					<path fill="#393D45" d="M55.278,53.497l1.576,1.145c-0.713,0.982-1.727,1.733-2.909,2.115l-0.604-1.853
						C54.131,54.651,54.805,54.153,55.278,53.497z"/>
					<path fill="#5597F3" d="M55.734,62.28l0.607,1.854c-1.323,0.432-2.733,0.663-4.197,0.663v-1.947
						C53.397,62.849,54.608,62.649,55.734,62.28z"/>
					<path fill="#393D45" d="M52.145,51.219h3.875c0,0.853-0.274,1.639-0.741,2.277L52.145,51.219z"/>
					<path fill="#393D45" d="M56.02,51.219h-3.875v-3.878C54.289,47.341,56.02,49.071,56.02,51.219z"/>
					<path fill="#5597F3" d="M55.142,60.445l0.593,1.835c-1.126,0.369-2.337,0.569-3.59,0.569v-1.931
						C53.19,60.918,54.198,60.753,55.142,60.445z"/>
					<path fill="#393D45" d="M52.145,51.219l3.134,2.277c-0.474,0.656-1.147,1.154-1.937,1.407L52.145,51.219z"/>
					<path fill="#5597F3" d="M54.542,58.595l0.6,1.85c-0.943,0.309-1.951,0.474-2.997,0.474v-1.947
						C52.98,58.971,53.787,58.841,54.542,58.595z"/>
					<path fill="#5597F3" d="M53.945,56.756l0.597,1.839c-0.755,0.246-1.562,0.376-2.397,0.376v-1.931
						C52.773,57.041,53.38,56.943,53.945,56.756z"/>
					<path fill="#393D45" d="M53.342,54.904l0.604,1.853c-0.565,0.187-1.172,0.284-1.801,0.284v-1.947
						C52.562,55.093,52.966,55.027,53.342,54.904z"/>
					<path fill="#393D45" d="M52.145,51.219l1.197,3.685c-0.376,0.123-0.779,0.189-1.197,0.189V51.219z"/>
					<path fill="#547BC2" d="M52.145,84.181v1.927c-19.287,0-34.892-15.605-34.892-34.889h1.927h1.951
						c0,17.136,13.875,31.011,31.014,31.011V84.181z"/>
					<path fill="#FF9D33" d="M52.145,80.304v1.926c-17.139,0-31.014-13.875-31.014-31.011h1.926
						C23.057,67.302,36.059,80.304,52.145,80.304z"/>
					<path fill="#DF5579" d="M52.145,76.426v1.93c-15.012,0-27.14-12.128-27.14-27.137h1.93
						C26.935,65.155,38.206,76.426,52.145,76.426z"/>
					<path fill="#DF5579" d="M52.145,74.478v1.948c-13.938,0-25.21-11.271-25.21-25.207h1.948
						C28.882,64.081,39.28,74.478,52.145,74.478z"/>
					<path fill="#5597F3" d="M52.145,72.548v1.93c-12.865,0-23.262-10.397-23.262-23.259h1.93
						C30.812,63.006,40.354,72.548,52.145,72.548z"/>
					<path fill="#D4DC59" d="M52.145,68.674v1.927c-10.717,0-19.385-8.668-19.385-19.382h1.927h1.951
						c0,8.566,6.938,15.504,15.507,15.504V68.674z"/>
					<path fill="#FF9D33" d="M52.145,64.796v1.927c-8.569,0-15.507-6.938-15.507-15.504h1.926h1.948
						c0,6.418,5.211,11.63,11.633,11.63V64.796z"/>
					<path fill="#DF5579" d="M52.145,60.918v1.931c-6.421,0-11.633-5.212-11.633-11.63h1.93
						C42.442,56.584,46.776,60.918,52.145,60.918z"/>
					<path fill="#FFFFFF" d="M52.145,58.971v1.947c-5.369,0-9.703-4.334-9.703-9.699h1.948C44.39,55.511,47.85,58.971,52.145,58.971
						z"/>
					<path fill="#393D45" d="M52.145,57.041v1.931c-4.295,0-7.755-3.46-7.755-7.752h1.93C46.319,54.437,48.923,57.041,52.145,57.041
						z"/>
					<path fill="#393D45" d="M52.145,55.093v1.947c-3.221,0-5.825-2.604-5.825-5.821h1.948
						C48.267,53.363,49.997,55.093,52.145,55.093z"/>
					<path fill="#393D45" d="M52.145,51.219v3.874c-2.147,0-3.877-1.73-3.877-3.874H52.145z"/>
					<path fill="#393D45" d="M52.145,47.341v3.878l-1.2-3.692C51.324,47.408,51.724,47.341,52.145,47.341z"/>
					<path fill="#5597F3" d="M52.145,45.394v1.948c-0.421,0-0.821,0.067-1.2,0.186l-0.6-1.849v-0.004
						C50.91,45.492,51.517,45.394,52.145,45.394z"/>
					<path fill="#5597F3" d="M52.145,43.464v1.93c-0.628,0-1.235,0.099-1.8,0.281l-0.597-1.835
						C50.502,43.597,51.306,43.464,52.145,43.464z"/>
					<path fill="#5597F3" d="M52.145,41.516v1.948c-0.838,0-1.642,0.133-2.396,0.375l-0.604-1.85
						C50.088,41.681,51.096,41.516,52.145,41.516z"/>
					<path fill="#5597F3" d="M52.145,39.586v1.93c-1.049,0-2.056,0.165-3,0.474l-0.597-1.835
						C49.681,39.786,50.889,39.586,52.145,39.586z"/>
					<path fill="#5597F3" d="M52.145,37.638v1.948c-1.256,0-2.463,0.2-3.597,0.568l-0.6-1.853
						C49.271,37.87,50.682,37.638,52.145,37.638z"/>
					<path fill="#5597F3" d="M52.145,35.712v1.926c-1.463,0-2.874,0.232-4.197,0.664l-0.597-1.835
						C48.86,35.975,50.471,35.712,52.145,35.712z"/>
					<path fill="#DF4B43" d="M52.145,31.834v3.878c-1.673,0-3.284,0.263-4.793,0.754l-0.604-1.853l-0.597-1.835
						C48.039,32.164,50.053,31.834,52.145,31.834z"/>
					<path fill="#DF4B43" d="M52.145,29.886v1.948c-2.091,0-4.105,0.33-5.994,0.944l-0.604-1.853
						C47.625,30.251,49.843,29.886,52.145,29.886z"/>
					<path fill="#DF4B43" d="M52.145,27.957v1.93c-2.302,0-4.52,0.365-6.597,1.039l-0.597-1.835
						C47.214,28.353,49.632,27.957,52.145,27.957z"/>
					<path fill="#5597F3" d="M52.145,26.009v1.948c-2.512,0-4.93,0.396-7.194,1.133l-0.6-1.853
						C46.804,26.437,49.425,26.009,52.145,26.009z"/>
					<path fill="#5597F3" d="M52.145,24.079v1.93c-2.719,0-5.341,0.428-7.793,1.228l-0.597-1.839
						C46.397,24.542,49.215,24.079,52.145,24.079z"/>
					<path fill="#547BC2" d="M52.145,22.131v1.948c-2.93,0-5.748,0.463-8.39,1.319l-1.2-3.681c3.018-0.982,6.243-1.512,9.59-1.512
						V22.131z"/>
					<path fill="#547BC2" d="M52.145,18.253v1.951c-3.348,0-6.572,0.53-9.59,1.512l-0.6-1.856
						C45.165,18.815,48.586,18.253,52.145,18.253z"/>
					<path fill="#FF9D33" d="M52.145,16.327v1.927c-3.558,0-6.979,0.562-10.19,1.607h-0.003l-1.197-3.685
						c3.586-1.168,7.415-1.797,11.391-1.797V16.327z"/>
					<path fill="#FF9D33" d="M52.145,10.501v3.877c-3.976,0-7.804,0.628-11.391,1.797l-1.197-3.685l-0.003-0.007
						C43.519,11.196,47.748,10.501,52.145,10.501z"/>
					<path fill="#393D45" d="M50.945,47.527l1.2,3.692l-2.281-3.141C50.19,47.843,50.552,47.657,50.945,47.527z"/>
					<path fill="#393D45" d="M49.864,48.078l2.281,3.141l-3.141-2.281C49.246,48.608,49.534,48.32,49.864,48.078z"/>
					<path fill="#393D45" d="M52.145,51.219h-3.877c0-0.421,0.067-0.821,0.186-1.2L52.145,51.219z"/>
					<path fill="#393D45" d="M52.145,51.219l-3.691-1.2c0.13-0.393,0.316-0.754,0.551-1.081L52.145,51.219z"/>
					<path fill="#5597F3" d="M50.345,45.678l0.6,1.849c-0.393,0.13-0.754,0.316-1.081,0.551l-1.144-1.575
						C49.208,46.148,49.755,45.868,50.345,45.678z"/>
					<path fill="#5597F3" d="M50.345,45.674v0.004c-0.59,0.189-1.137,0.47-1.625,0.825l-1.137-1.562
						c0.649-0.474,1.379-0.849,2.165-1.102L50.345,45.674z"/>
					<path fill="#D4DC59" d="M48.72,46.503l1.144,1.575c-0.33,0.242-0.618,0.53-0.86,0.86l-1.576-1.144
						C47.79,47.299,48.225,46.864,48.72,46.503z"/>
					<path fill="#FFFFFF" d="M49.145,41.99l0.604,1.85c-0.786,0.252-1.516,0.628-2.165,1.102l-1.141-1.572
						C47.256,42.772,48.166,42.306,49.145,41.99z"/>
					<path fill="#FFFFFF" d="M48.548,40.154l0.597,1.835c-0.979,0.316-1.888,0.783-2.702,1.379l-1.133-1.558
						C46.285,41.095,47.376,40.534,48.548,40.154z"/>
					<path fill="#393D45" d="M47.428,47.794l1.576,1.144c-0.235,0.327-0.421,0.688-0.551,1.081l-1.849-0.6
						C46.793,48.829,47.074,48.282,47.428,47.794z"/>
					<path fill="#D4DC59" d="M47.583,44.941l1.137,1.562c-0.495,0.361-0.93,0.796-1.292,1.291l-1.562-1.137
						C46.344,45.998,46.923,45.418,47.583,44.941z"/>
					<path fill="#FFFFFF" d="M47.948,38.302l0.6,1.853c-1.172,0.379-2.263,0.94-3.239,1.657l-1.148-1.58
						C45.302,39.403,46.579,38.744,47.948,38.302z"/>
					<path fill="#393D45" d="M46.604,49.419l1.849,0.6c-0.119,0.379-0.186,0.779-0.186,1.2h-1.948c0-0.628,0.099-1.235,0.281-1.8
						H46.604z"/>
					<path fill="#FFFFFF" d="M47.351,36.466l0.597,1.835c-1.369,0.442-2.646,1.102-3.787,1.93l-1.133-1.562
						C44.33,37.723,45.786,36.972,47.351,36.466z"/>
					<path fill="#D4DC59" d="M46.442,43.369l1.141,1.572c-0.66,0.478-1.239,1.057-1.716,1.716l-1.572-1.141
						C44.888,44.688,45.614,43.962,46.442,43.369z"/>
					<path fill="#393D45" d="M45.867,46.657l1.562,1.137c-0.354,0.488-0.635,1.035-0.824,1.625H46.6l-1.835-0.597
						C45.018,48.036,45.393,47.306,45.867,46.657z"/>
					<path fill="#5597F3" d="M46.748,34.613l0.604,1.853c-1.565,0.505-3.021,1.256-4.323,2.204l-1.144-1.576
						C43.347,36.028,44.986,35.182,46.748,34.613z"/>
					<path fill="#5597F3" d="M46.151,32.778l0.597,1.835c-1.762,0.568-3.4,1.415-4.864,2.481l-1.137-1.562
						C42.375,34.347,44.193,33.41,46.151,32.778z"/>
					<path fill="#393D45" d="M44.765,48.822l1.835,0.597c-0.182,0.565-0.281,1.172-0.281,1.8h-1.93
						C44.39,50.38,44.523,49.577,44.765,48.822z"/>
					<path fill="#5597F3" d="M45.309,41.811l1.133,1.558c-0.828,0.593-1.555,1.319-2.147,2.147l-1.558-1.133
						C43.453,43.397,44.323,42.527,45.309,41.811z"/>
					<path fill="#DF4B43" d="M45.547,30.925l0.604,1.853c-1.958,0.632-3.776,1.569-5.404,2.755l-1.144-1.576
						C41.393,32.655,43.396,31.624,45.547,30.925z"/>
					<path fill="#393D45" d="M44.295,45.517l1.572,1.141c-0.474,0.649-0.849,1.379-1.102,2.165l-1.85-0.604
						C43.231,47.24,43.698,46.331,44.295,45.517z"/>
					<path fill="#5597F3" d="M44.951,29.09l0.597,1.835c-2.151,0.698-4.155,1.73-5.944,3.032l-1.137-1.562
						C40.42,30.971,42.603,29.848,44.951,29.09z"/>
					<path fill="#5597F3" d="M44.161,40.231l1.148,1.58c-0.986,0.716-1.856,1.586-2.572,2.572l-1.58-1.148
						C41.996,42.084,43.01,41.07,44.161,40.231z"/>
					<path fill="#DF4B43" d="M44.351,27.237l0.6,1.853c-2.348,0.758-4.53,1.881-6.485,3.306l-1.144-1.576
						C39.438,29.276,41.803,28.058,44.351,27.237z"/>
					<path fill="#5597F3" d="M42.916,48.219l1.85,0.604c-0.242,0.754-0.375,1.558-0.375,2.397h-1.948
						C42.442,50.17,42.607,49.163,42.916,48.219z"/>
					<path fill="#DF4B43" d="M43.754,25.398l0.597,1.839c-2.548,0.821-4.913,2.039-7.029,3.583l-1.137-1.565
						C38.466,27.595,41.014,26.282,43.754,25.398z"/>
					<path fill="#5597F3" d="M42.737,44.383l1.558,1.133c-0.597,0.814-1.063,1.723-1.379,2.702l-1.835-0.597
						C41.459,46.45,42.021,45.359,42.737,44.383z"/>
					<path fill="#DF4B43" d="M43.028,38.67l1.133,1.562c-1.151,0.839-2.165,1.853-3.004,3.004l-1.562-1.133
						C40.554,40.786,41.712,39.628,43.028,38.67z"/>
					<path fill="#DF4B43" d="M42.554,21.717l1.2,3.681c-2.741,0.884-5.289,2.197-7.569,3.857l-2.274-3.13
						C36.515,24.229,39.424,22.731,42.554,21.717z"/>
					<path fill="#DF4B43" d="M41.884,37.094l1.144,1.576c-1.316,0.958-2.474,2.116-3.432,3.432l-1.576-1.144
						C39.098,39.477,40.403,38.172,41.884,37.094z"/>
					<path fill="#5597F3" d="M41.08,47.622l1.835,0.597c-0.309,0.944-0.474,1.951-0.474,3h-1.93
						C40.512,49.963,40.712,48.756,41.08,47.622z"/>
					<path fill="#FFC32A" d="M41.157,43.235l1.58,1.148c-0.716,0.976-1.278,2.067-1.657,3.239l-1.853-0.6
						C39.669,45.653,40.329,44.376,41.157,43.235z"/>
					<path fill="#5597F3" d="M41.954,19.86l0.6,1.856c-3.13,1.014-6.04,2.513-8.644,4.408l-1.144-1.576
						c2.766-2.018,5.861-3.611,9.184-4.688H41.954z"/>
					<path fill="#547BC2" d="M40.754,16.176l1.197,3.685c-3.323,1.078-6.418,2.671-9.184,4.688l-2.281-3.141
						C33.578,19.159,37.038,17.376,40.754,16.176z"/>
					<path fill="#DF4B43" d="M40.747,35.533l1.137,1.562c-1.481,1.078-2.786,2.383-3.864,3.864l-1.562-1.137
						C37.652,38.175,39.101,36.726,40.747,35.533z"/>
					<path fill="#FFC32A" d="M39.596,42.102l1.562,1.133c-0.828,1.141-1.488,2.418-1.93,3.787l-1.835-0.597
						C37.897,44.86,38.648,43.404,39.596,42.102z"/>
					<path fill="#5597F3" d="M39.228,47.022l1.853,0.6c-0.368,1.134-0.568,2.341-0.568,3.597h-1.948L39.228,47.022z"/>
					<path fill="#FFFFFF" d="M39.557,12.491l1.197,3.685c-3.716,1.2-7.176,2.983-10.268,5.232c-3.127,2.274-5.878,5.025-8.152,8.152
						L19.2,27.283l-0.007-0.003c5.001-6.875,12.1-12.121,20.361-14.795L39.557,12.491z"/>
					<path fill="#DF4B43" d="M39.603,33.957l1.144,1.576c-1.646,1.193-3.095,2.643-4.289,4.289l-1.576-1.144
						C36.199,36.866,37.792,35.273,39.603,33.957z"/>
					<path fill="#FF9D33" d="M38.466,32.396l1.137,1.562c-1.811,1.316-3.404,2.909-4.72,4.72l-1.562-1.137
						C34.753,35.564,36.49,33.827,38.466,32.396z"/>
					<path fill="#FFC32A" d="M38.02,40.958l1.576,1.144c-0.947,1.302-1.698,2.758-2.204,4.323l-1.853-0.604
						C36.107,44.06,36.953,42.421,38.02,40.958z"/>
					<path fill="#5597F3" d="M39.228,47.022l-0.664,4.197C38.564,49.756,38.796,48.345,39.228,47.022z"/>
					<path fill="#5597F3" d="M37.392,46.425l1.835,0.597c-0.432,1.323-0.664,2.734-0.664,4.197h-1.926
						C36.638,49.545,36.901,47.935,37.392,46.425z"/>
					<path fill="#5597F3" d="M37.322,30.82l1.144,1.576c-1.976,1.432-3.713,3.169-5.145,5.145l-1.576-1.144
						C33.297,34.255,35.181,32.371,37.322,30.82z"/>
					<path fill="#FFC32A" d="M36.458,39.821l1.562,1.137c-1.067,1.463-1.913,3.102-2.481,4.864l-1.835-0.597
						C34.335,43.267,35.272,41.449,36.458,39.821z"/>
					<path fill="#5597F3" d="M35.539,45.822l1.853,0.604c-0.491,1.509-0.754,3.12-0.754,4.794h-1.951
						C34.687,49.334,34.985,47.521,35.539,45.822z"/>
					<path fill="#5597F3" d="M36.185,29.255l1.137,1.565c-2.141,1.551-4.025,3.436-5.576,5.576l-1.565-1.137
						C31.851,32.954,33.879,30.925,36.185,29.255z"/>
					<path fill="#5597F3" d="M34.883,38.677l1.576,1.144c-1.186,1.628-2.123,3.446-2.755,5.404l-1.853-0.604
						C32.549,42.471,33.581,40.467,34.883,38.677z"/>
					<path fill="#5597F3" d="M33.911,26.125l2.274,3.13c-2.306,1.67-4.334,3.699-6.004,6.004l-3.13-2.274
						C28.963,30.353,31.279,28.037,33.911,26.125z"/>
					<path fill="#5597F3" d="M33.704,45.225l1.835,0.597c-0.554,1.699-0.853,3.513-0.853,5.397H32.76L33.704,45.225z"/>
					<path fill="#FF9D33" d="M33.321,37.54l1.562,1.137c-1.302,1.79-2.333,3.793-3.032,5.944l-1.835-0.596
						C30.773,41.677,31.896,39.495,33.321,37.54z"/>
					<path fill="#D4DC59" d="M33.704,45.225l-0.944,5.994C32.76,49.127,33.09,47.113,33.704,45.225z"/>
					<path fill="#FFC32A" d="M31.851,44.622l1.853,0.604c-0.614,1.888-0.944,3.902-0.944,5.994h-1.948h-1.93h-1.948
						c0-2.72,0.428-5.341,1.228-7.794l1.853,0.6L31.851,44.622z"/>
					<path fill="#FF9D33" d="M31.746,36.396l1.576,1.144c-1.425,1.955-2.548,4.137-3.306,6.485l-1.853-0.6
						C28.984,40.877,30.202,38.512,31.746,36.396z"/>
					<path fill="#5597F3" d="M30.486,21.408l2.281,3.141c-2.797,2.032-5.26,4.496-7.292,7.292l-3.141-2.281
						C24.608,26.433,27.359,23.682,30.486,21.408z"/>
					<path fill="#FF9D33" d="M30.181,35.259l1.565,1.137c-1.544,2.116-2.762,4.481-3.583,7.029l-1.839-0.597
						C27.208,40.088,28.521,37.54,30.181,35.259z"/>
					<path fill="#FF9D33" d="M27.05,32.985l3.13,2.274c-1.66,2.281-2.973,4.829-3.857,7.569l-3.681-1.2
						C23.657,38.498,25.155,35.589,27.05,32.985z"/>
					<path fill="#FFC32A" d="M26.324,42.829l1.839,0.597c-0.8,2.453-1.228,5.074-1.228,7.794h-1.93
						C25.004,48.289,25.468,45.471,26.324,42.829z"/>
					<path fill="#FF9D33" d="M25.475,31.841l1.576,1.144c-1.895,2.604-3.394,5.513-4.408,8.644l-1.856-0.604
						C21.864,37.702,23.457,34.606,25.475,31.841z"/>
					<path fill="#FFC32A" d="M22.643,41.628l3.681,1.2c-0.856,2.643-1.319,5.46-1.319,8.391h-1.948H21.13
						C21.13,47.871,21.66,44.646,22.643,41.628z"/>
					<path fill="#FFC32A" d="M22.334,29.56l3.141,2.281c-2.018,2.765-3.611,5.86-4.688,9.184l-3.685-1.197
						C18.302,36.112,20.084,32.652,22.334,29.56z"/>
					<path fill="#FFC32A" d="M20.786,41.025l1.856,0.604c-0.982,3.018-1.512,6.243-1.512,9.591h-1.951
						C19.179,47.661,19.741,44.236,20.786,41.025z"/>
					<path fill="#FFC32A" d="M19.2,27.283l3.134,2.277c-2.25,3.092-4.032,6.552-5.232,10.268l-3.685-1.197l-0.007-0.003
						c1.33-4.109,3.295-7.931,5.783-11.349L19.2,27.283z"/>
					<path fill="#DF4B43" d="M17.102,39.828l3.685,1.197c-1.045,3.211-1.607,6.636-1.607,10.194h-1.927h-1.948
						C15.305,47.243,15.933,43.415,17.102,39.828z"/>
					<path fill="#FFC32A" d="M13.417,38.631l3.685,1.197c-1.168,3.586-1.797,7.415-1.797,11.391h-3.877
						c0-4.397,0.695-8.626,1.982-12.591L13.417,38.631z"/>
				</g>
				<g>
				</g>
			</g>
		</g>
	</g>
	<g>
		
			<image overflow="visible" opacity="0.75" width="147" height="147" xlink:href="29843F83882AEA64.png"  transform="matrix(0.24 0 0 0.24 45.1445 23.9556)">
		</image>
		<g>
			<path fill="#DF5579" d="M75.404,51.218h-7.757c0-8.569-6.937-15.508-15.503-15.508v-7.755
				C65.006,27.956,75.404,38.353,75.404,51.218z"/>
		</g>
	</g>
	<g>
		
			<image overflow="visible" opacity="0.75" width="140" height="168" xlink:href="29843F83882AEA65.png"  transform="matrix(0.24 0 0 0.24 9.1787 31.0234)">
		</image>
		<g>
			<path fill="#5597F3" d="M22.643,41.627c-0.982,3.018-1.513,6.243-1.513,9.591h-1.951c0-3.558,0.562-6.983,1.607-10.195
				L22.643,41.627z"/>
		</g>
	</g>
	<g>
		
			<image overflow="visible" opacity="0.75" width="231" height="301" xlink:href="29843F83882AEA63.png"  transform="matrix(0.24 0 0 0.24 16.9341 22.394)">
		</image>
		<g>
			<path fill="#5597F3" d="M30.812,51.218h3.874c0-1.885,0.299-3.7,0.854-5.397c0.568-1.762,1.414-3.401,2.481-4.864l-1.562-1.137
				c-1.186,1.628-2.123,3.446-2.754,5.404l-1.853-0.604c0.698-2.152,1.73-4.155,3.032-5.945c1.316-1.811,2.91-3.404,4.72-4.72
				l-1.137-1.562c-1.976,1.432-3.712,3.169-5.145,5.145c-1.424,1.955-2.547,4.138-3.306,6.486l-1.853-0.6
				c-0.8,2.453-1.228,5.074-1.228,7.794h1.948c0,12.86,10.397,23.259,23.263,23.259v-1.93
				C40.354,72.547,30.812,63.006,30.812,51.218z"/>
		</g>
	</g>
	<g>
		
			<image overflow="visible" opacity="0.75" width="131" height="158" xlink:href="29843F83882AEA6C.png"  transform="matrix(0.24 0 0 0.24 16.9341 33.4243)">
		</image>
		<g>
			<path fill="#5597F3" d="M28.162,43.424c-0.8,2.453-1.228,5.074-1.228,7.794"/>
		</g>
	</g>
	<g>
		
			<image overflow="visible" opacity="0.75" width="131" height="131" xlink:href="29843F83882AEA6F.png"  transform="matrix(0.24 0 0 0.24 25.7598 46.2183)">
		</image>
		<g>
			<path fill="#D4DC59" d="M52.145,66.721v3.878c-10.717,0-19.385-8.667-19.385-19.381h3.877
				C36.637,59.784,43.575,66.721,52.145,66.721z"/>
		</g>
	</g>
</g>
</svg>
