<?xml version="1.0" encoding="utf-8"?>
<!-- Generator: Adobe Illustrator 16.0.4, SVG Export Plug-In . SVG Version: 6.00 Build 0)  -->
<!DOCTYPE svg PUBLIC "-//W3C//DTD SVG 1.1//EN" "http://www.w3.org/Graphics/SVG/1.1/DTD/svg11.dtd">
<svg version="1.1" id="Layer_1" xmlns="http://www.w3.org/2000/svg" xmlns:xlink="http://www.w3.org/1999/xlink" x="0px" y="0px"
	 width="102.976px" height="102.976px" viewBox="0 0 102.976 102.976" enable-background="new 0 0 102.976 102.976"
	 xml:space="preserve">
<rect fill="#E13F2B" width="102.976" height="102.976"/>
<path opacity="0.3" fill="#442F37" d="M70.57,32.003c5.442,0,8.165,1.47,8.165,4.406c0,1.021-0.089,2.069-0.268,3.146L64.378,78.22
	L49.303,37.758c-0.18-0.838-0.33-1.589-0.448-2.248c-0.121-0.659-0.18-1.258-0.18-1.799c0-1.139,1.016-1.708,3.051-1.708h4.127
	v-2.691H31.624v2.691c3.469,0,6.071,1.919,7.807,5.752l20.551,51.769l3.051,0.63l21.537-53.388c1.077-3.174,2.661-4.764,4.756-4.764
	h2.782v-2.691H70.57V32.003z"/>
<g>
	<path fill="#FFFFFF" d="M48.741,83.987l-20.55-51.769c-1.736-3.833-4.339-5.752-7.808-5.752v-2.692h24.229v2.692h-4.129
		c-2.033,0-3.051,0.569-3.051,1.708c0,0.541,0.06,1.141,0.181,1.8c0.119,0.659,0.268,1.409,0.448,2.247l15.076,40.461l14.089-38.663
		c0.179-1.079,0.269-2.127,0.269-3.146c0-2.936-2.723-4.406-8.165-4.406v-2.692h21.536v2.692h-2.782
		c-2.095,0-3.68,1.589-4.756,4.763L51.792,84.617L48.741,83.987z"/>
</g>
<path fill="#442F37" d="M58.421,25.64c5.443,0,8.166,1.47,8.166,4.406c0,1.021-0.089,2.069-0.269,3.146L52.229,71.857L37.153,31.395
	c-0.18-0.838-0.329-1.589-0.448-2.248c-0.121-0.659-0.18-1.258-0.18-1.799c0-1.139,1.017-1.708,3.051-1.708h4.127v-2.691H19.475
	v2.691c3.47,0,6.072,1.919,7.808,5.752l20.551,51.769l3.051,0.63l21.537-53.387c1.076-3.175,2.661-4.764,4.755-4.764h2.783v-2.691
	H58.421V25.64z"/>
</svg>
