<?xml version="1.0" encoding="utf-8"?>
<!-- Generator: Adobe Illustrator 16.0.4, SVG Export Plug-In . SVG Version: 6.00 Build 0)  -->
<!DOCTYPE svg PUBLIC "-//W3C//DTD SVG 1.1//EN" "http://www.w3.org/Graphics/SVG/1.1/DTD/svg11.dtd">
<svg version="1.1" id="Layer_1" xmlns="http://www.w3.org/2000/svg" xmlns:xlink="http://www.w3.org/1999/xlink" x="0px" y="0px"
	 width="102.977px" height="102.977px" viewBox="0 0 102.977 102.977" enable-background="new 0 0 102.977 102.977"
	 xml:space="preserve">
<rect fill="#E13F2B" width="102.977" height="102.977"/>
<g>
	<g>
		<path fill-rule="evenodd" clip-rule="evenodd" fill="#171717" d="M91.62,61.932c-3.287,0.494-6.688,0.987-10.207,1.482
			c-5.349,0.724-10.946,1.45-16.787,2.172c-2.821,0.338-4.402,0.337-4.899,0.002c-1.357-1.201-2.038-2.407-2.069-3.612
			c0.014-0.05-0.038-0.09-0.058-0.135c0.194-0.039,0.39-0.078,0.585-0.116c0.682-0.047,1.535-0.133,2.014-0.133
			c10.206,0.005,20.381,0.018,30.526,0.041c0.55,0.001,0.833,0.11,1.246,0.17C91.854,61.846,91.736,61.889,91.62,61.932z"/>
		<path fill-rule="evenodd" clip-rule="evenodd" fill="#171717" d="M28.514,68.733c9.821-0.977,19.176-1.951,28.14-2.934
			c0.141,0.132,0.26,0.253,0.417,0.369c0.603,0.41,2.922,0.433,6.292-0.012c2.045-0.274,2.662-0.233,3.12-0.009
			c1.841,0.81,4.163,1.59,6.726,2.381c0.254,0.073,0.475,0.153,0.938,0.302c-15.64,0-30.816,0-45.994,0
			C28.274,68.799,28.394,68.766,28.514,68.733z"/>
		<path fill-rule="evenodd" clip-rule="evenodd" fill="#171717" d="M56.514,65.599c-9.165,1.004-18.431,1.97-28.634,2.983
			c9.546-2.189,18.757-4.302,28.3-6.49C55.722,63.266,55.827,64.411,56.514,65.599z"/>
		<path fill-rule="evenodd" clip-rule="evenodd" fill="#171717" d="M91.14,62.238c-5.147,2.146-10.106,4.215-15.349,6.401
			c-3.399-1.012-6.149-1.971-8.527-2.971C75.771,64.525,83.554,63.408,91.14,62.238z"/>
	</g>
</g>
<g>
	<path fill-rule="evenodd" clip-rule="evenodd" fill="#FFFFFF" d="M74.312,36.378c-2.835,2.214-5.67,4.425-8.504,6.64
		c-4.144,3.235-8.279,6.481-12.434,9.703c-1.947,1.509-3.745,1.505-5.632,0.019C40.98,47.413,34.226,42.077,27.465,36.75
		c-0.28-0.221-0.592-0.397-0.89-0.596c0.038-0.172,0.075-0.344,0.112-0.517c0.677-0.207,1.353-0.595,2.03-0.596
		c14.437-0.034,28.874-0.036,43.31,0.012c0.78,0.002,1.559,0.487,2.338,0.746C74.348,35.993,74.33,36.187,74.312,36.378z"/>
	<path fill-rule="evenodd" clip-rule="evenodd" fill="#FFFFFF" d="M27.427,66.73c5.868-4.335,11.737-8.671,17.657-13.045
		c0.698,0.587,1.318,1.123,1.955,1.638c2.253,1.824,4.887,1.921,7.013-0.059c1.314-1.224,2.158-1.046,3.468-0.044
		c4.702,3.6,9.503,7.072,14.265,10.597c0.443,0.329,0.867,0.687,1.697,1.347c-15.64,0-30.816,0-45.993,0
		C27.467,67.02,27.446,66.875,27.427,66.73z"/>
	<path fill-rule="evenodd" clip-rule="evenodd" fill="#FFFFFF" d="M44.09,52.793c-6.057,4.473-11.871,8.766-17.964,13.266
		c0-9.711,0-19.08,0-28.787C32.13,42.459,38,47.53,44.09,52.793z"/>
	<path fill-rule="evenodd" clip-rule="evenodd" fill="#FFFFFF" d="M74.666,37.744c0,9.58,0,18.809,0,28.565
		c-6.125-4.511-11.922-8.779-17.955-13.225C62.686,47.979,68.533,42.983,74.666,37.744z"/>
</g>
</svg>
